<svg width="133" height="56" viewBox="0 0 133 56" fill="none" xmlns="http://www.w3.org/2000/svg">
<path d="M0.292837 47.9145C-0.09769 48.305 -0.0976896 48.9381 0.292837 49.3287L6.6568 55.6926C7.04732 56.0832 7.68049 56.0832 8.07101 55.6926C8.46153 55.3021 8.46153 54.6689 8.07101 54.2784L2.41415 48.6216L8.07101 42.9647C8.46154 42.5742 8.46154 41.941 8.07101 41.5505C7.68049 41.16 7.04732 41.16 6.6568 41.5505L0.292837 47.9145ZM131.639 20.6114L132.176 19.7677C109.768 5.50808 93.2051 0.0410134 80.1989 0.000894438C67.1372 -0.0393991 57.8115 5.39283 49.9105 12.5537C45.9727 16.1225 42.3749 20.1331 38.8506 24.1032C35.3141 28.0869 31.8557 32.0248 28.1506 35.5221C20.7632 42.495 12.4935 47.6216 0.999943 47.6216L0.999943 48.6216L0.999943 49.6216C13.1974 49.6216 21.9346 44.1396 29.5234 36.9765C33.3064 33.4058 36.8283 29.3938 40.3463 25.4309C43.8764 21.4544 47.4072 17.5216 51.2536 14.0356C58.9209 7.08657 67.7867 1.96262 80.1928 2.00088C92.6545 2.03933 108.836 7.28557 131.102 21.4551L131.639 20.6114Z" fill="#867F72"/>
</svg>
