<svg width="747" height="511" viewBox="0 0 747 511" fill="none" xmlns="http://www.w3.org/2000/svg">

<g id="MAI Website">


<g id="Frame 2147265621">
<g id="Frame 2147265584">
<g id="Frame 2147265582">
<g id="Comment cursor">
<g id="Cursor">
<g id="Cursor_2" filter="url(#filter0_d_0_1)">
<path d="M8.75418 80.0002L5.62291 64.0411L20 71.9184L12.9181 73.973L8.75418 80.0002Z" fill="black"/>
<path d="M8.75418 80.0002L5.62291 64.0411L20 71.9184L12.9181 73.973L8.75418 80.0002Z" stroke="white"/>
</g>
</g>
<g id="Comment" filter="url(#filter1_d_0_1)">
<path d="M18 82C18 80.8954 18.8954 80 20 80H175C186.046 80 195 88.9543 195 100C195 111.046 186.046 120 175 120H42C28.7452 120 18 109.255 18 96V82Z" fill="#D590B8" shape-rendering="crispEdges"/>
<path id="Product Managers" opacity="0.8" d="M35.2784 106V94.3636H39.4261C40.3314 94.3636 41.0814 94.5284 41.6761 94.858C42.2708 95.1875 42.7159 95.6383 43.0114 96.2102C43.3068 96.7784 43.4545 97.4186 43.4545 98.1307C43.4545 98.8466 43.3049 99.4905 43.0057 100.062C42.7102 100.631 42.2633 101.081 41.6648 101.415C41.0701 101.744 40.322 101.909 39.4205 101.909H36.5682V100.42H39.2614C39.8333 100.42 40.2973 100.322 40.6534 100.125C41.0095 99.9242 41.2708 99.6515 41.4375 99.3068C41.6042 98.9621 41.6875 98.5701 41.6875 98.1307C41.6875 97.6913 41.6042 97.3011 41.4375 96.9602C41.2708 96.6193 41.0076 96.3523 40.6477 96.1591C40.2917 95.9659 39.822 95.8693 39.2386 95.8693H37.0341V106H35.2784ZM45.3764 106V97.2727H47.0185V98.6591H47.1094C47.2685 98.1894 47.5488 97.8201 47.9503 97.5511C48.3556 97.2784 48.8139 97.142 49.3253 97.142C49.4313 97.142 49.5563 97.1458 49.7003 97.1534C49.848 97.161 49.9635 97.1705 50.0469 97.1818V98.8068C49.9787 98.7879 49.8575 98.767 49.6832 98.7443C49.509 98.7178 49.3348 98.7045 49.1605 98.7045C48.759 98.7045 48.401 98.7898 48.0866 98.9602C47.776 99.1269 47.5298 99.3598 47.348 99.6591C47.1662 99.9545 47.0753 100.292 47.0753 100.67V106H45.3764ZM54.8807 106.176C54.0625 106.176 53.3485 105.989 52.7386 105.614C52.1288 105.239 51.6553 104.714 51.3182 104.04C50.9811 103.366 50.8125 102.578 50.8125 101.676C50.8125 100.771 50.9811 99.9792 51.3182 99.3011C51.6553 98.6231 52.1288 98.0966 52.7386 97.7216C53.3485 97.3466 54.0625 97.1591 54.8807 97.1591C55.6989 97.1591 56.4129 97.3466 57.0227 97.7216C57.6326 98.0966 58.1061 98.6231 58.4432 99.3011C58.7803 99.9792 58.9489 100.771 58.9489 101.676C58.9489 102.578 58.7803 103.366 58.4432 104.04C58.1061 104.714 57.6326 105.239 57.0227 105.614C56.4129 105.989 55.6989 106.176 54.8807 106.176ZM54.8864 104.75C55.4167 104.75 55.8561 104.61 56.2045 104.33C56.553 104.049 56.8106 103.676 56.9773 103.21C57.1477 102.744 57.233 102.231 57.233 101.67C57.233 101.114 57.1477 100.602 56.9773 100.136C56.8106 99.6667 56.553 99.2898 56.2045 99.0057C55.8561 98.7216 55.4167 98.5795 54.8864 98.5795C54.3523 98.5795 53.9091 98.7216 53.5568 99.0057C53.2083 99.2898 52.9489 99.6667 52.7784 100.136C52.6117 100.602 52.5284 101.114 52.5284 101.67C52.5284 102.231 52.6117 102.744 52.7784 103.21C52.9489 103.676 53.2083 104.049 53.5568 104.33C53.9091 104.61 54.3523 104.75 54.8864 104.75ZM64.1122 106.17C63.4077 106.17 62.7789 105.991 62.2259 105.631C61.6766 105.267 61.2448 104.75 60.9304 104.08C60.6198 103.405 60.4645 102.597 60.4645 101.653C60.4645 100.71 60.6217 99.9034 60.9361 99.233C61.2543 98.5625 61.6899 98.0492 62.2429 97.6932C62.7959 97.3371 63.4228 97.1591 64.1236 97.1591C64.6652 97.1591 65.1009 97.25 65.4304 97.4318C65.7637 97.6098 66.0213 97.8182 66.2031 98.0568C66.3887 98.2955 66.5327 98.5057 66.6349 98.6875H66.7372V94.3636H68.4361V106H66.777V104.642H66.6349C66.5327 104.828 66.3849 105.04 66.1918 105.278C66.0024 105.517 65.741 105.725 65.4077 105.903C65.0743 106.081 64.6425 106.17 64.1122 106.17ZM64.4872 104.722C64.9759 104.722 65.3887 104.593 65.7259 104.335C66.0668 104.074 66.3243 103.712 66.4986 103.25C66.6766 102.788 66.7656 102.25 66.7656 101.636C66.7656 101.03 66.6785 100.5 66.5043 100.045C66.33 99.5909 66.0743 99.2367 65.7372 98.983C65.4001 98.7292 64.9834 98.6023 64.4872 98.6023C63.9759 98.6023 63.5497 98.7348 63.2088 99C62.8679 99.2652 62.6103 99.6269 62.4361 100.085C62.2656 100.544 62.1804 101.061 62.1804 101.636C62.1804 102.22 62.2675 102.744 62.4418 103.21C62.616 103.676 62.8736 104.045 63.2145 104.318C63.5592 104.587 63.9834 104.722 64.4872 104.722ZM76.3892 102.381V97.2727H78.0938V106H76.4233V104.489H76.3324C76.1316 104.955 75.8097 105.343 75.3665 105.653C74.9271 105.96 74.3797 106.114 73.7244 106.114C73.1638 106.114 72.6676 105.991 72.2358 105.744C71.8078 105.494 71.4706 105.125 71.2244 104.636C70.982 104.148 70.8608 103.544 70.8608 102.824V97.2727H72.5597V102.619C72.5597 103.214 72.7244 103.687 73.054 104.04C73.3835 104.392 73.8116 104.568 74.3381 104.568C74.6563 104.568 74.9725 104.489 75.2869 104.33C75.6051 104.17 75.8684 103.93 76.0767 103.608C76.2888 103.286 76.393 102.877 76.3892 102.381ZM84.0526 106.176C83.2079 106.176 82.4806 105.985 81.8707 105.602C81.2647 105.216 80.7988 104.684 80.473 104.006C80.1473 103.328 79.9844 102.551 79.9844 101.676C79.9844 100.79 80.151 100.008 80.4844 99.3295C80.8177 98.6477 81.2874 98.1155 81.8935 97.733C82.4995 97.3504 83.2135 97.1591 84.0355 97.1591C84.6984 97.1591 85.2893 97.2822 85.8082 97.5284C86.3272 97.7708 86.7457 98.1117 87.0639 98.5511C87.3859 98.9905 87.5772 99.5038 87.6378 100.091H85.9844C85.8935 99.6818 85.6851 99.3295 85.3594 99.0341C85.0374 98.7386 84.6056 98.5909 84.0639 98.5909C83.5904 98.5909 83.1757 98.7159 82.8196 98.9659C82.4673 99.2121 82.1927 99.5644 81.9957 100.023C81.7988 100.477 81.7003 101.015 81.7003 101.636C81.7003 102.273 81.7969 102.822 81.9901 103.284C82.1832 103.746 82.456 104.104 82.8082 104.358C83.1643 104.612 83.5829 104.739 84.0639 104.739C84.3859 104.739 84.6776 104.68 84.9389 104.562C85.2041 104.441 85.4257 104.269 85.6037 104.045C85.7855 103.822 85.9124 103.553 85.9844 103.239H87.6378C87.5772 103.803 87.3935 104.307 87.0866 104.75C86.7798 105.193 86.3688 105.542 85.8537 105.795C85.3423 106.049 84.742 106.176 84.0526 106.176ZM93.5284 97.2727V98.6364H88.7614V97.2727H93.5284ZM90.0398 95.1818H91.7386V103.438C91.7386 103.767 91.7879 104.015 91.8864 104.182C91.9848 104.345 92.1117 104.456 92.267 104.517C92.4261 104.574 92.5985 104.602 92.7841 104.602C92.9205 104.602 93.0398 104.593 93.142 104.574C93.2443 104.555 93.3239 104.54 93.3807 104.528L93.6875 105.932C93.589 105.97 93.4489 106.008 93.267 106.045C93.0852 106.087 92.858 106.11 92.5852 106.114C92.1383 106.121 91.7216 106.042 91.3352 105.875C90.9489 105.708 90.6364 105.451 90.3977 105.102C90.1591 104.754 90.0398 104.316 90.0398 103.79V95.1818ZM99.7784 94.3636H101.909L105.614 103.409H105.75L109.455 94.3636H111.585V106H109.915V97.5795H109.807L106.375 105.983H104.989L101.557 97.5739H101.449V106H99.7784V94.3636ZM116.541 106.193C115.988 106.193 115.488 106.091 115.041 105.886C114.594 105.678 114.24 105.377 113.979 104.983C113.721 104.589 113.592 104.106 113.592 103.534C113.592 103.042 113.687 102.636 113.876 102.318C114.066 102 114.321 101.748 114.643 101.562C114.965 101.377 115.325 101.237 115.723 101.142C116.121 101.047 116.526 100.975 116.939 100.926C117.462 100.866 117.886 100.816 118.212 100.778C118.537 100.737 118.774 100.67 118.922 100.58C119.07 100.489 119.143 100.341 119.143 100.136V100.097C119.143 99.6004 119.003 99.2159 118.723 98.9432C118.446 98.6705 118.034 98.5341 117.484 98.5341C116.912 98.5341 116.462 98.661 116.132 98.9148C115.806 99.1648 115.581 99.4432 115.456 99.75L113.859 99.3864C114.049 98.8561 114.325 98.428 114.689 98.1023C115.056 97.7727 115.479 97.5341 115.956 97.3864C116.433 97.2348 116.935 97.1591 117.462 97.1591C117.81 97.1591 118.179 97.2008 118.57 97.2841C118.964 97.3636 119.331 97.5114 119.672 97.7273C120.017 97.9432 120.299 98.2519 120.518 98.6534C120.738 99.0511 120.848 99.5682 120.848 100.205V106H119.189V104.807H119.121C119.011 105.027 118.846 105.242 118.626 105.455C118.407 105.667 118.125 105.843 117.78 105.983C117.435 106.123 117.022 106.193 116.541 106.193ZM116.911 104.83C117.38 104.83 117.782 104.737 118.115 104.551C118.452 104.366 118.708 104.123 118.882 103.824C119.06 103.521 119.149 103.197 119.149 102.852V101.727C119.089 101.788 118.971 101.845 118.797 101.898C118.626 101.947 118.431 101.991 118.212 102.028C117.992 102.062 117.778 102.095 117.57 102.125C117.361 102.152 117.187 102.174 117.047 102.193C116.717 102.235 116.416 102.305 116.143 102.403C115.875 102.502 115.659 102.644 115.496 102.83C115.337 103.011 115.257 103.254 115.257 103.557C115.257 103.977 115.412 104.295 115.723 104.511C116.034 104.723 116.429 104.83 116.911 104.83ZM124.81 100.818V106H123.111V97.2727H124.741V98.6932H124.849C125.05 98.2311 125.365 97.8598 125.793 97.5795C126.224 97.2992 126.768 97.1591 127.423 97.1591C128.018 97.1591 128.539 97.2841 128.986 97.5341C129.433 97.7803 129.779 98.1477 130.026 98.6364C130.272 99.125 130.395 99.7292 130.395 100.449V106H128.696V100.653C128.696 100.021 128.531 99.5265 128.202 99.1705C127.872 98.8106 127.42 98.6307 126.844 98.6307C126.45 98.6307 126.099 98.7159 125.793 98.8864C125.49 99.0568 125.249 99.3068 125.071 99.6364C124.897 99.9621 124.81 100.356 124.81 100.818ZM135.213 106.193C134.66 106.193 134.16 106.091 133.713 105.886C133.266 105.678 132.912 105.377 132.651 104.983C132.393 104.589 132.264 104.106 132.264 103.534C132.264 103.042 132.359 102.636 132.548 102.318C132.738 102 132.993 101.748 133.315 101.562C133.637 101.377 133.997 101.237 134.395 101.142C134.793 101.047 135.198 100.975 135.611 100.926C136.134 100.866 136.558 100.816 136.884 100.778C137.209 100.737 137.446 100.67 137.594 100.58C137.741 100.489 137.815 100.341 137.815 100.136V100.097C137.815 99.6004 137.675 99.2159 137.395 98.9432C137.118 98.6705 136.705 98.5341 136.156 98.5341C135.584 98.5341 135.134 98.661 134.804 98.9148C134.478 99.1648 134.253 99.4432 134.128 99.75L132.531 99.3864C132.721 98.8561 132.997 98.428 133.361 98.1023C133.728 97.7727 134.151 97.5341 134.628 97.3864C135.105 97.2348 135.607 97.1591 136.134 97.1591C136.482 97.1591 136.851 97.2008 137.241 97.2841C137.635 97.3636 138.003 97.5114 138.344 97.7273C138.688 97.9432 138.971 98.2519 139.19 98.6534C139.41 99.0511 139.52 99.5682 139.52 100.205V106H137.861V104.807H137.793C137.683 105.027 137.518 105.242 137.298 105.455C137.079 105.667 136.796 105.843 136.452 105.983C136.107 106.123 135.694 106.193 135.213 106.193ZM135.582 104.83C136.052 104.83 136.454 104.737 136.787 104.551C137.124 104.366 137.38 104.123 137.554 103.824C137.732 103.521 137.821 103.197 137.821 102.852V101.727C137.76 101.788 137.643 101.845 137.469 101.898C137.298 101.947 137.103 101.991 136.884 102.028C136.664 102.062 136.45 102.095 136.241 102.125C136.033 102.152 135.859 102.174 135.719 102.193C135.389 102.235 135.088 102.305 134.815 102.403C134.546 102.502 134.33 102.644 134.168 102.83C134.009 103.011 133.929 103.254 133.929 103.557C133.929 103.977 134.084 104.295 134.395 104.511C134.705 104.723 135.101 104.83 135.582 104.83ZM145.442 109.455C144.749 109.455 144.152 109.364 143.652 109.182C143.156 109 142.75 108.759 142.436 108.46C142.122 108.161 141.887 107.833 141.732 107.477L143.192 106.875C143.294 107.042 143.43 107.218 143.601 107.403C143.775 107.593 144.01 107.754 144.305 107.886C144.605 108.019 144.989 108.085 145.459 108.085C146.103 108.085 146.635 107.928 147.055 107.614C147.476 107.303 147.686 106.807 147.686 106.125V104.409H147.578C147.476 104.595 147.328 104.801 147.135 105.028C146.946 105.256 146.684 105.453 146.351 105.619C146.018 105.786 145.584 105.869 145.05 105.869C144.36 105.869 143.739 105.708 143.186 105.386C142.637 105.061 142.201 104.581 141.879 103.949C141.561 103.312 141.402 102.53 141.402 101.602C141.402 100.674 141.559 99.8788 141.874 99.2159C142.192 98.553 142.627 98.0455 143.18 97.6932C143.733 97.3371 144.36 97.1591 145.061 97.1591C145.603 97.1591 146.04 97.25 146.374 97.4318C146.707 97.6098 146.966 97.8182 147.152 98.0568C147.341 98.2955 147.487 98.5057 147.589 98.6875H147.714V97.2727H149.379V106.193C149.379 106.943 149.205 107.559 148.857 108.04C148.508 108.521 148.036 108.877 147.442 109.108C146.851 109.339 146.184 109.455 145.442 109.455ZM145.425 104.46C145.913 104.46 146.326 104.347 146.663 104.119C147.004 103.888 147.262 103.559 147.436 103.131C147.614 102.699 147.703 102.182 147.703 101.58C147.703 100.992 147.616 100.475 147.442 100.028C147.268 99.5814 147.012 99.233 146.675 98.983C146.338 98.7292 145.921 98.6023 145.425 98.6023C144.913 98.6023 144.487 98.7348 144.146 99C143.805 99.2614 143.548 99.6174 143.374 100.068C143.203 100.519 143.118 101.023 143.118 101.58C143.118 102.152 143.205 102.653 143.379 103.085C143.554 103.517 143.811 103.854 144.152 104.097C144.497 104.339 144.921 104.46 145.425 104.46ZM155.419 106.176C154.559 106.176 153.819 105.992 153.197 105.625C152.58 105.254 152.103 104.733 151.766 104.062C151.432 103.388 151.266 102.598 151.266 101.693C151.266 100.799 151.432 100.011 151.766 99.3295C152.103 98.6477 152.572 98.1155 153.175 97.733C153.781 97.3504 154.489 97.1591 155.3 97.1591C155.792 97.1591 156.269 97.2405 156.732 97.4034C157.194 97.5663 157.608 97.822 157.976 98.1705C158.343 98.5189 158.633 98.9716 158.845 99.5284C159.057 100.081 159.163 100.754 159.163 101.545V102.148H152.226V100.875H157.499C157.499 100.428 157.408 100.032 157.226 99.6875C157.044 99.339 156.788 99.0644 156.459 98.8636C156.133 98.6629 155.75 98.5625 155.311 98.5625C154.834 98.5625 154.417 98.6799 154.061 98.9148C153.709 99.1458 153.436 99.4489 153.243 99.8239C153.054 100.195 152.959 100.598 152.959 101.034V102.028C152.959 102.612 153.061 103.108 153.266 103.517C153.474 103.926 153.764 104.239 154.135 104.455C154.506 104.667 154.94 104.773 155.436 104.773C155.758 104.773 156.052 104.727 156.317 104.636C156.582 104.542 156.811 104.402 157.004 104.216C157.197 104.03 157.345 103.801 157.447 103.528L159.055 103.818C158.927 104.292 158.696 104.706 158.362 105.062C158.033 105.415 157.618 105.689 157.118 105.886C156.622 106.08 156.055 106.176 155.419 106.176ZM161.048 106V97.2727H162.69V98.6591H162.781C162.94 98.1894 163.221 97.8201 163.622 97.5511C164.027 97.2784 164.486 97.142 164.997 97.142C165.103 97.142 165.228 97.1458 165.372 97.1534C165.52 97.161 165.635 97.1705 165.719 97.1818V98.8068C165.651 98.7879 165.529 98.767 165.355 98.7443C165.181 98.7178 165.007 98.7045 164.832 98.7045C164.431 98.7045 164.073 98.7898 163.759 98.9602C163.448 99.1269 163.202 99.3598 163.02 99.6591C162.838 99.9545 162.747 100.292 162.747 100.67V106H161.048ZM173.729 99.4034L172.189 99.6761C172.125 99.4792 172.022 99.2917 171.882 99.1136C171.746 98.9356 171.56 98.7898 171.325 98.6761C171.09 98.5625 170.797 98.5057 170.445 98.5057C169.964 98.5057 169.562 98.6136 169.24 98.8295C168.918 99.0417 168.757 99.3163 168.757 99.6534C168.757 99.9451 168.865 100.18 169.081 100.358C169.297 100.536 169.645 100.682 170.126 100.795L171.513 101.114C172.316 101.299 172.914 101.585 173.308 101.972C173.702 102.358 173.899 102.86 173.899 103.477C173.899 104 173.748 104.466 173.445 104.875C173.145 105.28 172.727 105.598 172.189 105.83C171.655 106.061 171.036 106.176 170.331 106.176C169.354 106.176 168.556 105.968 167.939 105.551C167.321 105.131 166.943 104.534 166.803 103.761L168.445 103.511C168.547 103.939 168.757 104.263 169.075 104.483C169.393 104.699 169.808 104.807 170.32 104.807C170.876 104.807 171.321 104.691 171.655 104.46C171.988 104.225 172.155 103.939 172.155 103.602C172.155 103.33 172.053 103.1 171.848 102.915C171.647 102.729 171.339 102.589 170.922 102.494L169.445 102.17C168.63 101.985 168.028 101.689 167.638 101.284C167.251 100.879 167.058 100.366 167.058 99.7443C167.058 99.2292 167.202 98.7784 167.49 98.392C167.778 98.0057 168.176 97.7045 168.683 97.4886C169.191 97.2689 169.772 97.1591 170.428 97.1591C171.371 97.1591 172.113 97.3636 172.655 97.7727C173.196 98.178 173.554 98.7216 173.729 99.4034Z" fill="white"/>
</g>
</g>
<g id="Comment cursor_2">
<g id="Cursor_3">
<g id="Cursor_4" filter="url(#filter2_d_0_1)">
<path d="M198.754 457L195.623 441.041L210 448.918L202.918 450.973L198.754 457Z" fill="black"/>
<path d="M198.754 457L195.623 441.041L210 448.918L202.918 450.973L198.754 457Z" stroke="white"/>
</g>
</g>
<g id="Comment_2" filter="url(#filter3_d_0_1)">
<path d="M208 459C208 457.895 208.895 457 210 457H302C313.046 457 322 465.954 322 477C322 488.046 313.046 497 302 497H232C218.745 497 208 486.255 208 473V459Z" fill="#949B70" shape-rendering="crispEdges"/>
<path id="Designers" d="M229.045 483H225.278V471.364H229.165C230.305 471.364 231.284 471.597 232.102 472.062C232.92 472.525 233.547 473.189 233.983 474.057C234.422 474.92 234.642 475.956 234.642 477.165C234.642 478.377 234.42 479.419 233.977 480.29C233.538 481.161 232.902 481.831 232.068 482.301C231.235 482.767 230.227 483 229.045 483ZM227.034 481.466H228.949C229.835 481.466 230.572 481.299 231.159 480.966C231.746 480.629 232.186 480.142 232.477 479.506C232.769 478.866 232.915 478.085 232.915 477.165C232.915 476.252 232.769 475.477 232.477 474.841C232.189 474.205 231.759 473.722 231.188 473.392C230.616 473.062 229.905 472.898 229.057 472.898H227.034V481.466ZM240.45 483.176C239.59 483.176 238.85 482.992 238.229 482.625C237.611 482.254 237.134 481.733 236.797 481.062C236.464 480.388 236.297 479.598 236.297 478.693C236.297 477.799 236.464 477.011 236.797 476.33C237.134 475.648 237.604 475.116 238.206 474.733C238.812 474.35 239.52 474.159 240.331 474.159C240.823 474.159 241.301 474.241 241.763 474.403C242.225 474.566 242.64 474.822 243.007 475.17C243.375 475.519 243.664 475.972 243.876 476.528C244.089 477.081 244.195 477.754 244.195 478.545V479.148H237.257V477.875H242.53C242.53 477.428 242.439 477.032 242.257 476.688C242.075 476.339 241.82 476.064 241.49 475.864C241.164 475.663 240.782 475.562 240.342 475.562C239.865 475.562 239.448 475.68 239.092 475.915C238.74 476.146 238.467 476.449 238.274 476.824C238.085 477.195 237.99 477.598 237.99 478.034V479.028C237.99 479.612 238.092 480.108 238.297 480.517C238.505 480.926 238.795 481.239 239.166 481.455C239.537 481.667 239.971 481.773 240.467 481.773C240.789 481.773 241.083 481.727 241.348 481.636C241.613 481.542 241.842 481.402 242.036 481.216C242.229 481.03 242.376 480.801 242.479 480.528L244.087 480.818C243.958 481.292 243.727 481.706 243.393 482.062C243.064 482.415 242.649 482.689 242.149 482.886C241.653 483.08 241.087 483.176 240.45 483.176ZM252.619 476.403L251.08 476.676C251.015 476.479 250.913 476.292 250.773 476.114C250.636 475.936 250.451 475.79 250.216 475.676C249.981 475.562 249.688 475.506 249.335 475.506C248.854 475.506 248.453 475.614 248.131 475.83C247.809 476.042 247.648 476.316 247.648 476.653C247.648 476.945 247.756 477.18 247.972 477.358C248.188 477.536 248.536 477.682 249.017 477.795L250.403 478.114C251.206 478.299 251.805 478.585 252.199 478.972C252.593 479.358 252.79 479.86 252.79 480.477C252.79 481 252.638 481.466 252.335 481.875C252.036 482.28 251.617 482.598 251.08 482.83C250.545 483.061 249.926 483.176 249.222 483.176C248.244 483.176 247.447 482.968 246.83 482.551C246.212 482.131 245.833 481.534 245.693 480.761L247.335 480.511C247.438 480.939 247.648 481.263 247.966 481.483C248.284 481.699 248.699 481.807 249.21 481.807C249.767 481.807 250.212 481.691 250.545 481.46C250.879 481.225 251.045 480.939 251.045 480.602C251.045 480.33 250.943 480.1 250.739 479.915C250.538 479.729 250.229 479.589 249.812 479.494L248.335 479.17C247.521 478.985 246.919 478.689 246.528 478.284C246.142 477.879 245.949 477.366 245.949 476.744C245.949 476.229 246.093 475.778 246.381 475.392C246.669 475.006 247.066 474.705 247.574 474.489C248.081 474.269 248.663 474.159 249.318 474.159C250.261 474.159 251.004 474.364 251.545 474.773C252.087 475.178 252.445 475.722 252.619 476.403ZM254.658 483V474.273H256.357V483H254.658ZM255.516 472.926C255.22 472.926 254.966 472.828 254.754 472.631C254.546 472.43 254.442 472.191 254.442 471.915C254.442 471.634 254.546 471.396 254.754 471.199C254.966 470.998 255.22 470.898 255.516 470.898C255.811 470.898 256.063 470.998 256.271 471.199C256.483 471.396 256.589 471.634 256.589 471.915C256.589 472.191 256.483 472.43 256.271 472.631C256.063 472.828 255.811 472.926 255.516 472.926ZM262.301 486.455C261.608 486.455 261.011 486.364 260.511 486.182C260.015 486 259.61 485.759 259.295 485.46C258.981 485.161 258.746 484.833 258.591 484.477L260.051 483.875C260.153 484.042 260.29 484.218 260.46 484.403C260.634 484.593 260.869 484.754 261.165 484.886C261.464 485.019 261.848 485.085 262.318 485.085C262.962 485.085 263.494 484.928 263.915 484.614C264.335 484.303 264.545 483.807 264.545 483.125V481.409H264.438C264.335 481.595 264.188 481.801 263.994 482.028C263.805 482.256 263.544 482.453 263.21 482.619C262.877 482.786 262.443 482.869 261.909 482.869C261.22 482.869 260.598 482.708 260.045 482.386C259.496 482.061 259.061 481.581 258.739 480.949C258.42 480.312 258.261 479.53 258.261 478.602C258.261 477.674 258.419 476.879 258.733 476.216C259.051 475.553 259.487 475.045 260.04 474.693C260.593 474.337 261.22 474.159 261.92 474.159C262.462 474.159 262.9 474.25 263.233 474.432C263.566 474.61 263.826 474.818 264.011 475.057C264.201 475.295 264.347 475.506 264.449 475.688H264.574V474.273H266.239V483.193C266.239 483.943 266.064 484.559 265.716 485.04C265.367 485.521 264.896 485.877 264.301 486.108C263.71 486.339 263.044 486.455 262.301 486.455ZM262.284 481.46C262.773 481.46 263.186 481.347 263.523 481.119C263.864 480.888 264.121 480.559 264.295 480.131C264.473 479.699 264.562 479.182 264.562 478.58C264.562 477.992 264.475 477.475 264.301 477.028C264.127 476.581 263.871 476.233 263.534 475.983C263.197 475.729 262.78 475.602 262.284 475.602C261.773 475.602 261.347 475.735 261.006 476C260.665 476.261 260.407 476.617 260.233 477.068C260.063 477.519 259.977 478.023 259.977 478.58C259.977 479.152 260.064 479.653 260.239 480.085C260.413 480.517 260.67 480.854 261.011 481.097C261.356 481.339 261.78 481.46 262.284 481.46ZM270.216 477.818V483H268.517V474.273H270.148V475.693H270.256C270.456 475.231 270.771 474.86 271.199 474.58C271.631 474.299 272.174 474.159 272.83 474.159C273.424 474.159 273.945 474.284 274.392 474.534C274.839 474.78 275.186 475.148 275.432 475.636C275.678 476.125 275.801 476.729 275.801 477.449V483H274.102V477.653C274.102 477.021 273.938 476.527 273.608 476.17C273.278 475.811 272.826 475.631 272.25 475.631C271.856 475.631 271.506 475.716 271.199 475.886C270.896 476.057 270.655 476.307 270.477 476.636C270.303 476.962 270.216 477.356 270.216 477.818ZM281.841 483.176C280.981 483.176 280.241 482.992 279.619 482.625C279.002 482.254 278.525 481.733 278.188 481.062C277.854 480.388 277.688 479.598 277.688 478.693C277.688 477.799 277.854 477.011 278.188 476.33C278.525 475.648 278.994 475.116 279.597 474.733C280.203 474.35 280.911 474.159 281.722 474.159C282.214 474.159 282.691 474.241 283.153 474.403C283.616 474.566 284.03 474.822 284.398 475.17C284.765 475.519 285.055 475.972 285.267 476.528C285.479 477.081 285.585 477.754 285.585 478.545V479.148H278.648V477.875H283.92C283.92 477.428 283.83 477.032 283.648 476.688C283.466 476.339 283.21 476.064 282.881 475.864C282.555 475.663 282.172 475.562 281.733 475.562C281.256 475.562 280.839 475.68 280.483 475.915C280.131 476.146 279.858 476.449 279.665 476.824C279.475 477.195 279.381 477.598 279.381 478.034V479.028C279.381 479.612 279.483 480.108 279.688 480.517C279.896 480.926 280.186 481.239 280.557 481.455C280.928 481.667 281.362 481.773 281.858 481.773C282.18 481.773 282.473 481.727 282.739 481.636C283.004 481.542 283.233 481.402 283.426 481.216C283.619 481.03 283.767 480.801 283.869 480.528L285.477 480.818C285.348 481.292 285.117 481.706 284.784 482.062C284.455 482.415 284.04 482.689 283.54 482.886C283.044 483.08 282.477 483.176 281.841 483.176ZM287.47 483V474.273H289.112V475.659H289.203C289.362 475.189 289.643 474.82 290.044 474.551C290.449 474.278 290.908 474.142 291.419 474.142C291.525 474.142 291.65 474.146 291.794 474.153C291.942 474.161 292.057 474.17 292.141 474.182V475.807C292.072 475.788 291.951 475.767 291.777 475.744C291.603 475.718 291.429 475.705 291.254 475.705C290.853 475.705 290.495 475.79 290.18 475.96C289.87 476.127 289.624 476.36 289.442 476.659C289.26 476.955 289.169 477.292 289.169 477.67V483H287.47ZM300.151 476.403L298.611 476.676C298.546 476.479 298.444 476.292 298.304 476.114C298.168 475.936 297.982 475.79 297.747 475.676C297.512 475.562 297.219 475.506 296.866 475.506C296.385 475.506 295.984 475.614 295.662 475.83C295.34 476.042 295.179 476.316 295.179 476.653C295.179 476.945 295.287 477.18 295.503 477.358C295.719 477.536 296.067 477.682 296.548 477.795L297.935 478.114C298.738 478.299 299.336 478.585 299.73 478.972C300.124 479.358 300.321 479.86 300.321 480.477C300.321 481 300.17 481.466 299.866 481.875C299.567 482.28 299.149 482.598 298.611 482.83C298.077 483.061 297.457 483.176 296.753 483.176C295.776 483.176 294.978 482.968 294.361 482.551C293.743 482.131 293.365 481.534 293.224 480.761L294.866 480.511C294.969 480.939 295.179 481.263 295.497 481.483C295.815 481.699 296.23 481.807 296.741 481.807C297.298 481.807 297.743 481.691 298.077 481.46C298.41 481.225 298.577 480.939 298.577 480.602C298.577 480.33 298.474 480.1 298.27 479.915C298.069 479.729 297.76 479.589 297.344 479.494L295.866 479.17C295.052 478.985 294.45 478.689 294.06 478.284C293.673 477.879 293.48 477.366 293.48 476.744C293.48 476.229 293.624 475.778 293.912 475.392C294.2 475.006 294.598 474.705 295.105 474.489C295.613 474.269 296.194 474.159 296.849 474.159C297.793 474.159 298.535 474.364 299.077 474.773C299.618 475.178 299.976 475.722 300.151 476.403Z" fill="white"/>
</g>
</g>
<g id="Comment cursor_3">
<g id="Cursor_5">
<g id="Cursor_6" filter="url(#filter4_d_0_1)">
<path d="M452.817 20.3638L449.663 4.11402L464.143 12.1348L457.01 14.2267L452.817 20.3638Z" fill="black"/>
<path d="M452.817 20.3638L449.663 4.11402L464.143 12.1348L457.01 14.2267L452.817 20.3638Z" stroke="white"/>
</g>
</g>
<g id="Comment_3" filter="url(#filter5_d_0_1)">
<path d="M462 22C462 20.8954 462.895 20 464 20H603C614.046 20 623 28.9543 623 40C623 51.0457 614.046 60 603 60H486C472.745 60 462 49.2548 462 36V22Z" fill="#FFE189" shape-rendering="crispEdges"/>
<path id="Web Developers" opacity="0.8" d="M481.557 46L478.33 34.3636H480.176L482.443 43.375H482.551L484.909 34.3636H486.739L489.097 43.3807H489.205L491.466 34.3636H493.318L490.085 46H488.318L485.869 37.2841H485.778L483.33 46H481.557ZM497.685 46.1761C496.825 46.1761 496.084 45.9924 495.463 45.625C494.846 45.2538 494.368 44.733 494.031 44.0625C493.698 43.3883 493.531 42.5985 493.531 41.6932C493.531 40.7992 493.698 40.0114 494.031 39.3295C494.368 38.6477 494.838 38.1155 495.44 37.733C496.046 37.3504 496.755 37.1591 497.565 37.1591C498.058 37.1591 498.535 37.2405 498.997 37.4034C499.459 37.5663 499.874 37.822 500.241 38.1705C500.609 38.5189 500.899 38.9716 501.111 39.5284C501.323 40.0814 501.429 40.7538 501.429 41.5455V42.1477H494.491V40.875H499.764C499.764 40.428 499.673 40.0322 499.491 39.6875C499.31 39.339 499.054 39.0644 498.724 38.8636C498.399 38.6629 498.016 38.5625 497.577 38.5625C497.099 38.5625 496.683 38.6799 496.327 38.9148C495.974 39.1458 495.702 39.4489 495.509 39.8239C495.319 40.1951 495.224 40.5985 495.224 41.0341V42.0284C495.224 42.6117 495.327 43.108 495.531 43.517C495.74 43.9261 496.029 44.2386 496.401 44.4545C496.772 44.6667 497.205 44.7727 497.702 44.7727C498.024 44.7727 498.317 44.7273 498.582 44.6364C498.848 44.5417 499.077 44.4015 499.27 44.2159C499.463 44.0303 499.611 43.8011 499.713 43.5284L501.321 43.8182C501.192 44.2917 500.961 44.7064 500.628 45.0625C500.298 45.4148 499.884 45.6894 499.384 45.8864C498.887 46.0795 498.321 46.1761 497.685 46.1761ZM503.45 46V34.3636H505.149V38.6875H505.251C505.35 38.5057 505.492 38.2955 505.678 38.0568C505.863 37.8182 506.121 37.6098 506.45 37.4318C506.78 37.25 507.215 37.1591 507.757 37.1591C508.462 37.1591 509.09 37.3371 509.643 37.6932C510.196 38.0492 510.63 38.5625 510.945 39.233C511.263 39.9034 511.422 40.7102 511.422 41.6534C511.422 42.5966 511.265 43.4053 510.95 44.0795C510.636 44.75 510.204 45.267 509.655 45.6307C509.106 45.9905 508.479 46.1705 507.774 46.1705C507.244 46.1705 506.81 46.0814 506.473 45.9034C506.14 45.7254 505.878 45.517 505.689 45.2784C505.5 45.0398 505.354 44.8277 505.251 44.642H505.109V46H503.45ZM505.115 41.6364C505.115 42.25 505.204 42.7879 505.382 43.25C505.56 43.7121 505.818 44.0739 506.155 44.3352C506.492 44.5928 506.905 44.7216 507.393 44.7216C507.901 44.7216 508.325 44.5871 508.666 44.3182C509.007 44.0455 509.265 43.6761 509.439 43.2102C509.617 42.7443 509.706 42.2197 509.706 41.6364C509.706 41.0606 509.619 40.5436 509.445 40.0852C509.274 39.6269 509.017 39.2652 508.672 39C508.331 38.7348 507.905 38.6023 507.393 38.6023C506.901 38.6023 506.484 38.7292 506.143 38.983C505.806 39.2367 505.551 39.5909 505.376 40.0455C505.202 40.5 505.115 41.0303 505.115 41.6364ZM521.467 46H517.7V34.3636H521.587C522.727 34.3636 523.706 34.5966 524.524 35.0625C525.342 35.5246 525.969 36.1894 526.405 37.0568C526.844 37.9205 527.064 38.9564 527.064 40.1648C527.064 41.3769 526.842 42.4186 526.399 43.2898C525.96 44.161 525.323 44.8314 524.49 45.3011C523.657 45.767 522.649 46 521.467 46ZM519.456 44.4659H521.371C522.257 44.4659 522.994 44.2992 523.581 43.9659C524.168 43.6288 524.607 43.142 524.899 42.5057C525.191 41.8655 525.337 41.0852 525.337 40.1648C525.337 39.2519 525.191 38.4773 524.899 37.8409C524.611 37.2045 524.181 36.7216 523.609 36.392C523.037 36.0625 522.327 35.8977 521.479 35.8977H519.456V44.4659ZM532.872 46.1761C532.012 46.1761 531.272 45.9924 530.651 45.625C530.033 45.2538 529.556 44.733 529.219 44.0625C528.885 43.3883 528.719 42.5985 528.719 41.6932C528.719 40.7992 528.885 40.0114 529.219 39.3295C529.556 38.6477 530.026 38.1155 530.628 37.733C531.234 37.3504 531.942 37.1591 532.753 37.1591C533.245 37.1591 533.723 37.2405 534.185 37.4034C534.647 37.5663 535.062 37.822 535.429 38.1705C535.796 38.5189 536.086 38.9716 536.298 39.5284C536.51 40.0814 536.616 40.7538 536.616 41.5455V42.1477H529.679V40.875H534.952C534.952 40.428 534.861 40.0322 534.679 39.6875C534.497 39.339 534.241 39.0644 533.912 38.8636C533.586 38.6629 533.204 38.5625 532.764 38.5625C532.287 38.5625 531.87 38.6799 531.514 38.9148C531.162 39.1458 530.889 39.4489 530.696 39.8239C530.507 40.1951 530.412 40.5985 530.412 41.0341V42.0284C530.412 42.6117 530.514 43.108 530.719 43.517C530.927 43.9261 531.217 44.2386 531.588 44.4545C531.959 44.6667 532.393 44.7727 532.889 44.7727C533.211 44.7727 533.505 44.7273 533.77 44.6364C534.035 44.5417 534.264 44.4015 534.457 44.2159C534.651 44.0303 534.798 43.8011 534.901 43.5284L536.509 43.8182C536.38 44.2917 536.149 44.7064 535.815 45.0625C535.486 45.4148 535.071 45.6894 534.571 45.8864C534.075 46.0795 533.509 46.1761 532.872 46.1761ZM545.717 37.2727L542.553 46H540.734L537.564 37.2727H539.388L541.598 43.9886H541.689L543.893 37.2727H545.717ZM550.778 46.1761C549.919 46.1761 549.178 45.9924 548.557 45.625C547.939 45.2538 547.462 44.733 547.125 44.0625C546.792 43.3883 546.625 42.5985 546.625 41.6932C546.625 40.7992 546.792 40.0114 547.125 39.3295C547.462 38.6477 547.932 38.1155 548.534 37.733C549.14 37.3504 549.848 37.1591 550.659 37.1591C551.152 37.1591 551.629 37.2405 552.091 37.4034C552.553 37.5663 552.968 37.822 553.335 38.1705C553.703 38.5189 553.992 38.9716 554.205 39.5284C554.417 40.0814 554.523 40.7538 554.523 41.5455V42.1477H547.585V40.875H552.858C552.858 40.428 552.767 40.0322 552.585 39.6875C552.403 39.339 552.148 39.0644 551.818 38.8636C551.492 38.6629 551.11 38.5625 550.67 38.5625C550.193 38.5625 549.777 38.6799 549.42 38.9148C549.068 39.1458 548.795 39.4489 548.602 39.8239C548.413 40.1951 548.318 40.5985 548.318 41.0341V42.0284C548.318 42.6117 548.42 43.108 548.625 43.517C548.833 43.9261 549.123 44.2386 549.494 44.4545C549.866 44.6667 550.299 44.7727 550.795 44.7727C551.117 44.7727 551.411 44.7273 551.676 44.6364C551.941 44.5417 552.17 44.4015 552.364 44.2159C552.557 44.0303 552.705 43.8011 552.807 43.5284L554.415 43.8182C554.286 44.2917 554.055 44.7064 553.722 45.0625C553.392 45.4148 552.977 45.6894 552.477 45.8864C551.981 46.0795 551.415 46.1761 550.778 46.1761ZM558.107 34.3636V46H556.408V34.3636H558.107ZM564.068 46.1761C563.25 46.1761 562.536 45.9886 561.926 45.6136C561.316 45.2386 560.843 44.714 560.506 44.0398C560.169 43.3655 560 42.5777 560 41.6761C560 40.7708 560.169 39.9792 560.506 39.3011C560.843 38.6231 561.316 38.0966 561.926 37.7216C562.536 37.3466 563.25 37.1591 564.068 37.1591C564.886 37.1591 565.6 37.3466 566.21 37.7216C566.82 38.0966 567.294 38.6231 567.631 39.3011C567.968 39.9792 568.136 40.7708 568.136 41.6761C568.136 42.5777 567.968 43.3655 567.631 44.0398C567.294 44.714 566.82 45.2386 566.21 45.6136C565.6 45.9886 564.886 46.1761 564.068 46.1761ZM564.074 44.75C564.604 44.75 565.044 44.6098 565.392 44.3295C565.741 44.0492 565.998 43.6761 566.165 43.2102C566.335 42.7443 566.42 42.2311 566.42 41.6705C566.42 41.1136 566.335 40.6023 566.165 40.1364C565.998 39.6667 565.741 39.2898 565.392 39.0057C565.044 38.7216 564.604 38.5795 564.074 38.5795C563.54 38.5795 563.097 38.7216 562.744 39.0057C562.396 39.2898 562.136 39.6667 561.966 40.1364C561.799 40.6023 561.716 41.1136 561.716 41.6705C561.716 42.2311 561.799 42.7443 561.966 43.2102C562.136 43.6761 562.396 44.0492 562.744 44.3295C563.097 44.6098 563.54 44.75 564.074 44.75ZM570.033 49.2727V37.2727H571.692V38.6875H571.834C571.932 38.5057 572.074 38.2955 572.26 38.0568C572.446 37.8182 572.703 37.6098 573.033 37.4318C573.362 37.25 573.798 37.1591 574.339 37.1591C575.044 37.1591 575.673 37.3371 576.226 37.6932C576.779 38.0492 577.213 38.5625 577.527 39.233C577.845 39.9034 578.004 40.7102 578.004 41.6534C578.004 42.5966 577.847 43.4053 577.533 44.0795C577.218 44.75 576.786 45.267 576.237 45.6307C575.688 45.9905 575.061 46.1705 574.357 46.1705C573.826 46.1705 573.393 46.0814 573.055 45.9034C572.722 45.7254 572.461 45.517 572.271 45.2784C572.082 45.0398 571.936 44.8277 571.834 44.642H571.732V49.2727H570.033ZM571.697 41.6364C571.697 42.25 571.786 42.7879 571.964 43.25C572.143 43.7121 572.4 44.0739 572.737 44.3352C573.074 44.5928 573.487 44.7216 573.976 44.7216C574.483 44.7216 574.908 44.5871 575.249 44.3182C575.589 44.0455 575.847 43.6761 576.021 43.2102C576.199 42.7443 576.288 42.2197 576.288 41.6364C576.288 41.0606 576.201 40.5436 576.027 40.0852C575.857 39.6269 575.599 39.2652 575.254 39C574.913 38.7348 574.487 38.6023 573.976 38.6023C573.483 38.6023 573.067 38.7292 572.726 38.983C572.389 39.2367 572.133 39.5909 571.959 40.0455C571.785 40.5 571.697 41.0303 571.697 41.6364ZM583.669 46.1761C582.809 46.1761 582.069 45.9924 581.447 45.625C580.83 45.2538 580.353 44.733 580.016 44.0625C579.682 43.3883 579.516 42.5985 579.516 41.6932C579.516 40.7992 579.682 40.0114 580.016 39.3295C580.353 38.6477 580.822 38.1155 581.425 37.733C582.031 37.3504 582.739 37.1591 583.55 37.1591C584.042 37.1591 584.519 37.2405 584.982 37.4034C585.444 37.5663 585.858 37.822 586.226 38.1705C586.593 38.5189 586.883 38.9716 587.095 39.5284C587.307 40.0814 587.413 40.7538 587.413 41.5455V42.1477H580.476V40.875H585.749C585.749 40.428 585.658 40.0322 585.476 39.6875C585.294 39.339 585.038 39.0644 584.709 38.8636C584.383 38.6629 584 38.5625 583.561 38.5625C583.084 38.5625 582.667 38.6799 582.311 38.9148C581.959 39.1458 581.686 39.4489 581.493 39.8239C581.304 40.1951 581.209 40.5985 581.209 41.0341V42.0284C581.209 42.6117 581.311 43.108 581.516 43.517C581.724 43.9261 582.014 44.2386 582.385 44.4545C582.756 44.6667 583.19 44.7727 583.686 44.7727C584.008 44.7727 584.302 44.7273 584.567 44.6364C584.832 44.5417 585.061 44.4015 585.254 44.2159C585.447 44.0303 585.595 43.8011 585.697 43.5284L587.305 43.8182C587.177 44.2917 586.946 44.7064 586.612 45.0625C586.283 45.4148 585.868 45.6894 585.368 45.8864C584.872 46.0795 584.305 46.1761 583.669 46.1761ZM589.298 46V37.2727H590.94V38.6591H591.031C591.19 38.1894 591.471 37.8201 591.872 37.5511C592.277 37.2784 592.736 37.142 593.247 37.142C593.353 37.142 593.478 37.1458 593.622 37.1534C593.77 37.161 593.885 37.1705 593.969 37.1818V38.8068C593.901 38.7879 593.779 38.767 593.605 38.7443C593.431 38.7178 593.257 38.7045 593.082 38.7045C592.681 38.7045 592.323 38.7898 592.009 38.9602C591.698 39.1269 591.452 39.3598 591.27 39.6591C591.088 39.9545 590.997 40.2917 590.997 40.6705V46H589.298ZM601.979 39.4034L600.439 39.6761C600.375 39.4792 600.272 39.2917 600.132 39.1136C599.996 38.9356 599.81 38.7898 599.575 38.6761C599.34 38.5625 599.047 38.5057 598.695 38.5057C598.214 38.5057 597.812 38.6136 597.49 38.8295C597.168 39.0417 597.007 39.3163 597.007 39.6534C597.007 39.9451 597.115 40.1799 597.331 40.358C597.547 40.536 597.895 40.6818 598.376 40.7955L599.763 41.1136C600.566 41.2992 601.164 41.5852 601.558 41.9716C601.952 42.358 602.149 42.8598 602.149 43.4773C602.149 44 601.998 44.4659 601.695 44.875C601.395 45.2803 600.977 45.5985 600.439 45.8295C599.905 46.0606 599.286 46.1761 598.581 46.1761C597.604 46.1761 596.806 45.9678 596.189 45.5511C595.571 45.1307 595.193 44.5341 595.053 43.7614L596.695 43.5114C596.797 43.9394 597.007 44.2633 597.325 44.483C597.643 44.6989 598.058 44.8068 598.57 44.8068C599.126 44.8068 599.571 44.6913 599.905 44.4602C600.238 44.2254 600.405 43.9394 600.405 43.6023C600.405 43.3295 600.303 43.1004 600.098 42.9148C599.897 42.7292 599.589 42.589 599.172 42.4943L597.695 42.1705C596.88 41.9848 596.278 41.6894 595.888 41.2841C595.501 40.8788 595.308 40.3655 595.308 39.7443C595.308 39.2292 595.452 38.7784 595.74 38.392C596.028 38.0057 596.426 37.7045 596.933 37.4886C597.441 37.2689 598.022 37.1591 598.678 37.1591C599.621 37.1591 600.363 37.3636 600.905 37.7727C601.446 38.178 601.804 38.7216 601.979 39.4034Z" fill="black"/>
</g>
</g>
<g id="Comment cursor_4">
<g id="Cursor_7">
<g id="Cursor_8" filter="url(#filter6_d_0_1)">
<path d="M593.817 365.364L590.663 349.114L605.143 357.135L598.01 359.227L593.817 365.364Z" fill="black"/>
<path d="M593.817 365.364L590.663 349.114L605.143 357.135L598.01 359.227L593.817 365.364Z" stroke="white"/>
</g>
</g>
<g id="Comment_4" filter="url(#filter7_d_0_1)">
<path d="M603 367C603 365.895 603.895 365 605 365H713C724.046 365 733 373.954 733 385C733 396.046 724.046 405 713 405H627C613.745 405 603 394.255 603 381V367Z" fill="#C89E75" shape-rendering="crispEdges"/>
<path id="Copywriters" d="M629.943 383.148H628.17C628.102 382.769 627.975 382.436 627.79 382.148C627.604 381.86 627.377 381.616 627.108 381.415C626.839 381.214 626.538 381.062 626.205 380.96C625.875 380.858 625.525 380.807 625.153 380.807C624.483 380.807 623.883 380.975 623.352 381.312C622.826 381.65 622.409 382.144 622.102 382.795C621.799 383.447 621.648 384.242 621.648 385.182C621.648 386.129 621.799 386.928 622.102 387.58C622.409 388.231 622.828 388.723 623.358 389.057C623.888 389.39 624.485 389.557 625.148 389.557C625.515 389.557 625.864 389.508 626.193 389.409C626.527 389.307 626.828 389.157 627.097 388.96C627.366 388.763 627.593 388.523 627.778 388.239C627.968 387.951 628.098 387.621 628.17 387.25L629.943 387.256C629.848 387.828 629.665 388.354 629.392 388.835C629.123 389.312 628.777 389.725 628.352 390.074C627.932 390.419 627.451 390.686 626.909 390.875C626.367 391.064 625.777 391.159 625.136 391.159C624.129 391.159 623.231 390.92 622.443 390.443C621.655 389.962 621.034 389.275 620.58 388.381C620.129 387.487 619.903 386.42 619.903 385.182C619.903 383.939 620.131 382.873 620.585 381.983C621.04 381.089 621.661 380.403 622.449 379.926C623.237 379.445 624.133 379.205 625.136 379.205C625.754 379.205 626.33 379.294 626.864 379.472C627.402 379.646 627.884 379.903 628.312 380.244C628.741 380.581 629.095 380.994 629.375 381.483C629.655 381.968 629.845 382.523 629.943 383.148ZM635.584 391.176C634.766 391.176 634.052 390.989 633.442 390.614C632.832 390.239 632.358 389.714 632.021 389.04C631.684 388.366 631.516 387.578 631.516 386.676C631.516 385.771 631.684 384.979 632.021 384.301C632.358 383.623 632.832 383.097 633.442 382.722C634.052 382.347 634.766 382.159 635.584 382.159C636.402 382.159 637.116 382.347 637.726 382.722C638.336 383.097 638.809 383.623 639.146 384.301C639.483 384.979 639.652 385.771 639.652 386.676C639.652 387.578 639.483 388.366 639.146 389.04C638.809 389.714 638.336 390.239 637.726 390.614C637.116 390.989 636.402 391.176 635.584 391.176ZM635.589 389.75C636.12 389.75 636.559 389.61 636.908 389.33C637.256 389.049 637.514 388.676 637.68 388.21C637.851 387.744 637.936 387.231 637.936 386.67C637.936 386.114 637.851 385.602 637.68 385.136C637.514 384.667 637.256 384.29 636.908 384.006C636.559 383.722 636.12 383.58 635.589 383.58C635.055 383.58 634.612 383.722 634.26 384.006C633.911 384.29 633.652 384.667 633.482 385.136C633.315 385.602 633.232 386.114 633.232 386.67C633.232 387.231 633.315 387.744 633.482 388.21C633.652 388.676 633.911 389.049 634.26 389.33C634.612 389.61 635.055 389.75 635.589 389.75ZM641.548 394.273V382.273H643.207V383.688H643.349C643.448 383.506 643.59 383.295 643.776 383.057C643.961 382.818 644.219 382.61 644.548 382.432C644.878 382.25 645.313 382.159 645.855 382.159C646.56 382.159 647.188 382.337 647.741 382.693C648.295 383.049 648.728 383.562 649.043 384.233C649.361 384.903 649.52 385.71 649.52 386.653C649.52 387.597 649.363 388.405 649.048 389.08C648.734 389.75 648.302 390.267 647.753 390.631C647.204 390.991 646.577 391.17 645.872 391.17C645.342 391.17 644.908 391.081 644.571 390.903C644.238 390.725 643.976 390.517 643.787 390.278C643.598 390.04 643.452 389.828 643.349 389.642H643.247V394.273H641.548ZM643.213 386.636C643.213 387.25 643.302 387.788 643.48 388.25C643.658 388.712 643.916 389.074 644.253 389.335C644.59 389.593 645.003 389.722 645.491 389.722C645.999 389.722 646.423 389.587 646.764 389.318C647.105 389.045 647.363 388.676 647.537 388.21C647.715 387.744 647.804 387.22 647.804 386.636C647.804 386.061 647.717 385.544 647.543 385.085C647.372 384.627 647.115 384.265 646.77 384C646.429 383.735 646.003 383.602 645.491 383.602C644.999 383.602 644.582 383.729 644.241 383.983C643.904 384.237 643.649 384.591 643.474 385.045C643.3 385.5 643.213 386.03 643.213 386.636ZM652.2 394.273C651.946 394.273 651.715 394.252 651.507 394.21C651.299 394.172 651.143 394.131 651.041 394.085L651.45 392.693C651.761 392.777 652.037 392.813 652.28 392.801C652.522 392.79 652.736 392.699 652.922 392.528C653.111 392.358 653.278 392.08 653.422 391.693L653.632 391.114L650.439 382.273H652.257L654.467 389.045H654.558L656.768 382.273H658.592L654.996 392.165C654.829 392.619 654.617 393.004 654.359 393.318C654.102 393.636 653.795 393.875 653.439 394.034C653.083 394.193 652.67 394.273 652.2 394.273ZM662.081 391L659.513 382.273H661.268L662.979 388.682H663.064L664.78 382.273H666.536L668.24 388.653H668.325L670.024 382.273H671.78L669.217 391H667.484L665.712 384.699H665.581L663.808 391H662.081ZM673.392 391V382.273H675.034V383.659H675.125C675.284 383.189 675.564 382.82 675.966 382.551C676.371 382.278 676.83 382.142 677.341 382.142C677.447 382.142 677.572 382.146 677.716 382.153C677.864 382.161 677.979 382.17 678.062 382.182V383.807C677.994 383.788 677.873 383.767 677.699 383.744C677.525 383.718 677.35 383.705 677.176 383.705C676.775 383.705 676.417 383.79 676.102 383.96C675.792 384.127 675.545 384.36 675.364 384.659C675.182 384.955 675.091 385.292 675.091 385.67V391H673.392ZM679.533 391V382.273H681.232V391H679.533ZM680.391 380.926C680.095 380.926 679.841 380.828 679.629 380.631C679.421 380.43 679.317 380.191 679.317 379.915C679.317 379.634 679.421 379.396 679.629 379.199C679.841 378.998 680.095 378.898 680.391 378.898C680.686 378.898 680.938 378.998 681.146 379.199C681.358 379.396 681.464 379.634 681.464 379.915C681.464 380.191 681.358 380.43 681.146 380.631C680.938 380.828 680.686 380.926 680.391 380.926ZM687.591 382.273V383.636H682.824V382.273H687.591ZM684.102 380.182H685.801V388.438C685.801 388.767 685.85 389.015 685.949 389.182C686.047 389.345 686.174 389.456 686.33 389.517C686.489 389.574 686.661 389.602 686.847 389.602C686.983 389.602 687.102 389.593 687.205 389.574C687.307 389.555 687.386 389.54 687.443 389.528L687.75 390.932C687.652 390.97 687.511 391.008 687.33 391.045C687.148 391.087 686.92 391.11 686.648 391.114C686.201 391.121 685.784 391.042 685.398 390.875C685.011 390.708 684.699 390.451 684.46 390.102C684.222 389.754 684.102 389.316 684.102 388.79V380.182ZM693.138 391.176C692.278 391.176 691.537 390.992 690.916 390.625C690.299 390.254 689.821 389.733 689.484 389.062C689.151 388.388 688.984 387.598 688.984 386.693C688.984 385.799 689.151 385.011 689.484 384.33C689.821 383.648 690.291 383.116 690.893 382.733C691.5 382.35 692.208 382.159 693.018 382.159C693.511 382.159 693.988 382.241 694.45 382.403C694.912 382.566 695.327 382.822 695.695 383.17C696.062 383.519 696.352 383.972 696.564 384.528C696.776 385.081 696.882 385.754 696.882 386.545V387.148H689.945V385.875H695.217C695.217 385.428 695.126 385.032 694.945 384.688C694.763 384.339 694.507 384.064 694.178 383.864C693.852 383.663 693.469 383.562 693.03 383.562C692.553 383.562 692.136 383.68 691.78 383.915C691.428 384.146 691.155 384.449 690.962 384.824C690.772 385.195 690.678 385.598 690.678 386.034V387.028C690.678 387.612 690.78 388.108 690.984 388.517C691.193 388.926 691.482 389.239 691.854 389.455C692.225 389.667 692.659 389.773 693.155 389.773C693.477 389.773 693.77 389.727 694.036 389.636C694.301 389.542 694.53 389.402 694.723 389.216C694.916 389.03 695.064 388.801 695.166 388.528L696.774 388.818C696.645 389.292 696.414 389.706 696.081 390.062C695.751 390.415 695.337 390.689 694.837 390.886C694.34 391.08 693.774 391.176 693.138 391.176ZM698.767 391V382.273H700.409V383.659H700.5C700.659 383.189 700.939 382.82 701.341 382.551C701.746 382.278 702.205 382.142 702.716 382.142C702.822 382.142 702.947 382.146 703.091 382.153C703.239 382.161 703.354 382.17 703.438 382.182V383.807C703.369 383.788 703.248 383.767 703.074 383.744C702.9 383.718 702.725 383.705 702.551 383.705C702.15 383.705 701.792 383.79 701.477 383.96C701.167 384.127 700.92 384.36 700.739 384.659C700.557 384.955 700.466 385.292 700.466 385.67V391H698.767ZM711.447 384.403L709.908 384.676C709.843 384.479 709.741 384.292 709.601 384.114C709.464 383.936 709.279 383.79 709.044 383.676C708.809 383.562 708.516 383.506 708.163 383.506C707.682 383.506 707.281 383.614 706.959 383.83C706.637 384.042 706.476 384.316 706.476 384.653C706.476 384.945 706.584 385.18 706.8 385.358C707.016 385.536 707.364 385.682 707.845 385.795L709.232 386.114C710.035 386.299 710.633 386.585 711.027 386.972C711.421 387.358 711.618 387.86 711.618 388.477C711.618 389 711.466 389.466 711.163 389.875C710.864 390.28 710.446 390.598 709.908 390.83C709.374 391.061 708.754 391.176 708.05 391.176C707.072 391.176 706.275 390.968 705.658 390.551C705.04 390.131 704.661 389.534 704.521 388.761L706.163 388.511C706.266 388.939 706.476 389.263 706.794 389.483C707.112 389.699 707.527 389.807 708.038 389.807C708.595 389.807 709.04 389.691 709.374 389.46C709.707 389.225 709.874 388.939 709.874 388.602C709.874 388.33 709.771 388.1 709.567 387.915C709.366 387.729 709.057 387.589 708.641 387.494L707.163 387.17C706.349 386.985 705.747 386.689 705.357 386.284C704.97 385.879 704.777 385.366 704.777 384.744C704.777 384.229 704.921 383.778 705.209 383.392C705.497 383.006 705.894 382.705 706.402 382.489C706.91 382.269 707.491 382.159 708.146 382.159C709.089 382.159 709.832 382.364 710.374 382.773C710.915 383.178 711.273 383.722 711.447 384.403Z" fill="white"/>
</g>
</g>
<g id="Group 10">
<g id="Cursor_9">
<g id="Cursor_10" filter="url(#filter8_d_0_1)">
<path d="M307.238 230.092L296.926 193.916L331.091 210.261L315.458 215.8L307.238 230.092Z" fill="#B3C4D4"/>
<path d="M297.312 193.122L331.477 209.466L333.393 210.383L331.391 211.092L316.068 216.52L308.012 230.529L306.96 232.359L306.382 230.33L296.07 194.155L295.532 192.27L297.312 193.122Z" stroke="#B3C4D4" stroke-width="1.77273"/>
</g>
</g>
<g id="Comment_5">
<rect x="332.773" y="231.773" width="93.4545" height="67.4545" fill="#B3C4D4"/>
<rect x="332.773" y="231.773" width="93.4545" height="67.4545" stroke="#B3C4D4" stroke-width="3.54545"/>
<path id="Me" opacity="0.8" d="M352.685 280.742H356.06L363.17 252.212H359.795L360.155 250.772H366.68L370.955 269.852H371.135L384.95 250.772H391.97L391.61 252.212H388.235L381.125 280.742H384.5L384.14 282.182H374.69L375.05 280.742H378.425L385.13 253.742H384.95L379.685 260.897L369.65 274.802L366.455 260.852L364.79 253.832H364.565L357.86 280.742H361.235L360.875 282.182H352.325L352.685 280.742ZM396.546 282.722C394.656 282.722 393.291 282.167 392.451 281.057C391.641 279.917 391.236 278.222 391.236 275.972C391.236 274.892 391.326 273.707 391.506 272.417C391.716 271.127 392.016 269.837 392.406 268.547C392.796 267.257 393.291 266.012 393.891 264.812C394.521 263.612 395.256 262.562 396.096 261.662C396.966 260.732 397.941 259.997 399.021 259.457C400.131 258.887 401.361 258.602 402.711 258.602C403.311 258.602 403.911 258.677 404.511 258.827C405.141 258.947 405.696 259.172 406.176 259.502C406.686 259.832 407.091 260.282 407.391 260.852C407.721 261.392 407.886 262.082 407.886 262.922C407.886 263.852 407.661 264.737 407.211 265.577C406.761 266.387 406.011 267.122 404.961 267.782C403.941 268.442 402.591 269.012 400.911 269.492C399.231 269.942 397.161 270.257 394.701 270.437C394.491 271.367 394.296 272.342 394.116 273.362C393.966 274.352 393.891 275.312 393.891 276.242C393.891 276.902 393.936 277.517 394.026 278.087C394.146 278.627 394.326 279.107 394.566 279.527C394.836 279.917 395.181 280.232 395.601 280.472C396.051 280.712 396.606 280.832 397.266 280.832C398.646 280.832 399.996 280.262 401.316 279.122C402.666 277.952 403.926 276.302 405.096 274.172L406.176 274.667C404.706 277.547 403.206 279.617 401.676 280.877C400.176 282.107 398.466 282.722 396.546 282.722ZM394.926 269.402C398.376 269.012 400.986 268.352 402.756 267.422C404.526 266.462 405.411 265.037 405.411 263.147C405.411 262.337 405.186 261.617 404.736 260.987C404.316 260.357 403.536 260.042 402.396 260.042C400.836 260.042 399.411 260.762 398.121 262.202C396.831 263.642 395.766 266.042 394.926 269.402Z" fill="black"/>
</g>
</g>
<path id="Vector 4" d="M379.65 209.052L383.552 207.85L382.35 203.948L378.448 205.15L379.65 209.052ZM416.5 162.5L416.229 162.08L416.5 162.5ZM538.5 164L538.912 164.284L538.5 164ZM527.246 71.5648C527.006 71.4288 526.701 71.5135 526.565 71.7539L524.35 75.6709C524.214 75.9112 524.298 76.2163 524.539 76.3522C524.779 76.4882 525.084 76.4035 525.22 76.1631L527.189 72.6814L530.671 74.6504C530.911 74.7864 531.216 74.7017 531.352 74.4613C531.488 74.221 531.404 73.9159 531.163 73.78L527.246 71.5648ZM381 206.5C381.442 206.734 381.442 206.734 381.442 206.734C381.442 206.734 381.442 206.734 381.442 206.734C381.442 206.734 381.442 206.734 381.442 206.734C381.442 206.733 381.442 206.733 381.443 206.732C381.443 206.731 381.444 206.73 381.445 206.727C381.448 206.723 381.451 206.716 381.456 206.707C381.466 206.689 381.481 206.661 381.5 206.625C381.539 206.552 381.598 206.443 381.675 206.301C381.829 206.017 382.058 205.599 382.357 205.063C382.956 203.991 383.835 202.45 384.954 200.574L384.524 200.318L384.095 200.062C382.971 201.947 382.087 203.496 381.484 204.575C381.183 205.115 380.952 205.537 380.796 205.824C380.718 205.968 380.659 206.078 380.619 206.152C380.599 206.19 380.584 206.218 380.574 206.237C380.569 206.246 380.565 206.254 380.562 206.259C380.561 206.261 380.56 206.263 380.559 206.264C380.559 206.265 380.559 206.265 380.558 206.266C380.558 206.266 380.558 206.266 380.558 206.266C380.558 206.266 380.558 206.266 380.558 206.266C380.558 206.266 380.558 206.266 381 206.5ZM392.245 188.335L392.655 188.621C395.226 184.927 398.134 181.036 401.27 177.322L400.887 176.999L400.505 176.677C397.346 180.42 394.418 184.337 391.834 188.049L392.245 188.335ZM410.822 166.791L411.148 167.17C412.998 165.576 414.878 164.141 416.771 162.92L416.5 162.5L416.229 162.08C414.291 163.33 412.374 164.794 410.495 166.412L410.822 166.791ZM416.5 162.5L416.771 162.92C418.658 161.703 420.566 160.687 422.492 159.85L422.293 159.392L422.094 158.933C420.117 159.791 418.161 160.834 416.229 162.08L416.5 162.5ZM434.961 156.269L435.001 156.768C439.263 156.424 443.587 156.712 447.944 157.442L448.027 156.949L448.11 156.456C443.689 155.715 439.281 155.42 434.921 155.771L434.961 156.269ZM460.743 160.141L460.59 160.617C464.702 161.936 468.809 163.483 472.888 165.098L473.072 164.633L473.256 164.168C469.169 162.549 465.038 160.994 460.896 159.665L460.743 160.141ZM485.244 169.546L485.058 170.011C489.249 171.682 493.38 173.252 497.413 174.532L497.565 174.056L497.716 173.579C493.717 172.31 489.612 170.75 485.429 169.082L485.244 169.546ZM510.337 176.949L510.282 177.446C514.879 177.954 519.299 177.733 523.472 176.43L523.324 175.953L523.175 175.476C519.165 176.727 514.889 176.949 510.392 176.452L510.337 176.949ZM534.319 169.101L534.675 169.452C536.143 167.964 537.557 166.248 538.912 164.284L538.5 164L538.088 163.716C536.764 165.637 535.387 167.307 533.963 168.749L534.319 169.101ZM538.5 164L538.912 164.284C539.885 162.873 540.555 160.936 540.99 158.623L540.498 158.53L540.007 158.438C539.585 160.685 538.95 162.468 538.088 163.716L538.5 164ZM541.095 146.827L541.594 146.809C541.464 143.182 541.126 139.224 540.637 135.085L540.141 135.144L539.644 135.203C540.13 139.323 540.466 143.253 540.595 146.845L541.095 146.827ZM538.479 123.521L538.973 123.44C538.339 119.588 537.628 115.698 536.877 111.873L536.387 111.97L535.896 112.066C536.645 115.882 537.354 119.762 537.986 123.602L538.479 123.521ZM533.99 100.479L534.478 100.372C533.576 96.2754 532.676 92.4031 531.836 88.9103L531.35 89.0271L530.864 89.144C531.703 92.6316 532.601 96.4975 533.502 100.587L533.99 100.479ZM528.503 77.6396L528.987 77.5138C528.525 75.7358 528.148 74.3245 527.888 73.3574C527.758 72.8738 527.656 72.5013 527.587 72.2496C527.553 72.1237 527.526 72.028 527.509 71.9637C527.5 71.9316 527.493 71.9073 527.489 71.891C527.486 71.8829 527.485 71.8767 527.484 71.8726C527.483 71.8705 527.483 71.869 527.482 71.8679C527.482 71.8674 527.482 71.867 527.482 71.8667C527.482 71.8666 527.482 71.8665 527.482 71.8664C527.482 71.8664 527.482 71.8663 527.482 71.8663C527.482 71.8663 527.482 71.8663 527 72C526.518 72.1337 526.518 72.1337 526.518 72.1337C526.518 72.1337 526.518 72.1337 526.518 72.1338C526.518 72.1338 526.518 72.1339 526.518 72.134C526.518 72.1343 526.518 72.1346 526.519 72.1351C526.519 72.1361 526.519 72.1376 526.52 72.1396C526.521 72.1436 526.523 72.1496 526.525 72.1576C526.529 72.1736 526.536 72.1976 526.545 72.2295C526.562 72.2932 526.588 72.3883 526.623 72.5136C526.691 72.7641 526.792 73.1354 526.922 73.6176C527.182 74.5821 527.558 75.9906 528.019 77.7655L528.503 77.6396Z" fill="black"/>
<path id="Vector 5" d="M388.116 313.43L384.205 314.602L385.377 318.512L389.288 317.341L388.116 313.43ZM354.734 356.857L354.457 356.441L354.734 356.857ZM260.642 345.485L260.228 345.204L260.642 345.485ZM259.621 438.305C259.836 438.478 260.151 438.444 260.324 438.229L263.145 434.723C263.318 434.507 263.284 434.193 263.069 434.02C262.854 433.846 262.539 433.881 262.366 434.096L259.859 437.212L256.742 434.705C256.527 434.532 256.212 434.566 256.039 434.781C255.866 434.996 255.9 435.311 256.115 435.484L259.621 438.305ZM386.746 315.971C386.306 315.734 386.306 315.734 386.306 315.734C386.306 315.734 386.306 315.734 386.306 315.734C386.306 315.734 386.306 315.734 386.306 315.734C386.306 315.734 386.306 315.735 386.306 315.735C386.305 315.736 386.304 315.738 386.303 315.74C386.301 315.744 386.297 315.75 386.293 315.759C386.284 315.776 386.27 315.801 386.252 315.834C386.216 315.901 386.161 316 386.09 316.13C385.946 316.39 385.734 316.774 385.457 317.264C384.904 318.246 384.094 319.657 383.071 321.375L383.501 321.631L383.93 321.886C384.958 320.161 385.771 318.743 386.328 317.756C386.607 317.262 386.821 316.876 386.966 316.613C387.038 316.481 387.093 316.38 387.13 316.312C387.149 316.278 387.163 316.253 387.172 316.235C387.177 316.226 387.18 316.22 387.183 316.215C387.184 316.213 387.185 316.211 387.186 316.21C387.186 316.21 387.186 316.209 387.186 316.209C387.186 316.209 387.186 316.209 387.187 316.209C387.187 316.209 387.187 316.208 387.187 316.208C387.187 316.208 387.187 316.208 386.746 315.971ZM376.476 332.673L376.062 332.391C373.727 335.825 371.108 339.442 368.327 342.883L368.716 343.198L369.105 343.512C371.907 340.044 374.543 336.404 376.889 332.954L376.476 332.673ZM359.845 352.798L359.509 352.429C357.824 353.964 356.132 355.322 354.457 356.441L354.734 356.857L355.012 357.273C356.739 356.12 358.469 354.729 360.182 353.168L359.845 352.798ZM354.734 356.857L354.457 356.441C352.52 357.734 350.592 358.724 348.674 359.449L348.851 359.916L349.027 360.384C351.02 359.631 353.015 358.605 355.012 357.273L354.734 356.857ZM335.822 361.263L335.893 360.768C331.735 360.171 327.602 358.689 323.499 356.698L323.281 357.148L323.062 357.598C327.223 359.616 331.458 361.141 335.75 361.758L335.822 361.263ZM311.812 350.516L312.083 350.095C310.212 348.887 308.354 347.65 306.507 346.422C304.661 345.194 302.826 343.975 301.006 342.807L300.736 343.228L300.466 343.648C302.278 344.812 304.106 346.026 305.953 347.255C307.799 348.482 309.663 349.723 311.541 350.936L311.812 350.516ZM289.171 336.776L289.371 336.317C284.921 334.381 280.537 333.305 276.256 333.795L276.313 334.292L276.369 334.789C280.408 334.326 284.608 335.335 288.971 337.234L289.171 336.776ZM264.833 340.307L264.478 339.956C263.036 341.414 261.62 343.154 260.228 345.204L260.642 345.485L261.056 345.766C262.418 343.759 263.796 342.068 265.189 340.659L264.833 340.307ZM260.642 345.485L260.228 345.204C259.32 346.543 258.596 348.442 258.016 350.748L258.501 350.869L258.986 350.991C259.554 348.732 260.243 346.964 261.056 345.766L260.642 345.485ZM256.845 362.381L256.346 362.343C256.072 365.935 255.921 369.87 255.867 373.997L256.366 374.003L256.866 374.01C256.921 369.899 257.071 365.985 257.344 362.419L256.845 362.381ZM256.436 385.653L255.936 385.664C256.023 389.538 256.166 393.457 256.345 397.316L256.845 397.293L257.344 397.27C257.165 393.417 257.022 389.506 256.936 385.642L256.436 385.653ZM257.497 408.92L256.998 408.952C257.268 413.107 257.56 417.04 257.844 420.591L258.343 420.551L258.841 420.511C258.557 416.964 258.265 413.036 257.996 408.887L257.497 408.92ZM259.359 432.154L258.861 432.201C259.033 434.016 259.178 435.458 259.279 436.446C259.329 436.94 259.369 437.32 259.396 437.577C259.41 437.706 259.42 437.804 259.427 437.87C259.43 437.902 259.433 437.927 259.435 437.944C259.436 437.952 259.436 437.958 259.437 437.963C259.437 437.965 259.437 437.966 259.437 437.967C259.438 437.968 259.438 437.968 259.438 437.969C259.438 437.969 259.438 437.969 259.438 437.969C259.438 437.969 259.438 437.969 259.438 437.969C259.438 437.969 259.438 437.969 259.935 437.915C260.432 437.861 260.432 437.861 260.432 437.861C260.432 437.861 260.432 437.861 260.432 437.861C260.432 437.861 260.432 437.861 260.432 437.861C260.432 437.861 260.432 437.86 260.432 437.86C260.432 437.859 260.431 437.857 260.431 437.855C260.431 437.851 260.43 437.845 260.429 437.837C260.427 437.82 260.425 437.796 260.421 437.763C260.414 437.698 260.404 437.601 260.39 437.473C260.363 437.216 260.324 436.837 260.273 436.344C260.173 435.358 260.029 433.919 259.856 432.107L259.359 432.154Z" fill="black"/>
<path id="Vector 6" d="M306.515 276.246L303.48 273.516L300.75 276.552L303.785 279.282L306.515 276.246ZM251.5 244L251.159 244.365L251.5 244ZM142.5 249.232L142.732 248.79V248.79L142.5 249.232ZM99.9234 138.238C99.7765 138.004 99.4679 137.933 99.2341 138.08L95.4231 140.473C95.1893 140.62 95.1187 140.929 95.2656 141.163C95.4124 141.397 95.7211 141.467 95.9549 141.32L99.3424 139.193L101.47 142.581C101.616 142.814 101.925 142.885 102.159 142.738C102.393 142.591 102.463 142.283 102.316 142.049L99.9234 138.238ZM303.633 276.399C303.606 275.9 303.606 275.9 303.606 275.9C303.606 275.9 303.607 275.9 303.607 275.9C303.607 275.9 303.607 275.9 303.607 275.9C303.607 275.9 303.607 275.9 303.607 275.9C303.608 275.9 303.607 275.9 303.606 275.9C303.605 275.9 303.602 275.9 303.597 275.9C303.587 275.9 303.571 275.901 303.549 275.901C303.503 275.901 303.432 275.901 303.334 275.898C303.137 275.892 302.835 275.875 302.426 275.828C301.608 275.734 300.36 275.524 298.672 275.056L298.539 275.538L298.405 276.02C300.141 276.501 301.44 276.722 302.313 276.821C302.749 276.871 303.079 276.891 303.303 276.898C303.415 276.901 303.5 276.902 303.56 276.901C303.589 276.901 303.612 276.9 303.629 276.9C303.637 276.899 303.644 276.899 303.649 276.899C303.651 276.899 303.653 276.899 303.655 276.899C303.656 276.898 303.657 276.898 303.657 276.898C303.658 276.898 303.658 276.898 303.658 276.898C303.658 276.898 303.659 276.898 303.659 276.898C303.659 276.898 303.659 276.898 303.633 276.399ZM288.91 271.716L289.133 271.268C286.511 269.967 283.523 268.301 280.163 266.169L279.895 266.591L279.627 267.013C283.015 269.163 286.033 270.846 288.688 272.164L288.91 271.716ZM271.354 260.709L271.652 260.307C269.096 258.416 266.382 256.297 263.507 253.921L263.189 254.306L262.87 254.691C265.758 257.078 268.486 259.209 271.057 261.111L271.354 260.709ZM255.334 247.518L255.669 247.147C254.419 246.021 253.143 244.85 251.841 243.635L251.5 244L251.159 244.365C252.464 245.585 253.745 246.759 255 247.89L255.334 247.518ZM251.5 244L251.841 243.635C250.333 242.225 248.806 241.015 247.261 239.984L246.983 240.401L246.706 240.817C248.203 241.814 249.687 242.991 251.159 244.365L251.5 244ZM236.434 236.066L236.526 235.574C232.723 234.867 228.847 234.938 224.912 235.536L224.987 236.031L225.062 236.525C228.914 235.94 232.673 235.875 236.343 236.558L236.434 236.066ZM213.851 238.875L213.691 238.401C210.147 239.599 206.552 241.026 202.916 242.517L203.105 242.98L203.295 243.443C206.928 241.953 210.498 240.536 214.011 239.349L213.851 238.875ZM192.455 247.34L192.271 246.875C188.708 248.283 185.108 249.611 181.471 250.72L181.617 251.199L181.762 251.677C185.436 250.557 189.063 249.218 192.639 247.805L192.455 247.34ZM170.413 253.764L170.343 253.269C166.591 253.801 162.805 253.967 158.988 253.625L158.943 254.123L158.899 254.621C162.804 254.971 166.667 254.801 170.483 254.259L170.413 253.764ZM147.766 251.589L147.941 251.12C146.212 250.476 144.476 249.703 142.732 248.79L142.5 249.232L142.268 249.675C144.048 250.608 145.823 251.398 147.591 252.057L147.766 251.589ZM142.5 249.232L142.732 248.79C140.817 247.786 138.981 246.736 137.22 245.644L136.956 246.069L136.693 246.494C138.474 247.599 140.332 248.661 142.268 249.675L142.5 249.232ZM126.661 238.527L126.988 238.148C123.682 235.297 120.732 232.271 118.101 229.114L117.717 229.434L117.333 229.754C119.998 232.952 122.986 236.018 126.335 238.906L126.661 238.527ZM110.382 219.016L110.812 218.762C108.618 215.05 106.764 211.238 105.203 207.388L104.74 207.575L104.277 207.763C105.855 211.656 107.73 215.513 109.951 219.271L110.382 219.016ZM100.753 195.468L101.237 195.343C100.143 191.131 99.3396 186.949 98.7654 182.876L98.2703 182.946L97.7752 183.016C98.3542 187.122 99.1648 191.342 100.269 195.594L100.753 195.468ZM97.133 170.233L97.6326 170.213C97.4477 165.637 97.507 161.354 97.699 157.507L97.1997 157.482L96.7003 157.457C96.5069 161.33 96.4471 165.644 96.6335 170.253L97.133 170.233ZM98.4112 144.748L98.9062 144.819C99.1879 142.849 99.4588 141.295 99.659 140.235C99.7591 139.705 99.8415 139.299 99.8988 139.026C99.9274 138.889 99.9497 138.786 99.9648 138.717C99.9723 138.682 99.9781 138.657 99.9819 138.64C99.9838 138.631 99.9852 138.625 99.9861 138.621C99.9866 138.619 99.9869 138.617 99.9871 138.616C99.9872 138.616 99.9873 138.615 99.9874 138.615C99.9874 138.615 99.9874 138.615 99.9874 138.615C99.9874 138.615 99.9874 138.615 99.9874 138.615C99.9874 138.615 99.9874 138.615 99.5 138.504C99.0125 138.392 99.0125 138.392 99.0125 138.392C99.0125 138.392 99.0125 138.392 99.0125 138.393C99.0124 138.393 99.0124 138.393 99.0124 138.393C99.0123 138.393 99.0122 138.394 99.012 138.395C99.0117 138.396 99.0113 138.398 99.0108 138.4C99.0097 138.405 99.0081 138.412 99.006 138.421C99.0019 138.44 98.9958 138.467 98.988 138.503C98.9722 138.575 98.9493 138.681 98.92 138.821C98.8615 139.1 98.7778 139.513 98.6764 140.05C98.4736 141.123 98.2002 142.692 97.9162 144.677L98.4112 144.748Z" fill="black"/>
<path id="Vector 7" d="M450.439 250.312L451.669 254.205L455.562 252.976L454.332 249.083L450.439 250.312ZM505.027 275.518L504.826 275.976V275.976L505.027 275.518ZM614.042 271.517L613.862 271.983V271.983L614.042 271.517ZM675.15 354.856C675.347 355.049 675.664 355.046 675.857 354.849L679.009 351.637C679.202 351.44 679.199 351.124 679.002 350.93C678.805 350.737 678.489 350.74 678.295 350.937L675.494 353.792L672.639 350.991C672.441 350.797 672.125 350.8 671.931 350.997C671.738 351.194 671.741 351.511 671.938 351.704L675.15 354.856ZM453 251.644C452.77 252.088 452.77 252.088 452.77 252.088C452.77 252.088 452.77 252.088 452.77 252.088C452.77 252.088 452.77 252.088 452.77 252.088C452.77 252.088 452.771 252.088 452.771 252.089C452.772 252.089 452.774 252.09 452.776 252.091C452.78 252.093 452.785 252.096 452.793 252.1C452.808 252.107 452.83 252.119 452.861 252.135C452.921 252.166 453.012 252.212 453.136 252.275C453.382 252.4 453.758 252.59 454.276 252.848C455.312 253.364 456.917 254.153 459.194 255.246L459.411 254.795L459.627 254.344C457.354 253.253 455.753 252.467 454.722 251.953C454.206 251.696 453.833 251.508 453.589 251.384C453.467 251.322 453.377 251.276 453.318 251.245C453.288 251.23 453.266 251.219 453.252 251.211C453.245 251.208 453.24 251.205 453.236 251.203C453.234 251.202 453.233 251.201 453.232 251.201C453.232 251.201 453.231 251.201 453.231 251.201C453.231 251.201 453.231 251.201 453.231 251.2C453.231 251.2 453.231 251.2 453.231 251.2C453.231 251.2 453.231 251.2 453 251.644ZM472.365 260.869L472.156 261.323C475.866 263.031 480.191 265.001 485.2 267.255L485.405 266.799L485.61 266.343C480.603 264.091 476.281 262.121 472.575 260.415L472.365 260.869ZM498.469 272.626L498.267 273.083C500.366 274.012 502.551 274.976 504.826 275.976L505.027 275.518L505.228 275.06C502.954 274.061 500.77 273.097 498.672 272.169L498.469 272.626ZM505.027 275.518L504.826 275.976C506.62 276.765 508.37 277.486 510.076 278.144L510.256 277.677L510.436 277.211C508.744 276.559 507.009 275.843 505.228 275.06L505.027 275.518ZM521.031 281.163L520.907 281.648C524.88 282.671 528.597 283.321 532.1 283.667L532.149 283.17L532.198 282.672C528.749 282.331 525.082 281.69 521.156 280.679L521.031 281.163ZM543.436 283.247L543.48 283.745C547.474 283.392 551.173 282.652 554.667 281.682L554.533 281.2L554.399 280.718C550.955 281.675 547.316 282.402 543.392 282.749L543.436 283.247ZM565.2 277.459L565.389 277.922C567.173 277.193 568.925 276.444 570.655 275.703C572.387 274.961 574.099 274.229 575.81 273.53L575.621 273.067L575.432 272.604C573.711 273.306 571.992 274.043 570.262 274.784C568.53 275.525 566.786 276.271 565.011 276.996L565.2 277.459ZM586.315 269.433L586.435 269.919C589.953 269.046 593.597 268.531 597.499 268.587L597.506 268.087L597.513 267.587C593.512 267.53 589.781 268.058 586.195 268.948L586.315 269.433ZM608.648 269.728L608.516 270.21C610.238 270.683 612.018 271.27 613.862 271.983L614.042 271.517L614.222 271.051C612.348 270.326 610.537 269.729 608.781 269.246L608.648 269.728ZM614.042 271.517L613.862 271.983C615.589 272.651 617.267 273.348 618.897 274.071L619.1 273.614L619.302 273.157C617.657 272.427 615.964 271.724 614.222 271.051L614.042 271.517ZM628.851 278.555L628.601 278.989C631.857 280.862 634.885 282.85 637.699 284.925L637.996 284.522L638.293 284.12C635.448 282.022 632.389 280.014 629.1 278.122L628.851 278.555ZM646.39 291.516L646.047 291.88C648.781 294.451 651.257 297.103 653.5 299.797L653.884 299.477L654.268 299.157C652.001 296.433 649.497 293.752 646.732 291.152L646.39 291.516ZM660.346 308.27L659.926 308.541C661.977 311.716 663.75 314.891 665.281 318.006L665.73 317.785L666.179 317.565C664.631 314.417 662.839 311.208 660.765 307.999L660.346 308.27ZM669.991 327.845L669.521 328.014C670.861 331.742 671.873 335.26 672.639 338.441L673.125 338.325L673.611 338.208C672.838 334.994 671.815 331.441 670.462 327.676L669.991 327.845ZM675.072 349.066L674.575 349.125C674.779 350.827 674.885 352.176 674.941 353.097C674.968 353.557 674.983 353.911 674.991 354.149C674.995 354.267 674.998 354.357 674.999 354.417C674.999 354.447 675 354.469 675 354.483C675 354.491 675 354.496 675 354.499C675 354.501 675 354.502 675 354.503C675 354.503 675 354.504 675 354.504C675 354.504 675 354.504 675 354.504C675 354.504 675 354.504 675 354.504C675 354.504 675 354.504 675.5 354.499C676 354.494 676 354.494 676 354.494C676 354.494 676 354.494 676 354.494C676 354.494 676 354.494 676 354.494C676 354.493 676 354.493 676 354.492C676 354.491 676 354.489 676 354.487C676 354.483 676 354.476 676 354.468C676 354.451 675.999 354.427 675.999 354.395C675.997 354.332 675.995 354.238 675.991 354.115C675.982 353.869 675.967 353.506 675.939 353.037C675.882 352.097 675.774 350.729 675.568 349.006L675.072 349.066Z" fill="black"/>
</g>
</g>
</g>
</g>
<defs>
<filter id="filter0_d_0_1" x="2.92493" y="62.0918" width="20.3718" height="22.1719" filterUnits="userSpaceOnUse" color-interpolation-filters="sRGB">
<feFlood flood-opacity="0" result="BackgroundImageFix"/>
<feColorMatrix in="SourceAlpha" type="matrix" values="0 0 0 0 0 0 0 0 0 0 0 0 0 0 0 0 0 0 127 0" result="hardAlpha"/>
<feOffset dy="1"/>
<feGaussianBlur stdDeviation="1"/>
<feComposite in2="hardAlpha" operator="out"/>
<feColorMatrix type="matrix" values="0 0 0 0 0 0 0 0 0 0 0 0 0 0 0 0 0 0 0.25 0"/>
<feBlend mode="normal" in2="BackgroundImageFix" result="effect1_dropShadow_0_1"/>
<feBlend mode="normal" in="SourceGraphic" in2="effect1_dropShadow_0_1" result="shape"/>
</filter>
<filter id="filter1_d_0_1" x="12" y="74" width="197" height="60" filterUnits="userSpaceOnUse" color-interpolation-filters="sRGB">
<feFlood flood-opacity="0" result="BackgroundImageFix"/>
<feColorMatrix in="SourceAlpha" type="matrix" values="0 0 0 0 0 0 0 0 0 0 0 0 0 0 0 0 0 0 127 0" result="hardAlpha"/>
<feOffset dx="4" dy="4"/>
<feGaussianBlur stdDeviation="5"/>
<feComposite in2="hardAlpha" operator="out"/>
<feColorMatrix type="matrix" values="0 0 0 0 0.866667 0 0 0 0 0.145098 0 0 0 0 0.564706 0 0 0 0.16 0"/>
<feBlend mode="normal" in2="BackgroundImageFix" result="effect1_dropShadow_0_1"/>
<feBlend mode="normal" in="SourceGraphic" in2="effect1_dropShadow_0_1" result="shape"/>
</filter>
<filter id="filter2_d_0_1" x="192.925" y="439.092" width="20.3718" height="22.1719" filterUnits="userSpaceOnUse" color-interpolation-filters="sRGB">
<feFlood flood-opacity="0" result="BackgroundImageFix"/>
<feColorMatrix in="SourceAlpha" type="matrix" values="0 0 0 0 0 0 0 0 0 0 0 0 0 0 0 0 0 0 127 0" result="hardAlpha"/>
<feOffset dy="1"/>
<feGaussianBlur stdDeviation="1"/>
<feComposite in2="hardAlpha" operator="out"/>
<feColorMatrix type="matrix" values="0 0 0 0 0 0 0 0 0 0 0 0 0 0 0 0 0 0 0.25 0"/>
<feBlend mode="normal" in2="BackgroundImageFix" result="effect1_dropShadow_0_1"/>
<feBlend mode="normal" in="SourceGraphic" in2="effect1_dropShadow_0_1" result="shape"/>
</filter>
<filter id="filter3_d_0_1" x="202" y="451" width="134" height="60" filterUnits="userSpaceOnUse" color-interpolation-filters="sRGB">
<feFlood flood-opacity="0" result="BackgroundImageFix"/>
<feColorMatrix in="SourceAlpha" type="matrix" values="0 0 0 0 0 0 0 0 0 0 0 0 0 0 0 0 0 0 127 0" result="hardAlpha"/>
<feOffset dx="4" dy="4"/>
<feGaussianBlur stdDeviation="5"/>
<feComposite in2="hardAlpha" operator="out"/>
<feColorMatrix type="matrix" values="0 0 0 0 0.317647 0 0 0 0 0.67451 0 0 0 0 0.396078 0 0 0 0.16 0"/>
<feBlend mode="normal" in2="BackgroundImageFix" result="effect1_dropShadow_0_1"/>
<feBlend mode="normal" in="SourceGraphic" in2="effect1_dropShadow_0_1" result="shape"/>
</filter>
<filter id="filter4_d_0_1" x="446.968" y="2.1582" width="20.4645" height="22.4766" filterUnits="userSpaceOnUse" color-interpolation-filters="sRGB">
<feFlood flood-opacity="0" result="BackgroundImageFix"/>
<feColorMatrix in="SourceAlpha" type="matrix" values="0 0 0 0 0 0 0 0 0 0 0 0 0 0 0 0 0 0 127 0" result="hardAlpha"/>
<feOffset dy="1"/>
<feGaussianBlur stdDeviation="1"/>
<feComposite in2="hardAlpha" operator="out"/>
<feColorMatrix type="matrix" values="0 0 0 0 0 0 0 0 0 0 0 0 0 0 0 0 0 0 0.25 0"/>
<feBlend mode="normal" in2="BackgroundImageFix" result="effect1_dropShadow_0_1"/>
<feBlend mode="normal" in="SourceGraphic" in2="effect1_dropShadow_0_1" result="shape"/>
</filter>
<filter id="filter5_d_0_1" x="456" y="14" width="181" height="60" filterUnits="userSpaceOnUse" color-interpolation-filters="sRGB">
<feFlood flood-opacity="0" result="BackgroundImageFix"/>
<feColorMatrix in="SourceAlpha" type="matrix" values="0 0 0 0 0 0 0 0 0 0 0 0 0 0 0 0 0 0 127 0" result="hardAlpha"/>
<feOffset dx="4" dy="4"/>
<feGaussianBlur stdDeviation="5"/>
<feComposite in2="hardAlpha" operator="out"/>
<feColorMatrix type="matrix" values="0 0 0 0 0.968627 0 0 0 0 0.819608 0 0 0 0 0.345098 0 0 0 0.16 0"/>
<feBlend mode="normal" in2="BackgroundImageFix" result="effect1_dropShadow_0_1"/>
<feBlend mode="normal" in="SourceGraphic" in2="effect1_dropShadow_0_1" result="shape"/>
</filter>
<filter id="filter6_d_0_1" x="587.968" y="347.158" width="20.4645" height="22.4766" filterUnits="userSpaceOnUse" color-interpolation-filters="sRGB">
<feFlood flood-opacity="0" result="BackgroundImageFix"/>
<feColorMatrix in="SourceAlpha" type="matrix" values="0 0 0 0 0 0 0 0 0 0 0 0 0 0 0 0 0 0 127 0" result="hardAlpha"/>
<feOffset dy="1"/>
<feGaussianBlur stdDeviation="1"/>
<feComposite in2="hardAlpha" operator="out"/>
<feColorMatrix type="matrix" values="0 0 0 0 0 0 0 0 0 0 0 0 0 0 0 0 0 0 0.25 0"/>
<feBlend mode="normal" in2="BackgroundImageFix" result="effect1_dropShadow_0_1"/>
<feBlend mode="normal" in="SourceGraphic" in2="effect1_dropShadow_0_1" result="shape"/>
</filter>
<filter id="filter7_d_0_1" x="597" y="359" width="150" height="60" filterUnits="userSpaceOnUse" color-interpolation-filters="sRGB">
<feFlood flood-opacity="0" result="BackgroundImageFix"/>
<feColorMatrix in="SourceAlpha" type="matrix" values="0 0 0 0 0 0 0 0 0 0 0 0 0 0 0 0 0 0 127 0" result="hardAlpha"/>
<feOffset dx="4" dy="4"/>
<feGaussianBlur stdDeviation="5"/>
<feComposite in2="hardAlpha" operator="out"/>
<feColorMatrix type="matrix" values="0 0 0 0 0.415686 0 0 0 0 0.466667 0 0 0 0 0.588235 0 0 0 0.16 0"/>
<feBlend mode="normal" in2="BackgroundImageFix" result="effect1_dropShadow_0_1"/>
<feBlend mode="normal" in="SourceGraphic" in2="effect1_dropShadow_0_1" result="shape"/>
</filter>
<filter id="filter8_d_0_1" x="290.593" y="188.852" width="48.6473" height="51.0929" filterUnits="userSpaceOnUse" color-interpolation-filters="sRGB">
<feFlood flood-opacity="0" result="BackgroundImageFix"/>
<feColorMatrix in="SourceAlpha" type="matrix" values="0 0 0 0 0 0 0 0 0 0 0 0 0 0 0 0 0 0 127 0" result="hardAlpha"/>
<feOffset dy="1.77273"/>
<feGaussianBlur stdDeviation="1.77273"/>
<feComposite in2="hardAlpha" operator="out"/>
<feColorMatrix type="matrix" values="0 0 0 0 0 0 0 0 0 0 0 0 0 0 0 0 0 0 0.08 0"/>
<feBlend mode="normal" in2="BackgroundImageFix" result="effect1_dropShadow_0_1"/>
<feBlend mode="normal" in="SourceGraphic" in2="effect1_dropShadow_0_1" result="shape"/>
</filter>
</defs>
</svg>
