<svg width="2890" height="65" viewBox="0 0 2890 65" fill="none" xmlns="http://www.w3.org/2000/svg">

<g id="Frame 2147265611">
<g id="Frame 2147265610">
<g id="Vector">
<path d="M220.025 25.8933C217.273 25.8933 215 28.3065 215 30.8374C215 34.6044 218.35 35.8404 219.965 35.8404C225.468 35.8404 231.15 35.8404 236.653 35.8404L222.477 26.5407C221.759 26.1287 220.862 25.8933 220.025 25.8933Z" fill="#FFFFEB"/>
<path d="M223.912 15.0043C222.297 15.0043 220.682 15.7695 219.845 17.0644C217.751 20.2428 219.845 23.0091 221.221 23.892C225.826 26.8938 230.791 30.3076 235.397 33.3094L228.458 17.7707C228.04 17.0055 227.501 16.2992 226.784 15.8283C225.886 15.2398 224.929 15.0043 223.912 15.0043Z" fill="#FFFFEB"/>
<path d="M258.725 25.8933C261.477 25.8933 263.75 28.3065 263.75 30.8374C263.75 34.6044 260.4 35.8404 258.785 35.8404C253.282 35.8404 247.6 35.8404 242.096 35.8404L256.273 26.5407C256.991 26.1287 257.828 25.8933 258.725 25.8933Z" fill="#FFFFEB"/>
<path d="M233.423 8C232.765 8 232.167 8.11772 231.569 8.41201C228.04 10.0012 228.339 13.415 229.057 14.8865L235.936 30.6018L238.508 13.4739C238.568 12.591 238.508 11.7081 238.149 10.9429C237.311 9.11832 235.338 8 233.423 8Z" fill="#FFFFEB"/>
<path d="M245.207 8C243.293 8 241.498 8.76517 240.482 10.9429C240.183 11.6493 240.063 12.4733 240.063 13.2384H242.456C243.054 13.2384 243.293 13.4739 243.472 13.6505C243.652 13.827 243.592 13.8859 243.472 13.9447C242.575 14.239 240.601 15.2985 240.601 16.8288L240.781 18.0649L242.695 30.6607L249.693 14.8865C250.351 13.415 250.531 10.0012 247.061 8.41201C246.523 8.11772 245.865 8 245.207 8Z" fill="#FFFFEB"/>
<path d="M217.692 39.0772V52.9679H220.862V44.1391L227.621 52.9679H230.911L230.971 52.9091V39.0184H227.741V47.7295L221.041 39.0772H217.692Z" fill="#FFFFEB"/>
<path d="M233.603 39.0777V52.9684H242.037C244.011 52.9684 246.822 52.2621 246.822 48.6717C246.822 47.0236 246.164 46.1996 244.788 45.4933C245.805 44.9047 246.344 44.3161 246.344 42.9624C246.344 40.2549 244.011 39.0777 242.037 39.0777H233.603ZM236.773 41.844H241.857C242.575 41.844 243.054 42.4326 243.054 43.0801C243.054 43.7275 242.396 44.2573 241.857 44.2573H236.773V41.844ZM236.773 46.9648H241.618C242.755 46.9648 243.532 47.6122 243.532 48.554C243.532 49.5546 242.755 50.0843 241.618 50.0843H236.773V46.9648Z" fill="#FFFFEB"/>
<path d="M256.093 38.665C251.846 38.665 248.377 42.0199 248.377 45.9635C248.377 49.2007 250.77 53.1442 256.153 53.262C259.383 53.262 261.058 51.9082 262.673 50.5545L260.46 48.1412C259.742 49.0241 257.948 50.0247 256.393 50.0247C253.462 50.0247 251.787 48.0824 251.787 46.14C251.787 43.9034 253.701 42.0199 256.153 42.0199C257.529 42.0199 258.785 42.6674 259.802 43.668L262.135 41.3725C260.759 39.7244 258.366 38.665 256.093 38.665Z" fill="#FFFFEB"/>
<path d="M254.778 15.0043C256.393 15.0043 258.008 15.7695 258.845 17.0644C260.939 20.2428 258.845 23.0091 257.47 23.892C252.864 26.8938 247.839 30.3076 243.233 33.3094L250.292 17.7707C250.71 17.0055 251.249 16.2992 251.966 15.8283C252.864 15.2398 253.821 15.0043 254.778 15.0043Z" fill="#FFFFEB"/>
</g>
<path id="Vector_2" d="M720.736 24.2876H726.809V42.4671H720.736V24.2876ZM728.064 17.1616H734.136V42.4671H728.064V17.1616ZM735.419 17.1616H741.492V42.4671H735.419V17.1616ZM806.897 26.1392V24.2595H800.824V42.4391H806.897V33.7982C806.897 31.5818 808.094 30.3755 810.233 30.3755H810.945V24.0912C809.121 24.1753 807.781 24.7364 806.897 26.1392ZM723.787 16.1797C721.848 16.1797 720.252 17.7227 720.252 19.6585C720.252 21.5943 721.82 23.1373 723.787 23.1373C725.726 23.1373 727.322 21.5943 727.322 19.6585C727.322 17.7227 725.726 16.1797 723.787 16.1797ZM793.468 25.6622C792.613 24.7364 790.617 23.979 789.106 23.979C784.516 23.979 781.237 26.9528 780.41 31.3854C779.526 27.1492 775.763 23.8667 771.172 23.8667C766.554 23.8667 762.762 27.1772 761.935 31.4977C761.136 27.0089 757.544 24.0351 753.068 24.0351C751.414 24.0351 750.046 24.3998 748.848 25.2134V17.1616H742.775V42.4671H748.734V40.8119C750.16 42.1305 751.728 42.7196 753.638 42.7196C757.744 42.7196 761.194 39.5494 761.935 35.2009C762.819 39.4653 766.554 42.7196 771.172 42.7196C775.763 42.7196 779.412 39.5494 780.353 35.3973C781.123 39.9422 784.772 42.7757 789.163 42.7757C790.674 42.7757 792.328 42.2708 793.44 41.4572V42.4952H799.512V34.4995C799.512 34.1629 799.512 33.8543 799.512 33.5457C799.512 33.2371 799.512 32.9285 799.512 32.5918V24.3156H793.44L793.468 25.6622ZM752.469 36.9123C750.53 36.9123 748.934 35.3692 748.934 33.4335C748.934 31.5257 750.502 29.9546 752.469 29.9546C754.408 29.9546 756.004 31.4977 756.004 33.4335C755.976 35.3692 754.408 36.9123 752.469 36.9123ZM771.201 36.6598C769.262 36.6598 767.666 35.1168 767.666 33.181C767.666 31.2732 769.234 29.7022 771.201 29.7022C773.14 29.7022 774.736 31.2452 774.736 33.181C774.736 35.0887 773.168 36.6598 771.201 36.6598ZM789.477 36.7439C787.538 36.7439 785.941 35.2009 785.941 33.2651C785.941 31.3574 787.509 29.7863 789.477 29.7863C791.415 29.7863 793.012 31.3293 793.012 33.2651C792.983 35.2009 791.415 36.7439 789.477 36.7439ZM824.431 17.1616V25.1853C823.234 24.3717 821.894 24.007 820.211 24.007C815.136 24.007 811.173 27.8505 811.173 33.4054C811.173 38.6517 814.994 42.6635 819.613 42.6635C821.523 42.6635 823.063 42.0744 824.517 40.7558V42.411H830.475V17.1616H824.431ZM820.867 36.8842C818.928 36.8842 817.332 35.3412 817.332 33.4054C817.332 31.4977 818.9 29.9266 820.867 29.9266C822.806 29.9266 824.403 31.4696 824.403 33.4054C824.374 35.3131 822.806 36.8842 820.867 36.8842ZM711.043 24.0351C709.389 24.0351 708.02 24.3998 706.823 25.2134V17.1616H700.75V42.4671H706.709V40.8119C708.134 42.1305 709.702 42.7196 711.613 42.7196C716.26 42.7196 720.052 38.6797 720.052 33.4615C720.052 27.8786 716.117 24.0351 711.043 24.0351ZM710.387 36.9123C708.448 36.9123 706.851 35.3692 706.851 33.4335C706.851 31.5257 708.419 29.9546 710.387 29.9546C712.326 29.9546 713.922 31.4977 713.922 33.4335C713.922 35.3692 712.326 36.9123 710.387 36.9123Z" fill="#FFFFEB"/>
<g id="Vector_3">
<path fill-rule="evenodd" clip-rule="evenodd" d="M899.5 16.5V46.2487H907.893V36.6335H916.127V28.5057H907.946V24.6278H917.987L917.402 16.5H899.5ZM958.997 16.5L955.385 22.9278L951.826 16.5H942.051L950.604 30.8431L941.573 46.2487H951.029L955.226 38.7053L959.475 46.2487H969.25L960.06 30.7369L968.4 16.5H958.997Z" fill="#FFFFEB"/>
<path fill-rule="evenodd" clip-rule="evenodd" d="M931.321 39.1834C929.993 39.1834 928.877 38.0678 928.877 36.7397V24.9996C928.877 23.6716 929.94 22.4497 931.321 22.4497C932.649 22.4497 933.871 23.6716 933.871 24.9996V36.7928C933.871 38.1209 932.702 39.1834 931.321 39.1834ZM931.321 16.5C923.406 16.5 916.978 22.9278 916.978 30.8431C916.978 38.7584 923.406 45.1862 931.321 45.1862C939.236 45.1862 945.664 38.7584 945.664 30.8431C945.664 22.9278 939.236 16.5 931.321 16.5Z" fill="#FFFFEB"/>
</g>
<path id="Vector_4" d="M6.36573 18.1214C3.83448 19.1792 1.05112 22.1644 0.172597 25.9192C-0.942007 30.6725 3.69196 32.6798 4.07057 32.025C4.51608 31.2482 3.23756 30.9874 2.97648 28.5228C2.64056 25.3356 4.12049 21.7748 5.98799 20.2123C6.33634 19.9267 6.31942 20.3297 6.31942 21.0727C6.31942 22.4127 6.24458 34.4016 6.24458 36.9044C6.24458 40.2926 6.10559 41.3596 5.849 42.413C5.59681 43.4843 5.18878 44.2068 5.49617 44.4879C5.84452 44.7985 7.32445 44.0591 8.18245 42.8633C9.20885 41.4307 9.57055 39.709 9.63738 37.8405C9.71309 35.5902 9.70868 32.0124 9.71309 29.9758C9.71309 28.1028 9.74249 22.6271 9.68369 19.3305C9.66678 18.5245 7.42153 17.68 6.36573 18.1214ZM123.068 35.9089C122.706 35.9089 122.534 36.287 122.395 36.9214C121.916 39.1343 121.411 39.6334 120.759 39.6334C120.032 39.6334 119.38 38.5381 119.208 36.3457C119.078 34.624 119.098 31.4493 119.267 28.2915C119.301 27.6447 119.123 27.0031 117.383 26.3687C116.63 26.1 115.541 25.6969 114.999 27.0067C113.464 30.6984 112.867 33.6373 112.724 34.8259C112.72 34.8883 112.644 34.8972 112.631 34.7548C112.544 33.801 112.341 32.0667 112.316 28.4214C112.307 27.7167 112.161 27.1072 111.37 26.6116C110.861 26.2931 109.314 25.7218 108.754 26.3981C108.275 26.9524 107.716 28.4392 107.132 30.2027C106.66 31.6389 106.333 32.6131 106.333 32.6131C106.333 32.6131 106.336 28.7408 106.345 27.271C106.345 26.7166 105.966 26.5324 105.853 26.4986C105.336 26.3474 104.314 26.1 103.885 26.1C103.351 26.1 103.225 26.3981 103.225 26.8305C103.225 26.8848 103.137 31.9236 103.137 35.4471V35.9426C102.846 37.5638 101.889 39.7642 100.85 39.7642C99.8107 39.7642 99.3189 38.8442 99.3189 34.6454C99.3189 32.1967 99.3947 31.1308 99.4284 29.3584C99.4491 28.3377 99.4909 27.553 99.4872 27.3724C99.4784 26.8305 98.5322 26.5529 98.0947 26.4523C97.6536 26.3474 97.2706 26.3135 96.9686 26.326C96.548 26.3518 96.2495 26.6285 96.2495 27.0156V27.6028C95.707 26.7468 94.8276 26.1499 94.2395 25.9781C92.6669 25.5119 91.0221 25.9274 89.782 27.6571C88.7984 29.0354 88.205 30.5925 87.9742 32.8311C87.8013 34.4691 87.8566 36.1277 88.1632 37.5301C87.7933 39.1129 87.1117 39.7642 86.3677 39.7642C85.2826 39.7642 84.5012 37.9998 84.5894 34.947C84.6528 32.9406 85.0519 31.5339 85.4929 29.4927C85.6827 28.6234 85.5268 28.1705 85.1444 27.7292C84.7953 27.3341 84.0469 27.1286 82.9751 27.3759C82.2133 27.5566 81.1164 27.7496 80.1194 27.8973C80.1194 27.8973 80.1782 27.6571 80.229 27.2336C80.4856 25.0118 78.0675 25.1924 77.2977 25.9025C76.8354 26.326 76.52 26.826 76.4024 27.7247C76.2134 29.1528 77.3779 29.8246 77.3779 29.8246C76.9957 31.5712 76.0619 33.8552 75.0908 35.5058C74.573 36.392 74.1776 37.0434 73.6653 37.7401C73.6606 37.4838 73.6606 37.223 73.6606 36.9677C73.6516 33.2929 73.698 30.4003 73.7194 29.3584C73.7408 28.3377 73.7826 27.5735 73.7826 27.3928C73.7738 26.9977 73.543 26.8429 73.0547 26.6579C72.6261 26.4906 72.1175 26.3687 71.5918 26.326C70.9315 26.2762 70.5279 26.6285 70.5405 27.0441V27.6028C69.9942 26.7468 69.1148 26.1499 68.5347 25.9781C66.9577 25.5119 65.3139 25.9274 64.0737 27.6571C63.0936 29.0354 62.4459 30.9626 62.2606 32.8098C62.093 34.5404 62.1225 36.0013 62.3577 37.2364C62.1056 38.4705 61.3866 39.7642 60.5713 39.7642C59.5325 39.7642 58.939 38.8442 58.939 34.6454C58.939 32.1967 59.0148 31.1308 59.0531 29.3584C59.0736 28.3377 59.1119 27.553 59.1074 27.3724C59.1029 26.8305 58.1577 26.5529 57.7157 26.4523C57.2578 26.3438 56.8578 26.31 56.5548 26.326C56.1512 26.3598 55.8696 26.7166 55.8696 26.9897V27.6028C55.3235 26.7468 54.4441 26.1499 53.8596 25.9781C52.2871 25.5119 50.6557 25.9363 49.4065 27.6571C48.5913 28.7791 47.9312 30.0257 47.5909 32.7894C47.4982 33.5874 47.4518 34.334 47.4563 35.0315C47.1319 37.013 45.6983 39.298 44.5294 39.298C43.8398 39.298 43.1841 37.9705 43.1841 35.1365C43.1841 31.3657 43.4192 25.9906 43.4612 25.47C43.4612 25.47 44.9409 25.4442 45.2314 25.4407C45.9674 25.4362 46.6401 25.4532 47.6202 25.4024C48.1164 25.3775 48.5913 23.6095 48.0781 23.3871C47.8509 23.2901 46.2196 23.202 45.5717 23.1896C45.0257 23.1771 43.5154 23.0641 43.5154 23.0641C43.5154 23.0641 43.6509 19.4988 43.6803 19.1251C43.7052 18.8056 43.3017 18.6464 43.0665 18.5494C42.4979 18.3065 41.9893 18.1926 41.3924 18.0707C40.5557 17.899 40.1815 18.0672 40.1101 18.7674C40.0006 19.8306 39.9418 22.9467 39.9418 22.9467C39.3279 22.9467 37.2466 22.8239 36.6363 22.8239C36.0696 22.8239 35.4548 25.26 36.2416 25.2894C37.1459 25.3232 38.7141 25.3571 39.7564 25.3855C39.7564 25.3855 39.7101 30.8496 39.7101 32.5331V33.0535C39.1346 36.0388 37.12 37.6519 37.12 37.6519C37.553 35.6739 36.6702 34.1916 35.0725 32.9406C34.4837 32.4744 33.3237 31.5961 32.0238 30.6432C32.0238 30.6432 32.7766 29.9002 33.4448 28.4134C33.9162 27.359 33.9375 26.1462 32.7766 25.8811C30.8593 25.4407 29.2823 26.8474 28.8074 28.3502C28.4456 29.5096 28.6354 30.3744 29.3535 31.2687L29.5175 31.4706C29.0889 32.3017 28.4918 33.4228 27.9912 34.2922C26.5915 36.707 25.5356 38.6137 24.7409 38.6137C24.1021 38.6137 24.1101 36.6776 24.1101 34.8634C24.1101 33.3009 24.2277 30.9457 24.3204 28.5104C24.3498 27.7078 23.9462 27.246 23.27 26.8305C22.8575 26.5787 21.9825 26.0831 21.4737 26.0831C20.7173 26.0831 18.5219 26.1836 16.4495 32.1673C16.1885 32.9236 15.6753 34.2966 15.6753 34.2966L15.7216 27.0992C15.7216 26.931 15.6335 26.7718 15.4276 26.6579C15.0783 26.4692 14.141 26.0831 13.3169 26.0831C12.9168 26.0831 12.7191 26.2682 12.7191 26.633L12.6522 37.8868C12.6522 38.7437 12.6727 39.7428 12.7574 40.1798C12.8411 40.6166 12.9801 40.9734 13.1485 41.187C13.3169 41.3934 13.5138 41.5527 13.8336 41.6238C14.1321 41.687 15.776 41.8925 15.8606 41.267C15.9658 40.5152 15.9692 39.7055 16.8317 36.6697C18.1772 31.9493 19.927 29.6484 20.7512 28.8289C20.8982 28.6866 21.0621 28.6777 21.0532 28.9135C21.0158 29.95 20.8938 32.5331 20.81 34.729C20.5872 40.6122 21.6546 41.6994 23.1897 41.6994C24.3587 41.6994 26.0071 40.5365 27.7773 37.5976C28.883 35.7621 29.9513 33.9692 30.7247 32.6718C31.2548 33.1665 31.8597 33.7005 32.4612 34.2717C33.8618 35.5939 34.3197 36.8538 34.0133 38.047C33.7816 38.9616 32.9032 39.9021 31.343 38.9874C30.8886 38.7223 30.6954 38.5167 30.2373 38.2142C29.9932 38.0505 29.6146 38.0042 29.3918 38.1725C28.8029 38.6137 28.4705 39.1717 28.2771 39.8648C28.0963 40.541 28.7735 40.8933 29.4755 41.2039C30.0769 41.4771 31.3724 41.7164 32.2002 41.7457C35.4254 41.8552 38.0075 40.1922 39.8028 35.9089C40.1271 39.6085 41.493 41.704 43.8691 41.704C45.4622 41.704 47.0562 39.6503 47.7546 37.6305C47.9517 38.4536 48.25 39.1672 48.6332 39.7766C50.4668 42.6738 54.0236 42.0526 55.8064 39.5915C56.3614 38.8273 56.4462 38.5542 56.4462 38.5542C56.7063 40.8774 58.5818 41.695 59.6545 41.695C60.8609 41.695 62.0976 41.1247 62.9671 39.1672C63.0723 39.3817 63.1819 39.5835 63.3084 39.7766C65.1375 42.6738 68.6942 42.0526 70.4817 39.5915C70.5617 39.4697 70.6376 39.3691 70.6998 39.2721L70.7551 40.8008C70.7551 40.8008 69.7331 41.7332 69.1069 42.3081C66.3528 44.8323 64.2583 46.7472 64.1032 48.9725C63.9098 51.8153 66.2139 52.8697 67.9629 53.0076C69.8134 53.1554 71.403 52.1347 72.3776 50.6985C73.2356 49.4386 73.7996 46.7302 73.7577 44.0511C73.7408 42.9763 73.715 41.6158 73.6899 40.1503C74.6612 39.0337 75.7544 37.6137 76.7558 35.9516C77.8527 34.1453 79.0216 31.7136 79.6185 29.8202C79.6185 29.8202 80.6405 29.829 81.7256 29.7614C82.0749 29.7401 82.1756 29.8121 82.1079 30.0639C82.0322 30.37 80.7375 35.3633 81.919 38.6894C82.7306 40.9646 84.551 41.6994 85.6361 41.6994C86.9013 41.6994 88.113 40.742 88.7598 39.323C88.84 39.4787 88.9203 39.6334 89.013 39.7766C90.842 42.6738 94.3863 42.0482 96.1862 39.5915C96.5941 39.0337 96.8214 38.5542 96.8214 38.5542C97.208 40.961 99.0836 41.704 100.155 41.704C101.278 41.704 102.337 41.2465 103.2 39.2134C103.234 40.1086 103.288 40.8391 103.381 41.0695C103.435 41.2128 103.755 41.389 103.982 41.477C105.008 41.8552 106.051 41.6745 106.433 41.5946C106.702 41.5403 106.913 41.3303 106.938 40.7759C107.013 39.323 106.967 36.8831 107.409 35.0654C108.153 32.025 108.842 30.8452 109.17 30.2615C109.352 29.9331 109.561 29.8789 109.566 30.2232C109.578 30.9243 109.617 32.9824 109.906 35.754C110.113 37.7862 110.394 38.991 110.613 39.3737C111.227 40.4609 111.992 40.5116 112.61 40.5116C113.006 40.5116 113.83 40.4022 113.758 39.709C113.72 39.3737 113.784 37.2863 114.511 34.2885C114.99 32.3275 115.785 30.5595 116.071 29.9126C116.18 29.6733 116.227 29.8584 116.227 29.8958C116.163 31.2438 116.029 35.6571 116.575 38.0673C117.324 41.3391 119.48 41.704 120.233 41.704C121.835 41.704 123.152 40.4858 123.593 37.2782C123.703 36.505 123.543 35.9089 123.068 35.9089ZM55.8358 33.9273C55.7476 35.6232 55.4152 37.0432 54.8859 38.0718C53.9183 39.9404 52.0144 40.5284 51.1769 37.8369C50.5674 35.8927 50.7733 33.2385 51.0299 31.806C51.3997 29.6813 52.3378 28.1785 53.8007 28.3163C55.2976 28.4641 56.0292 30.3913 55.8358 33.9273ZM70.5067 33.9522C70.4229 35.5519 70.0069 37.1643 69.5525 38.0718C68.6151 39.9528 66.655 40.5409 65.8433 37.8369C65.2891 35.9843 65.4192 33.5953 65.6963 32.0917C66.0545 30.1351 66.9159 28.3163 68.468 28.3163C69.9774 28.3163 70.7214 29.9713 70.5067 33.9522ZM70.8897 44.8866C70.8684 47.814 70.4104 50.3755 69.4259 51.1229C68.0218 52.181 66.1338 51.3828 66.5249 49.25C66.8697 47.3602 68.5055 45.4329 70.8943 43.0768C70.8943 43.0768 70.9025 43.6142 70.8897 44.8866ZM96.2201 33.969C96.1354 35.729 95.7443 37.1019 95.2614 38.0718C94.3232 39.9528 92.3809 40.5365 91.5522 37.8369C91.1024 36.3626 91.0809 33.9015 91.4052 31.8487C91.7332 29.7569 92.6545 28.1785 94.1762 28.3163C95.681 28.4596 96.384 30.3913 96.2201 33.969Z" fill="#FFFFEB"/>
<path id="Vector_5" d="M615.308 32.1415L620.35 45.5C618.872 45.2972 617.365 45.0074 615.859 44.7756L613.019 37.3864L610.092 44.167C608.672 43.9352 607.252 43.8483 605.803 43.6744L610.932 31.9966L606.296 20H610.614L613.222 26.6937L616.003 20H620.35L615.308 32.1415ZM602.906 20H598.994V43.1528C600.269 43.2398 601.602 43.2977 602.906 43.4426V20ZM595.632 42.892C592.068 42.6602 588.504 42.4284 584.882 42.3705V20H588.852V38.6034C591.141 38.6614 593.43 38.8352 595.632 38.9511V42.892ZM580.622 29.0699V33.0398H575.174V42.1097H571.234V20H582.39V23.9699H575.174V29.0409L580.622 29.0699ZM564.54 23.9699V42.3125C563.207 42.3125 561.845 42.3125 560.541 42.3705V23.9699H556.426V20H568.684V23.9699H564.54ZM552.137 33.2426C550.399 33.2426 548.312 33.2426 546.835 33.3295V39.2409C549.182 39.067 551.5 38.8932 553.876 38.8062V42.6312L542.865 43.5006V20H553.876V23.9699H546.835V29.3307C548.37 29.3307 550.747 29.2437 552.137 29.2437V33.2426ZM530.057 31.0114V44.9205C528.637 45.0943 527.362 45.2972 526 45.5V20H529.796L534.983 34.4886V20H538.982V43.8483C537.562 44.0801 536.142 44.167 534.635 44.3699L530.057 31.0114Z" fill="#FFFFEB"/>
<g id="Vector_6">
<path fill-rule="evenodd" clip-rule="evenodd" d="M400.318 23.3425C400.45 23.1478 400.849 23.2776 401.13 23.2842C401.507 23.2926 401.418 23.8417 401.94 23.7335C402.461 23.6237 402.468 24.2211 403.212 24.1994C403.959 24.1761 403.063 24.4557 403.063 24.4557C403.063 24.4557 402.601 24.236 402.304 24.3841C402.145 24.4623 402.361 24.3392 402.096 24.1262C401.686 23.7967 401.742 24.1878 401.056 23.6137C400.569 23.2077 400.102 23.662 400.318 23.3425Z" fill="#FFFFEB"/>
<path d="M394.712 24.1009C394.271 23.3987 394.601 22.5251 395.101 21.6748C395.468 21.0492 396.451 20.773 397.305 21.1008C398.264 20.357 398.493 21.1573 399.342 20.7963C400.458 20.3204 399.834 22.0592 400.913 22.4968C401.36 21.3254 399.897 20.4452 400.814 19.8944C401.47 19.5 401.965 19.2554 402.234 18.7296C402.616 17.9775 402.765 17.4284 403.061 17.3302C403.741 17.1006 403.594 16.4649 403.594 16.4649C403.594 16.4649 404.319 16.6729 404.881 16.1537C404.451 15.9241 403.822 15.7294 403.989 15.2735C404.184 14.7377 405.642 15.8276 406.073 14.9474C405.205 14.5763 404.319 13.7676 403.79 13.5812C403.428 13.9723 403.2 13.8159 402.731 13.4514C401.938 12.8341 401.872 13.4198 401.375 12.9972C400.981 13.7776 401.578 13.716 401.759 13.9107C402.268 14.4615 401.243 13.4198 401.343 14.8176C401.368 15.1803 400.824 15.2485 400.418 14.4615C400.207 14.0505 398.522 14.1353 398.267 13.7443C398.5 13.2884 400.484 11.6627 403.526 12.0537C399.104 10.3431 393.131 12.2101 393.07 12.8591C392.475 13.2268 392.68 13.6478 392.382 13.7443C391.866 13.914 391.307 15.4615 391.307 15.4615C391.307 15.4615 391.626 15.6712 390.627 16.7728C389.803 17.6796 389.56 19.0541 389.56 19.0541C389.56 19.0541 390.104 20.0342 389.999 21.1623C389.923 22.0243 389.886 21.3853 390.267 22.0093C390.488 22.3754 390.73 23.65 390.877 23.1525C391.158 22.204 390.365 21.3254 390.497 20.3819C390.527 20.5001 390.801 20.0075 390.791 20.4535C390.762 21.6183 392.248 23.8646 392.248 23.8646C392.248 23.8646 391.694 24.4204 392.276 24.4204L392.127 24.7649C392.127 24.7649 392.558 24.7399 392.835 24.9629C393.114 25.1875 393.354 25.4637 393.608 25.4637H397.885C397.885 25.4637 398.189 24.1875 398.438 23.9695C398.686 23.7532 397.941 23.9695 397.721 23.7532C397.499 23.5352 397.36 23.9428 397.251 24.1592C397.139 24.3771 397.002 24.7582 396.671 24.8664C396.339 24.9745 395.541 25.0294 395.375 25.0294C395.209 25.0294 394.712 24.1009 394.712 24.1009Z" fill="#FFFFEB"/>
<path d="M414.749 37.764C414.583 37.5477 414.776 37.2199 414.776 37.2199H402.717L404.062 38.3747C404.356 38.4912 404.728 38.7824 404.899 39.2266C405.301 40.2766 404.702 39.4263 404.702 41.0138C404.702 42.4731 404.285 42.2368 404.285 42.2368C404.285 42.2368 404.195 43.9623 403.287 45.0223C402.71 45.593 403.159 46.0656 403.159 46.0656C403.159 46.0656 402.964 46.1738 402.682 47.4251C402.589 47.8294 403.116 48.4551 403.573 48.2987C403.916 48.1805 402.741 48.069 404.016 47.5416C404.506 47.3369 404.106 46.9525 404.106 46.9525C404.106 46.9525 404.929 46.8893 405.394 45.6629C406.216 45.7811 405.912 45.2852 407.603 44.9258C408.049 44.8326 408.144 44.6995 408.088 44.2868C408.032 43.8725 408.639 44.3467 410.315 42.6644C411.634 41.3382 411.159 41.0387 412.072 40.5578C413.038 40.052 413.126 40.6011 413.449 40.1901C414.186 39.245 413.927 39.3065 414.233 38.7042L414.451 38.373C414.451 38.373 414.913 37.9803 414.749 37.764Z" fill="#FFFFEB"/>
<path d="M406.321 25.1043L406.053 25.2624L405.998 24.9995L406.321 25.1043Z" fill="#FFFFEB"/>
<path d="M405.357 24.8947C404.926 24.9862 404.471 24.8947 404.07 25.2108L403.802 24.9995H403.641C404.016 24.6967 403.426 24.3805 404.07 24.3672C404.566 24.3805 404.926 24.7216 405.357 24.8947Z" fill="#FFFFEB"/>
<path fill-rule="evenodd" clip-rule="evenodd" d="M379.452 25.2724C382.237 16.7961 388.831 10.25 399.849 10.25C410.089 10.25 417.612 16.886 420.341 25.4571C417.494 17.4684 409.402 11.706 399.865 11.706C390.398 11.706 382.357 17.3802 379.452 25.2724ZM420.296 38.2382C417.524 46.7361 409.728 53.3471 399.849 53.3471C389.37 53.3471 382.329 46.826 379.496 38.4229C382.444 46.2503 390.447 51.8645 399.865 51.8645C409.351 51.8645 417.409 46.1621 420.296 38.2382Z" fill="#FFFFEB"/>
<path d="M362.991 27.3467H359.631L360.133 27.9341V32.2771C360.133 33.2522 359.477 33.6632 358.495 33.6632C357.516 33.6632 356.858 33.2522 356.858 32.2771V27.9341L357.36 27.3467H354L354.502 27.9341V32.3469C354.502 34.5118 355.733 35.3471 358.495 35.3471C361.256 35.3471 362.487 34.5118 362.487 32.3469V27.9341L362.991 27.3467Z" fill="#FFFFEB"/>
<path d="M374.653 27.3458H371.819L372.319 27.9331V31.8868L368.256 27.3458H365.709L366.211 27.9331V34.604L365.709 35.1931H368.543L368.041 34.604V30.5805L372.357 35.1931H374.151V27.9331L374.653 27.3458Z" fill="#FFFFEB"/>
<path d="M381.182 35.1931L380.68 34.6057V27.9348L381.182 27.3458H377.798L378.302 27.9348V34.6057L377.798 35.1931H381.182Z" fill="#FFFFEB"/>
<path d="M392.339 27.3458H389.493L389.996 27.9331L387.987 32.2512L386.05 27.9331L386.553 27.3458H383.206L386.923 35.1931H388.585L392.339 27.3458Z" fill="#FFFFEB"/>
<path d="M401.843 35.1931V33.0632L401.245 33.5574H397.167V32.0515H399.751L400.336 32.5474V29.9931L399.751 30.4874H397.167V28.9814H401.245L401.843 29.4757V27.3458H394.335L394.836 27.9348V34.6057L394.335 35.1931H401.843Z" fill="#FFFFEB"/>
<path fill-rule="evenodd" clip-rule="evenodd" d="M410.524 29.8867C410.524 30.4507 409.974 30.91 409.208 30.91H407.691V28.9814H409.495C410.021 28.9814 410.524 29.2394 410.524 29.8867ZM413.273 35.1931L411.11 32.0981C412.174 31.6754 412.916 30.8634 412.916 29.7219C412.916 28.4157 412.103 27.3458 409.83 27.3458H404.857L405.359 27.9348V34.604L404.857 35.1931H408.192L407.691 34.604V32.381H408.696L410.224 34.604L409.724 35.1931H413.273Z" fill="#FFFFEB"/>
<path d="M423.374 32.8998C423.374 31.6535 422.356 30.9579 420.886 30.487C419.929 30.1942 418.578 29.9829 418.578 29.3589C418.578 29.0527 418.948 28.8414 419.594 28.8414C420.457 28.8414 421.865 29.1941 422.966 29.7116V27.0875L422.332 27.6882C421.662 27.417 420.502 27.1341 419.702 27.1341C416.988 27.1341 416.116 28.3105 416.116 29.3822C416.116 30.8415 417.096 31.4771 418.639 32.0063C419.785 32.394 420.851 32.4289 420.851 33.0745C420.851 33.6303 420.193 33.7002 419.856 33.7002C419.009 33.7002 417.502 33.4057 416.163 32.547V35.4524L416.797 34.7701C417.419 35.0047 418.818 35.4058 419.964 35.4058C422.322 35.4058 423.374 34.3824 423.374 32.8998Z" fill="#FFFFEB"/>
<path fill-rule="evenodd" clip-rule="evenodd" d="M431.462 32.3693H428.821L430.136 29.5588L431.462 32.3693ZM435.299 35.1931L431.376 27.3458H428.687L428.973 27.9348L425.423 35.1931H428.351L427.85 34.604L428.244 33.7804H432.045L432.431 34.604L431.927 35.1931H435.299Z" fill="#FFFFEB"/>
<path d="M444.748 35.1931V33.0632L444.149 33.5574H440.311V27.9348L440.813 27.3458H437.477L437.981 27.9348V34.6057L437.477 35.1931H444.748Z" fill="#FFFFEB"/>
<path d="M443.066 29.0415C443.066 28.1779 443.779 27.4774 444.657 27.4774C445.535 27.4774 446.248 28.1779 446.248 29.0415C446.248 29.9051 445.535 30.6057 444.657 30.6057C443.779 30.6057 443.066 29.9051 443.066 29.0415ZM443.216 29.0415C443.216 29.8236 443.859 30.4609 444.657 30.4609C445.453 30.4609 446.099 29.8236 446.099 29.0415C446.099 28.2578 445.453 27.6222 444.657 27.6222C443.859 27.6222 443.216 28.2578 443.216 29.0415Z" fill="#FFFFEB"/>
<path fill-rule="evenodd" clip-rule="evenodd" d="M445.256 28.4313C445.098 28.2998 444.909 28.2382 444.704 28.2382C444.236 28.2382 443.888 28.596 443.888 29.0486C443.888 29.5045 444.229 29.864 444.701 29.864C444.912 29.864 445.114 29.7874 445.276 29.6493V29.4446C445.129 29.616 444.919 29.7225 444.693 29.7225C444.319 29.7225 444.043 29.403 444.043 29.0486C444.043 28.6942 444.322 28.3813 444.696 28.3813C444.921 28.3813 445.107 28.4729 445.256 28.6343V28.4313Z" fill="#FFFFEB"/>
</g>
<g id="Vector_7">
<path d="M1626.58 30.7662L1625.57 33.5828H1625.49C1625.32 32.9477 1625.01 31.9812 1624.5 30.8214L1619.09 17.4286H1613.78V38.7742H1617.29V25.6024C1617.29 24.7739 1617.29 23.8351 1617.26 22.6753C1617.23 22.0954 1617.18 21.6536 1617.15 21.3222H1617.23C1617.4 22.1506 1617.6 22.7581 1617.74 23.1447L1624.25 38.719H1626.72L1633.17 23.0066C1633.31 22.6477 1633.46 21.9297 1633.6 21.3222H1633.68C1633.6 22.8962 1633.54 24.3045 1633.51 25.1605V38.6913H1637.24V17.3734H1632.14L1626.58 30.7662ZM1640.78 23.3932H1644.43V38.6913H1640.78V23.3932ZM1642.63 16.9316C1642.01 16.9316 1641.51 17.1525 1641.09 17.5391C1640.67 17.9257 1640.44 18.4227 1640.44 19.0302C1640.44 19.6101 1640.67 20.1072 1641.09 20.4938C1641.51 20.8804 1642.01 21.0737 1642.63 21.0737C1643.25 21.0737 1643.78 20.8528 1644.18 20.4938C1644.6 20.1072 1644.82 19.6101 1644.82 19.0302C1644.82 18.4503 1644.6 17.9533 1644.18 17.5391C1643.81 17.1525 1643.28 16.9316 1642.63 16.9316ZM1657.36 23.2552C1656.69 23.1171 1655.99 23.0343 1655.32 23.0343C1653.66 23.0343 1652.15 23.3932 1650.88 24.1112C1649.62 24.8292 1648.61 25.8233 1647.96 27.0659C1647.29 28.3361 1646.95 29.7997 1646.95 31.4841C1646.95 32.9477 1647.29 34.2455 1647.94 35.4329C1648.58 36.5927 1649.48 37.5316 1650.69 38.1667C1651.84 38.8018 1653.18 39.1332 1654.7 39.1332C1656.44 39.1332 1657.93 38.7742 1659.1 38.1115L1659.13 38.0838V34.7702L1658.99 34.8806C1658.46 35.2672 1657.84 35.5986 1657.22 35.7919C1656.58 36.0128 1655.99 36.1232 1655.48 36.1232C1654.03 36.1232 1652.87 35.709 1652.06 34.7978C1651.22 33.9141 1650.8 32.6991 1650.8 31.1804C1650.8 29.6064 1651.22 28.3637 1652.09 27.4525C1652.96 26.5412 1654.11 26.0718 1655.51 26.0718C1656.69 26.0718 1657.9 26.4584 1658.99 27.2316L1659.13 27.342V23.8351L1659.1 23.8074C1658.63 23.6142 1658.09 23.3932 1657.36 23.2552ZM1669.4 23.1447C1668.51 23.1447 1667.66 23.4209 1666.93 24.0007C1666.32 24.4978 1665.9 25.2158 1665.53 26.0718H1665.5V23.3932H1661.85V38.6913H1665.5V30.8766C1665.5 29.5511 1665.78 28.4466 1666.4 27.6458C1667.02 26.8174 1667.8 26.4032 1668.76 26.4032C1669.1 26.4032 1669.43 26.486 1669.85 26.5412C1670.25 26.6517 1670.53 26.7621 1670.72 26.9002L1670.86 27.0107V23.4209L1670.78 23.3932C1670.53 23.2276 1670.02 23.1447 1669.4 23.1447ZM1679.34 23.0619C1676.78 23.0619 1674.74 23.8074 1673.3 25.271C1671.85 26.7345 1671.14 28.7503 1671.14 31.2908C1671.14 33.6656 1671.87 35.5986 1673.28 37.0069C1674.68 38.3876 1676.59 39.1056 1678.97 39.1056C1681.47 39.1056 1683.46 38.36 1684.89 36.8688C1686.35 35.3777 1687.06 33.3895 1687.06 30.9318C1687.06 28.5018 1686.38 26.5688 1685.01 25.1605C1683.69 23.7522 1681.75 23.0619 1679.34 23.0619ZM1682.26 34.8254C1681.58 35.6814 1680.52 36.0956 1679.2 36.0956C1677.88 36.0956 1676.81 35.6814 1676.05 34.7702C1675.3 33.9141 1674.93 32.6715 1674.93 31.0975C1674.93 29.4683 1675.33 28.2257 1676.05 27.342C1676.81 26.4584 1677.85 26.0166 1679.17 26.0166C1680.46 26.0166 1681.47 26.4308 1682.2 27.2868C1682.93 28.1428 1683.32 29.3855 1683.32 31.0147C1683.27 32.6715 1682.96 33.9694 1682.26 34.8254ZM1695.19 29.7444C1694.04 29.275 1693.31 28.916 1692.98 28.6123C1692.7 28.3361 1692.56 27.9495 1692.56 27.4525C1692.56 27.0383 1692.72 26.6241 1693.15 26.3479C1693.57 26.0718 1694.04 25.9337 1694.74 25.9337C1695.36 25.9337 1696.01 26.0442 1696.62 26.2099C1697.24 26.3755 1697.8 26.6241 1698.25 26.9554L1698.39 27.0659V23.697L1698.31 23.6694C1697.89 23.5037 1697.33 23.338 1696.65 23.1999C1695.98 23.0895 1695.36 23.0343 1694.86 23.0343C1693.12 23.0343 1691.69 23.4485 1690.56 24.3597C1689.44 25.2158 1688.91 26.3755 1688.91 27.7286C1688.91 28.4466 1689.02 29.0817 1689.27 29.6064C1689.53 30.131 1689.89 30.6281 1690.39 31.0423C1690.9 31.4289 1691.63 31.8707 1692.64 32.2849C1693.48 32.6439 1694.13 32.92 1694.52 33.1409C1694.91 33.3619 1695.17 33.6104 1695.36 33.8037C1695.5 34.0246 1695.59 34.3007 1695.59 34.6597C1695.59 35.6814 1694.8 36.1785 1693.2 36.1785C1692.58 36.1785 1691.94 36.068 1691.18 35.8195C1690.42 35.571 1689.72 35.212 1689.13 34.7978L1688.99 34.6873V38.1943L1689.08 38.2219C1689.61 38.4704 1690.25 38.6361 1691.04 38.8294C1691.83 38.9675 1692.53 39.0779 1693.15 39.0779C1695.03 39.0779 1696.57 38.6637 1697.66 37.7525C1698.79 36.8688 1699.38 35.7367 1699.38 34.2731C1699.38 33.2514 1699.09 32.3401 1698.48 31.6498C1697.66 30.9871 1696.65 30.2967 1695.19 29.7444ZM1709 23.0619C1706.45 23.0619 1704.4 23.8074 1702.97 25.271C1701.54 26.7345 1700.81 28.7503 1700.81 31.2908C1700.81 33.6656 1701.54 35.5986 1702.94 37.0069C1704.34 38.3876 1706.25 39.1056 1708.64 39.1056C1711.13 39.1056 1713.13 38.36 1714.56 36.8688C1716.02 35.3777 1716.72 33.3895 1716.72 30.9318C1716.72 28.5018 1716.04 26.5688 1714.67 25.1605C1713.35 23.7522 1711.41 23.0619 1709 23.0619ZM1711.89 34.8254C1711.22 35.6814 1710.15 36.0956 1708.83 36.0956C1707.49 36.0956 1706.45 35.6814 1705.69 34.7702C1704.93 33.9141 1704.57 32.6715 1704.57 31.0975C1704.57 29.4683 1704.96 28.2257 1705.69 27.342C1706.45 26.4584 1707.49 26.0166 1708.8 26.0166C1710.07 26.0166 1711.11 26.4308 1711.84 27.2868C1712.56 28.1428 1712.96 29.3855 1712.96 31.0147C1712.96 32.6715 1712.59 33.9694 1711.89 34.8254ZM1736.22 26.3479V23.3932H1732.55V18.8646L1732.43 18.8922L1728.95 19.9139L1728.87 19.9415V23.3932H1723.37V21.4603C1723.37 20.5766 1723.59 19.8863 1723.99 19.4444C1724.38 19.0026 1724.97 18.7817 1725.7 18.7817C1726.2 18.7817 1726.74 18.8922 1727.33 19.1407L1727.47 19.2235V16.1032L1727.38 16.0756C1726.88 15.9099 1726.2 15.7994 1725.33 15.7994C1724.24 15.7994 1723.28 16.0479 1722.41 16.4621C1721.54 16.9316 1720.9 17.5667 1720.42 18.4227C1719.95 19.2512 1719.69 20.19 1719.69 21.267V23.3932H1717.14V26.3203H1719.69V38.6913H1723.37V26.3479H1728.87V34.2179C1728.87 37.4487 1730.41 39.0779 1733.5 39.0779C1734 39.0779 1734.54 38.9951 1735.04 38.9123C1735.58 38.8018 1735.97 38.6637 1736.19 38.5533L1736.22 38.5257V35.571L1736.08 35.6814C1735.86 35.8195 1735.66 35.93 1735.32 36.0128C1735.04 36.0956 1734.79 36.1232 1734.59 36.1232C1733.86 36.1232 1733.36 35.9576 1732.99 35.5434C1732.66 35.1568 1732.49 34.5216 1732.49 33.5828V26.3479H1736.22Z" fill="#FFFFEB"/>
<path d="M1566.75 10.25H1583.95V27.1773H1566.75V10.25Z" fill="#FFFFEB"/>
<path d="M1585.75 10.25H1602.95V27.1773H1585.75V10.25Z" fill="#FFFFEB"/>
<path d="M1566.75 28.9436H1583.95V45.8709H1566.75V28.9436Z" fill="#FFFFEB"/>
<path d="M1585.75 28.9436H1602.95V45.8709H1585.75V28.9436Z" fill="#FFFFEB"/>
</g>
<path id="Vector_8" d="M1902.25 14.25V42.75H1873.75V14.25H1902.25ZM1866.62 14.25V42.75H1838.12V14.25H1866.62ZM1831 14.25V42.75H1802.5V14.25H1831ZM1889.32 20.3232C1888.03 20.3232 1886.88 20.5268 1885.86 20.9C1884.88 21.2393 1883.96 21.8161 1883.22 22.5625C1882.47 23.275 1881.89 24.1571 1881.52 25.1411C1881.11 26.1589 1880.94 27.2786 1880.94 28.5C1880.94 29.7893 1881.15 30.9089 1881.52 31.9268C1881.89 32.9446 1882.44 33.7929 1883.15 34.5054C1883.86 35.2179 1884.71 35.7607 1885.76 36.1339C1886.78 36.5071 1887.93 36.7107 1889.22 36.7107C1890.17 36.7107 1891.12 36.6089 1891.97 36.4054C1892.78 36.2357 1893.56 35.9304 1894.28 35.5232V32.4696C1892.89 33.3179 1891.29 33.7929 1889.7 33.7589C1888.61 33.7589 1887.69 33.5554 1886.91 33.1482C1886.17 32.7411 1885.56 32.1304 1885.18 31.35C1884.78 30.5696 1884.57 29.6196 1884.57 28.5C1884.57 27.3804 1884.78 26.4304 1885.18 25.65C1885.59 24.9036 1886.2 24.2589 1886.98 23.8857C1887.76 23.4786 1888.71 23.275 1889.8 23.275C1890.61 23.275 1891.36 23.3768 1892.07 23.5804C1892.78 23.7839 1893.46 24.0893 1894.07 24.5304V21.375C1893.36 21.0018 1892.65 20.7304 1891.87 20.5607C1891.02 20.3911 1890.17 20.3232 1889.32 20.3232ZM1852.17 20.4929H1846.17V36.5071H1852.54C1853.8 36.5071 1854.89 36.3375 1855.8 35.9304C1856.72 35.5571 1857.4 35.0143 1857.87 34.3357C1858.35 33.6571 1858.62 32.8089 1858.62 31.8589C1858.62 30.875 1858.38 30.0607 1857.87 29.3821C1857.36 28.7036 1856.65 28.1946 1855.7 27.8893C1856.38 27.55 1856.89 27.1089 1857.26 26.5661C1857.6 25.9893 1857.77 25.3446 1857.77 24.5982C1857.77 23.275 1857.29 22.2571 1856.31 21.5446C1855.33 20.8321 1853.94 20.4929 1852.17 20.4929ZM1816.55 20.4929H1810.51V36.5071H1816.89C1818.14 36.5071 1819.23 36.3375 1820.14 35.9304C1821.06 35.5571 1821.74 35.0143 1822.21 34.3357C1822.69 33.6571 1822.96 32.8089 1822.96 31.8589C1822.96 30.875 1822.72 30.0607 1822.21 29.3821C1821.7 28.7036 1820.99 28.1946 1820.04 27.8893C1820.72 27.55 1821.23 27.1089 1821.6 26.5661C1821.94 25.9893 1822.11 25.3446 1822.11 24.5982C1822.11 23.275 1821.64 22.2571 1820.65 21.5446C1819.67 20.8321 1818.31 20.4929 1816.55 20.4929ZM1852.27 29.5857C1854.27 29.5857 1855.26 30.3321 1855.26 31.7911C1855.26 32.4696 1854.99 33.0125 1854.48 33.3857C1853.97 33.7589 1853.19 33.9286 1852.24 33.9286H1849.39V29.5857H1852.27ZM1816.65 29.5857C1818.65 29.5857 1819.63 30.3321 1819.63 31.7911C1819.63 32.4696 1819.36 33.0125 1818.85 33.3857C1818.34 33.7589 1817.56 33.9286 1816.61 33.9286H1813.76V29.5857H1816.65ZM1851.87 23.0714C1853.6 23.0714 1854.44 23.7161 1854.44 24.9714C1854.44 25.6161 1854.21 26.125 1853.77 26.4982C1853.33 26.8714 1852.68 27.0411 1851.83 27.0411H1849.36V23.0714H1851.87ZM1816.24 23.0714C1817.97 23.0714 1818.82 23.7161 1818.82 24.9714C1818.82 25.6161 1818.58 26.125 1818.14 26.4982C1817.7 26.8714 1817.06 27.0411 1816.21 27.0411H1813.73V23.0714H1816.24Z" fill="#FFFFEB"/>
<path id="Vector_9" d="M1065.62 6.17969H1066.11C1066.27 6.20987 1066.49 6.20426 1066.66 6.20905C1066.94 6.2158 1067.23 6.2289 1067.51 6.24831C1068.4 6.31635 1069.3 6.43698 1070.18 6.60957C1075.67 7.69569 1080.55 10.8284 1083.83 15.3743C1085.83 18.1443 1087.16 21.3438 1087.71 24.7183C1087.81 25.2866 1087.88 25.8585 1087.92 26.4325C1087.94 26.6332 1087.97 27.3743 1088 27.5148V29.1145C1087.98 29.2079 1087.93 30.08 1087.92 30.2335C1087.87 30.8714 1087.78 31.5062 1087.67 32.1364C1087.04 35.7849 1085.49 39.2141 1083.18 42.1065C1079.56 46.6398 1074.31 49.5708 1068.56 50.2668V35.0692H1074.54C1074.93 32.8435 1075.37 30.5378 1075.78 28.3151H1068.56C1068.56 24.9266 1068.1 21.3069 1072.6 21.0128C1073.11 20.9797 1073.57 20.9732 1074.08 20.9763C1074.77 20.9753 1075.46 21.0008 1076.14 21.0529V14.9329C1074.72 14.5679 1072.83 14.4025 1071.37 14.3849C1067.98 14.3589 1064.25 15.1381 1062.27 18.1775C1060.3 21.2178 1060.54 24.8556 1060.54 28.3151H1055.98V35.0692H1060.54V49.778C1057.79 49.0981 1055.2 47.893 1052.91 46.2285C1048.38 42.9543 1045.26 38.087 1044.18 32.6061C1044.01 31.7247 1043.89 30.8338 1043.82 29.9382C1043.8 29.6551 1043.79 29.3714 1043.78 29.0878C1043.77 28.919 1043.78 28.6992 1043.75 28.5391V28.0764C1043.77 27.9892 1043.79 27.1551 1043.8 27.0046C1043.83 26.4165 1043.89 25.83 1043.97 25.2467C1044.42 22.0293 1045.57 18.9505 1047.35 16.2312C1050.54 11.3298 1055.55 7.89353 1061.27 6.67402C1062.21 6.47502 1063.16 6.33706 1064.11 6.26099C1064.38 6.2399 1064.65 6.22404 1064.93 6.2134C1065.11 6.20743 1065.46 6.21985 1065.62 6.17969Z" fill="#FFFFEB"/>
<g id="Vector_10">
<path d="M1197.16 22.1914H1201.2L1208.08 34.6289L1214.96 22.1914H1218.91V42.6285H1215.61V26.965L1209.58 37.8113H1206.49L1200.46 26.965V42.6285H1197.16V22.1914Z" fill="#FFFFEB"/>
<path d="M1229.55 42.9928C1228.02 42.9928 1226.68 42.6546 1225.52 41.9782C1224.37 41.3018 1223.46 40.3651 1222.82 39.1681C1222.17 37.971 1221.84 36.5988 1221.85 35.0515C1221.85 33.4847 1222.16 32.0979 1222.79 30.891C1223.43 29.6845 1224.3 28.7404 1225.43 28.0589C1226.55 27.3779 1227.84 27.0373 1229.3 27.0371C1230.75 27.0371 1232 27.3801 1233.05 28.0662C1234.1 28.7525 1234.9 29.7135 1235.46 30.9494C1236.03 32.1854 1236.31 33.6355 1236.31 35.2996V36.2046H1225.12C1225.32 37.4505 1225.82 38.431 1226.63 39.1461C1227.43 39.8614 1228.44 40.2191 1229.67 40.219C1230.65 40.219 1231.5 40.073 1232.21 39.7811C1232.92 39.4891 1233.59 39.0464 1234.21 38.4528L1235.96 40.5986C1234.22 42.1948 1232.08 42.9929 1229.55 42.9928ZM1231.96 30.869C1231.27 30.1636 1230.37 29.8108 1229.25 29.8107C1228.16 29.8107 1227.24 30.1708 1226.51 30.891C1225.77 31.6112 1225.31 32.5796 1225.12 33.796H1233.14C1233.05 32.5503 1232.65 31.5746 1231.96 30.869Z" fill="#FFFFEB"/>
<path d="M1240.31 30.1031H1237.28V27.4025H1240.31V22.9355H1243.49V27.4025H1248.11V30.1031H1243.49V36.9495C1243.49 38.0881 1243.69 38.9007 1244.08 39.3873C1244.47 39.8741 1245.13 40.1174 1246.08 40.1172C1246.5 40.1172 1246.85 40.1002 1247.14 40.0661C1247.44 40.0322 1247.76 39.9859 1248.11 39.9274V42.5988C1247.71 42.7144 1247.3 42.8023 1246.89 42.8617C1246.42 42.931 1245.94 42.9652 1245.46 42.9638C1242.03 42.9638 1240.31 41.0856 1240.31 37.3291V30.1031Z" fill="#FFFFEB"/>
<path d="M1264.69 42.6277H1261.57V40.4964C1261.01 41.2945 1260.31 41.9101 1259.45 42.343C1258.59 42.7759 1257.62 42.9925 1256.53 42.9928C1255.19 42.9928 1254 42.6497 1252.96 41.9635C1251.93 41.2774 1251.11 40.3334 1250.52 39.1316C1249.92 37.9296 1249.63 36.555 1249.63 35.0077C1249.63 33.4506 1249.93 32.0735 1250.53 30.8763C1251.13 29.6794 1251.97 28.7403 1253.03 28.0589C1254.1 27.3779 1255.32 27.0373 1256.71 27.0371C1257.75 27.0371 1258.68 27.2391 1259.51 27.643C1260.32 28.0378 1261.03 28.6267 1261.57 29.3582V27.4021H1264.69V42.6277ZM1261.51 32.7304C1261.17 31.8642 1260.63 31.1805 1259.9 30.6792C1259.16 30.1781 1258.31 29.9275 1257.35 29.9275C1255.99 29.9275 1254.9 30.3849 1254.09 31.2997C1253.28 32.2145 1252.88 33.4505 1252.88 35.0077C1252.88 36.5746 1253.27 37.8155 1254.05 38.7302C1254.83 39.645 1255.88 40.1024 1257.22 40.1023C1258.2 40.1023 1259.08 39.8493 1259.84 39.3431C1260.61 38.8374 1261.17 38.1561 1261.51 37.2995V32.7304Z" fill="#FFFFEB"/>
<path d="M1181.22 21.5C1178.57 21.5 1176.49 23.4981 1174.62 26.0364C1172.04 22.7516 1169.88 21.5 1167.3 21.5C1162.03 21.5 1158 28.3503 1158 35.601C1158 40.1383 1160.19 43 1163.87 43C1166.52 43 1168.42 41.7524 1171.8 35.8383C1171.8 35.8383 1173.21 33.3477 1174.18 31.632C1174.52 32.181 1174.88 32.7725 1175.26 33.4066L1176.85 36.0755C1179.94 41.2473 1181.66 43 1184.78 43C1188.36 43 1190.35 40.0991 1190.35 35.4676C1190.35 27.8759 1186.23 21.5 1181.22 21.5ZM1169.22 34.2369C1166.48 38.5369 1165.53 39.5007 1164 39.5007C1162.43 39.5007 1161.5 38.1209 1161.5 35.6603C1161.5 30.3966 1164.12 25.0141 1167.25 25.0141C1168.95 25.0141 1170.36 25.9926 1172.53 29.0973C1170.47 32.2559 1169.22 34.2369 1169.22 34.2369ZM1179.58 33.6956L1177.68 30.5319C1177.17 29.697 1176.67 28.9285 1176.2 28.2264C1177.91 25.5876 1179.32 24.2728 1181 24.2728C1184.48 24.2728 1187.27 29.4031 1187.27 35.7048C1187.27 38.1069 1186.48 39.5007 1184.85 39.5007C1183.29 39.5007 1182.54 38.4688 1179.58 33.6956Z" fill="#FFFFEB"/>
</g>
<g id="Vector_11">
<path d="M1352.45 25.5748C1352.88 25.0072 1353.5 24.1203 1354.12 23.7855C1356.61 22.4327 1358.31 23.6228 1359.61 25.6251C1360.39 25.1193 1360.96 24.2008 1361.64 23.8312C1364.49 22.2121 1367.41 24.1278 1367.69 27.3343C1367.96 30.617 1367.82 34.2283 1367.79 37.5372C1367.78 38.3071 1364.87 38.0263 1364.32 37.9003C1363.9 37.5087 1364.34 30.0021 1364.11 28.803C1363.77 27.0528 1363.37 26.5866 1361.47 26.8284C1360.61 27.4814 1360.59 27.7478 1360.32 28.7866C1360.07 29.228 1360.19 29.2801 1360.14 29.8444L1360.01 29.1896L1359.95 29.1521C1359.57 29.9627 1360.11 36.3607 1359.69 37.4351C1359.54 37.8024 1357.81 37.7464 1357.32 37.7459C1357.14 37.6047 1356.9 37.3651 1356.73 37.2001C1356.88 36.153 1356.81 34.1924 1356.82 33.0791C1356.83 31.5435 1356.87 29.7511 1356.69 28.2339C1356.6 27.4602 1356.15 27.0351 1355.55 26.6097C1354.99 26.5631 1354.01 26.3655 1353.7 26.8641C1353.08 27.4611 1352.84 27.8094 1352.67 28.6631C1351.79 29.8675 1352.59 35.7624 1352.24 37.4741C1352.12 38.0476 1349.32 37.7363 1348.87 37.8289C1348.81 36.4345 1348.67 24.2446 1348.88 23.7309C1348.92 23.8455 1348.93 23.8591 1349.02 23.9462C1349.36 23.5518 1349.6 23.508 1350.08 23.5037C1352.37 23.4833 1352.03 23.6829 1352.45 25.5748Z" fill="#FFFFEB"/>
<path d="M1431.31 25.4238C1432.73 24.3104 1432.85 23.0934 1435.4 23.238C1437.2 23.3405 1438.06 25.1774 1438.78 25.4244C1440.27 24.1707 1440.77 23.0831 1442.99 23.2812C1446.26 23.574 1446.79 26.9262 1446.76 29.5757C1446.73 32.1022 1446.76 34.5597 1446.75 37.0806C1446.74 37.384 1446.79 37.7647 1446.57 37.9876C1445.81 37.9198 1443.62 38.2314 1443.2 37.812C1442.63 36.6336 1443.53 29.4665 1442.84 27.786C1442.38 26.6608 1441.38 26.6945 1440.38 26.8263C1439.88 27.2782 1439.63 27.4795 1439.36 28.1093L1439.12 27.7922C1438.77 28.0801 1439.04 29.9754 1438.79 30.5936C1438.63 30.3936 1438.6 30.0864 1438.69 29.8441C1438.64 30.9073 1438.74 36.9206 1438.58 37.3657C1438.18 37.7036 1436 37.856 1435.91 37.3852C1435.32 34.2271 1436.18 30.7067 1435.46 27.5588C1435.38 27.2002 1434.65 26.6228 1434.39 26.428C1432.86 26.3904 1431.38 26.6275 1431.41 28.6028C1431.44 30.1123 1431.5 31.6217 1431.47 33.1328C1431.49 34.0698 1431.4 36.4229 1431.52 37.1484L1431.56 37.7165C1430.65 37.9186 1428.95 38.1985 1428.08 37.8092C1427.73 37.4237 1428.23 25.6864 1427.94 23.9564C1428.06 23.556 1428.11 23.5713 1428.57 23.5467C1429.15 23.5151 1430.54 23.413 1430.98 23.8798C1431.19 24.3021 1431.19 24.9382 1431.31 25.4238Z" fill="#FFFFEB"/>
<path d="M1344.89 40.0278C1345.95 39.9326 1347.37 41.2056 1348.28 41.8165C1349.65 42.7504 1351.08 43.5762 1352.57 44.2864C1361.8 48.5862 1374.94 48.3274 1384.3 44.561C1384.88 44.3294 1386.57 43.2844 1387.06 43.3953C1388.84 43.7957 1386.47 45.6955 1385.92 46.1073C1383.71 47.8606 1381.21 49.2064 1378.53 50.0817C1376.08 50.89 1370.75 51.9137 1368.13 51.8554C1362.09 51.721 1355.35 50.1797 1350.36 46.669C1349.12 45.7996 1343.98 41.7679 1344.89 40.0278Z" fill="#FFFFEB"/>
<path d="M1394.52 28.5865C1394.74 28.342 1395.11 27.5218 1395.24 27.2106C1396.73 23.6364 1401.19 22.3651 1404.16 25.042C1405.31 26.0769 1406.12 28.157 1406.43 29.6838C1406.54 30.6811 1406.34 30.9655 1406.64 32.2684C1406.17 35.0934 1404.65 37.6221 1401.6 38.2135C1397.9 38.9331 1394.92 36.0195 1394.36 32.544C1394.22 31.7106 1394.06 29.2496 1394.52 28.5865ZM1398.11 29.6814C1397.47 30.3583 1397.94 31.8059 1398.04 32.6267C1398.05 32.7302 1398.05 33.193 1398.08 33.2513C1398.1 32.383 1398.04 30.8875 1398.11 30.0977C1398.24 31.5393 1397.93 33.1528 1398.86 34.4863C1399.18 34.9614 1399.69 35.2836 1400.26 35.3791C1401.75 35.6376 1402.65 33.8261 1402.78 32.6069C1402.96 30.9042 1403.08 28.6182 1402.1 27.1365C1401.49 26.2051 1400.04 26.1398 1399.19 26.7642C1398.43 27.3357 1398.23 28.7702 1398.11 29.6814Z" fill="#FFFFEB"/>
<path d="M1398.11 30.0977C1398.04 30.8875 1398.1 32.383 1398.08 33.2513C1398.05 33.193 1398.05 32.7302 1398.04 32.6267C1397.94 31.8059 1397.47 30.3583 1398.11 29.6814L1398.11 30.0977Z" fill="#FFFFEB"/>
<path d="M1340.63 23.275C1341.63 23.1695 1343.09 23.3186 1344.02 23.7477C1347.6 25.3971 1346.48 30.4013 1346.65 33.5544C1346.7 34.3655 1346.82 37.6147 1346.4 37.9653C1345.63 38.1151 1344.36 37.9687 1343.55 37.8911C1343.37 37.1325 1343.37 36.8611 1343.02 36.1351C1341.24 38.9505 1337.63 39.1355 1335.78 36.3267C1335.02 34.6839 1335.06 32.9263 1336 31.3521C1337.03 29.5995 1339.01 28.9618 1340.94 28.9078C1343.05 28.8489 1343.45 29.2053 1342.76 26.819C1342.12 26.3292 1341.25 25.9582 1340.44 26.2099C1339.55 26.4854 1339.18 27.3526 1338.77 28.1114C1337.82 28.0401 1336.6 27.838 1335.68 27.6026C1336.08 24.5921 1337.83 23.6319 1340.63 23.275ZM1340.54 35.5606C1343.09 35.5703 1343.17 32.885 1342.98 30.9518C1342.59 30.9558 1342.03 30.9447 1341.66 30.9782C1341.34 31.0327 1340.9 31.0953 1340.61 31.2139C1338.8 31.9485 1338.32 35.0178 1340.54 35.5606Z" fill="#FFFFEB"/>
<path d="M1370.37 26.39C1370.78 26.1418 1371.24 25.2822 1371.66 24.8991C1372.99 23.7033 1375.74 23.4023 1377.41 23.7755C1378.46 24.0193 1379.38 24.6734 1379.94 25.5922C1381.48 28.0446 1380.43 31.7644 1380.75 34.5727C1380.8 34.9738 1380.83 36.6737 1380.75 37.0345C1380.72 37.1448 1380.68 37.2514 1380.63 37.3516C1380.53 37.4093 1380.15 37.6475 1380.12 37.6357C1379.73 37.4739 1379.01 37.7468 1378.69 37.6664C1378.59 37.5129 1378.54 37.4727 1378.38 37.3854C1378.08 36.8366 1378.06 35.7123 1377.03 36.0744C1376.87 36.2691 1376.89 36.3787 1376.9 36.6367C1376.88 36.8506 1376.55 37.2317 1376.4 37.379C1374.95 38.7368 1372.15 38.57 1370.81 37.1365C1369.96 36.2361 1369.8 35.3666 1369.77 34.2101C1369.69 30.6551 1372.07 29.0159 1375.36 28.9032C1375.77 28.8808 1377.05 28.9892 1377.31 28.738C1377.41 28.4839 1377.38 28.2823 1377.35 28.0308C1377.13 26.3856 1376.44 26.0358 1374.91 26.2315C1373.1 26.4634 1374.4 27.8377 1372.86 28.006C1372.39 28.0572 1370.52 27.8266 1370.2 27.5726C1370.11 27.2164 1370.23 26.7267 1370.37 26.39ZM1374.16 35.3359L1374.95 35.5564C1375.57 35.556 1376.02 35.5881 1376.48 35.0977C1377.44 34.0622 1377.48 32.283 1377.36 30.9684C1376.98 30.9644 1376.44 30.9432 1376.07 30.9777C1375.21 31.1203 1374.5 31.2922 1373.98 32.0449C1373.24 33.1178 1373.46 34.3448 1374.16 35.3359Z" fill="#FFFFEB"/>
<path d="M1456.74 23.5671C1457.69 23.5036 1459.3 23.5023 1460.22 23.654C1460.33 24.4523 1460.29 25.6045 1460.29 26.4329C1460.29 30.023 1460.33 33.6175 1460.27 37.2065C1460.26 37.3729 1460.26 37.7794 1460.11 37.8541C1459.33 38.2384 1457.94 37.9658 1457.12 37.8617C1457.01 37.3769 1456.87 36.5998 1456.59 36.2139C1456.1 36.3337 1455.68 38.1029 1453.65 38.2861C1450.61 38.561 1449.14 36.4323 1448.98 33.6304C1448.91 32.4772 1448.67 24.2156 1449.1 23.6784C1449.68 23.4358 1451.74 23.5249 1452.4 23.6197C1452.37 23.8946 1452.32 23.9192 1452.44 24.12C1452.34 25.0425 1452.3 31.8568 1452.45 32.6695C1452.46 33.0196 1452.55 33.4106 1452.78 33.6866C1453.68 35.6862 1456.08 35.2189 1456.44 33.1519C1456.83 30.8369 1456.55 28.3627 1456.61 26.014C1456.63 25.1467 1456.54 24.4309 1456.74 23.5671Z" fill="#FFFFEB"/>
<path d="M1408.85 23.5676C1409.6 23.5477 1410.85 23.4365 1411.56 23.6867C1411.96 23.8257 1411.93 24.9826 1412.16 25.2039C1412.77 25.0548 1413.64 23.8101 1414.31 23.5706C1417.1 22.5736 1419.24 23.9819 1419.89 26.7039C1419.96 27.0305 1420.03 27.3601 1420.08 27.692C1420 28.633 1420.05 30.3278 1420.05 31.3252C1420.04 33.4667 1420.06 35.6082 1420.11 37.7491C1419.98 37.9336 1419.98 38.013 1419.76 38.0376C1418.74 38.1497 1417.48 38.0056 1416.49 37.8517C1416.44 35.8675 1416.43 33.8828 1416.45 31.8982C1416.45 30.5471 1416.74 28.1746 1415.79 27.1657C1415.14 26.477 1413.58 26.6726 1412.99 27.3663C1412.07 28.4328 1412.33 30.5664 1412.31 31.8964C1412.28 33.8852 1412.36 35.8717 1412.3 37.8537C1411.53 38.0477 1409.51 38.13 1408.81 37.8885C1408.75 36.82 1408.84 35.0599 1408.83 33.9084C1408.77 30.4894 1408.89 26.9823 1408.85 23.5676Z" fill="#FFFFEB"/>
<path d="M1466.7 23.2934C1469.61 22.9911 1472.62 24.2907 1472.68 27.574C1471.85 27.8044 1470.33 27.94 1469.45 28.009C1469.32 27.6977 1469.16 27.2014 1469.05 26.8696C1468.12 26.1527 1467.07 26.0242 1466.09 26.7809C1465.93 26.9073 1465.77 27.3345 1465.81 27.5164C1466.11 29.1312 1469.12 28.9886 1470.36 29.6275C1470.95 29.849 1471.43 30.1431 1471.89 30.5876C1473.55 32.1968 1473.33 35.2528 1471.7 36.8127C1470.43 38.0316 1469.07 38.2841 1467.37 38.2787C1466.08 38.2252 1465.68 38.1897 1464.17 37.3959C1463.05 36.8135 1461.81 34.7282 1462.14 33.3368C1462.21 33.0599 1464.54 32.8006 1465.03 32.7326C1465.45 33.5066 1465.52 34.4027 1466.28 34.9938C1467.45 35.9152 1469.61 35.4721 1469.36 33.6925C1469.16 32.2133 1466.82 32.1789 1465.72 31.7749C1464.07 31.2634 1462.62 30.4705 1462.4 28.5731C1462.01 25.2834 1463.58 23.7235 1466.7 23.2934Z" fill="#FFFFEB"/>
<path d="M1492 33.0944C1491.82 34.4312 1491.43 35.6157 1490.49 36.6271C1489.56 37.6488 1488.26 38.2486 1486.88 38.2884C1479.94 38.5542 1478.39 29.1249 1482.33 24.9627C1485.55 21.5565 1491.78 23.3733 1491.94 28.6093C1486.94 29.7142 1489.99 28.7311 1487.15 26.3997C1486.36 25.752 1485 26.7695 1484.49 27.7582C1484.39 27.8647 1484.31 27.9596 1484.21 28.0611C1484.21 27.9498 1484.2 27.8426 1484.19 27.7313C1484.14 27.7854 1483.59 31.5138 1483.74 31.7995C1484.01 32.289 1483.92 32.805 1484 33.3245C1484.01 32.8846 1483.99 31.523 1484.1 31.1822C1484.14 32.5212 1484.55 36.2232 1487.16 35.255C1487.98 34.9506 1488.54 33.379 1488.76 32.5176C1489.86 32.5716 1490.95 32.7654 1492 33.0944Z" fill="#FFFFEB"/>
<path d="M1383.38 23.5862C1384.36 23.4938 1392.59 23.4091 1392.99 23.6861C1393.09 23.7558 1393.11 23.8396 1393.13 23.9533C1393.28 24.5516 1393.3 25.8856 1393.08 26.4767C1392.68 27.6007 1391.55 28.744 1390.83 29.7046C1389.8 31.0955 1388.73 32.5146 1387.8 33.9782C1389.74 34.1121 1391.61 34.0923 1393.28 35.1709C1393.53 35.7884 1393.77 37.495 1393.17 37.9165C1392.91 37.9599 1392.41 37.7791 1392.13 37.6967C1390.05 37.1004 1387.96 36.9819 1385.81 37.3894C1385.13 37.5179 1383.83 37.9722 1383.2 37.9401C1382.93 37.6831 1383 36.4533 1383 36.0553C1382.97 34.8601 1383.94 33.7327 1384.6 32.8168L1387.11 29.3579C1387.73 28.5084 1388.49 27.5542 1388.94 26.6193C1387.09 26.5078 1384.95 26.7342 1383.17 26.4339C1383.16 25.9201 1382.97 23.8525 1383.38 23.5862Z" fill="#FFFFEB"/>
<path d="M1474.99 23.565C1475.91 23.5546 1477.47 23.4953 1478.32 23.6484C1478.53 25.2654 1478.56 36.6634 1478.21 37.8238C1477.78 38.2981 1475.55 37.9615 1474.9 37.8521C1475 37.6329 1475.08 37.5022 1475.02 37.269C1474.95 36.514 1475 34.555 1475 33.7236L1475.01 26.4446C1475.02 25.9711 1475.07 23.852 1474.99 23.565Z" fill="#FFFFEB"/>
<path d="M1388.06 39.1604C1389.53 39.0786 1391.66 39.1843 1392.64 40.4058C1393.21 43.2937 1391.74 46.1923 1389.52 47.9234C1389.12 48.2392 1388.77 48.5032 1388.23 48.4583C1387.64 48.1399 1388.09 47.3305 1388.35 46.8678C1388.96 45.8089 1389.72 44.3787 1389.97 43.1855C1390.66 39.9224 1384.1 42.7572 1383.31 41.5307L1383.67 40.7414C1384.87 39.7768 1386.57 39.3651 1388.06 39.1604Z" fill="#FFFFEB"/>
<path d="M1476.19 18.01C1478.51 17.8327 1479.2 20.0538 1478.16 21.9157C1477.65 22.2284 1477.5 22.2657 1476.93 22.4317C1476.82 22.4387 1476.72 22.4371 1476.62 22.4272C1474.66 22.2417 1474.31 21.2119 1474.49 19.4396C1475 18.6581 1475.41 18.4413 1476.19 18.01Z" fill="#FFFFEB"/>
<path d="M1370.37 26.39C1370.67 25.3715 1371.34 24.5655 1372.27 24.0522C1373.89 23.1532 1376.11 23.0352 1377.87 23.5481C1378.93 23.8572 1379.82 24.4987 1380.36 25.4783C1380.73 26.1683 1380.93 26.9836 1381.02 27.7604C1381.14 28.7728 1381.19 37.1398 1380.99 37.8115C1380.95 37.9416 1380.94 37.9431 1380.82 38.0122C1380.25 38.0512 1378.47 38.0588 1378 37.8176C1377.63 37.2488 1377.9 36.6025 1377.36 36.3506C1377.06 36.4264 1377.16 36.3956 1376.9 36.6367C1376.89 36.3787 1376.87 36.2691 1377.03 36.0744C1378.06 35.7123 1378.08 36.8366 1378.38 37.3854C1378.54 37.4727 1378.59 37.5129 1378.69 37.6664C1379.01 37.7468 1379.73 37.4739 1380.12 37.6357C1380.15 37.6475 1380.53 37.4093 1380.63 37.3516C1380.68 37.2514 1380.72 37.1448 1380.75 37.0345C1380.83 36.6737 1380.8 34.9738 1380.75 34.5727C1380.43 31.7644 1381.48 28.0446 1379.94 25.5922C1379.38 24.6734 1378.46 24.0193 1377.41 23.7755C1375.74 23.4023 1372.99 23.7033 1371.66 24.8991C1371.24 25.2822 1370.78 26.1418 1370.37 26.39Z" fill="#FFFFEB"/>
<path d="M1431.52 37.1484C1431.4 36.4229 1431.49 34.0698 1431.47 33.1328C1431.5 31.6217 1431.44 30.1123 1431.41 28.6028C1431.38 26.6275 1432.86 26.3904 1434.39 26.428C1434.65 26.6228 1435.38 27.2002 1435.46 27.5588C1436.18 30.7067 1435.32 34.2271 1435.91 37.3852C1436 37.856 1438.18 37.7036 1438.58 37.3657C1438.74 36.9206 1438.64 30.9073 1438.69 29.8441C1438.6 30.0864 1438.63 30.3936 1438.79 30.5936C1439.04 29.9754 1438.77 28.0801 1439.12 27.7922L1439.36 28.1093C1438.86 30.1575 1439.2 33.4284 1439.1 35.5953C1439.07 36.1341 1439.14 37.32 1438.98 37.8068C1438.4 38.1461 1436.11 38.0684 1435.48 37.8782C1435.69 36.211 1435.73 29.6279 1435.27 28.1555C1434.77 26.1571 1432.16 26.2525 1431.7 28.3828C1431.15 30.9081 1431.97 34.7786 1431.52 37.1484Z" fill="#FFFFEB"/>
<path d="M1353.7 26.8641C1354.01 26.3655 1354.99 26.5631 1355.55 26.6097C1356.15 27.0351 1356.6 27.4602 1356.69 28.2339C1356.87 29.7511 1356.83 31.5435 1356.82 33.0791C1356.81 34.1924 1356.88 36.153 1356.73 37.2001C1356.9 37.3651 1357.14 37.6047 1357.32 37.7459C1357.81 37.7464 1359.54 37.8024 1359.69 37.4351C1360.11 36.3607 1359.57 29.9627 1359.95 29.1521L1360.01 29.1896L1360.14 29.8444C1360.19 29.2801 1360.07 29.228 1360.32 28.7866C1360.28 30.6394 1360.36 32.5179 1360.32 34.3704C1360.31 35.3069 1360.47 37.0786 1360 37.8203C1359.47 38.2752 1357.39 37.9836 1356.62 37.934C1356.37 35.7598 1356.61 33.401 1356.55 31.199C1356.48 28.8716 1357.01 26.2568 1353.7 26.8641Z" fill="#FFFFEB"/>
<path d="M1394.52 28.5865C1394.73 27.0576 1395.81 25.3181 1397.03 24.3966C1398.24 23.4998 1399.75 23.1091 1401.24 23.3078C1405.45 23.9008 1407.23 28.2808 1406.67 32.0637C1406.66 32.1322 1406.65 32.2006 1406.64 32.2684C1406.34 30.9655 1406.54 30.6811 1406.43 29.6838C1406.12 28.157 1405.31 26.0769 1404.16 25.042C1401.19 22.3651 1396.73 23.6364 1395.24 27.2106C1395.11 27.5218 1394.74 28.342 1394.52 28.5865Z" fill="#FFFFEB"/>
<path d="M1427.79 23.9866L1427.94 23.9564C1428.23 25.6864 1427.73 37.4237 1428.08 37.8092C1428.95 38.1985 1430.65 37.9186 1431.56 37.7165L1431.48 37.8822C1431.1 38.2459 1428.29 38.1834 1427.89 37.859C1427.2 36.0173 1427.78 30.911 1427.58 28.7652C1427.53 28.1935 1427.56 24.2748 1427.66 23.8808L1427.67 31.7106C1427.67 33.1598 1427.63 34.9439 1427.71 36.3589C1427.79 35.692 1427.77 34.9728 1427.78 34.2977C1427.81 30.8636 1427.74 27.4197 1427.79 23.9866Z" fill="#FFFFEB"/>
<path d="M1348.87 37.8289C1349.32 37.7363 1352.12 38.0476 1352.24 37.4741C1352.59 35.7624 1351.79 29.8675 1352.67 28.6631C1352.67 30.2945 1353.01 36.8576 1352.37 37.8665C1351.97 38.2645 1349.4 38.0218 1348.87 37.8289ZM1352.43 36.8606C1352.51 35.4084 1352.47 33.8269 1352.48 32.3645C1352.49 31.7573 1352.51 30.0626 1352.41 29.5308C1352.33 30.9464 1352.38 32.5385 1352.36 33.9674C1352.36 34.5865 1352.34 36.3235 1352.43 36.8606Z" fill="#FFFFEB"/>
<path d="M1352.41 29.5308C1352.51 30.0626 1352.49 31.7573 1352.48 32.3645C1352.47 33.8269 1352.51 35.4084 1352.43 36.8606C1352.34 36.3235 1352.36 34.5865 1352.36 33.9674C1352.38 32.5385 1352.33 30.9464 1352.41 29.5308Z" fill="#FFFFEB"/>
<path d="M1408.44 23.9583C1408.38 23.7627 1408.38 23.843 1408.46 23.6556L1408.85 23.5676C1408.89 26.9823 1408.77 30.4894 1408.83 33.9084C1408.84 35.0599 1408.75 36.82 1408.81 37.8885C1408.75 37.8241 1408.57 37.7318 1408.43 37.5874C1408.28 37.2604 1408.36 36.7578 1408.39 36.3823L1408.5 36.6137L1408.57 36.5213C1408.69 33.8265 1408.53 30.85 1408.6 28.1212C1408.63 26.932 1408.61 25.3763 1408.57 24.1623C1408.52 24.0816 1408.47 24.0136 1408.44 23.9583Z" fill="#FFFFEB"/>
<path d="M1474.9 37.8521L1474.69 37.6937C1474.44 37.0012 1474.67 25.8999 1474.6 24.3674C1474.59 24.1116 1474.62 24.118 1474.77 23.98L1474.89 24.1326C1474.79 24.7263 1474.79 28.173 1474.81 29.005C1474.87 31.6564 1474.7 34.7332 1474.84 37.3416L1474.94 37.3467L1475.02 37.269C1475.08 37.5022 1475 37.6329 1474.9 37.8521Z" fill="#FFFFEB"/>
<path d="M1474.77 23.98C1474.85 23.6744 1474.79 23.7412 1474.99 23.565C1475.07 23.852 1475.02 25.9711 1475.01 26.4446L1475 33.7236C1475 34.555 1474.95 36.514 1475.02 37.269L1474.94 37.3467L1474.84 37.3416C1474.7 34.7332 1474.87 31.6564 1474.81 29.005C1474.79 28.173 1474.79 24.7263 1474.89 24.1326L1474.77 23.98Z" fill="#FFFFEB"/>
<path d="M1452.4 23.6197C1453.02 24.1806 1452.73 32.1883 1452.78 33.6866C1452.55 33.4106 1452.46 33.0196 1452.45 32.6695C1452.58 31.5275 1452.52 29.4951 1452.53 28.2932C1452.53 27.1917 1452.59 25.1328 1452.44 24.12C1452.32 23.9192 1452.37 23.8946 1452.4 23.6197Z" fill="#FFFFEB"/>
<path d="M1420.08 27.692C1420.19 27.8745 1420.17 28.102 1420.17 28.3184C1420.2 28.2014 1420.26 27.9118 1420.34 27.8485L1420.38 27.9255L1420.32 27.8547L1420.29 27.9125C1420.32 27.9486 1420.36 27.9955 1420.41 28.0533C1420.54 30.8612 1420.47 33.7511 1420.46 36.5673C1420.46 36.678 1420.41 36.7913 1420.38 36.8671C1420.39 35.1001 1420.4 33.3329 1420.4 31.5659C1420.4 30.5348 1420.44 29.1964 1420.34 28.1893C1420.2 28.9205 1420.07 36.5422 1420.33 36.8804C1420.34 36.8957 1420.35 36.9129 1420.37 36.9274C1420.39 37.3768 1420.32 37.2988 1420.11 37.7491C1420.06 35.6082 1420.04 33.4667 1420.05 31.3252C1420.05 30.3278 1420 28.633 1420.08 27.692Z" fill="#FFFFEB"/>
<path d="M1408.44 23.9583C1408.47 24.0136 1408.52 24.0816 1408.57 24.1623C1408.61 25.3763 1408.63 26.932 1408.6 28.1212C1408.53 30.85 1408.69 33.8265 1408.57 36.5213L1408.5 36.6137L1408.39 36.3823C1408.48 35.4826 1408.4 33.8255 1408.41 32.8522C1408.47 29.9336 1408.33 26.8668 1408.44 23.9583Z" fill="#FFFFEB"/>
<path d="M1435.27 28.1555C1435.73 29.6279 1435.69 36.211 1435.48 37.8782C1435.44 37.8363 1435.4 37.793 1435.37 37.7485C1435.14 37.4587 1435.17 37.5514 1435.21 37.2546C1435.41 36.5187 1435.45 30.0971 1435.2 29.5117C1435.16 29.4043 1435.26 28.3688 1435.27 28.1555Z" fill="#FFFFEB"/>
<path d="M1420.37 36.9274C1420.35 36.9129 1420.34 36.8957 1420.33 36.8804C1420.07 36.5422 1420.2 28.9205 1420.34 28.1893C1420.44 29.1964 1420.4 30.5348 1420.4 31.5659C1420.4 33.3329 1420.39 35.1001 1420.38 36.8671L1420.37 36.9274Z" fill="#FFFFEB"/>
<path d="M1435.2 29.5117C1435.45 30.0971 1435.41 36.5187 1435.21 37.2546C1435.1 36.4487 1435.12 34.6118 1435.13 33.7211C1435.14 32.4966 1435.08 30.687 1435.2 29.5117Z" fill="#FFFFEB"/>
<path d="M1484.1 31.1822C1483.99 31.523 1484.01 32.8846 1484 33.3245C1483.92 32.805 1484.01 32.289 1483.74 31.7995C1483.59 31.5138 1484.14 27.7854 1484.19 27.7313C1484.2 27.8426 1484.21 27.9498 1484.21 28.0611C1484.31 27.9596 1484.39 27.8647 1484.49 27.7582C1484.15 29.0619 1484.13 29.8261 1484.1 31.1822Z" fill="#FFFFEB"/>
<path d="M1427.66 23.8808L1427.71 23.7851L1427.79 23.9866C1427.74 27.4197 1427.81 30.8636 1427.78 34.2977C1427.77 34.9728 1427.79 35.692 1427.71 36.3589C1427.63 34.9439 1427.67 33.1598 1427.67 31.7106L1427.66 23.8808Z" fill="#FFFFEB"/>
<path d="M1452.45 32.6695C1452.3 31.8568 1452.34 25.0425 1452.44 24.12C1452.59 25.1328 1452.53 27.1917 1452.53 28.2932C1452.52 29.4951 1452.58 31.5275 1452.45 32.6695Z" fill="#FFFFEB"/>
</g>
<path id="Vector_12" d="M2367.98 30.0622C2367.98 31.6672 2367.03 32.5502 2366.6 32.8945C2365.81 33.5271 2364.83 33.942 2364.02 34.1731C2363.17 34.4123 2361.95 34.7811 2359.67 34.7811C2358.27 34.7811 2357.55 34.6169 2356.43 34.3831C2355.05 34.0947 2353.74 33.5907 2353.29 33.3751C2352.95 33.2075 2352.84 33.5561 2352.84 33.6277C2352.84 33.7731 2352.84 34.3563 2352.84 34.3563H2350.7V28.9713H2352.63C2352.63 29.6062 2352.93 30.2508 2353.12 30.487C2353.9 31.437 2354.72 31.8316 2355.51 32.103C2356.2 32.34 2358.09 32.8095 2359.66 32.8095C2361.79 32.8095 2362.96 32.2751 2363.14 32.2014C2363.31 32.1298 2364.29 31.8192 2364.29 30.7664C2364.29 29.7224 2363.37 29.4623 2362.81 29.3267C2362.11 29.1569 2360.4 28.9328 2358.65 28.7389C2356.89 28.5421 2355.1 28.2944 2354.28 28.1175C2352.42 27.7197 2351.72 27.0711 2351.27 26.6621C2351.3 26.6957 2350.27 25.7768 2350.27 24.1541C2350.27 22.3413 2351.51 21.252 2353.03 20.5774C2354.65 19.853 2356.58 19.5136 2358.27 19.5224C2361.27 19.538 2363.7 20.5271 2364.56 20.9709C2364.92 21.1519 2365.1 20.9307 2365.1 20.7496V20.2064H2367.02V24.894H2365.29C2365.1 24.029 2364.6 23.406 2364.23 23.1079C2363.9 22.8419 2363.49 22.6273 2363.14 22.4551C2362.11 21.9945 2360.5 21.5743 2358.58 21.5743C2356.98 21.5743 2355.41 21.8588 2354.65 22.3457C2354.17 22.6541 2353.92 23.0341 2353.92 23.4723C2353.92 24.0893 2354.46 24.4244 2354.73 24.5072C2355.59 24.7734 2357.75 25.017 2359 25.142C2360.18 25.2604 2362.72 25.6189 2363.83 25.8798C2364.39 26.0118 2365.04 26.2108 2365.48 26.4186C2365.99 26.6556 2366.46 26.9459 2366.87 27.3351C2367.16 27.6213 2367.98 28.5175 2367.98 30.0622ZM2378.55 31.7564C2378.55 31.7564 2378.51 32.3645 2379.29 32.3645H2381.19V34.0747H2371.65V32.3646L2373.47 32.3645C2374.25 32.3645 2374.21 31.7605 2374.21 31.7605L2374.23 22.706C2374.23 22.706 2374.27 22.1021 2373.49 22.1021H2371.68V20.3896H2381.17V22.1022H2379.26C2378.48 22.1022 2378.53 22.7062 2378.53 22.7062L2378.55 31.7564ZM2339.45 20.3942H2347.41V22.0953C2347.41 22.0953 2346.77 22.0953 2345.68 22.0953C2345.01 22.0953 2344.86 22.2743 2344.82 22.7637L2344.85 29.9012C2344.85 34.1149 2340.99 34.9309 2337.01 34.9309C2333.1 34.9309 2328.54 34.1553 2328.54 29.7649V23.1571H2328.54C2328.53 22.4171 2328.39 22.0953 2327.59 22.0953C2326.5 22.0953 2325.92 22.0953 2325.92 22.0953V20.3942H2335.64V22.0953C2335.64 22.0953 2335.05 22.0953 2333.95 22.0953C2333.17 22.0953 2333.1 22.3457 2333.07 23.0655V29.9772C2333.07 30.4556 2332.9 33.2879 2337.01 33.2879C2341.39 33.2879 2341.97 31.551 2341.97 29.9616L2341.98 23.0743C2341.96 22.3947 2341.8 22.0953 2341.03 22.0953C2339.94 22.0953 2339.45 22.0953 2339.45 22.0953V20.3942ZM2323.3 20.3942V22.0997H2321.8C2320.72 22.0997 2320.65 22.7009 2320.65 23.2241L2320.69 31.229C2320.69 31.714 2320.66 32.3646 2321.35 32.3646C2322.44 32.3646 2323.21 32.3646 2323.21 32.3646V34.0747H2314.19V32.3646C2314.19 32.3646 2314.57 32.3646 2315.65 32.3646C2316.42 32.3646 2316.46 32.0204 2316.48 31.2626L2316.41 22.5491H2316.34L2311.19 34.0791H2308.26L2303.05 22.5491H2302.99L2302.98 31.2626C2303 32.0204 2303.04 32.3646 2303.81 32.3646C2304.88 32.3646 2305.26 32.3646 2305.26 32.3646V34.0747H2297.83V32.3646C2297.83 32.3646 2298.6 32.3646 2299.68 32.3646C2300.37 32.3646 2300.34 31.714 2300.34 31.229V23.2241C2300.34 22.7009 2300.27 22.0997 2299.19 22.0997H2297.69V20.3942L2306.52 20.3941L2310.57 29.3401L2314.63 20.3941L2323.3 20.3942ZM2402.88 29.2037C2402.87 29.2395 2402.86 29.2801 2402.85 29.3155C2402.45 31.1038 2401.26 32.7318 2399.55 33.6993C2397.82 34.6783 2395.29 35.0719 2392.83 34.8303C2390.26 34.5777 2387.92 33.6809 2386.27 32.1902C2384.9 30.9518 2384.18 29.3023 2384.08 27.5877C2384.08 27.4559 2384.07 27.3239 2384.07 27.192C2384.07 25.8866 2384.46 24.5874 2385.2 23.4611C2385.49 23.0073 2385.85 22.5783 2386.27 22.2003C2388.02 20.6132 2391.06 19.585 2393.98 19.5046H2394C2394.12 19.5022 2394.23 19.4998 2394.35 19.5C2397.33 19.5046 2399.53 20.682 2400.36 21.1095C2400.53 21.1967 2400.66 21.1899 2400.75 21.1407C2400.84 21.0871 2400.89 20.9821 2400.89 20.8881V20.345H2402.82V25.4063L2400.96 25.4058C2400.71 24.1518 2399.53 22.9206 2398.68 22.4933C2397.34 21.8159 2396.3 21.5791 2394.51 21.5521C2394.49 21.5521 2394.34 21.5521 2394.29 21.5521C2394.27 21.5521 2394.24 21.5516 2394.21 21.5521C2392.59 21.5811 2391.05 22.1185 2390 23.1637C2388.97 24.1966 2388.43 25.6452 2388.43 27.192C2388.43 28.7345 2388.97 30.1863 2390 31.209C2390.78 31.9756 2391.81 32.4839 2392.95 32.729C2393.26 32.7983 2393.59 32.8385 2393.92 32.8587C2394.03 32.8654 2394.31 32.8738 2394.34 32.8743C2396.29 32.9011 2397.51 32.4215 2398.46 31.969C2399.48 31.4816 2400.55 30.2656 2400.87 29.2037H2402.88ZM2256.83 22.0953C2256.83 22.0953 2257.52 22.0953 2258.6 22.0953C2259.41 22.0953 2259.55 22.4171 2259.56 23.1571L2259.66 28.8707L2250.25 20.3942H2243.53V22.0997H2245.03C2246.1 22.0997 2246.18 22.7009 2246.18 23.2241V31.229C2246.18 31.714 2246.21 32.3646 2245.52 32.3646C2244.44 32.3646 2243.67 32.3646 2243.67 32.3646V34.0747H2251.57V32.3646C2251.57 32.3646 2250.72 32.3646 2249.64 32.3646C2248.87 32.3646 2248.83 32.0204 2248.82 31.2626V24.4088L2259.66 34.0747H2262.41L2262.26 23.1571C2262.28 22.3659 2262.33 22.0953 2263.14 22.0953C2264.24 22.0953 2264.87 22.0953 2264.87 22.0953V20.3942H2256.83V22.0953ZM2237.08 27.2143C2237.08 25.6516 2236.54 24.2147 2235.5 23.1861C2234.42 22.1333 2232.82 21.5275 2231.16 21.5275C2229.5 21.5275 2227.9 22.1155 2226.82 23.1861C2225.79 24.2166 2225.25 25.6674 2225.25 27.2143C2225.25 28.7543 2225.79 30.2048 2226.82 31.229C2227.9 32.302 2229.5 32.8945 2231.16 32.8945C2232.86 32.8945 2234.41 32.3103 2235.5 31.229C2236.58 30.1472 2237.08 28.8303 2237.08 27.2143ZM2239.25 22.2317C2240.71 23.5595 2241.42 25.37 2241.42 27.2143C2241.42 28.9958 2240.67 30.8923 2239.25 32.2126C2237.35 33.9897 2234.34 34.9285 2231.16 34.9285C2228 34.9285 2225.05 33.9878 2223.09 32.2126C2221.62 30.8782 2220.89 29.0695 2220.89 27.2143C2220.89 25.379 2221.64 23.541 2223.09 22.2227C2224.92 20.5663 2228.14 19.5224 2231.16 19.5224C2234.53 19.5224 2237.21 20.3717 2239.25 22.2317ZM2279.19 28.6807C2279.32 28.5309 2284.18 22.9946 2284.39 22.7479C2284.86 22.2091 2285.12 22.0953 2285.74 22.0953C2286.33 22.0953 2287.47 22.0953 2287.47 22.0953V20.3942H2279.74V22.0953C2279.74 22.0953 2280.69 22.0953 2280.9 22.0953C2281.24 22.0953 2281.34 22.4419 2281.19 22.6273L2277.92 26.4537L2277.81 26.4542L2274.62 22.6273C2274.38 22.3413 2274.57 22.0953 2274.82 22.0953C2275.05 22.0953 2275.96 22.0953 2275.96 22.0953V20.3942H2266.53V22.0953C2266.53 22.0953 2267.62 22.0953 2268.21 22.0953C2268.94 22.0953 2269.41 22.5598 2269.69 22.8575C2269.91 23.0945 2274.71 28.5458 2274.82 28.6963C2274.94 28.8461 2274.94 28.8707 2274.94 28.9377V31.7256C2274.94 32.4093 2274.22 32.3646 2274.22 32.3646H2272.39V34.0747H2281.77V32.3601L2279.81 32.3597C2279.81 32.3597 2279.12 32.4079 2279.12 31.7568C2279.12 31.7568 2279.12 29.1004 2279.12 28.9952C2279.12 28.9952 2279.11 28.7666 2279.19 28.6807ZM2216.6 27.2725C2216.9 27.5585 2217.72 28.5175 2217.72 30.0622C2217.72 31.6672 2216.77 32.5489 2216.34 32.8945C2215.55 33.5271 2214.56 33.9405 2213.75 34.1731C2212.91 34.4145 2211.69 34.7833 2209.4 34.7833C2208.01 34.7833 2207.28 34.6171 2206.17 34.3831C2204.79 34.0947 2203.47 33.5873 2203.03 33.3751C2202.68 33.2075 2202.57 33.5561 2202.57 33.6277C2202.57 33.7729 2202.57 34.3563 2202.57 34.3563H2200.43V28.9713H2202.37C2202.37 29.6084 2202.66 30.2527 2202.86 30.487C2203.63 31.437 2204.46 31.8358 2205.25 32.1052C2205.94 32.34 2207.82 32.8095 2209.39 32.8095C2211.52 32.8095 2212.7 32.2712 2212.87 32.2014C2213.05 32.1322 2214.03 31.8192 2214.03 30.7664C2214.03 29.7224 2213.11 29.52 2212.54 29.3826C2211.84 29.2105 2210.11 29.049 2208.37 28.8529C2206.6 28.6539 2204.84 28.3804 2204.01 28.2023C2202.16 27.8021 2201.45 27.1048 2201 26.7002C2201.04 26.7316 2200 25.777 2200 24.1541C2200 22.3413 2201.25 21.2515 2202.76 20.5774C2204.38 19.853 2206.32 19.5136 2208.01 19.5224C2211 19.5378 2213.43 20.5218 2214.3 20.9709C2214.65 21.1519 2214.83 20.9305 2214.83 20.7495V20.2063H2216.76V24.894H2215.03C2214.84 24.029 2214.33 23.4077 2213.96 23.1079C2213.63 22.8419 2213.23 22.6156 2212.87 22.4551C2211.85 21.9945 2210.23 21.5743 2208.32 21.5743C2206.71 21.5743 2205.14 21.8591 2204.38 22.3457C2203.91 22.6541 2203.65 23.0341 2203.65 23.4722C2203.65 24.0892 2204.19 24.3467 2204.46 24.429C2205.32 24.695 2207.49 24.8852 2208.74 25.0102C2209.92 25.1286 2212.41 25.4776 2213.52 25.7412C2214.08 25.8754 2214.77 26.1238 2215.22 26.3314C2215.72 26.5683 2216.19 26.8828 2216.6 27.2725Z" fill="#FFFFEB"/>
<g id="Vector_13">
<path d="M2044.32 29.9055C2045.03 28.2935 2045.09 26.0632 2046.31 24.7413C2046.84 24.1665 2047.96 24.1535 2048.69 24.1254C2049.99 24.0749 2053.82 23.906 2054.72 24.7616C2055.06 25.0815 2055.14 25.5995 2055.15 26.0446C2055.22 28.3266 2054.52 27.5413 2053.42 28.7121C2053.31 29.9979 2053.05 34.9753 2053.43 36.0549C2053.66 36.7371 2054.48 36.756 2054.71 37.5724C2054.89 38.2067 2054.94 39.0253 2054.6 39.614C2054.35 40.0512 2053.92 40.2866 2053.44 40.4168C2051.9 40.843 2047.93 40.9088 2046.36 40.5691C2046.04 40.5001 2045.77 40.3717 2045.49 40.2116C2045.21 39.6531 2045.05 39.104 2045.05 38.474C2045.06 37.152 2045.77 37.0897 2046.52 36.3315C2047.06 35.7882 2046.86 32.8976 2046.85 32.0497C2046.83 31.9768 2046.78 31.9315 2046.73 31.8776C2046.22 32.3633 2044.84 39.5376 2043.79 40.3854C2043.35 40.7479 2042.69 40.6555 2042.16 40.5968C2041.7 40.3259 2041.42 39.9676 2041.19 39.4931C2040.74 38.586 2040.6 37.5539 2040.33 36.5859C2039.87 34.9101 2039.39 33.2295 2038.81 31.5913C2038.73 32.8871 2038.81 34.2403 2038.91 35.532C2039.07 37.3531 2039.02 36.6172 2040.13 37.562C2040.34 37.7457 2040.42 37.9665 2040.44 38.2441C2040.49 38.8994 2040.48 39.7363 2040.02 40.2542C2039.61 40.7217 2038.94 40.838 2038.35 40.8708C2037.27 40.9306 2034.3 40.991 2033.52 40.2785C2033.13 39.9221 2033.03 39.4712 2033.01 38.9655C2032.92 36.6562 2034.08 37.363 2034.9 36.4573C2035.37 35.9454 2035.23 31.0243 2035.19 30.0405C2035.16 29.3154 2035.19 28.4091 2034.45 28.0395C2034.23 27.93 2033.96 27.837 2033.78 27.6686C2033.5 27.4102 2033.44 27.0121 2033.43 26.6525C2033.42 26.0572 2033.47 25.1456 2033.91 24.6952C2034.63 23.9698 2036.55 24.1653 2037.53 24.1519C2039.24 24.1326 2041.13 24.0508 2042.79 24.5451C2043.96 25.9362 2043.69 28.2518 2044.32 29.9055Z" fill="#FFFFEB"/>
<path d="M2101.36 23.6257C2111.6 22.7885 2113.95 37.3806 2104.61 40.5221C2103.82 40.7855 2103.09 40.874 2102.27 40.9749C2101.88 40.9903 2101.5 40.9872 2101.09 40.9893C2093.86 41.0441 2090.57 32.5932 2094.61 27.1127C2096.27 24.8591 2098.71 24.0083 2101.36 23.6257Z" fill="#FFFFEB"/>
<path d="M2124.7 23.5632C2125.59 23.5306 2126.64 23.5298 2127.47 23.8484C2127.86 23.9972 2128.23 24.2418 2128.41 24.6348C2129.63 27.4227 2127.22 27.0262 2126.7 28.4162C2126.53 28.8742 2126.56 29.525 2126.53 30.0122C2126.43 31.8402 2126.73 38.4987 2126.31 39.5502C2126.2 39.8394 2126.02 39.9993 2125.73 40.1205C2124.43 40.6742 2121.77 40.5431 2120.5 40.0364C2119.69 38.8838 2116.75 32.4348 2116.31 32.0903L2116.2 32.1208C2116.04 32.433 2116.02 33.2967 2116.06 33.6386C2116.13 34.2726 2116.04 35.8162 2116.72 36.1288C2117.91 36.6718 2118.64 36.3342 2118.69 38.0461C2118.75 40.4844 2116.53 40.5973 2114.69 40.6184C2112.35 40.6268 2109.65 40.8005 2110.46 37.3789C2110.56 36.6786 2111.87 36.6334 2111.99 36.0781C2112.45 34.0266 2112.23 31.8418 2112.26 29.7522C2112.26 29.221 2112.22 28.8788 2111.98 28.4064C2111.52 28.1873 2110.68 27.8574 2110.47 27.4221C2110.06 26.5662 2110.2 24.7623 2111.15 24.3335C2112.81 23.5855 2116.83 23.5669 2118.49 24.0252C2119.41 24.8565 2121.69 30.3517 2122.47 30.5511C2122.73 29.9161 2122.49 28.7484 2122.38 28.0528C2121.3 27.315 2120.58 27.8478 2120.47 26.0353C2120.34 23.6343 2122.97 23.6147 2124.7 23.5632Z" fill="#FFFFEB"/>
<path d="M2021.29 23.9275C2022.58 23.8538 2024.04 23.8584 2025.31 24.1463C2025.79 24.2554 2026.5 24.4613 2026.81 24.8749C2027.43 25.6955 2027.85 27.9369 2028.14 29.0207C2028.71 31.0917 2029.39 34.0104 2030.23 35.9265C2030.56 36.6825 2031.37 36.9574 2031.8 37.6428C2032.04 38.0186 2032.11 38.4747 2032.01 38.9074C2031.89 39.4011 2031.68 40.0182 2031.23 40.2955C2030.07 41.0133 2024.46 40.8268 2023.1 40.5082C2022.41 40.3456 2021.94 40.0765 2021.56 39.4632C2021.5 38.4608 2021.62 37.7673 2022.5 37.1498C2022.68 37.0227 2022.92 36.8926 2023.04 36.7076C2023.18 36.4971 2023.15 36.3037 2023.1 36.0667C2022.96 35.8922 2022.82 35.7424 2022.6 35.669C2022.09 35.497 2020.84 35.5745 2020.36 35.8172C2020.2 35.9 2020.03 36.0305 2019.98 36.2113C2019.74 36.9769 2021 37.4384 2021.28 37.9956C2021.5 38.4428 2021.3 39.0739 2021.14 39.5184C2021.01 39.902 2020.81 40.1794 2020.43 40.3551C2019.54 40.7745 2015.21 40.6764 2014.24 40.3286C2013.91 40.2106 2013.65 39.9957 2013.5 39.674C2013.23 39.111 2013.32 38.2094 2013.53 37.6372C2013.87 36.6864 2014.77 36.5117 2015.58 36.1278C2016.37 35.1146 2018.29 29.4674 2018.48 28.0885C2018.18 27.8016 2017.82 27.5528 2017.51 27.2897C2017.45 27.0261 2017.4 26.7574 2017.39 26.4883C2017.36 25.856 2017.43 25.1888 2017.88 24.7032C2018.67 23.8577 2020.23 23.9708 2021.29 23.9275ZM2021.99 32.5426C2022.09 32.5015 2022.24 32.477 2022.29 32.3705C2022.5 31.9081 2022.15 30.6719 2021.96 30.2041C2021.89 30.0303 2021.84 29.9935 2021.67 29.9215C2021.45 30.5261 2021.01 31.7741 2021.17 32.4023C2021.39 32.6002 2021.7 32.5521 2021.99 32.5426Z" fill="#FFFFEB"/>
<path d="M2057.67 24.2666C2058.77 24.1623 2060.68 24.3752 2061.91 24.378C2063.86 24.3824 2065.85 24.1651 2067.78 24.2837C2068.42 24.3223 2069.06 24.4473 2069.67 24.655C2070.78 25.0429 2071.68 25.7278 2072.19 26.8005C2072.91 28.3031 2072.94 30.3095 2072.39 31.8669C2071.54 34.2621 2069.42 34.9048 2067.08 34.9415C2066.67 34.948 2065.97 34.8459 2065.61 35.0258C2065.42 35.1209 2065.25 35.3365 2065.18 35.5364C2065.11 35.7484 2065.08 35.9917 2065.18 36.1989C2065.39 36.6005 2066.13 36.7752 2066.53 36.911C2066.78 37.1193 2066.96 37.3494 2067.07 37.6569C2067.27 38.1985 2067.28 38.846 2067.04 39.3753C2066.79 39.9119 2066.34 40.2337 2065.8 40.4285C2064.4 40.9315 2058.7 41.1175 2057.35 40.4743C2056.98 40.2971 2056.78 40.0502 2056.65 39.6639C2056.53 39.31 2056.49 38.9119 2056.49 38.5398C2056.46 36.7896 2057.62 37.4513 2058.05 36.5294C2058.16 36.2951 2058.19 36.0135 2058.21 35.7573C2058.28 34.8716 2058.34 29.2595 2058.15 28.7412C2057.98 28.2936 2057.33 28.1353 2056.93 27.9497C2056.64 27.8121 2056.42 27.5979 2056.31 27.2875C2056.1 26.6994 2056.35 25.6312 2056.62 25.0793C2056.85 24.6061 2057.2 24.4332 2057.67 24.2666ZM2065.75 31.2712C2066.15 30.932 2066.29 30.6196 2066.33 30.0951C2066.37 29.6403 2066.3 29.1216 2065.99 28.7607C2065.86 28.5993 2065.74 28.5273 2065.53 28.5098C2065.44 28.5031 2065.35 28.4994 2065.26 28.4989C2064.88 28.9058 2064.77 29.88 2064.79 30.4481C2064.79 30.6831 2064.82 31.0449 2065 31.2131C2065.13 31.332 2065.25 31.3626 2065.42 31.3541C2065.53 31.3486 2065.65 31.305 2065.75 31.2712Z" fill="#FFFFEB"/>
<path d="M2066.02 12.92C2067.35 12.842 2068.5 12.9307 2069.64 13.7249C2071.66 15.1317 2072.03 18.5292 2070.63 20.4738C2069.79 21.628 2068.72 22.0573 2067.36 22.2766C2060.81 22.7463 2059.9 13.9614 2066.02 12.92ZM2066.77 18.835C2067.23 18.1807 2067.39 16.4405 2066.71 15.9112L2066.49 15.8579C2066.32 16.0418 2066.16 16.2327 2066.12 16.4838C2066.01 17.1903 2065.67 18.8431 2066.77 18.835Z" fill="#FFFFEB"/>
<path d="M2034.95 12.9255C2035.58 12.8818 2036.67 12.8669 2037.11 13.3332C2037.49 13.7221 2037.42 14.1783 2037.4 14.6722C2037.19 14.8644 2036.7 15.16 2036.43 15.3272C2035.99 17.2294 2036.71 19.7324 2036.19 21.6184C2036.05 22.1204 2033.62 22.1072 2033.35 21.9375C2032.46 21.3972 2031.48 18.0693 2030.8 17.6731L2030.71 17.748C2030.62 18.4199 2030.66 18.8877 2030.75 19.5542C2031.12 19.7796 2031.48 19.7936 2031.8 20.116C2032.42 20.7422 2032.08 21.3977 2031.52 21.92C2030.98 22.0463 2030.71 22.0559 2030.16 22.0799C2029.19 22.0734 2027.52 22.2324 2027.44 20.9068C2027.39 20.1333 2027.83 19.9021 2028.43 19.693C2028.44 19.6286 2028.45 19.564 2028.46 19.4992C2028.6 18.4461 2028.67 16.545 2028.4 15.5031C2028.33 15.2397 2027.46 15.2296 2027.43 14.6099C2027.34 12.615 2028.35 12.9926 2029.74 12.9391C2031.53 12.8697 2032.2 12.8739 2032.93 14.7026C2033.17 15.2624 2033.81 16.316 2034.19 16.8322C2034.24 15.6025 2034.3 15.3052 2033.25 14.9102C2032.97 14.8054 2033 13.6489 2033.27 13.3758C2033.68 12.9607 2034.37 12.9804 2034.95 12.9255Z" fill="#FFFFEB"/>
<path d="M2079.41 13.0005C2081.52 12.7863 2082.9 14.2393 2080.72 15.318C2080.22 16.9335 2080.96 21.1089 2080.3 21.8634C2079.76 22.2 2078.46 22.1439 2077.84 22.0733C2077.23 22.0057 2076.89 21.2704 2076.66 20.7856C2076.1 19.6562 2075.6 18.5132 2074.93 17.4431C2074.91 17.954 2074.87 18.5606 2074.89 19.0304C2074.85 20.0504 2075.62 19.7683 2076.04 20.146C2076.68 20.7194 2076.4 21.5677 2075.7 21.9207C2075.09 22.2307 2074.86 22.1986 2074.26 22.2026C2073.49 22.2164 2072.07 22.3234 2071.86 21.3822C2071.8 21.1133 2071.88 20.6571 2071.91 20.3756C2072.16 20.2054 2072.45 20.0296 2072.7 19.8644C2072.73 19.7372 2072.75 19.6087 2072.76 19.4793C2072.86 18.5664 2072.84 16.4702 2072.63 15.6081C2072.56 15.3319 2071.48 15.4263 2071.68 14.0917C2071.72 13.808 2071.88 13.5537 2072.11 13.3865C2072.83 12.8643 2075.28 13.0321 2076.16 13.1668C2076.65 13.7129 2077.69 15.9648 2078.38 16.9558C2078.4 16.3812 2078.35 15.906 2078.24 15.3443C2077.92 15.2368 2077.57 15.1595 2077.41 14.8474C2076.51 13.1419 2078.39 13.0892 2079.41 13.0005Z" fill="#FFFFEB"/>
<path d="M2085.31 12.8655C2085.38 12.8616 2085.44 12.8583 2085.5 12.8556C2086.63 12.8045 2087.51 12.6527 2088.38 13.451C2088.99 15.3998 2089.45 17.4531 2090.11 19.3896C2090.39 19.828 2090.91 19.959 2091.04 20.5106C2091.44 22.3354 2089.54 21.9677 2088.31 22.0387C2087.43 22.0887 2084.33 22.2126 2085.7 20.3757C2085.78 20.2611 2086.09 20.2241 2086.25 19.9649C2086.32 19.7107 2086.27 19.6139 2086.18 19.3644C2085.69 19.3271 2085.1 19.2138 2084.72 19.522C2084.37 20.2835 2086.49 21.7701 2084.26 22.055C2083.1 22.2044 2080.34 22.5951 2081.05 20.5613C2081.21 20.1089 2081.72 19.9556 2082.12 19.7713C2082.73 18.8162 2083.46 16.355 2083.62 15.2198C2082.2 13.5127 2083.78 12.9259 2085.31 12.8655ZM2085.61 17.7268C2085.84 17.3597 2085.74 16.4996 2085.44 16.3115C2085.29 16.7563 2085.06 17.1946 2085.26 17.6059C2085.4 17.6752 2085.45 17.6945 2085.61 17.7268Z" fill="#FFFFEB"/>
<path d="M2040.46 13.0013C2041 12.8908 2043.53 12.8062 2043.82 13.4196C2044.69 15.2214 2045.02 17.3955 2045.72 19.2707C2046.18 19.992 2046.87 20.1625 2046.78 21.171C2046.69 22.2266 2045.52 22.0548 2044.73 22.0785C2043.95 22.007 2042.76 22.2155 2042.02 22.0317C2040.41 21.6311 2041.21 20.5582 2042.03 19.9856C2041.87 19.1519 2041.04 19.1656 2040.43 19.485C2040.13 20.0375 2041.18 20.7312 2041.04 21.3865C2040.8 22.5255 2037.17 22.2555 2036.64 21.5938C2036.61 21.563 2036.59 21.5299 2036.57 21.495C2036.11 20.6319 2037.93 19.8005 2038.19 18.9006C2038.54 17.6858 2039.13 16.5584 2039.27 15.2652C2038.79 14.8266 2038.3 14.2225 2038.84 13.5382C2039.23 13.0388 2039.87 13.0432 2040.46 13.0013ZM2041.36 17.7675C2041.53 17.4277 2041.36 16.5692 2041.09 16.3214C2040.96 16.691 2040.72 17.3886 2041.04 17.7061L2041.36 17.7675Z" fill="#FFFFEB"/>
<path d="M2058.21 13.0049C2059.54 12.9807 2061.52 12.8428 2060.96 14.86C2060.89 15.1087 2060.42 15.2402 2060.2 15.3172C2059.84 16.4274 2059.88 18.6933 2060.18 19.8209C2060.93 20.204 2061.45 20.7244 2060.81 21.7296C2060.51 22.2033 2058.94 22.1626 2058.33 22.1894C2057.7 22.1913 2055.9 22.2444 2055.47 21.8619C2054.45 20.9394 2055.84 20.1542 2056.01 19.8499C2056.44 19.0593 2056.29 16.5795 2056.11 15.6669C2056.05 15.3666 2055.13 14.857 2055.17 14.3729C2055.1 12.8547 2057.13 13.0654 2058.21 13.0049Z" fill="#FFFFEB"/>
<path d="M2081.89 41.198C2079.48 40.7707 2077.34 39.9508 2075.93 37.8563C2073.35 34.0477 2073.77 28.1721 2077.8 25.5236C2081.64 23.0031 2087.52 23.1505 2090.23 27.2577C2091.61 29.3472 2091.88 32.057 2091.49 34.4923C2090.91 37.9186 2088.08 40.5725 2084.64 40.9895C2084.25 41.0362 2083.58 41.1013 2083.23 41.198H2081.89Z" fill="#FFFFEB"/>
<path d="M1996.75 37.7703C1997.27 36.7364 1998.5 36.7371 1998.63 36.2155C1998.88 35.2484 1998.86 28.7463 1998.72 28.1619C1998 27.2339 1996.59 27.3078 1996.8 25.5768C1996.86 25.0587 1997.15 24.5207 1997.56 24.2006C1998.77 23.2699 2003.68 23.6163 2005.23 23.8285C2006.13 23.9522 2007.43 24.1588 2008.02 24.9395C2008.35 25.3799 2008.33 25.9476 2008.25 26.4666C2008.2 26.8129 2008.08 27.199 2007.78 27.4125C2007.2 27.8298 2006.36 27.6951 2006.2 28.5623C2006.02 29.5821 2006.03 34.1121 2006.16 35.1547C2006.19 35.4031 2006.25 35.6745 2006.4 35.881C2006.49 36.008 2006.62 36.0995 2006.77 36.1245C2007.16 36.1861 2007.6 35.9552 2007.9 35.7296C2008.85 35.0247 2009.2 33.9597 2010.31 33.3813C2011.53 33.4188 2012.86 33.7529 2012.75 35.2998C2012.63 37.0861 2011.81 39.0258 2010.75 40.4575C2010.46 40.8464 2009.96 41.155 2009.48 41.1041C2008.51 40.9976 2007.67 40.3751 2006.67 40.3564C2004.83 40.2064 2003.21 40.1651 2001.36 40.253C2000.27 40.3052 1999.07 40.4387 1998.01 40.3181C1997.64 40.2762 1997.28 40.1135 1997.03 39.8312C1996.92 39.7052 1996.82 39.564 1996.75 39.4118V37.7703Z" fill="#FFFFEB"/>
<path d="M2053.12 12.75H2053.4C2054.07 13.1388 2054.41 13.8583 2054.62 14.6161C2054.81 15.3348 2055.21 17.1716 2054.17 17.4987C2052.88 17.9036 2052.77 16.1277 2052.29 15.8512C2051.98 16.2689 2052.3 18.8908 2052.39 19.4967C2053.06 19.8923 2054.73 20.3401 2053.25 21.7453C2052.52 22.1613 2051.31 22.0956 2050.48 22.1266C2049.38 22.1673 2046.79 22.444 2047 20.7187C2047.09 19.9251 2047.88 20.0119 2048.29 19.7466C2048.59 19.3898 2048.62 18.6706 2048.56 18.2225C2048.5 17.728 2048.54 16.168 2048.23 15.841L2048.11 15.8692C2047.81 16.2642 2047.89 16.7252 2047.66 17.1254C2047.22 17.9393 2045.97 17.8022 2045.8 16.8522C2045.61 15.7598 2045.86 14.498 2046.38 13.523C2047 12.3322 2047.96 13.1789 2048.86 13.191C2050.25 13.2097 2051.77 13.0867 2053.12 12.75Z" fill="#FFFFEB"/>
<path d="M2093.27 12.75H2096.39C2096.5 12.7795 2096.62 12.8126 2096.73 12.8493C2098.89 13.5668 2096.53 14.9608 2096.49 15.2121C2096.3 16.2536 2096.18 18.1806 2096.5 19.2306C2096.55 19.3868 2096.69 19.4261 2096.82 19.4685C2097.59 19.3436 2098.67 16.9205 2099.72 18.1655C2100.31 18.8655 2099.4 21.4225 2098.72 21.9623C2098.2 22.3788 2097.6 21.949 2097.16 21.8749C2096.41 21.7503 2095.66 21.8149 2094.91 21.8416C2094.03 21.8561 2091.32 22.6575 2091.38 21.0646C2091.4 20.5384 2091.93 20.1812 2092.32 19.8785C2092.58 18.8142 2092.52 16.3673 2092.34 15.2796C2091.92 14.9976 2091.48 14.7575 2091.39 14.2277C2091.2 13.1427 2092.55 12.9146 2093.27 12.75Z" fill="#FFFFEB"/>
</g>
<g id="Vector_14">
<path d="M2608.03 21.5554H2611.15V29.9863C2611.15 34.1286 2613.8 36.7339 2617.72 36.7339C2621.65 36.7339 2624.12 33.6895 2623.78 28.9336L2619.82 28.4649C2620.11 31.3769 2619.27 32.7536 2617.71 32.7536C2616.26 32.7536 2615.57 31.8161 2615.57 29.9583V21.557H2622.04V17.7807H2615.57V13.6384H2611.15V17.7807H2608.04V21.557L2608.03 21.5554ZM2594.16 26.9263C2594.16 23.516 2596.08 21.1895 2598.84 21.1895C2601.61 21.1895 2603.53 23.516 2603.53 26.9263C2603.53 30.3367 2601.64 32.6632 2598.84 32.6632C2596.05 32.6632 2594.16 30.3071 2594.16 26.9263ZM2589.67 26.9263C2589.67 32.6632 2593.44 36.6591 2598.86 36.6591C2604.27 36.6591 2608.05 32.6632 2608.05 26.9263C2608.05 21.1895 2604.27 17.1936 2598.86 17.1936C2593.44 17.1936 2589.67 21.1895 2589.67 26.9263ZM2583.05 36.1468H2587.49V11.9535H2583.05V36.1468ZM2575.5 36.1468H2579.93V17.7635H2575.5V36.1468ZM2575.03 13.7832C2575.03 15.2766 2576.26 16.5053 2577.75 16.5053C2579.25 16.5053 2580.47 15.2766 2580.47 13.7832C2580.47 12.2898 2579.25 11.0612 2577.75 11.0612C2576.26 11.0471 2575.03 12.2898 2575.03 13.7832ZM2559.71 26.9559C2559.71 30.2635 2561.35 32.8688 2564.22 32.8688C2567.08 32.8688 2568.72 30.2495 2568.72 26.9559C2568.72 23.6624 2567.08 21.0431 2564.22 21.0431C2561.35 21.0431 2559.71 23.6484 2559.71 26.9559ZM2555.23 42.0005V17.7635H2559.3V20.632H2559.37C2560.53 18.3491 2562.63 17.178 2565.25 17.178C2569.65 17.178 2573.2 20.7784 2573.2 26.984C2573.2 33.1896 2569.64 36.7167 2565.25 36.7167C2562.85 36.7167 2560.89 35.7357 2559.74 33.8483H2559.66V41.9865H2555.23V42.0005ZM2539.19 26.9263C2539.19 23.516 2541.1 21.1895 2543.87 21.1895C2546.64 21.1895 2548.56 23.516 2548.56 26.9263C2548.56 30.3367 2546.67 32.6632 2543.87 32.6632C2541.07 32.6632 2539.19 30.3071 2539.19 26.9263ZM2534.68 26.9263C2534.68 32.6632 2538.46 36.6591 2543.87 36.6591C2549.28 36.6591 2553.06 32.6632 2553.06 26.9263C2553.06 21.1895 2549.28 17.1936 2543.87 17.1936C2538.46 17.1936 2534.68 21.1895 2534.68 26.9263ZM2522.59 36.6591C2528.08 36.6591 2532.15 33.5415 2533.33 28.4929L2529.31 26.9559C2528.55 30.5563 2526.15 32.4437 2522.59 32.4437C2518.2 32.4437 2515.14 29.2529 2515.14 24.497C2515.14 19.7412 2518.18 16.5504 2522.59 16.5504C2526.15 16.5504 2528.37 18.3942 2529.21 21.6722L2533.23 20.252C2532.08 15.4214 2527.93 12.3334 2522.59 12.3334C2515.51 12.3334 2510.6 17.4552 2510.6 24.4955C2510.6 31.5358 2515.51 36.6576 2522.59 36.6576" fill="#FFFFEB"/>
<path d="M2502.54 18.5541C2501.67 17.5659 2500.36 17.0792 2498.66 17.0792H2498.31C2497.42 17.0493 2496.99 16.7274 2496.7 16.3231C2496.36 15.8515 2496.16 15.2151 2495.91 14.3841C2495.89 14.3317 2495.88 14.2718 2495.86 14.2119L2495.82 14.0772C2495.59 13.2986 2495.29 12.3478 2494.72 11.5467C2494.64 11.4345 2494.55 11.3222 2494.46 11.2173C2493.66 10.2965 2492.49 9.75 2490.81 9.75H2480.2C2478.04 9.75 2476.43 11.1425 2475.25 12.8793C2474.07 14.6237 2473.18 16.907 2472.5 19.1081C2471.7 21.6385 2470.71 24.8127 2470.75 27.3581C2470.77 28.6458 2471.05 29.9335 2471.9 30.8917C2472.77 31.8799 2474.08 32.3666 2475.78 32.3666H2476.13C2477.02 32.3965 2477.44 32.7184 2477.74 33.1227C2478.1 33.6243 2478.31 34.313 2478.58 35.2264L2478.62 35.3611C2478.89 36.252 2479.23 37.36 2479.98 38.221C2480.78 39.1418 2481.94 39.6883 2483.62 39.6883H2494.23C2496.39 39.6883 2498 38.2958 2499.18 36.559C2500.36 34.8146 2501.25 32.5313 2501.94 30.3302C2502.73 27.7998 2503.72 24.6256 2503.68 22.0802C2503.67 20.7925 2503.38 19.5048 2502.54 18.5466L2502.54 18.5541ZM2486.03 35.2264C2485.73 36.0274 2485.43 36.6488 2485.11 37.0905C2484.81 37.5023 2484.33 37.8317 2483.62 37.8317C2482.39 37.8317 2481.78 37.4574 2481.39 37.0082C2480.95 36.4916 2480.69 35.7729 2480.41 34.8371C2480.39 34.7697 2480.36 34.6948 2480.34 34.62C2480.13 33.9163 2479.89 33.0928 2479.47 32.3815H2484.97C2485.71 32.3815 2486.43 32.2243 2487.08 31.9398C2487.01 32.1794 2486.93 32.4265 2486.86 32.666C2486.57 33.6243 2486.31 34.4777 2486.03 35.2264H2486.03ZM2490.4 20.8824C2489.89 22.5967 2489.38 24.3111 2488.87 26.0181L2488.26 28.0619C2487.82 29.5142 2486.48 30.5024 2484.97 30.5024H2482.98C2483.45 29.9484 2483.82 29.3046 2484.03 28.5709C2484.44 27.2009 2484.95 25.494 2485.48 23.7047L2486.18 21.3914C2486.61 19.9391 2487.95 18.9508 2489.46 18.9508H2491.44C2490.97 19.5048 2490.61 20.1562 2490.4 20.8824ZM2489.46 17.0792C2488.71 17.0792 2488 17.2364 2487.34 17.5209C2487.4 17.3413 2487.46 17.1616 2487.51 16.9819L2487.57 16.7947C2487.86 15.8365 2488.12 14.983 2488.4 14.2344C2488.7 13.4333 2488.99 12.812 2489.31 12.3703C2489.46 12.1681 2489.66 11.981 2489.9 11.8462C2490.15 11.7114 2490.45 11.6291 2490.8 11.6291C2491.58 11.6291 2492.11 11.7788 2492.49 12.0034C2492.72 12.1307 2492.89 12.2879 2493.03 12.4526C2493.48 12.9692 2493.73 13.6879 2494.01 14.6237C2494.04 14.6911 2494.06 14.7659 2494.08 14.8408C2494.29 15.5445 2494.54 16.368 2494.96 17.0792H2489.45H2489.46Z" fill="#FFFFEB"/>
</g>
<g id="Vector_15">
<path d="M2774.07 24.4624C2777.16 24.4116 2780.33 24.4433 2783.42 24.4784C2788.32 24.5339 2791.42 28.1862 2791.16 33.0394C2790.99 35.1672 2790.35 36.9623 2788.8 38.4731C2786.59 40.6498 2783.79 40.464 2780.94 40.4356C2777.07 40.3969 2773.19 40.4888 2769.32 40.4237C2768.17 38.1154 2766.85 35.7487 2765.76 33.4302C2765.16 33.4161 2764.5 33.4262 2763.89 33.4298L2763.89 37.6817C2764.49 37.7244 2765.28 37.7099 2765.9 37.7145C2765.91 38.621 2765.91 39.5276 2765.9 40.4341L2757.58 40.4261C2757.57 39.5222 2757.57 38.6182 2757.58 37.7143C2758.27 37.6965 2759.02 37.7097 2759.71 37.7086C2759.81 34.3589 2759.72 30.563 2759.72 27.1913C2758.99 27.1953 2758.3 27.1981 2757.57 27.1698C2757.57 26.2698 2757.57 25.3697 2757.58 24.4697C2759.12 24.4101 2760.99 24.4594 2762.55 24.4581L2765.78 24.4551C2766.9 24.4541 2767.95 24.3716 2769.06 24.6674C2771.58 25.3368 2772.76 27.797 2772.1 30.2467C2771.72 31.6148 2770.75 32.2425 2769.56 32.8995C2770.23 34.3925 2771.32 36.116 2772.06 37.6791C2773.22 37.7705 2775.29 37.7099 2776.52 37.7084L2776.52 27.1964C2775.77 27.1936 2774.81 27.1648 2774.07 27.2033C2774.06 26.2897 2774.06 25.376 2774.07 24.4624ZM2785.33 36.6895C2786.5 35.5678 2786.83 34.3258 2786.87 32.7324C2786.95 29.4511 2785.6 27.247 2782.13 27.1904C2781.84 27.1847 2781.55 27.1861 2781.27 27.1945C2781.08 27.1969 2780.85 27.2064 2780.67 27.1965L2780.66 37.6812C2782.37 37.7587 2783.94 37.8177 2785.33 36.6895ZM2763.89 27.1996L2763.89 30.8219C2764.72 30.838 2766.36 30.9713 2767.06 30.5194C2768.48 29.4498 2768.17 27.4488 2766.32 27.2107C2765.77 27.1394 2765.06 27.1813 2764.49 27.1952C2764.29 27.197 2764.09 27.2002 2763.89 27.1996Z" fill="#FFFFEB"/>
<path d="M2735.88 11.424C2737.56 11.3556 2739.62 11.4078 2741.32 11.407C2741.33 12.034 2741.33 12.6611 2741.32 13.288C2740.99 13.2943 2740.65 13.2939 2740.32 13.2965C2740.54 13.7684 2741.67 15.5285 2741.98 15.9828C2742.48 15.0859 2743.12 14.1781 2743.58 13.2988L2742.62 13.2907C2742.61 12.6681 2742.62 12.0455 2742.63 11.4231C2743.72 11.384 2744.99 11.4096 2746.09 11.4093L2752.34 11.4086L2752.34 13.2889C2751.97 13.3004 2751.58 13.2963 2751.21 13.2975C2751.71 14.9157 2752.4 17.0446 2752.99 18.6336C2753.09 18.3463 2753.19 18.0511 2753.28 17.7559C2753.71 16.2627 2754.24 14.7892 2754.67 13.2982L2753.67 13.2927C2753.66 12.6696 2753.66 12.0465 2753.68 11.4236C2754.93 11.3817 2756.37 11.4105 2757.64 11.4101C2757.64 12.0361 2757.64 12.662 2757.64 13.2879C2757.32 13.3002 2756.99 13.295 2756.67 13.2941C2757.18 15.0431 2757.86 16.927 2758.43 18.6802C2759.04 16.9193 2759.62 15.0818 2760.21 13.3028L2759.09 13.2926C2759.07 12.6694 2759.08 12.0459 2759.1 11.4229C2760.56 11.3918 2762.07 11.4119 2763.54 11.4153C2763.55 12.0402 2763.55 12.6654 2763.54 13.2903L2762.38 13.3125L2762.26 13.6412C2761.93 14.4493 2761.61 15.55 2761.32 16.4003L2759.23 22.6271C2758.56 22.637 2757.89 22.6353 2757.22 22.622C2756.66 20.9605 2756.02 19.1092 2755.41 17.4631C2754.87 19.1919 2754.32 20.9139 2753.74 22.6285C2753.06 22.6339 2752.37 22.6332 2751.69 22.6263C2751.02 20.6244 2750.33 18.6276 2749.63 16.6362C2749.25 15.5252 2748.89 14.4055 2748.48 13.303C2747.65 13.296 2746.82 13.2972 2746 13.3065C2745.12 14.7117 2744.08 16.172 2743.17 17.5851C2743.11 18.4409 2743.15 19.7597 2743.15 20.6494L2744.7 20.6694C2744.68 21.2549 2744.69 21.9223 2744.69 22.5141C2742.75 22.547 2740.68 22.5278 2738.74 22.5112C2738.73 21.8968 2738.73 21.2824 2738.74 20.668C2739.21 20.6426 2739.81 20.6577 2740.28 20.6567C2740.29 19.649 2740.29 18.6411 2740.28 17.6333C2740.25 17.5758 2740.21 17.513 2740.17 17.4583C2739.21 16.068 2738.17 14.7102 2737.23 13.299L2735.86 13.2915C2735.86 12.6689 2735.86 12.0463 2735.88 11.424Z" fill="#FFFFEB"/>
<path d="M2728.68 24.2619C2728.89 24.2228 2729.55 24.2211 2729.76 24.2233C2731.64 24.2423 2732.82 24.6632 2734.37 25.6702L2734.38 24.4669C2735.23 24.4386 2736.19 24.4604 2737.04 24.4614L2737.04 30.0921C2736.15 30.1012 2735.25 30.0998 2734.36 30.0882C2733.39 27.7674 2731.57 26.5171 2729 27.2661C2723.57 28.8495 2724.96 39.0938 2731.25 37.5538C2732.56 37.2325 2733.35 36.2993 2734.01 35.1873C2734.26 34.6136 2734.41 34.1432 2734.57 33.5387C2735.55 33.9696 2736.7 34.5696 2737.7 35.0389C2736.77 38.5195 2734.1 40.3385 2730.59 40.5933C2725.6 40.9566 2721.65 38.4865 2721.22 33.2504C2720.82 28.4251 2723.8 24.6423 2728.68 24.2619Z" fill="#FFFFEB"/>
<path d="M2790.84 11.4156L2794.96 11.4068C2796.22 11.4048 2797.42 11.3464 2798.67 11.5958C2803.34 12.5326 2804.15 19.2915 2800.28 21.7717C2798.81 22.6728 2797.04 22.5246 2795.38 22.5235L2790.83 22.5133L2790.83 20.6605C2791.37 20.6514 2791.92 20.6582 2792.46 20.6574C2792.54 18.2862 2792.47 15.6993 2792.49 13.3037L2790.83 13.2969C2790.83 12.6698 2790.83 12.0426 2790.84 11.4156ZM2795.42 20.649C2796.67 20.6607 2797.84 20.7543 2798.81 19.7893C2798.83 19.7707 2798.85 19.7516 2798.87 19.7322C2799.67 18.7553 2799.81 17.5762 2799.71 16.3746C2799.52 14.2472 2798.11 13.1585 2796 13.3021C2795.89 13.3096 2795.54 13.3032 2795.43 13.2927L2795.42 20.649Z" fill="#FFFFEB"/>
<path d="M2690.11 11.418L2695.4 11.4148C2695.41 12.0667 2695.42 12.6367 2695.39 13.2897C2695.04 13.2955 2694.68 13.2988 2694.33 13.2995C2694.3 14.0783 2694.32 14.9404 2694.32 15.7228L2697.32 15.7285L2697.33 13.3048L2696.18 13.2966C2696.18 12.671 2696.18 12.0454 2696.2 11.42C2697.95 11.3855 2699.76 11.4114 2701.51 11.4154C2701.52 12.0406 2701.52 12.666 2701.51 13.2912C2701.07 13.3014 2700.64 13.3031 2700.2 13.2963L2700.2 20.6483L2701.52 20.6678C2701.52 21.0833 2701.55 22.0957 2701.49 22.4596C2701.38 22.5425 2701.1 22.5202 2700.95 22.5203L2696.18 22.5124L2696.19 20.6587L2697.32 20.6549C2697.35 19.6853 2697.33 18.6345 2697.33 17.6585C2696.35 17.6586 2695.3 17.6773 2694.33 17.6427C2694.3 18.5996 2694.32 19.6825 2694.32 20.6488L2695.42 20.6691C2695.4 21.2418 2695.41 21.9182 2695.4 22.5135C2693.68 22.5451 2691.81 22.5268 2690.09 22.5126L2690.1 20.6571L2691.39 20.6559C2691.46 18.3041 2691.4 15.6744 2691.41 13.3039L2690.09 13.2937C2690.09 12.6685 2690.09 12.0431 2690.11 11.418Z" fill="#FFFFEB"/>
<path d="M2716.46 11.4234C2718.43 11.3683 2720.58 11.4116 2722.56 11.413L2722.56 13.2915L2720.94 13.3087C2720.87 15.703 2720.98 18.2265 2720.93 20.6456C2722.01 20.6647 2723.12 20.6539 2724.2 20.6563C2724.21 19.5124 2724.22 18.3685 2724.22 17.2245C2724.93 17.2139 2725.67 17.224 2726.38 17.2244L2726.39 19.0155L2726.38 22.5119C2723.18 22.571 2719.66 22.5396 2716.45 22.5108C2716.45 21.8962 2716.45 21.2816 2716.46 20.667C2716.94 20.6434 2717.52 20.6566 2718.01 20.6547C2718.09 18.3797 2718.03 15.6119 2718.03 13.3021L2716.45 13.2912C2716.44 12.6686 2716.44 12.0458 2716.46 11.4234Z" fill="#FFFFEB"/>
<path d="M2727.02 11.4231C2729 11.3695 2731.14 11.4115 2733.13 11.4126L2733.13 13.2911L2731.51 13.3071C2731.48 15.7347 2731.5 18.2141 2731.5 20.6454C2732.58 20.6667 2733.69 20.6537 2734.77 20.6559L2734.78 17.2245C2735.49 17.213 2736.24 17.224 2736.96 17.2251L2736.96 19.126L2736.96 22.5122C2733.81 22.5905 2730.17 22.5384 2727.01 22.5107C2727 21.8961 2727.01 21.2814 2727.01 20.6668C2727.51 20.6443 2728.09 20.6577 2728.59 20.6566C2728.66 18.2654 2728.6 15.7103 2728.61 13.3022L2727 13.2909C2726.99 12.6683 2727 12.0455 2727.02 11.4231Z" fill="#FFFFEB"/>
<path d="M2689.75 24.4567L2696.77 24.4573C2698.07 24.4572 2699.66 24.3568 2700.92 24.5841C2703.5 25.0513 2704.95 27.5741 2704.33 30.0728C2703.96 31.558 2702.98 32.2008 2701.73 32.9068C2702.5 34.3587 2703.57 36.2373 2704.24 37.6859C2705.46 37.7497 2706.92 37.7118 2708.15 37.7111L2708.16 27.1914C2707.55 27.1913 2706.89 27.178 2706.3 27.1997C2706.28 26.2871 2706.28 25.3743 2706.3 24.4617C2710.91 24.4548 2715.7 24.3939 2720.3 24.4625L2720.3 29.5171C2719.29 29.5303 2718.27 29.5304 2717.26 29.5173C2717.26 28.7474 2717.25 27.966 2717.26 27.1972C2715.6 27.1851 2713.95 27.1877 2712.3 27.2049C2712.29 28.4099 2712.29 29.6149 2712.29 30.8198C2713.61 30.8485 2715 30.803 2716.31 30.8465C2716.31 31.7416 2716.31 32.6367 2716.3 33.5317C2715.22 33.5352 2713.31 33.6061 2712.3 33.5476L2712.29 37.6786C2713.8 37.7613 2715.72 37.7104 2717.25 37.7093L2717.26 35.3247C2718.27 35.3156 2719.29 35.3137 2720.3 35.3188L2720.3 40.4342L2707.87 40.4342C2705.83 40.4341 2703.5 40.4882 2701.48 40.4273C2700.41 38.2329 2698.88 35.5828 2697.94 33.4353C2697.44 33.4284 2696.53 33.4563 2696.09 33.4262L2696.08 37.6814C2696.76 37.7116 2697.4 37.7138 2698.08 37.7163C2698.08 38.622 2698.08 39.5278 2698.07 40.4335L2689.75 40.4371V37.7049L2691.93 37.7078C2692.01 34.3331 2691.93 30.5929 2691.94 27.1923C2691.21 27.2006 2690.48 27.1999 2689.75 27.1903V24.4567ZM2696.08 30.8204C2697.34 30.8469 2698.64 31.0631 2699.61 30.2189C2700.26 29.4479 2700.33 28.3375 2699.56 27.6245C2698.71 26.8431 2697.08 27.3643 2696.09 27.1826L2696.08 30.8204Z" fill="#FFFFEB"/>
<path d="M2747.66 40.6537C2746.98 40.5289 2746.22 40.5312 2745.5 40.3939C2740.89 39.5047 2738.27 35.2831 2739.11 30.7411C2739.49 28.7057 2740.66 26.9047 2742.37 25.7351C2746.76 22.7272 2754.76 24.1193 2756.29 29.8319C2756.71 31.3741 2756.83 32.3667 2756.55 33.9707C2755.88 37.7955 2752.71 40.3675 2748.88 40.5664C2748.75 40.5734 2747.76 40.6328 2747.71 40.6537H2747.66ZM2748.32 37.6639C2749.42 37.5411 2750.42 36.9853 2751.1 36.1202C2753.5 33.1038 2752.13 26.6411 2747.39 27.1915C2747.37 27.194 2747.35 27.1968 2747.33 27.1999C2746.32 27.2657 2745.38 27.7379 2744.72 28.509C2742.21 31.4069 2743.35 38.0474 2748.19 37.6762C2748.23 37.6729 2748.28 37.6688 2748.32 37.6639Z" fill="#FFFFEB"/>
<path d="M2768.6 11.25H2769.96C2771.17 11.4502 2772.14 11.6139 2773.12 12.3114C2777.31 15.3029 2775.73 21.897 2770.57 22.5811C2768.72 22.8251 2766.91 22.6135 2765.42 21.5729C2764.22 20.7204 2763.4 19.4194 2763.17 17.9619C2762.91 16.4505 2763.25 14.899 2764.12 13.6372C2765.3 11.9668 2766.72 11.5778 2768.6 11.25ZM2769.94 20.5788C2770.72 20.3837 2771.38 19.8892 2771.8 19.2032C2772.77 17.5774 2772.54 14.7066 2770.78 13.6808C2770.05 13.2556 2769.58 13.2708 2768.78 13.3099C2766.51 13.8201 2765.92 16.1207 2766.36 18.1174C2766.74 19.8771 2768.16 20.8573 2769.94 20.5788Z" fill="#FFFFEB"/>
<path d="M2795.05 34.9681C2795.09 35.704 2795.18 36.3444 2795.64 36.9557C2796.01 37.4508 2796.56 37.7766 2797.17 37.8597C2798.21 37.9993 2799.07 37.3873 2799.19 36.332C2799.37 34.8827 2797.52 34.0651 2796.43 33.5469C2793.94 32.3613 2791.85 31.0766 2792.23 27.9585C2792.54 25.5087 2794.62 24.0853 2797.04 24.3558C2798.1 24.4738 2798.75 24.974 2799.39 25.7836L2799.4 24.4679C2800.29 24.4452 2801.22 24.4608 2802.11 24.4643L2802.11 29.2825C2801.21 29.2984 2800.31 29.2973 2799.41 29.2792C2799.31 28.8197 2799.23 28.4522 2798.98 28.0419C2798.67 27.5227 2798.15 27.1531 2797.56 27.0167C2796.51 26.7768 2795.75 27.227 2795.52 28.2729C2795.74 29.3402 2796.57 29.7268 2797.48 30.1382C2800.37 31.4478 2802.3 32.047 2802.89 35.4153V36.4236C2802.81 36.8241 2802.73 37.2121 2802.63 37.6088C2801.94 40.1845 2798.66 41.2987 2796.37 40.2015C2795.79 39.9204 2795.46 39.5478 2795.09 39.0255L2795.08 40.4344L2792.33 40.4278L2792.33 34.9649C2793.24 34.9601 2794.15 34.9612 2795.05 34.9681Z" fill="#FFFFEB"/>
<path d="M2708.34 11.25H2709.72C2710.86 11.4432 2711.87 11.6387 2712.84 12.312C2714.04 13.145 2714.85 14.4251 2715.1 15.8647C2715.39 17.4692 2715.07 18.9501 2714.15 20.2905C2712.29 23.0178 2707.72 23.3843 2705.15 21.5744C2703.97 20.7419 2703.17 19.4752 2702.92 18.0528C2702.66 16.5238 2702.96 14.8318 2703.89 13.5846C2705.12 11.9212 2706.44 11.5743 2708.34 11.25ZM2709.57 20.5919C2711.76 20.1168 2712.41 17.7799 2711.98 15.8493C2711.58 14.0348 2710.31 13.1836 2708.51 13.3123C2707.69 13.5028 2706.98 13.8928 2706.54 14.6345C2705.16 16.972 2706.22 21.174 2709.57 20.5919Z" fill="#FFFFEB"/>
<path d="M2782.63 11.25H2783.98C2784.31 11.307 2784.64 11.3727 2784.98 11.4331C2789.05 12.1736 2790.71 16.9618 2788.43 20.2764C2786.54 23.0235 2782.01 23.4004 2779.4 21.5533C2778.23 20.7224 2777.44 19.4541 2777.21 18.0337C2776.86 15.9669 2777.5 13.8715 2779.15 12.5415C2780.26 11.6539 2781.28 11.4771 2782.63 11.25ZM2783.88 20.5855C2784.66 20.4092 2785.34 19.9269 2785.76 19.2469C2786.77 17.6504 2786.54 14.7355 2784.81 13.6997C2784.1 13.2791 2783.6 13.2544 2782.81 13.3095C2782.03 13.4717 2781.3 13.8535 2780.87 14.5533C2779.42 16.9262 2780.43 21.1407 2783.88 20.5855Z" fill="#FFFFEB"/>
</g>
</g>
</g>
</svg>
