<svg width="73" height="69.953" overflow="visible" style="display: block;" viewBox="0 0 73 69.953" fill="none" xmlns="http://www.w3.org/2000/svg">
<g id="Vector">
<path d="M60.6463 6.46302C61.0129 6.67153 69.3409 16.6583 70.211 17.8057C73.0045 21.49 73.4654 27.0256 72.6176 31.5813C70.7969 41.3668 64.3113 50.2107 57.0288 56.6956C55.1754 58.3334 53.227 59.8612 51.194 61.2712C43.4926 66.7263 32.1017 71.307 22.5579 69.5849C15.4499 68.3032 13.4208 65.0649 9.1594 59.9189C7.57441 58.0049 5.53778 55.7556 4.13297 53.7667C6.61311 55.5282 8.24406 56.6085 11.3191 57.2889C12.0049 57.4406 17.0243 58.1063 16.9955 58.074C16.8158 58.1988 15.5606 58.3568 15.2179 58.4564C13.2739 59.021 13.7401 60.1036 14.7336 61.5234C16.5748 64.1549 19.1262 66.7375 21.9225 68.3465C23.7436 69.3943 25.2906 69.5646 27.3221 69.5458C28.322 69.5248 29.5426 69.6686 30.0886 68.6229C30.4719 67.8886 30.0862 67.1005 29.8559 66.3787C30.7245 67.2038 31.5689 68.1783 32.4403 69.0313C33.7502 68.8191 35.4133 68.4003 36.6808 68.024C35.7555 67.0516 34.865 65.7427 33.9209 64.8387C33.2633 63.9503 32.0583 62.7399 31.5601 61.9507C28.614 62.8988 25.6163 63.2451 22.5535 63.4495C22.9936 63.8899 23.8315 64.9141 24.1804 65.4119C25.5618 65.4042 26.8734 65.2464 28.2427 65.1843C28.3265 65.1801 28.3822 65.3316 28.4164 65.3965C28.4459 65.6345 28.309 65.8782 28.2108 66.1036C25.2369 68.4554 20.6108 65.3393 19.2184 62.5388C18.8967 61.8918 19.4552 61.4855 19.9937 61.3284C21.9572 60.7552 23.6869 61.3151 25.4156 62.222C26.0318 62.0896 26.6604 62.0257 27.2849 61.9044C28.461 61.6745 29.624 61.3825 30.7691 61.0296C28.0246 58.563 25.4549 58.1364 21.7897 58.0164C21.1267 57.9947 19.6265 58.1284 19.0532 57.9652C19.1037 57.8348 22.6814 57.3277 23.2127 57.2091C36.9084 54.155 49.2617 44.6748 56.9017 33.0476C58.9207 29.9753 60.5164 26.5966 61.6226 23.1109C61.7721 22.6411 62.4802 19.9115 62.6206 19.7924C62.719 21.1153 61.5926 24.5449 61.1058 25.8834C63.136 28.1923 65.1354 30.5278 67.1033 32.8893C68.0754 34.0348 69.7382 35.8741 70.5895 37.0103C71.7607 33.6719 72.8641 29.539 71.9611 26.049C71.1161 22.7842 69.0434 19.7561 66.8421 17.2369C66.236 16.5796 65.5614 15.7548 64.7911 15.2846C63.2931 14.3702 63.3043 16.6227 62.8552 17.4437C62.821 16.6437 62.8915 15.8006 62.8566 14.9875C62.7609 12.761 62.5137 10.7028 61.6352 8.6254C61.3195 7.87896 60.9662 7.20052 60.6463 6.46302ZM57.9053 52.6526C62.2525 52.3261 63.9928 48.7372 66.2981 45.5071C67.2863 44.122 67.6557 41.5003 67.5189 39.8062C67.3038 37.0432 65.9818 34.4841 63.8525 32.7087C63.2449 32.1959 61.8761 31.3452 61.0877 31.5714C58.7789 31.833 57.1943 33.6358 55.7934 35.3644C52.0404 39.9945 48.5172 46.8155 54.3541 51.3965C55.5239 52.3145 56.4268 52.6061 57.9053 52.6526ZM40.2696 65.2792C43.4828 65.7371 44.8578 64.7536 47.55 63.2274C50.2464 61.6987 52.3421 60.3235 52.8834 57.0087C53.1746 55.2245 52.5901 53.5679 51.5097 52.1479C49.8078 49.976 48.0472 49.1101 45.3397 49.1686C42.3382 49.4207 40.6614 50.2241 38.081 51.6646C32.8034 54.6109 30.0455 58.6788 35.6235 63.2562C36.8596 64.2705 38.5964 65.2101 40.2696 65.2792Z" fill="var(--fill-0, #3B230E)"/>
<path d="M60.1414 37.5676C61.6589 37.4317 63.0661 39.441 63.3867 40.7561C63.9642 43.1283 61.8629 46.3635 59.522 46.967C58.04 46.9816 56.7146 45.4641 56.3235 44.1525C55.6042 41.7367 57.8298 38.3031 60.1414 37.5676Z" fill="var(--fill-0, #3B230E)"/>
<path d="M43.3927 53.9122C44.1686 53.8612 45.103 54.1253 45.7036 54.6164C49.541 57.7556 45.9424 60.7568 42.4974 61.2152C40.2124 61.2158 37.3428 58.6426 38.8415 56.2938C39.7549 54.8629 41.7983 54.2457 43.3927 53.9122Z" fill="var(--fill-0, #3B230E)"/>
<path d="M42.1454 0.0314288C44.9549 -0.137774 47.279 0.358575 49.6765 1.95082C50.9957 2.86332 53.463 4.7513 53.8296 6.3588C54.3073 8.4541 49.1877 8.71601 47.8796 8.90009C47.0528 9.02441 46.228 9.16416 45.406 9.31934C46.1365 10.147 47.2036 11.3195 47.8154 12.2161C47.4376 12.3558 46.705 12.5257 46.2881 12.6367C45.0534 12.9128 43.9192 13.386 42.732 13.6886C42.4136 13.1819 40.7703 11.2972 40.3052 10.7426L35.8406 5.42374C34.9893 4.41337 33.9071 3.19518 33.1313 2.14795C34.7382 1.26657 40.2354 0.129597 42.1454 0.0314288ZM40.7124 3.68822C41.3737 4.4808 42.3424 5.56636 42.9192 6.37876L44.0177 6.19294C45.3516 5.90115 47.33 5.83309 48.3587 5.19618C47.6722 3.7641 46.6463 3.03965 45.0059 3.09983C43.7433 3.13068 41.9897 3.47601 40.7124 3.68822Z" fill="#3B230E"/>
<path d="M30.331 3.19965C30.7799 3.3357 32.7395 5.94108 33.2837 6.51237C32.0234 7.01253 30.6493 7.72441 29.4391 8.35148C29.9035 8.79182 30.4957 9.53232 30.9188 10.0377C31.7964 11.1049 32.6814 12.166 33.5737 13.221C34.4515 12.654 36.3078 11.8244 37.3009 11.3733C37.8163 11.8207 39.572 14.0327 40.1935 14.7385C36.6884 16.1947 33.3044 18.2474 30.1971 20.4118C29.7962 20.691 28.0744 22.1679 27.7593 21.9566C27.1393 21.3593 25.6721 19.5355 25.0392 18.8072C26.1674 17.7198 27.368 17.0806 28.5638 16.1511C27.7122 15.1261 26.8548 14.106 25.9915 13.0907C25.5262 12.538 24.903 11.8412 24.5251 11.2581C24.1175 11.6021 21.3325 13.6024 20.9746 13.7504C20.6454 13.6295 18.5524 11.0384 18.1987 10.6272C18.8861 9.84903 19.5684 9.45547 20.3994 8.84208C23.6169 6.46714 26.7774 4.91779 30.331 3.19965Z" fill="#3B230E"/>
<path d="M8.96581 19.6583C9.34537 19.7371 14.9155 26.7338 15.8478 27.6948C15.8836 27.6372 15.9205 27.5804 15.9587 27.5244C16.7305 26.3892 21.9034 20.6434 22.9383 20.4515C23.3278 20.6262 25.4759 23.3379 25.8777 23.8517C24.4034 24.9872 22.7694 26.6943 21.4652 28.0402C19.258 30.3094 16.7052 33.6866 15.0762 36.3803C12.5026 33.4789 10.0947 30.3623 7.54898 27.4294C6.81815 26.5875 6.00785 25.6677 5.34134 24.7832C6.20988 23.2315 7.82036 20.9814 8.96581 19.6583Z" fill="#3B230E"/>
<path d="M3.91193 27.257C4.47118 27.6833 6.08592 29.7254 6.65215 30.3846C5.17736 33.1412 4.05377 36.0716 3.30751 39.1074C3.58552 39.5156 4.50889 40.5442 4.88272 40.9844C5.14977 38.7303 6.99092 34.4221 8.10697 32.4097C8.84304 33.3336 9.78813 34.3028 10.461 35.2695C10.5847 35.4272 10.5598 35.7646 10.4676 35.9387C9.09612 38.5279 8.2662 41.0824 7.43243 43.885C7.40261 44.2054 9.95119 46.9947 10.3113 47.5018L9.68742 51.8842C9.21561 51.4216 8.61349 50.6617 8.17953 50.1438L5.71007 47.1935C3.96948 45.114 2.19621 43.0314 0.471894 40.9373C0.327124 40.7615 0.0491079 40.3774 0.0251542 40.1589C-0.0751299 39.244 0.146529 38.2414 0.301494 37.3442C0.920449 33.7611 2.20138 30.4545 3.91193 27.257Z" fill="#3B230E"/>
<path d="M38.6774 24.9487C38.9435 24.9505 38.9672 24.9059 39.1578 25.0411C39.2249 25.3856 39.1823 27.7119 39.1823 28.2535L39.1844 32.1582C39.1837 32.7942 39.2151 33.872 39.1299 34.4642C39.6935 34.4188 40.4051 34.4273 40.9813 34.4197C40.9917 35.368 40.9889 36.3163 40.9729 37.2644C40.3513 37.3545 39.7933 37.3494 39.1732 37.283C39.2256 38.0742 39.1746 38.9612 39.22 39.7962L35.8504 39.8035C35.8379 39.1167 35.8218 37.9572 35.8923 37.2937C35.3839 37.3455 34.5234 37.3218 33.9871 37.3217L28.7434 37.3369C28.7205 36.8649 28.6082 35.1358 28.7569 34.8347C29.5541 33.2203 31.1581 31.1188 32.2018 29.6286C33.1941 28.2115 34.469 26.245 35.488 24.9835C36.3861 24.9221 37.7081 24.9734 38.6774 24.9487ZM32.4113 34.4331C33.5652 34.4317 34.9866 34.3952 36.1186 34.456C36.0383 33.458 36.1849 29.2707 36.0201 28.8055C35.6228 29.3904 32.3249 34.2646 32.3246 34.4341L32.4113 34.4331Z" fill="var(--fill-0, #3B230E)"/>
<path d="M65.9887 20.2174C67.7535 20.6744 69.8353 24.3248 69.7194 26.1207C69.6768 26.7858 69.6628 28.7007 69.3227 29.2151C69.1369 29.2351 69.2096 29.2456 69.021 29.095C67.7814 27.6271 66.1361 25.8388 65.0208 24.3292C65.099 23.2556 65.2939 20.9869 65.9887 20.2174Z" fill="var(--fill-0, #3B230E)"/>
</g>
</svg>
