<svg width="104" height="44.3564" overflow="visible" style="display: block;" viewBox="0 0 104 44.3564" fill="none" xmlns="http://www.w3.org/2000/svg">
<g id="Group">
<path id="Vector" fill-rule="evenodd" clip-rule="evenodd" d="M0 0V44.3564H12.5149V30.0198H24.7921V17.901H12.5941V12.1188H27.5644L26.6931 0H0ZM88.7129 0L83.3267 9.58416L78.0198 0H63.4455L76.198 21.3861L62.7327 44.3564H76.8317L83.0891 33.1089L89.4257 44.3564H104L90.297 21.2277L102.733 0H88.7129Z" fill="var(--fill-0, #3B230E)"/>
<path id="Vector_2" fill-rule="evenodd" clip-rule="evenodd" d="M47.4455 33.8218C45.4653 33.8218 43.802 32.1584 43.802 30.1782V12.6733C43.802 10.6931 45.3861 8.87129 47.4455 8.87129C49.4257 8.87129 51.2475 10.6931 51.2475 12.6733V30.2574C51.2475 32.2376 49.5049 33.8218 47.4455 33.8218ZM47.4455 0C35.6436 0 26.0594 9.58416 26.0594 21.3861C26.0594 33.1881 35.6436 42.7723 47.4455 42.7723C59.2475 42.7723 68.8317 33.1881 68.8317 21.3861C68.8317 9.58416 59.2475 0 47.4455 0Z" fill="var(--fill-0, #3B230E)"/>
</g>
</svg>
