<svg width="150.847" height="39.2049" overflow="visible" style="display: block;" viewBox="0 0 150.847 39.2049" fill="none" xmlns="http://www.w3.org/2000/svg">
<g id="Vector">
<path d="M112.431 17.6166C116.552 17.5489 120.769 17.5911 124.892 17.6378C131.432 17.7119 135.564 22.5816 135.209 29.0526C134.98 31.8896 134.128 34.283 132.072 36.2975C129.122 39.1998 125.387 38.952 121.586 38.9141C116.425 38.8626 111.248 38.985 106.089 38.8983C104.566 35.8206 102.797 32.6649 101.35 29.5736C100.545 29.5549 99.6623 29.5683 98.8565 29.5731L98.8528 35.2422C99.6512 35.2993 100.708 35.2798 101.529 35.286C101.546 36.4947 101.547 37.7034 101.533 38.9122L90.4369 38.9014C90.4229 37.6962 90.4236 36.4909 90.4398 35.2857C91.3576 35.262 92.3571 35.2797 93.2815 35.2782C93.4118 30.8118 93.2933 25.7506 93.2896 21.2551C92.3195 21.2604 91.3966 21.2641 90.4266 21.2264C90.4236 20.0264 90.4273 18.8263 90.4391 17.6262C92.4941 17.5469 94.9814 17.6125 97.0674 17.6108L101.375 17.6068C102.864 17.6055 104.272 17.4955 105.752 17.8899C109.101 18.7823 110.681 22.0627 109.795 25.3289C109.299 27.1531 107.998 27.99 106.414 28.866C107.303 30.8567 108.765 33.1547 109.743 35.2388C111.297 35.3607 114.048 35.2799 115.693 35.2778L115.699 21.2619C114.689 21.2581 113.411 21.2198 112.423 21.2711C112.408 20.053 112.41 18.8347 112.431 17.6166ZM127.436 33.9194C128.994 32.4237 129.441 30.7678 129.492 28.6432C129.599 24.2682 127.797 21.3293 123.171 21.2539C122.788 21.2463 122.404 21.2481 122.021 21.2594C121.778 21.2626 121.461 21.2752 121.224 21.262L121.22 35.2416C123.49 35.345 125.592 35.4236 127.436 33.9194ZM98.8557 21.2661L98.8513 26.0959C99.9665 26.1173 102.151 26.2951 103.083 25.6925C104.975 24.2664 104.563 21.5985 102.099 21.2809C101.362 21.1859 100.412 21.2418 99.6542 21.2603C99.389 21.2626 99.1209 21.2669 98.8557 21.2661Z" fill="var(--fill-0, #3B230E)"/>
<path d="M61.5021 0.231959C63.7487 0.140799 66.4929 0.210365 68.7616 0.209394C68.7714 1.04536 68.7703 1.88141 68.7581 2.71735C68.3174 2.72568 67.8694 2.72525 67.4279 2.72872C67.7171 3.35784 69.2243 5.70469 69.6395 6.31035C70.3131 5.11453 71.1661 3.90418 71.777 2.73174L70.4881 2.72087C70.4844 1.8908 70.489 1.06072 70.5021 0.230746C71.9602 0.178641 73.6573 0.212862 75.1245 0.212413L83.4543 0.211472L83.4536 2.71851C82.9601 2.73382 82.4408 2.72835 81.9444 2.73004C82.6168 4.88765 83.5346 7.7261 84.3146 9.84479C84.4597 9.46173 84.5915 9.06813 84.705 8.67454C85.2787 6.68357 85.9814 4.71893 86.5559 2.7309L85.2235 2.72362C85.2132 1.89285 85.2198 1.06194 85.2434 0.231436C86.9132 0.17558 88.8319 0.21396 90.5201 0.213509C90.5238 1.04808 90.523 1.88265 90.5179 2.71721C90.0929 2.73359 89.6554 2.72662 89.2289 2.72541C89.9102 5.05741 90.8118 7.56936 91.5697 9.90699C92.3932 7.55904 93.1643 5.10905 93.9473 2.73704L92.4469 2.72353C92.4307 1.89248 92.4381 1.06116 92.4676 0.230496C94.415 0.189099 96.4332 0.215896 98.3873 0.220352C98.4027 1.05366 98.4005 1.8872 98.3814 2.72043L96.8368 2.75002L96.6763 3.18833C96.2351 4.26576 95.8182 5.73335 95.4329 6.86707L92.6384 15.1695C91.7443 15.1826 90.8493 15.1803 89.9552 15.1627C89.212 12.9474 88.3568 10.479 87.5481 8.28411C86.8321 10.5892 86.0882 12.8852 85.3148 15.1714C84.4067 15.1786 83.4985 15.1776 82.5903 15.1684C81.6947 12.4992 80.7791 9.83683 79.8429 7.18162C79.3274 5.70027 78.8567 4.20729 78.3072 2.73735C77.2031 2.72804 76.0998 2.72958 74.9957 2.74198C73.8312 4.61565 72.437 6.56265 71.2229 8.44682C71.144 9.58789 71.1991 11.3463 71.1999 12.5325L73.262 12.5591C73.2379 13.3399 73.255 14.2297 73.2521 15.0187C70.6698 15.0627 67.9036 15.0371 65.3199 15.0149C65.3081 14.1957 65.3093 13.3765 65.3235 12.5574C65.9467 12.5234 66.7408 12.5436 67.3765 12.5423C67.3929 11.1986 67.3931 9.85474 67.3773 8.51101C67.3323 8.43437 67.2831 8.35065 67.2323 8.2777C65.9403 6.42394 64.5622 4.61363 63.3124 2.73198L61.484 2.72197C61.476 1.89193 61.482 1.0618 61.5021 0.231959Z" fill="var(--fill-0, #3B230E)"/>
<path d="M51.9111 17.3491C52.1864 17.2971 53.0634 17.2948 53.3505 17.2977C55.8481 17.3231 57.4292 17.8842 59.4886 19.2269L59.5039 17.6226C60.6371 17.5847 61.9151 17.6139 63.059 17.6152L63.0593 25.1229C61.8654 25.1349 60.6714 25.1331 59.4775 25.1175C58.1829 22.0232 55.7552 20.3561 52.3334 21.3548C45.0995 23.466 46.9521 37.125 55.3304 35.0717C57.0782 34.6434 58.1388 33.399 59.0085 31.9164C59.3523 31.1514 59.5474 30.5242 59.7623 29.7183C61.0614 30.2928 62.6026 31.0928 63.9311 31.7185C62.6932 36.3593 59.1279 38.7847 54.4585 39.1244C47.8015 39.6088 42.5299 36.3153 41.9582 29.3339C41.4313 22.9001 45.402 17.8564 51.9111 17.3491Z" fill="var(--fill-0, #3B230E)"/>
<path d="M134.786 0.220736L140.285 0.209091C141.963 0.206373 143.564 0.12857 145.224 0.461129C151.457 1.71012 152.53 10.722 147.379 14.029C145.408 15.2304 143.051 15.0327 140.836 15.0313L134.774 15.0178L134.777 12.5473C135.492 12.5352 136.232 12.5443 136.95 12.5432C137.053 9.38163 136.963 5.93245 136.981 2.73821L134.778 2.72915C134.769 1.89302 134.772 1.0568 134.786 0.220736ZM140.899 12.532C142.566 12.5476 144.115 12.6723 145.418 11.3858C145.443 11.3609 145.468 11.3355 145.492 11.3096C146.563 10.0071 146.749 8.43496 146.607 6.83286C146.356 3.99622 144.474 2.54472 141.662 2.73608C141.514 2.74612 141.057 2.73765 140.903 2.72354L140.899 12.532Z" fill="var(--fill-0, #3B230E)"/>
<path d="M0.474521 0.224025L7.53648 0.219713C7.55217 1.08892 7.55924 1.84892 7.5233 2.7196C7.04954 2.72734 6.57575 2.73169 6.10195 2.73262C6.06902 3.77113 6.08868 4.92052 6.08816 5.96374L10.0973 5.97133L10.1063 2.73974L8.57812 2.72882C8.56958 1.89471 8.57555 1.06052 8.59595 0.226611C10.9268 0.180683 13.352 0.215173 15.6859 0.220501C15.6967 1.05418 15.695 1.88796 15.6808 2.72159C15.0992 2.73525 14.5174 2.73753 13.9358 2.72844L13.9351 12.5311L15.6903 12.5571C15.6942 13.1111 15.735 14.4609 15.654 14.9461C15.51 15.0566 15.1279 15.0269 14.9279 15.0271L8.57488 15.0165L8.58328 12.5449L10.0943 12.5398C10.1282 11.247 10.1031 9.84597 10.1049 8.54469C8.80152 8.54484 7.39757 8.56967 6.10243 8.52354C6.06041 9.79947 6.09013 11.2433 6.08711 12.5317L7.56013 12.5588C7.5286 13.3225 7.5518 14.2243 7.53037 15.018C5.23875 15.0602 2.74863 15.0358 0.457147 15.0168L0.461562 12.5429L2.18117 12.5412C2.27481 9.4055 2.20174 5.89919 2.20728 2.73849L0.459569 2.72494C0.446777 1.89129 0.451763 1.05747 0.474521 0.224025Z" fill="var(--fill-0, #3B230E)"/>
<path d="M35.6175 0.231213C38.2421 0.157697 41.1061 0.215521 43.7484 0.217276L43.7452 2.72194L41.5876 2.74496C41.4936 5.93731 41.6371 9.30196 41.57 12.5275C43.0101 12.5529 44.4911 12.5385 45.9345 12.5417C45.9528 11.0166 45.9594 9.49128 45.9541 7.96605C46.9052 7.9519 47.889 7.96531 48.843 7.9659L48.8486 10.3539L48.8441 15.0159C44.5678 15.0946 39.8828 15.0528 35.5987 15.0144C35.5937 14.1949 35.5965 13.3754 35.6068 12.556C36.2488 12.5246 37.0322 12.5421 37.6848 12.5395C37.7887 9.50624 37.7027 5.8159 37.7029 2.73608L35.5937 2.72164C35.5852 1.89142 35.5931 1.06112 35.6175 0.231213Z" fill="var(--fill-0, #3B230E)"/>
<path d="M49.6936 0.230832C52.3281 0.159291 55.188 0.215363 57.8393 0.216837L57.8373 2.72146L55.676 2.74283C55.6409 5.97954 55.6711 9.28553 55.6714 12.5272C57.103 12.5556 58.5897 12.5383 60.0255 12.5412L60.0381 7.96597C60.993 7.95072 61.985 7.96538 62.9428 7.96678L62.9508 10.5013L62.9441 15.0162C58.7488 15.1207 53.8907 15.0512 49.6746 15.0142C49.6724 14.1948 49.6747 13.3752 49.6818 12.5558C50.3401 12.5257 51.1227 12.5436 51.7903 12.5422C51.8775 9.35384 51.806 5.94706 51.8178 2.7362L49.6655 2.72126C49.6585 1.89101 49.668 1.06071 49.6936 0.230832Z" fill="var(--fill-0, #3B230E)"/>
<path d="M0 17.609L9.35864 17.6097C11.0927 17.6096 13.2107 17.4757 14.8877 17.7789C18.3324 18.4017 20.268 21.7655 19.437 25.0971C18.943 27.0774 17.6458 27.9343 15.9782 28.8757C17.0065 30.8116 18.4236 33.3164 19.3252 35.2479C20.9411 35.3329 22.8949 35.2825 24.5351 35.2814L24.5406 21.2552C23.737 21.2551 22.8593 21.2373 22.0618 21.2663C22.0459 20.0494 22.0466 18.8325 22.0638 17.6156C28.215 17.6063 34.5984 17.5252 40.7326 17.6167L40.7344 24.3561C39.3835 24.3738 38.0323 24.3738 36.6813 24.3564C36.6785 23.3299 36.666 22.288 36.6747 21.2629C34.4711 21.2468 32.2673 21.2503 30.0637 21.2733C30.0508 22.8798 30.0472 24.4865 30.0527 26.0931C31.8195 26.1314 33.6732 26.0707 35.4071 26.1286C35.4148 27.3221 35.4134 28.5156 35.403 29.709C33.9579 29.7137 31.4071 29.8081 30.0616 29.7301L30.0531 35.2381C32.0608 35.3484 34.6225 35.2806 36.6718 35.279L36.6815 32.0996C38.0315 32.0875 39.3815 32.0849 40.7315 32.0918L40.7337 38.9123L24.1575 38.9122C21.4361 38.9122 18.3301 38.9843 15.6365 38.9031C14.218 35.9772 12.1784 32.4437 10.9251 29.5804C10.2508 29.5712 9.04612 29.6084 8.45046 29.5683L8.44479 35.2419C9.34044 35.2822 10.2044 35.2851 11.1002 35.2884C11.1093 36.496 11.109 37.7037 11.0993 38.9114L0 38.9161V35.2733L2.90298 35.277C3.01668 30.7775 2.9091 25.7905 2.91559 21.2565C1.94375 21.2674 0.971815 21.2665 0 21.2537V17.609ZM8.44287 26.0938C10.1266 26.1291 11.8582 26.4174 13.1527 25.2918C14.0171 24.2639 14.1073 22.7833 13.0777 21.8327C11.9492 20.7908 9.77008 21.4857 8.45628 21.2434L8.44287 26.0938Z" fill="var(--fill-0, #3B230E)"/>
<path d="M77.2127 39.2049C76.3038 39.0385 75.2888 39.0416 74.3386 38.8586C68.1849 37.6729 64.6882 32.0441 65.8114 25.9881C66.3168 23.2743 67.8803 20.8729 70.157 19.3134C76.015 15.303 86.6863 17.1591 88.7258 24.7758C89.2768 26.8322 89.4462 28.1556 89.0683 30.2943C88.1675 35.394 83.9426 38.8233 78.8405 39.0885C78.6615 39.0979 77.3526 39.177 77.2804 39.2049H77.2127ZM78.0936 35.2185C79.5542 35.0547 80.8888 34.3138 81.8007 33.1603C84.9996 29.1383 83.1729 20.5214 76.8569 21.2553C76.8274 21.2587 76.7987 21.2623 76.7693 21.2665C75.4221 21.3542 74.167 21.9839 73.2911 23.012C69.9413 26.8758 71.4712 35.7299 77.9227 35.2349C77.9794 35.2306 78.0369 35.2251 78.0936 35.2185Z" fill="var(--fill-0, #3B230E)"/>
<path d="M105.135 0H106.94C108.556 0.266972 109.853 0.485165 111.157 1.41514C116.748 5.40392 114.637 14.196 107.755 15.1081C105.299 15.4335 102.874 15.1513 100.896 13.7638C99.2895 12.6272 98.2053 10.8926 97.8886 8.94919C97.5475 6.93401 98.0057 4.86529 99.1658 3.18287C100.734 0.95579 102.629 0.437105 105.135 0ZM106.919 12.4384C107.955 12.1782 108.846 11.519 109.399 10.6042C110.694 8.43658 110.386 4.60874 108.04 3.24108C107.068 2.67413 106.436 2.69445 105.375 2.74651C102.34 3.4268 101.563 6.4943 102.141 9.15657C102.65 11.5028 104.546 12.8098 106.919 12.4384Z" fill="var(--fill-0, #3B230E)"/>
<path d="M140.404 31.6241C140.45 32.6053 140.576 33.4591 141.19 34.2743C141.681 34.9344 142.418 35.3688 143.233 35.4796C144.613 35.6657 145.761 34.8497 145.921 33.4426C146.163 31.5103 143.694 30.4201 142.243 29.7291C138.923 28.1484 136.131 26.4354 136.646 22.2781C137.05 19.0116 139.825 17.1138 143.054 17.4744C144.461 17.6317 145.337 18.2986 146.184 19.3781L146.194 17.6239C147.383 17.5936 148.624 17.6144 149.817 17.619L149.809 24.0433C148.609 24.0645 147.409 24.0631 146.209 24.039C146.085 23.4263 145.979 22.9363 145.642 22.3892C145.221 21.697 144.538 21.2041 143.749 21.0223C142.351 20.7024 141.334 21.3027 141.028 22.6972C141.319 24.1203 142.429 24.6357 143.64 25.1843C147.496 26.9304 150.062 27.7293 150.847 32.2204V33.5647C150.745 34.0988 150.645 34.6161 150.505 35.1451C149.588 38.5793 145.214 40.0649 142.164 38.6021C141.382 38.2272 140.941 37.7303 140.451 37.0339L140.435 38.9125L136.768 38.9038L136.779 31.6198C137.988 31.6135 139.196 31.615 140.404 31.6241Z" fill="var(--fill-0, #3B230E)"/>
<path d="M24.7822 0H26.623C28.1435 0.25764 29.4886 0.518233 30.7862 1.41595C32.385 2.52668 33.4707 4.23348 33.7995 6.15292C34.1842 8.29222 33.7596 10.2668 32.54 12.054C30.0584 15.6904 23.9578 16.1791 20.5274 13.7659C18.9558 12.6559 17.889 10.967 17.5615 9.07034C17.2112 7.03168 17.612 4.77571 18.8475 3.11279C20.4953 0.89489 22.2486 0.432455 24.7822 0ZM26.4305 12.4558C29.3516 11.8224 30.215 8.70652 29.6416 6.13237C29.1027 3.71302 27.4111 2.57809 25.009 2.74975C23.9221 3.00373 22.9679 3.5238 22.385 4.51262C20.5479 7.62927 21.9647 13.232 26.4305 12.4558Z" fill="var(--fill-0, #3B230E)"/>
<path d="M123.838 0H125.637C126.08 0.0760252 126.525 0.163585 126.971 0.244175C132.403 1.23151 134.612 7.61578 131.571 12.0352C129.052 15.698 123.011 16.2006 119.539 13.7377C117.974 12.6298 116.919 10.9388 116.613 9.04499C116.147 6.2892 116.997 3.49531 119.202 1.72202C120.674 0.538543 122.034 0.302846 123.838 0ZM125.511 12.4473C126.551 12.2123 127.453 11.5692 128.015 10.6626C129.358 8.53393 129.052 4.64729 126.743 3.2663C125.806 2.70548 125.127 2.67255 124.086 2.746C123.046 2.96231 122.068 3.47137 121.498 4.40444C119.563 7.56825 120.912 13.1876 125.511 12.4473Z" fill="var(--fill-0, #3B230E)"/>
</g>
</svg>
