<svg width="176" height="37.9307" overflow="visible" style="display: block;" viewBox="0 0 176 37.9307" fill="none" xmlns="http://www.w3.org/2000/svg">
<g id="Vector">
<path d="M63.4224 22.874C64.3774 20.7246 64.4517 17.751 66.0769 15.9884C66.7836 15.2219 68.2858 15.2046 69.2536 15.1672C70.9914 15.0998 76.0888 14.8746 77.2934 16.0155C77.7438 16.442 77.8529 17.1327 77.8693 17.7262C77.9536 20.7688 77.0312 19.7217 75.5538 21.2827C75.4189 22.9972 75.0695 29.6338 75.5696 31.0732C75.8857 31.9828 76.9793 32.008 77.284 33.0965C77.5209 33.9422 77.5898 35.0337 77.1392 35.8186C76.8047 36.4016 76.2212 36.7155 75.5926 36.8891C73.5355 37.4574 68.2341 37.5451 66.1408 37.0921C65.716 37.0001 65.3592 36.8289 64.9831 36.6155C64.6117 35.8708 64.3975 35.1387 64.4038 34.2987C64.417 32.536 65.36 32.453 66.3586 31.442C67.0741 30.7176 66.8148 26.8635 66.8011 25.733C66.7702 25.6358 66.7025 25.5753 66.6334 25.5034C65.9537 26.1511 64.1137 35.7168 62.7255 36.8471C62.1318 37.3305 61.253 37.2074 60.5502 37.1291C59.9323 36.7679 59.5567 36.2901 59.2482 35.6575C58.6584 34.448 58.4624 33.0719 58.1056 31.7811C57.4879 29.5468 56.8493 27.306 56.0735 25.1218C55.9751 26.8495 56.0744 28.6537 56.2187 30.376C56.4221 32.8042 56.3655 31.823 57.834 33.0827C58.1194 33.3276 58.23 33.622 58.2556 33.9922C58.3163 34.8659 58.308 35.9817 57.6967 36.6723C57.145 37.2956 56.2564 37.4507 55.4652 37.4944C54.024 37.5741 50.0637 37.6546 49.0222 36.7047C48.5011 36.2294 48.3706 35.6283 48.3439 34.954C48.2221 31.8749 49.7762 32.8173 50.8706 31.6098C51.4892 30.9272 51.3071 24.3658 51.2549 23.0541C51.2165 22.0872 51.2505 20.8788 50.2695 20.386C49.9788 20.24 49.6075 20.116 49.3704 19.8914C49.0063 19.5469 48.9156 19.0162 48.9088 18.5367C48.8973 17.7429 48.9534 16.5275 49.5465 15.927C50.5016 14.9598 53.0632 15.2204 54.371 15.2025C56.6542 15.1768 59.1777 15.0678 61.3868 15.7268C62.9432 17.5816 62.582 20.669 63.4224 22.874Z" fill="var(--fill-0, #3B230E)"/>
<path d="M139.48 14.5009C153.134 13.3847 156.271 32.8409 143.808 37.0295C142.763 37.3806 141.781 37.4987 140.698 37.6332C140.168 37.6538 139.661 37.6496 139.125 37.6524C129.48 37.7254 125.096 26.4577 130.476 19.1502C132.689 16.1455 135.941 15.0111 139.48 14.5009Z" fill="var(--fill-0, #3B230E)"/>
<path d="M170.601 14.4176C171.781 14.3742 173.186 14.3731 174.297 14.7979C174.815 14.9963 175.311 15.3224 175.542 15.8463C177.179 19.5636 173.955 19.035 173.267 20.8883C173.041 21.4989 173.076 22.3666 173.041 23.0162C172.91 25.4536 173.312 34.3316 172.751 35.7336C172.596 36.1192 172.354 36.3323 171.975 36.494C170.24 37.2322 166.69 37.0574 165.004 36.3819C163.92 34.845 159.994 26.2464 159.414 25.7871L159.267 25.8278C159.047 26.2439 159.029 27.3957 159.079 27.8514C159.17 28.6968 159.049 30.755 159.959 31.1717C161.543 31.8957 162.524 31.4455 162.583 33.7281C162.666 36.9792 159.703 37.1298 157.248 37.1578C154.133 37.1691 150.533 37.4007 151.608 32.8385C151.746 31.9048 153.491 31.8445 153.657 31.1042C154.271 28.3688 153.97 25.4557 154.009 22.6697C154.019 21.9614 153.959 21.5051 153.641 20.8752C153.026 20.5831 151.901 20.1433 151.624 19.5629C151.079 18.4216 151.261 16.0163 152.531 15.4446C154.746 14.4473 160.109 14.4226 162.325 15.0336C163.541 16.1421 166.587 23.4689 167.626 23.7349C167.969 22.8882 167.658 21.3311 167.51 20.4038C166.065 19.42 165.102 20.1305 164.964 17.7137C164.781 14.5124 168.297 14.4863 170.601 14.4176Z" fill="var(--fill-0, #3B230E)"/>
<path d="M32.7139 14.9034C34.4455 14.8051 36.3842 14.8113 38.0807 15.1951C38.724 15.3405 39.6663 15.615 40.0824 16.1666C40.9079 17.2607 41.4609 20.2492 41.8565 21.6943C42.6126 24.4556 43.5136 28.3472 44.6409 30.902C45.0858 31.91 46.1632 32.2766 46.7311 33.1904C47.049 33.6915 47.1504 34.2996 47.0121 34.8765C46.8599 35.5348 46.5783 36.3576 45.9787 36.7273C44.4261 37.6845 36.9512 37.4358 35.1368 37.011C34.2104 36.7942 33.592 36.4353 33.0839 35.6176C32.9993 34.2811 33.164 33.3563 34.3295 32.533C34.5694 32.3636 34.8889 32.1902 35.0562 31.9434C35.2462 31.6629 35.2031 31.4049 35.14 31.0889C34.9511 30.8562 34.757 30.6565 34.4655 30.5587C33.7821 30.3293 32.115 30.4327 31.479 30.7563C31.2623 30.8666 31.0425 31.0407 30.9681 31.2817C30.6532 32.3025 32.3337 32.9179 32.702 33.6608C32.9976 34.257 32.7319 35.0985 32.5239 35.6911C32.3442 36.2027 32.0762 36.5725 31.5762 36.8068C30.3824 37.366 24.6147 37.2353 23.3145 36.7715C22.8735 36.6142 22.5273 36.3277 22.3281 35.8987C21.9792 35.148 22.0955 33.9458 22.3711 33.1829C22.8292 31.9152 24.0255 31.6822 25.1132 31.1704C26.1598 29.8195 28.7137 22.2899 28.9681 20.4514C28.5768 20.0688 28.0996 19.7371 27.6762 19.3862C27.6052 19.0348 27.5339 18.6766 27.5189 18.3177C27.4838 17.4747 27.5753 16.585 28.179 15.9376C29.2304 14.8103 31.3129 14.9611 32.7139 14.9034ZM33.6488 26.3901C33.7903 26.3354 33.9899 26.3027 34.0532 26.1607C34.328 25.5441 33.8724 23.8959 33.6156 23.2722C33.5201 23.0404 33.4596 22.9914 33.2306 22.8954C32.9353 23.7014 32.3474 25.3655 32.5645 26.2031C32.8558 26.4669 33.2712 26.4028 33.6488 26.3901Z" fill="var(--fill-0, #3B230E)"/>
<path d="M81.2276 15.3555C82.6893 15.2164 85.2388 15.5003 86.8861 15.504C89.4744 15.5098 92.1326 15.2202 94.71 15.3783C95.5666 15.4298 96.4125 15.5964 97.2248 15.8733C98.7028 16.3905 99.9033 17.3037 100.588 18.7341C101.546 20.7374 101.584 23.4126 100.849 25.4891C99.7193 28.6829 96.8882 29.5397 93.7691 29.5887C93.2228 29.5973 92.2967 29.4612 91.8113 29.7011C91.5548 29.8279 91.3334 30.1153 91.2435 30.3818C91.148 30.6645 91.1057 30.9889 91.2448 31.2652C91.5143 31.8007 92.5068 32.0336 93.0401 32.2147C93.3756 32.4923 93.6095 32.7992 93.763 33.2092C94.0332 33.9313 94.0429 34.7947 93.7178 35.5004C93.3883 36.2158 92.7839 36.645 92.0621 36.9047C90.1985 37.5754 82.5942 37.8234 80.7959 36.9657C80.3005 36.7294 80.0403 36.4003 79.8647 35.8852C79.7038 35.4133 79.658 34.8825 79.6504 34.3864C79.6153 32.0528 81.156 32.935 81.7363 31.7059C81.8839 31.3935 81.9258 31.018 81.9507 30.6765C82.0365 29.4955 82.122 22.0126 81.8617 21.3217C81.6369 20.7247 80.7741 20.5138 80.2458 20.2662C79.8544 20.0828 79.5583 19.7972 79.4135 19.3833C79.139 18.5991 79.4731 17.175 79.829 16.4391C80.1339 15.8081 80.5946 15.5776 81.2276 15.3555ZM91.9993 24.6949C92.5341 24.2426 92.7185 23.8262 92.7763 23.1268C92.8264 22.5204 92.7274 21.8287 92.3265 21.3476C92.1473 21.1324 91.9803 21.0364 91.7003 21.013C91.5848 21.0041 91.4689 20.9992 91.3531 20.9986C90.8366 21.541 90.6991 22.84 90.717 23.5975C90.7244 23.9108 90.76 24.3933 91.001 24.6175C91.1712 24.776 91.3356 24.8168 91.5627 24.8054C91.7077 24.7982 91.8618 24.74 91.9993 24.6949Z" fill="var(--fill-0, #3B230E)"/>
<path d="M92.3563 0.226655C94.1286 0.122618 95.6698 0.240989 97.1898 1.29989C99.8817 3.17555 100.373 7.70561 98.5003 10.2984C97.3891 11.8373 95.9651 12.4097 94.1414 12.7022C85.4175 13.3284 84.1969 1.61515 92.3563 0.226655ZM93.3641 8.11336C93.9798 7.24099 94.184 4.92061 93.2856 4.21496L92.9896 4.14381C92.7607 4.38902 92.5456 4.64357 92.4931 4.9784C92.3451 5.92042 91.8958 8.12419 93.3641 8.11336Z" fill="var(--fill-0, #3B230E)"/>
<path d="M50.9348 0.23395C51.7686 0.175717 53.2217 0.155909 53.8198 0.777634C54.3186 1.29616 54.2275 1.90445 54.2029 2.56294C53.9174 2.81915 53.2622 3.21336 52.9125 3.4362C52.3251 5.97254 53.2782 9.30984 52.5812 11.8245C52.3957 12.4939 49.1666 12.4763 48.7965 12.25C47.619 11.5297 46.3069 7.09236 45.3957 6.56412L45.2813 6.66403C45.1658 7.55991 45.2073 8.18364 45.339 9.07221C45.8202 9.37274 46.3113 9.39152 46.7375 9.82132C47.5654 10.6563 47.1055 11.5303 46.3557 12.2267C45.6383 12.3951 45.2828 12.4078 44.5403 12.4399C43.2549 12.4312 41.0283 12.6431 40.9185 10.8758C40.8545 9.84439 41.4415 9.53616 42.2348 9.25731C42.251 9.17153 42.2653 9.08538 42.2775 8.99894C42.4726 7.59477 42.5551 5.05999 42.198 3.67077C42.1077 3.31966 40.9414 3.3061 40.904 2.47987C40.7835 -0.180017 42.1352 0.323447 43.9807 0.252167C46.3786 0.159555 47.2678 0.165147 48.2458 2.60353C48.5651 3.34982 49.4155 4.75464 49.9136 5.44288C49.9895 3.8033 50.064 3.40697 48.6655 2.88028C48.2946 2.74058 48.3358 1.19856 48.6969 0.834388C49.2455 0.280889 50.1651 0.307154 50.9348 0.23395Z" fill="var(--fill-0, #3B230E)"/>
<path d="M110.216 0.333983C113.031 0.048407 114.864 1.98573 111.965 3.42405C111.292 5.57798 112.281 11.1452 111.396 12.1512C110.685 12.5999 108.953 12.5253 108.115 12.4311C107.31 12.3409 106.859 11.3605 106.542 10.7142C105.804 9.20831 105.127 7.68421 104.234 6.25753C104.207 6.93865 104.158 7.74749 104.188 8.37389C104.128 9.73393 105.16 9.35777 105.724 9.8614C106.58 10.6259 106.199 11.757 105.272 12.2276C104.457 12.641 104.141 12.5981 103.34 12.6035C102.326 12.6218 100.425 12.7646 100.141 11.5096C100.061 11.151 100.167 10.5428 100.219 10.1675C100.549 9.94049 100.928 9.70614 101.266 9.48587C101.301 9.3163 101.328 9.14489 101.345 8.97241C101.475 7.75519 101.453 4.96027 101.174 3.81079C101.085 3.44257 99.6352 3.5684 99.9042 1.78895C99.962 1.41064 100.169 1.0716 100.48 0.848691C101.435 0.152455 104.701 0.376084 105.884 0.555762C106.529 1.28384 107.916 4.28644 108.838 5.60772C108.865 4.84165 108.801 4.20797 108.655 3.45911C108.223 3.31567 107.759 3.21272 107.54 2.79654C106.35 0.522564 108.854 0.452233 110.216 0.333983Z" fill="var(--fill-0, #3B230E)"/>
<path d="M118.086 0.153935C118.168 0.148788 118.251 0.144395 118.333 0.140757C119.845 0.0726217 121.008 -0.129695 122.173 0.934721C122.989 3.53313 123.603 6.27076 124.476 8.85274C124.857 9.43734 125.548 9.61196 125.724 10.3475C126.25 12.7806 123.727 12.2902 122.075 12.3849C120.91 12.4516 116.777 12.6168 118.597 10.1676C118.71 10.0148 119.118 9.96542 119.338 9.61992C119.421 9.28096 119.356 9.15185 119.239 8.81921C118.593 8.76952 117.796 8.6184 117.295 9.02934C116.833 10.0446 119.656 12.0268 116.686 12.4067C115.13 12.6058 111.458 13.1268 112.406 10.4151C112.617 9.81184 113.287 9.60744 113.821 9.3618C114.64 8.08825 115.62 4.8066 115.82 3.29313C113.939 1.0169 116.038 0.234588 118.086 0.153935ZM118.483 6.63571C118.784 6.14633 118.651 4.99951 118.253 4.74865C118.054 5.34173 117.75 5.92611 118.007 6.47448C118.206 6.56692 118.268 6.59272 118.483 6.63571Z" fill="var(--fill-0, #3B230E)"/>
<path d="M58.2823 0.335062C58.9935 0.187694 62.3691 0.0749143 62.7618 0.892835C63.92 3.29525 64.3556 6.19395 65.2908 8.6943C65.9007 9.65603 66.8224 9.8833 66.7062 11.228C66.5845 12.6354 65.0253 12.4064 63.9737 12.438C62.9302 12.3426 61.3472 12.6207 60.3617 12.3756C58.2147 11.8415 59.2778 10.4109 60.3714 9.64749C60.1602 8.53582 59.0468 8.5541 58.2437 8.97994C57.8335 9.71667 59.2447 10.6416 59.0565 11.5154C58.7295 13.034 53.8974 12.6739 53.1842 11.7918C53.1508 11.7507 53.1214 11.7065 53.0964 11.66C52.481 10.5092 54.9068 9.40066 55.2556 8.20086C55.7263 6.58108 56.5088 5.0779 56.6952 3.35357C56.0546 2.7688 55.3966 1.96337 56.1159 1.05088C56.6406 0.385124 57.4906 0.390879 58.2823 0.335062ZM59.48 6.68996C59.7066 6.23695 59.4827 5.09231 59.114 4.76187C58.9407 5.25464 58.6235 6.18486 59.0467 6.6081L59.48 6.68996Z" fill="var(--fill-0, #3B230E)"/>
<path d="M81.9506 0.339812C83.7163 0.307576 86.3663 0.123768 85.6109 2.81329C85.5178 3.14492 84.8937 3.32025 84.602 3.4229C84.124 4.90324 84.1686 7.92434 84.5702 9.42789C85.5711 9.93873 86.2723 10.6325 85.4133 11.9728C85.0086 12.6043 82.9161 12.5501 82.1077 12.5859C81.2634 12.5884 78.8602 12.6592 78.2955 12.1492C76.9339 10.9192 78.7922 9.87225 79.0118 9.46647C79.5824 8.41243 79.3824 5.10602 79.1405 3.88925C79.0609 3.48875 77.8344 2.80933 77.891 2.16383C77.8022 0.13956 80.5106 0.420522 81.9506 0.339812Z" fill="var(--fill-0, #3B230E)"/>
<path d="M113.523 37.9307C110.309 37.361 107.459 36.2677 105.572 33.475C102.139 28.3969 102.693 20.5628 108.069 17.0315C113.187 13.6708 121.02 13.8673 124.643 19.3436C126.487 22.1295 126.847 25.7426 126.326 28.9897C125.542 33.5581 121.767 37.0967 117.185 37.6527C116.672 37.715 115.777 37.8018 115.31 37.9307H113.523Z" fill="var(--fill-0, #3B230E)"/>
<path d="M0 33.3604C0.69186 31.9819 2.32965 31.9828 2.50903 31.2874C2.84161 29.9979 2.81869 21.3284 2.62919 20.5493C1.66048 19.3118 -0.21096 19.4104 0.0635903 17.1025C0.145779 16.4116 0.531538 15.6942 1.08561 15.2674C2.69643 14.0265 9.24486 14.4884 11.306 14.7713C12.5085 14.9363 14.2411 15.2117 15.0234 16.2527C15.4646 16.8399 15.441 17.5968 15.3351 18.2889C15.2644 18.7505 15.1055 19.2654 14.7088 19.5501C13.9334 20.1064 12.8083 19.9268 12.6045 21.0831C12.3649 22.4428 12.3776 28.4828 12.5434 29.8729C12.5829 30.2042 12.663 30.566 12.8601 30.8413C12.9814 31.0106 13.1556 31.1327 13.3633 31.1659C13.8772 31.2481 14.4649 30.9402 14.869 30.6395C16.1316 29.6997 16.6047 28.2796 18.0756 27.5084C19.7021 27.5584 21.4774 28.0038 21.3388 30.0664C21.1788 32.4481 20.0839 35.0344 18.6661 36.9433C18.2772 37.4619 17.6145 37.8733 16.9716 37.8055C15.6777 37.6634 14.5617 36.8335 13.2308 36.8085C10.7753 36.6085 8.61084 36.5535 6.14969 36.6707C4.6896 36.7403 3.09776 36.9182 1.67829 36.7575C1.1834 36.7016 0.709726 36.4847 0.372506 36.1083C0.222713 35.9402 0.0973157 35.7519 0 35.549V33.3604Z" fill="var(--fill-0, #3B230E)"/>
<path d="M75.1546 0H75.5301C76.4209 0.518385 76.8821 1.47775 77.1569 2.48819C77.4175 3.44644 77.9425 5.89541 76.5562 6.33163C74.8407 6.87143 74.6961 4.50362 74.0531 4.13492C73.6461 4.69189 74.0647 8.1877 74.1903 8.99566C75.0781 9.52304 77.3105 10.1202 75.3267 11.9937C74.3536 12.5484 72.7504 12.4608 71.6359 12.5021C70.1688 12.5563 66.7183 12.9254 66.995 10.6249C67.1222 9.56678 68.1745 9.68247 68.7163 9.32877C69.1228 8.85308 69.1597 7.89417 69.0856 7.29669C69.0038 6.63732 69.0495 4.55729 68.6428 4.12136L68.4843 4.15893C68.0805 4.68559 68.1806 5.30033 67.8861 5.83384C67.2871 6.919 65.6218 6.73631 65.3973 5.46961C65.1529 4.013 65.4825 2.3307 66.1667 1.03064C67.0025 -0.557019 68.2792 0.571838 69.4789 0.587992C71.3308 0.612928 73.3548 0.448892 75.1546 0Z" fill="var(--fill-0, #3B230E)"/>
<path d="M128.695 0H132.849C133.002 0.0392927 133.154 0.0834595 133.305 0.132433C136.192 1.08904 133.047 2.94777 132.985 3.28279C132.729 4.67149 132.574 7.24074 132.998 8.64076C133.06 8.84912 133.249 8.90152 133.427 8.95804C134.452 8.79149 135.895 5.56061 137.298 7.22062C138.086 8.15404 136.864 11.5633 135.966 12.2831C135.272 12.8384 134.47 12.2653 133.878 12.1666C132.881 12.0004 131.88 12.0865 130.882 12.1221C129.712 12.1414 126.099 13.2101 126.178 11.0861C126.204 10.3845 126.9 9.90832 127.432 9.50465C127.775 8.08558 127.696 4.8231 127.451 3.37275C126.893 2.99686 126.303 2.67669 126.18 1.97031C125.929 0.523537 127.734 0.219496 128.695 0Z" fill="var(--fill-0, #3B230E)"/>
</g>
</svg>
