<svg width="152" height="24.1884" overflow="visible" style="display: block;" viewBox="0 0 152 24.1884" fill="none" xmlns="http://www.w3.org/2000/svg">
<g id="MAI Wordmark">
<path id="Vector" d="M56.5131 7.94546C56.0382 7.81882 55.5 7.72384 54.8351 7.72384C52.6189 7.72384 51.0359 9.30684 50.3077 11.3648L50.466 8.04044H47.11C47.3 11.2064 47.3633 12.3462 47.3633 15.5439V16.367C47.3633 19.5647 47.3 20.7045 47.11 23.8705H50.4977C50.3077 20.7045 50.2444 19.5647 50.2444 16.367V15.9871C50.2444 12.6312 51.5741 10.2883 54.0119 10.2883C55.3417 10.2883 55.9432 10.5732 56.5131 10.8898V7.94546Z" fill="var(--fill-0, #3B230E)"/>
<path id="Vector_2" d="M23.0485 1.71H18.6478C16.5595 7.58706 14.134 13.4359 11.5566 19.4419C8.81702 13.4182 6.59638 7.88752 4.17913 1.71H0C0.1583 3.22968 0.253281 5.92079 0.253281 7.53546V18.0466C0.253281 19.313 0.1583 22.2574 0 23.8721H2.78609C2.62779 22.2574 2.53281 19.313 2.53281 18.0466L2.56099 6.33269C5.1283 12.1661 7.70448 18.0767 9.87795 23.8721H12.2841C14.4867 17.868 17.0629 11.663 19.6568 5.74951C19.7018 7.36418 19.7242 8.97504 19.7242 10.9231V14.659C19.7242 18.1099 19.6609 20.4844 19.471 23.8721H23.0485C22.8586 20.4844 22.7953 18.1099 22.7953 14.659V10.9231C22.7953 7.47214 22.8586 5.12929 23.0485 1.71Z" fill="var(--fill-0, #3B230E)"/>
<path id="Vector_3" d="M34.1611 15.9555C34.1611 11.618 36.5356 9.62345 39.6067 9.62345C42.3294 9.62345 43.9758 10.8898 45.4005 12.8528V9.40182C44.2291 8.57866 42.3611 7.72384 39.5434 7.72384C34.8893 7.72384 30.8368 10.7315 30.8368 15.9871C30.8368 21.2427 34.2878 24.1871 39.48 24.1871C41.6329 24.1871 44.0391 23.4589 45.3372 22.3191L45.6221 19.723C43.5642 21.6543 41.9179 22.2242 39.765 22.2242C36.599 22.2242 34.1611 19.9763 34.1611 15.9555Z" fill="var(--fill-0, #3B230E)"/>
<path id="Vector_4" d="M81.113 14.4674L79.3084 14.0242C77.4088 13.581 76.364 13.0111 76.364 11.7447C76.364 10.32 77.7254 9.40182 79.6883 9.40182C81.6513 9.40182 84.1524 10.8898 85.1339 12.4412V9.3385C83.9941 8.48368 82.0945 7.72384 79.6567 7.72384C76.4273 7.72384 73.6412 9.46514 73.6412 12.2512C73.6412 14.7524 75.1609 16.0504 78.2003 16.8103L80.1316 17.3168C81.9362 17.7601 83.1393 18.2983 83.1393 19.7547C83.1393 21.6226 81.3346 22.4141 79.4984 22.4141C77.3771 22.4141 74.9077 21.1794 73.5779 18.9948V22.3825C74.686 23.3639 76.8389 24.1871 79.5617 24.1871C82.791 24.1871 85.9887 22.5724 85.9887 19.2481C85.9887 16.3354 84.0891 15.2589 81.113 14.4674Z" fill="var(--fill-0, #3B230E)"/>
<path id="Vector_5" d="M151.747 10.9231C151.747 7.47214 151.81 5.12929 152 1.71H148.422C148.612 5.12929 148.676 7.47214 148.676 10.9231V14.659C148.676 18.1099 148.612 20.4844 148.422 23.8721H152C151.81 20.4844 151.747 18.1099 151.747 14.659V10.9231Z" fill="var(--fill-0, #3B230E)"/>
<path id="Vector_6" d="M138.07 1.71H135.98C135.695 2.5015 135.315 3.41965 134.999 4.17949C132.497 10.4798 129.236 17.7617 126.514 23.8721H129.395C129.743 22.6057 130.218 21.3393 130.693 20.0412C130.998 19.2532 131.313 18.4601 131.634 17.6635C132.61 17.5894 133.835 17.5717 135.885 17.5717H136.835C139.051 17.5717 140.306 17.5917 141.316 17.6797C141.69 18.5893 142.064 19.5027 142.439 20.4211C142.882 21.5292 143.325 22.764 143.642 23.8721H147.599C145.003 17.9833 141.552 10.1949 139.146 4.33779L138.07 1.71ZM136.835 15.6088H135.885C134.384 15.6088 133.325 15.6088 132.483 15.5831C133.757 12.4998 135.109 9.37649 136.435 6.28235C136.489 6.40266 136.547 6.53373 136.613 6.68063C137.951 9.64497 139.209 12.596 140.447 15.5771C139.573 15.6088 138.463 15.6088 136.835 15.6088Z" fill="var(--fill-0, #3B230E)"/>
<path id="Vector_7" d="M64.3649 7.72384C59.5842 7.72384 55.9433 10.6366 55.9433 15.9871C55.9433 21.3377 59.5842 24.1871 64.3649 24.1871C69.1456 24.1871 72.8182 21.211 72.8182 15.9871C72.8182 10.7632 69.1773 7.72384 64.3649 7.72384ZM64.3649 22.5091C61.3572 22.5091 59.2676 20.1346 59.2676 15.9871C59.2676 11.8397 61.3572 9.40182 64.3649 9.40182C67.3726 9.40182 69.5255 11.7447 69.5255 15.9871C69.5255 20.2296 67.3726 22.5091 64.3649 22.5091Z" fill="var(--fill-0, #3B230E)"/>
<path id="Vector_8" d="M116.541 19.1544V10.0046C118.757 10.0046 120.34 10.0996 121.828 10.2262V7.91502C120.34 8.01 119.327 8.04167 116.541 8.04167L116.604 4.36909H116.256C114.293 6.80692 113.122 7.97834 110.874 8.04167H109.227C108.784 5.7938 108.151 5.28724 108.151 4.08415C108.151 2.53281 109.259 2.05791 110.24 2.05791C111.222 2.05791 112.108 2.50115 112.9 3.29265V0.253281C112.583 0.12664 111.95 0 111.317 0C107.708 0 106.061 2.43783 106.061 5.66716C106.061 6.2687 106.22 7.44012 106.251 7.88336L104.288 9.78297V10.0363H106.283V14.4053C106.283 17.9513 106.22 20.3891 106.03 23.8717H109.449C109.259 20.3891 109.196 17.9513 109.196 14.4053V10.0046H113.66L113.565 19.6926C113.565 22.5103 114.926 24.1883 118.155 24.1883C119.58 24.1883 121.1 23.7767 122.018 22.9219V20.5474C120.783 21.6872 119.928 22.1621 118.757 22.1621C117.174 22.1621 116.541 21.2123 116.541 19.1544Z" fill="var(--fill-0, #3B230E)"/>
<path id="Vector_9" d="M95.2653 7.72384C90.453 7.72384 86.7804 10.6366 86.7804 15.9871C86.7804 21.3377 90.453 24.1871 95.2653 24.1871C100.078 24.1871 103.687 21.211 103.687 15.9871C103.687 10.7632 100.046 7.72384 95.2653 7.72384ZM95.2653 22.5091C92.2259 22.5091 90.1047 20.1346 90.1047 15.9871C90.1047 11.8397 92.2259 9.40182 95.2653 9.40182C98.3047 9.40182 100.363 11.7447 100.363 15.9871C100.363 20.2296 98.2097 22.5091 95.2653 22.5091Z" fill="var(--fill-0, #3B230E)"/>
<path id="Vector_10" d="M27.2753 5.85686C28.4467 5.85686 29.4598 4.93872 29.4598 3.64065C29.4598 2.34259 28.4467 1.48777 27.2753 1.48777C26.0089 1.48777 25.0274 2.40591 25.0274 3.64065C25.0274 4.93872 26.0089 5.85686 27.2753 5.85686ZM25.5656 23.8715H28.9533C28.7316 20.7054 28.7 19.5657 28.7 16.368V15.5448C28.7 12.3472 28.7633 11.2074 28.9533 8.04141H25.5656C25.7556 11.2074 25.8189 12.3472 25.8189 15.5448V16.368C25.8189 19.5657 25.7556 20.7054 25.5656 23.8715Z" fill="var(--fill-0, #3B230E)"/>
</g>
</svg>
