<svg width="145.147" height="31" overflow="visible" style="display: block;" viewBox="0 0 145.147 31" fill="none" xmlns="http://www.w3.org/2000/svg">
<g id="Microsoft_Logo_0 1" clip-path="url(#clip0_0_6)">
<path id="Vector" d="M51.234 17.854L50.3689 20.3052H50.2968C50.1526 19.7525 49.8883 18.9114 49.4557 17.9021L44.8177 6.24706H40.2759V24.823H43.2798V13.3602C43.2798 12.6393 43.2798 11.8223 43.2557 10.813C43.2317 10.3083 43.1836 9.92381 43.1596 9.63543H43.2317C43.3759 10.3564 43.5441 10.885 43.6643 11.2215L49.2394 24.775H51.3542L56.8813 11.1013C57.0015 10.7889 57.1216 10.1641 57.2418 9.63543H57.3139C57.2418 11.0052 57.1937 12.2308 57.1697 12.9757V24.7509H60.3658V6.199H55.9922L51.234 17.854ZM63.3937 11.4378H66.5177V24.7509H63.3937V11.4378ZM64.9798 5.8145C64.4511 5.8145 64.0185 6.00675 63.658 6.34319C63.2976 6.67962 63.1053 7.11218 63.1053 7.64086C63.1053 8.14551 63.2976 8.57807 63.658 8.9145C64.0185 9.25094 64.4511 9.41916 64.9798 9.41916C65.5084 9.41916 65.965 9.22691 66.3015 8.9145C66.6619 8.57807 66.8542 8.14551 66.8542 7.64086C66.8542 7.13621 66.6619 6.70365 66.3015 6.34319C65.9891 6.00675 65.5325 5.8145 64.9798 5.8145ZM77.596 11.3176C77.0193 11.1974 76.4185 11.1254 75.8418 11.1254C74.4239 11.1254 73.1263 11.4378 72.0449 12.0626C70.9635 12.6874 70.0984 13.5525 69.5456 14.6339C68.9689 15.7393 68.6805 17.013 68.6805 18.4788C68.6805 19.7525 68.9689 20.8819 69.5216 21.9153C70.0743 22.9246 70.8433 23.7416 71.8767 24.2943C72.8619 24.8471 74.0154 25.1354 75.3131 25.1354C76.803 25.1354 78.0767 24.823 79.086 24.2463L79.11 24.2223V21.3385L78.9898 21.4347C78.5332 21.7711 78.0046 22.0595 77.4759 22.2277C76.9232 22.4199 76.4185 22.5161 75.986 22.5161C74.7363 22.5161 73.7511 22.1556 73.0542 21.3626C72.3332 20.5936 71.9728 19.5362 71.9728 18.2145C71.9728 16.8447 72.3332 15.7633 73.0782 14.9703C73.8232 14.1773 74.8084 13.7688 76.01 13.7688C77.0193 13.7688 78.0526 14.1052 78.9898 14.7781L79.11 14.8742V11.8223L79.086 11.7982C78.6774 11.63 78.2208 11.4378 77.596 11.3176ZM87.9053 11.2215C87.1363 11.2215 86.4154 11.4618 85.7906 11.9664C85.2619 12.399 84.9015 13.0238 84.5891 13.7688H84.565V11.4378H81.441V24.7509H84.565V17.9502C84.565 16.7967 84.8053 15.8354 85.334 15.1385C85.8627 14.4176 86.5356 14.0571 87.3526 14.0571C87.641 14.0571 87.9294 14.1292 88.2898 14.1773C88.6263 14.2734 88.8666 14.3695 89.0348 14.4897L89.1549 14.5858V11.4618L89.0829 11.4378C88.8666 11.2936 88.434 11.2215 87.9053 11.2215ZM96.4123 11.1494C94.2255 11.1494 92.4712 11.7982 91.2456 13.0719C89.996 14.3455 89.3953 16.0998 89.3953 18.3106C89.3953 20.3773 90.0201 22.0595 91.2216 23.285C92.4232 24.4866 94.0573 25.1114 96.0999 25.1114C98.2387 25.1114 99.9449 24.4626 101.17 23.1649C102.42 21.8672 103.021 20.137 103.021 17.9982C103.021 15.8835 102.444 14.2013 101.267 12.9757C100.137 11.7502 98.479 11.1494 96.4123 11.1494ZM98.9115 21.3866C98.3348 22.1316 97.4216 22.492 96.2922 22.492C95.1627 22.492 94.2495 22.1316 93.6007 21.3385C92.9518 20.5936 92.6394 19.5122 92.6394 18.1424C92.6394 16.7246 92.9759 15.6432 93.6007 14.8742C94.2495 14.1052 95.1387 13.7207 96.2681 13.7207C97.3736 13.7207 98.2387 14.0812 98.8635 14.8261C99.4883 15.5711 99.8247 16.6525 99.8247 18.0703C99.7767 19.5122 99.5123 20.6416 98.9115 21.3866ZM109.99 16.9649C109.005 16.5564 108.38 16.244 108.091 15.9796C107.851 15.7393 107.731 15.4029 107.731 14.9703C107.731 14.6099 107.875 14.2494 108.236 14.0091C108.596 13.7688 109.005 13.6486 109.605 13.6486C110.134 13.6486 110.687 13.7447 111.215 13.8889C111.744 14.0331 112.225 14.2494 112.609 14.5378L112.729 14.6339V11.7021L112.657 11.6781C112.297 11.5339 111.816 11.3897 111.239 11.2695C110.663 11.1734 110.134 11.1254 109.701 11.1254C108.212 11.1254 106.986 11.4858 106.025 12.2788C105.063 13.0238 104.607 14.0331 104.607 15.2106C104.607 15.8354 104.703 16.3881 104.919 16.8447C105.136 17.3013 105.448 17.7339 105.881 18.0944C106.313 18.4308 106.938 18.8153 107.803 19.1757C108.524 19.4881 109.077 19.7285 109.413 19.9207C109.75 20.113 109.966 20.3292 110.134 20.4975C110.254 20.6897 110.326 20.93 110.326 21.2424C110.326 22.1316 109.653 22.5641 108.284 22.5641C107.755 22.5641 107.202 22.468 106.553 22.2517C105.905 22.0354 105.304 21.723 104.799 21.3626L104.679 21.2664V24.3184L104.751 24.3424C105.208 24.5587 105.76 24.7029 106.433 24.8711C107.106 24.9912 107.707 25.0874 108.236 25.0874C109.846 25.0874 111.167 24.7269 112.105 23.9339C113.066 23.1649 113.57 22.1796 113.57 20.906C113.57 20.0168 113.33 19.2238 112.801 18.623C112.105 18.0463 111.239 17.4455 109.99 16.9649ZM121.813 11.1494C119.626 11.1494 117.872 11.7982 116.646 13.0719C115.421 14.3455 114.796 16.0998 114.796 18.3106C114.796 20.3773 115.421 22.0595 116.622 23.285C117.824 24.4866 119.458 25.1114 121.501 25.1114C123.639 25.1114 125.346 24.4626 126.571 23.1649C127.821 21.8672 128.422 20.137 128.422 17.9982C128.422 15.8835 127.845 14.2013 126.667 12.9757C125.538 11.7502 123.88 11.1494 121.813 11.1494ZM124.288 21.3866C123.712 22.1316 122.798 22.492 121.669 22.492C120.515 22.492 119.626 22.1316 118.977 21.3385C118.329 20.5936 118.016 19.5122 118.016 18.1424C118.016 16.7246 118.353 15.6432 118.977 14.8742C119.626 14.1052 120.515 13.7207 121.645 13.7207C122.726 13.7207 123.615 14.0812 124.24 14.8261C124.865 15.5711 125.201 16.6525 125.201 18.0703C125.201 19.5122 124.889 20.6416 124.288 21.3866ZM145.123 14.0091V11.4378H141.975V7.49667L141.879 7.52071L138.899 8.40985L138.827 8.43388V11.4378H134.117V9.75559C134.117 8.9866 134.309 8.38582 134.646 8.00133C134.982 7.61683 135.487 7.42458 136.112 7.42458C136.544 7.42458 137.001 7.52071 137.505 7.73698L137.625 7.80908V5.09357L137.553 5.06954C137.121 4.92536 136.544 4.82923 135.799 4.82923C134.862 4.82923 134.045 5.04551 133.3 5.40598C132.555 5.8145 132.002 6.36722 131.594 7.11218C131.185 7.83311 130.969 8.65016 130.969 9.58737V11.4378H128.782V13.985H130.969V24.7509H134.117V14.0091H138.827V20.8579C138.827 23.6695 140.149 25.0874 142.792 25.0874C143.225 25.0874 143.681 25.0153 144.114 24.9432C144.57 24.8471 144.907 24.7269 145.099 24.6308L145.123 24.6068V22.0354L145.003 22.1316C144.811 22.2517 144.643 22.3478 144.354 22.4199C144.114 22.492 143.898 22.5161 143.729 22.5161C143.105 22.5161 142.672 22.3719 142.36 22.0114C142.071 21.675 141.927 21.1223 141.927 20.3052V14.0091H145.123Z" fill="var(--fill-0, #3B230E)"/>
<path id="Vector_2" d="M0 -9.0675e-05H14.731V14.7309H0V-9.0675e-05Z" fill="var(--fill-0, #3B230E)"/>
<path id="Vector_3" d="M16.269 0H31V14.731H16.269V0Z" fill="var(--fill-0, #3B230E)"/>
<path id="Vector_4" d="M0 16.2678H14.731V30.9988H0V16.2678Z" fill="var(--fill-0, #3B230E)"/>
<path id="Vector_5" d="M16.269 16.2678H31V30.9988H16.269V16.2678Z" fill="var(--fill-0, #3B230E)"/>
</g>
<defs>
<clipPath id="clip0_0_6">
<rect width="145.147" height="31" fill="white"/>
</clipPath>
</defs>
</svg>
