<svg width="123" height="59" viewBox="0 0 123 59" fill="none" xmlns="http://www.w3.org/2000/svg">
<rect width="123" height="59" fill="#B2B2B2"/>
<g id="Presentation Design">
<rect width="1920" height="12653" transform="translate(-364 -9204)" fill="white"/>
<rect width="1920" height="12653" transform="translate(-364 -9204)" fill="#FBF4E6"/>
<g id="Frame 2147264224">
<g id="Group 2147233155">
<g id="Frame 2147264195">
<rect x="-110" y="-33" width="1412" height="121" rx="20" fill="#F7ECD9"/>
<g id="layer1">
<g id="g3134">
<g id="g3229">
<path id="path3231" fill-rule="evenodd" clip-rule="evenodd" d="M61.7581 17.7416C61.934 17.4778 62.4661 17.6537 62.8404 17.6627C63.3432 17.674 63.2237 18.418 63.9204 18.2715C64.6148 18.1226 64.6239 18.9321 65.6159 18.9028C66.6125 18.8712 65.4175 19.25 65.4175 19.25C65.4175 19.25 64.802 18.9524 64.4052 19.153C64.1932 19.259 64.4818 19.0922 64.1278 18.8036C63.5822 18.3571 63.6566 18.887 62.7412 18.1091C62.0918 17.559 61.4695 18.1745 61.7581 17.7416Z" fill="#3B230E"/>
</g>
<g id="g3233">
<path id="path3235" d="M54.2832 18.7686C53.6947 17.8171 54.1344 16.6334 54.8018 15.4812C55.2911 14.6335 56.6011 14.2592 57.7397 14.7034C59.0181 13.6955 59.3248 14.78 60.4566 14.2907C61.9447 13.6459 61.1128 16.0021 62.5513 16.5951C63.1465 15.0077 61.1962 13.815 62.4182 13.0687C63.2931 12.5343 63.9537 12.2029 64.3122 11.4904C64.8218 10.4713 65.0202 9.7272 65.4148 9.59417C66.3212 9.28302 66.125 8.42172 66.125 8.42172C66.125 8.42172 67.0923 8.70356 67.8408 8.00008C67.2681 7.68893 66.4294 7.42513 66.6526 6.80734C66.9119 6.08132 68.8555 7.55816 69.4304 6.36541C68.2737 5.86261 67.0923 4.76682 66.3865 4.51429C65.904 5.04415 65.5996 4.8322 64.9751 4.33842C63.9176 3.50192 63.8297 4.29558 63.1668 3.72288C62.6415 4.78035 63.4374 4.69692 63.6786 4.96072C64.3573 5.70704 62.9909 4.29558 63.124 6.18955C63.1578 6.68107 62.4318 6.77352 61.8906 5.70703C61.6088 5.15012 59.3631 5.26511 59.0226 4.73525C59.3338 4.11746 61.9786 1.9146 66.0348 2.44446C60.1387 0.126608 52.1751 2.6564 52.0939 3.53574C51.3002 4.03403 51.573 4.60448 51.1762 4.73525C50.4885 4.96523 49.7422 7.06212 49.7422 7.06212C49.7422 7.06212 50.1684 7.34622 48.8358 8.83884C47.7378 10.0677 47.4131 11.9301 47.4131 11.9301C47.4131 11.9301 48.1391 13.2581 47.9993 14.7868C47.8979 15.9547 47.8482 15.0889 48.3556 15.9344C48.6509 16.4305 48.9734 18.1576 49.1695 17.4834C49.5438 16.1982 48.4863 15.0077 48.6622 13.7293C48.7028 13.8894 49.068 13.222 49.0545 13.8263C49.0162 15.4046 50.9981 18.4484 50.9981 18.4484C50.9981 18.4484 50.2585 19.2015 51.0342 19.2015L50.8357 19.6683C50.8357 19.6683 51.4107 19.6344 51.7805 19.9366C52.1525 20.241 52.4727 20.6152 52.8109 20.6152H58.5131C58.5131 20.6152 58.9189 18.8859 59.2504 18.5905C59.5818 18.2974 58.5875 18.5905 58.2944 18.2974C57.999 18.002 57.8141 18.5544 57.6675 18.8475C57.5187 19.1429 57.3361 19.6592 56.8942 19.8058C56.4523 19.9523 55.388 20.0268 55.1671 20.0268C54.9461 20.0268 54.2832 18.7686 54.2832 18.7686Z" fill="#3B230E"/>
</g>
<g id="g3237">
<path id="path3239" d="M80.9988 37.2839C80.7778 36.9908 81.0349 36.5466 81.0349 36.5466H64.9565L66.749 38.1114C67.1413 38.2692 67.6373 38.6638 67.8651 39.2658C68.4017 40.6885 67.6035 39.5363 67.6035 41.6873C67.6035 43.6647 67.0466 43.3446 67.0466 43.3446C67.0466 43.3446 66.9271 45.6827 65.7163 47.119C64.9475 47.8923 65.545 48.5327 65.545 48.5327C65.545 48.5327 65.2857 48.6792 64.9091 50.3748C64.7851 50.9227 65.4886 51.7704 66.0974 51.5585C66.5551 51.3984 64.988 51.2473 66.6881 50.5326C67.342 50.2553 66.8076 49.7344 66.8076 49.7344C66.8076 49.7344 67.9057 49.6487 68.5257 47.987C69.6215 48.1471 69.2156 47.4752 71.4704 46.9882C72.0656 46.8619 72.1919 46.6815 72.1175 46.1224C72.0431 45.5609 72.8525 46.2035 75.0869 43.924C76.8456 42.127 76.212 41.7212 77.4296 41.0695C78.717 40.3841 78.8343 41.1282 79.2649 40.5713C80.248 39.2906 79.903 39.374 80.3111 38.5578L80.602 38.1091C80.602 38.1091 81.2175 37.577 80.9988 37.2839Z" fill="#3B230E"/>
</g>
<g id="g3241">
<path id="path3243" d="M69.7622 20.1296L69.4037 20.3438L69.3315 19.9875L69.7622 20.1296Z" fill="#3B230E"/>
</g>
<g id="g3245">
<path id="path3247" d="M68.4765 19.845C67.9016 19.9691 67.2951 19.845 66.7607 20.2734L66.4022 19.9871H66.188C66.6885 19.5767 65.9016 19.1483 66.7607 19.1303C67.4213 19.1483 67.9016 19.6106 68.4765 19.845Z" fill="#3B230E"/>
</g>
<g id="g3249">
<path id="path3251" fill-rule="evenodd" clip-rule="evenodd" d="M33.936 20.3568C37.6496 8.87128 46.4407 0.0012207 61.1325 0.0012207C74.7848 0.0012207 84.816 8.99304 88.4551 20.6071C84.6582 9.78219 73.8694 1.9741 61.1527 1.9741C48.5308 1.9741 37.8096 9.66269 33.936 20.3568ZM88.3943 37.9256C84.6988 49.4404 74.3045 58.3984 61.1325 58.3984C47.16 58.3984 37.7713 49.5622 33.9947 38.1759C37.9246 48.7821 48.5962 56.3895 61.1527 56.3895C73.8017 56.3895 84.5455 48.6626 88.3943 37.9256Z" fill="#3B230E"/>
</g>
<g id="g3253">
<path id="path3255" d="M11.9883 23.1671H7.50821L8.17787 23.963V29.8479C8.17787 31.1691 7.30303 31.726 5.99304 31.726C4.68756 31.726 3.81047 31.1691 3.81047 29.8479V23.963L4.48013 23.1671H0L0.669651 23.963V29.9426C0.669651 32.8759 2.31109 34.0078 5.99304 34.0078C9.675 34.0078 11.3164 32.8759 11.3164 29.9426V23.963L11.9883 23.1671Z" fill="#3B230E"/>
</g>
<g id="g3257">
<path id="path3259" d="M27.5375 23.1675H23.7586L24.426 23.9634V29.3207L19.0079 23.1675H15.6123L16.282 23.9634V33.0026L15.6123 33.8008H19.3912L18.7216 33.0026V27.5507L24.4756 33.8008H26.8679V23.9634L27.5375 23.1675Z" fill="#3B230E"/>
</g>
<g id="g3261">
<path id="path3263" d="M36.2426 33.8008L35.573 33.0049V23.9657L36.2426 23.1675H31.731L32.4029 23.9657V33.0049L31.731 33.8008H36.2426Z" fill="#3B230E"/>
</g>
<g id="g3265">
<path id="path3267" d="M51.1191 23.1675H47.3244L47.9941 23.9634L45.3155 29.8144L42.7338 23.9634L43.4035 23.1675H38.9414L43.8973 33.8008H46.1137L51.1191 23.1675Z" fill="#3B230E"/>
</g>
<g id="g3269">
<path id="path3271" d="M63.7912 33.8008V30.9147L62.9931 31.5844H57.5569V29.5439H61.0021L61.7823 30.2158V26.7548L61.0021 27.4244H57.5569V25.3839H62.9931L63.7912 26.0536V23.1675H53.7803L54.4477 23.9657V33.0049L53.7803 33.8008H63.7912Z" fill="#3B230E"/>
</g>
<g id="g3273">
<path id="path3275" fill-rule="evenodd" clip-rule="evenodd" d="M75.3646 26.6105C75.3646 27.3748 74.6319 27.9971 73.6105 27.9971H71.588V25.3839H73.9938C74.695 25.3839 75.3646 25.7334 75.3646 26.6105ZM79.0308 33.8008L76.147 29.607C77.5653 29.0343 78.5551 27.934 78.5551 26.3873C78.5551 24.6173 77.4706 23.1675 74.4402 23.1675H67.8091L68.4787 23.9657V33.0026L67.8091 33.8008H72.2554L71.588 33.0026V29.9903H72.9273L74.9656 33.0026L74.2982 33.8008H79.0308Z" fill="#3B230E"/>
</g>
<g id="g3277">
<path id="path3279" d="M92.4981 30.6917C92.4981 29.0029 91.1407 28.0604 89.1814 27.4223C87.9052 27.0255 86.1037 26.7391 86.1037 25.8936C86.1037 25.4787 86.5975 25.1924 87.4588 25.1924C88.6087 25.1924 90.4868 25.6704 91.9547 26.3716V22.8159L91.1091 23.6299C90.2163 23.2624 88.6695 22.8791 87.6031 22.8791C83.9842 22.8791 82.8208 24.4731 82.8208 25.9252C82.8208 27.9026 84.1285 28.7639 86.1848 29.4809C87.7135 30.0062 89.134 30.0536 89.134 30.9284C89.134 31.6815 88.2569 31.7762 87.8082 31.7762C86.6786 31.7762 84.6697 31.3771 82.8839 30.2137V34.1504L83.7295 33.226C84.5592 33.5439 86.4238 34.0873 87.9525 34.0873C91.0956 34.0873 92.4981 32.7006 92.4981 30.6917Z" fill="#3B230E"/>
</g>
<g id="g3281">
<path id="path3283" fill-rule="evenodd" clip-rule="evenodd" d="M103.283 29.9745H99.7607L101.515 26.1663L103.283 29.9745ZM108.399 33.8008L103.168 23.1675H99.5826L99.9636 23.9657L95.231 33.8008H99.1339L98.4665 33.0026L98.9918 31.8865H104.06L104.575 33.0026L103.903 33.8008H108.399Z" fill="#3B230E"/>
</g>
<g id="g3285">
<path id="path3287" d="M120.998 33.8008V30.9147L120.199 31.5844H115.081V23.9657L115.751 23.1675H111.302L111.974 23.9657V33.0049L111.302 33.8008H120.998Z" fill="#3B230E"/>
</g>
<g id="g3289">
<path id="path3291" d="M118.754 25.4645C118.754 24.2943 119.706 23.3451 120.876 23.3451C122.046 23.3451 122.998 24.2943 122.998 25.4645C122.998 26.6347 122.046 27.584 120.876 27.584C119.706 27.584 118.754 26.6347 118.754 25.4645ZM118.955 25.4645C118.955 26.5243 119.812 27.3878 120.876 27.3878C121.938 27.3878 122.799 26.5243 122.799 25.4645C122.799 24.4026 121.938 23.5413 120.876 23.5413C119.812 23.5413 118.955 24.4026 118.955 25.4645Z" fill="#3B230E"/>
</g>
<g id="g3293">
<path id="path3295" fill-rule="evenodd" clip-rule="evenodd" d="M121.674 24.6368C121.464 24.4587 121.212 24.3753 120.939 24.3753C120.315 24.3753 119.85 24.86 119.85 25.4733C119.85 26.0911 120.306 26.5781 120.935 26.5781C121.216 26.5781 121.485 26.4744 121.701 26.2873V26.0099C121.505 26.2422 121.225 26.3865 120.923 26.3865C120.425 26.3865 120.058 25.9536 120.058 25.4733C120.058 24.9931 120.43 24.5692 120.928 24.5692C121.228 24.5692 121.476 24.6932 121.674 24.9119V24.6368Z" fill="#3B230E"/>
</g>
</g>
</g>
</g>
</g>
</g>
</g>
</svg>
