<svg preserveAspectRatio="none" width="100%" height="100%" overflow="visible" style="display: block;" viewBox="0 0 60.4518 63.6605" fill="none" xmlns="http://www.w3.org/2000/svg">
<path id="Arrow 20" d="M58.4275 0.157817C58.3076 -0.0110086 58.0734 -0.0506188 57.9046 0.0693448L55.1534 2.02426C54.9846 2.14423 54.945 2.37834 55.065 2.54716C55.1849 2.71599 55.4191 2.7556 55.5879 2.63563L58.0334 0.897928L59.7711 3.34341C59.891 3.51223 60.1251 3.55184 60.294 3.43188C60.4628 3.31192 60.5024 3.07781 60.3824 2.90898L58.4275 0.157817ZM0.223803 51.4072L0 51.7081C10.8707 59.7937 19.522 63.4612 26.5142 63.6526C33.5423 63.845 38.8291 60.5254 42.9409 54.8203C47.04 49.1327 49.9886 41.0553 52.3804 31.6619C54.7737 22.2627 56.619 11.505 58.4916 0.437589L58.1218 0.37503L57.7521 0.312471C55.8785 11.3861 54.038 22.1127 51.6536 31.4768C49.2677 40.8468 46.3468 48.8118 42.3325 54.3818C38.3308 59.9341 33.2601 63.087 26.5347 62.9029C19.7733 62.7178 11.2749 59.1596 0.447606 51.1063L0.223803 51.4072Z" fill="var(--stroke-0, #867F72)"/>
</svg>
