<svg preserveAspectRatio="none" width="100%" height="100%" overflow="visible" style="display: block;" viewBox="0 0 52.1763 29.9009" fill="none" xmlns="http://www.w3.org/2000/svg">
<path id="Vector 17822" d="M25.6598 2.23722C24.8476 2.31191 23.7831 2.46625 22.9809 2.62885C22.7296 2.67934 22.8505 2.62477 22.6758 2.66007C22.3357 2.72999 22.0255 2.8242 21.6915 2.90578C21.5816 2.93263 21.7057 2.85363 21.5903 2.88299C21.5354 2.89709 21.4804 2.91163 21.4253 2.92659C20.8692 3.07822 20.3469 3.29946 19.7947 3.54308C18.3604 4.18409 16.9841 4.97288 15.5975 5.74685C14.1222 6.57655 12.7171 7.5534 11.5124 8.76953C11.3765 8.90719 11.2377 9.05236 11.0993 9.20411C10.4585 9.89797 9.86576 10.778 9.50455 11.6245C9.45284 11.7447 9.51847 11.6885 9.51111 11.7124C9.40022 12.0866 9.38314 11.9392 9.27996 12.1722C8.87351 13.101 8.62241 14.2148 8.44473 15.1919C8.38496 15.5137 8.46412 15.347 8.4459 15.4434C8.44076 15.4709 8.42717 15.5203 8.40124 15.6111C8.39341 15.639 8.37339 15.529 8.34934 15.6397C8.29221 15.8905 8.24371 16.377 8.22929 16.5761C8.19887 16.9599 8.19823 17.0241 8.19737 17.3889C8.19863 17.8874 8.22505 18.4836 8.31439 19.0135C8.33367 19.1265 8.34998 18.9708 8.3851 19.1497C8.41832 19.329 8.50871 19.802 8.53883 19.962C8.56692 20.1222 8.52057 20.0622 8.5202 20.092C8.51354 20.3395 8.75468 20.8552 8.78127 20.9201C8.93064 21.3401 9.08884 21.7341 9.2644 22.1043C9.59909 22.7107 10.2898 23.1907 10.9371 23.6668C11.5088 24.072 12.1295 24.4745 12.7198 24.862C12.9256 24.997 13.1268 25.1269 13.3215 25.2515C14.2261 25.8291 15.001 26.3044 15.9228 26.7902C16.0205 26.8414 15.9287 26.7397 16.0472 26.8015C16.91 27.2624 17.752 27.6148 18.6697 28.1192C19.0379 28.3775 19.411 28.5968 19.8225 28.7458C19.9502 28.7916 19.77 28.776 19.899 28.8239C20.6897 29.1263 22.0884 29.2725 22.6092 29.1179C23.2009 29.1532 23.9172 29.1785 24.4472 29.2254C24.7847 29.2554 24.4537 29.2943 24.8754 29.2827C24.9689 29.2801 24.8476 29.2385 24.9886 29.2374C25.0672 29.2368 25.1478 29.2367 25.2305 29.2369C25.7483 29.2376 26.3067 29.2074 26.8135 29.1453C26.9312 29.1306 26.896 29.0981 26.9291 29.0887C27.2074 29.0121 27.6901 29.0458 27.7929 29.0403C28.5847 28.9977 29.1564 28.9061 29.8892 28.8153C30.0589 28.7942 29.8526 28.7723 30.0153 28.7503C30.863 28.6366 31.7448 28.5306 32.5802 28.4552C32.7657 28.4386 32.6004 28.4985 32.6891 28.4926C32.7922 28.4857 32.8742 28.4747 32.9458 28.4617C33.1449 28.4252 33.256 28.3737 33.5309 28.3486C33.6085 28.3413 33.5698 28.3817 33.5844 28.3835C33.8175 28.4114 33.9955 28.2969 34.0535 28.2855C34.767 28.1399 35.2423 28.1261 35.919 27.9209C35.9995 27.8958 35.8048 27.9072 36.0318 27.8386C36.7066 27.6327 37.3886 27.377 38.0825 27.1346C38.9376 26.8364 39.7968 26.5484 40.6232 26.2691C40.8551 26.1907 40.7021 26.2813 40.7179 26.2799C40.9765 26.2535 41.1001 26.1175 41.174 26.0869C41.7581 25.8478 42.335 25.7051 42.6972 25.455C43.2487 25.2483 43.7957 25.0308 44.3326 24.7975C46.0994 24.0185 47.8159 23.0806 49.1754 21.7332C49.2675 21.6432 49.3559 21.5488 49.4409 21.451C49.4625 21.4259 49.4578 21.4986 49.5009 21.448C49.9973 20.8188 49.8426 20.8946 50.0377 20.4028C50.0853 20.2787 50.3534 19.9606 50.3748 19.9295C50.4553 19.8226 50.4521 19.9724 50.4758 19.935C50.6688 19.6197 50.4578 19.5886 50.6546 19.1389C50.661 19.1248 50.6701 19.1993 50.69 19.1628C50.7502 19.0526 50.7857 18.9328 50.8435 18.8237C50.845 18.8209 50.8465 18.8181 50.848 18.8153C50.9809 18.5651 51.116 18.5001 51.1852 18.0615C51.1915 18.0055 51.0635 18.0564 51.1734 17.6371C51.2228 17.4713 51.3599 16.7142 51.3903 16.4998C51.4263 16.2866 51.4441 16.4385 51.4478 16.4235C51.5676 15.8496 51.5603 16.0713 51.6628 15.7851C51.7614 15.4968 51.579 15.5644 51.5686 15.4438C51.559 15.3232 51.6239 14.8969 51.6415 14.7914C51.6601 14.6864 51.6787 14.8191 51.6906 14.7255C51.7643 14.1027 51.6125 14.4492 51.5902 14.2434C51.5397 13.8076 51.6388 13.4593 51.6638 13.0694C51.6665 13.0272 51.6678 12.9844 51.6673 12.9409C51.6651 12.8219 51.6407 12.9202 51.6316 12.8153C51.5882 12.4019 51.5853 12.1431 51.4285 11.6906C51.4038 11.6154 51.2195 11.273 51.1842 11.0215C51.1794 10.9855 51.2458 11.0684 51.1887 10.8983C51.1047 10.6435 50.9127 10.1981 50.7709 9.94602C50.6668 9.75985 50.7313 10.0011 50.6225 9.7561C50.5732 9.64753 50.7047 9.82783 50.609 9.62485C50.5157 9.42169 50.2252 8.92953 50.1067 8.74741C49.9899 8.56446 50.0191 8.68671 50.0075 8.6733C49.9386 8.59173 49.6936 8.25662 49.672 8.22647C49.5957 8.11432 49.5182 8.00222 49.4414 7.89254C48.2901 6.74045 46.9052 5.8328 45.5438 4.87583C45.4269 4.79634 45.4797 4.88523 45.4616 4.87346C45.403 4.83568 45.3601 4.8056 45.3293 4.78138C45.1459 4.63839 45.3929 4.70104 45.1725 4.51158C45.1647 4.61157 45.0088 4.48348 44.7149 4.30859C44.575 4.22623 44.6323 4.30188 44.6178 4.29683C44.3831 4.21066 44.272 4.07128 44.2407 4.03761C44.1257 3.91402 43.9439 3.88173 43.8615 3.80133C43.7792 3.72175 44.0275 3.79437 43.7342 3.64507C43.6381 3.63177 43.8187 3.81221 43.5917 3.71412C42.7544 3.29686 41.0705 2.8704 40.3152 2.76677C39.57 2.6406 39.3282 2.60462 38.8952 2.5108C38.8905 2.50978 38.8859 2.50877 38.8813 2.50776C38.1201 2.33639 38.3904 2.45023 37.9028 2.3748C37.412 2.29621 37.6792 2.20276 37.6163 2.15653C37.5534 2.11016 37.4744 2.12622 37.3923 2.09012C37.311 2.05418 37.4995 2.0739 37.3015 2.02318C37.1035 1.97258 36.548 1.90544 36.47 1.92186C36.3059 1.95705 36.5338 2.08429 36.0134 1.94019C35.9833 1.93182 36.0907 1.91618 35.9749 1.88602C35.0618 1.64922 34.1046 1.43347 33.1874 1.21643C33.0612 1.18654 33.1835 1.16764 33.1101 1.14978C32.3454 0.965581 32.606 1.09347 32.1684 1.09006C32.2836 1.00309 32.0634 0.890372 31.4755 0.782537C31.1226 0.718788 31.1742 0.776158 30.9409 0.769673C30.87 0.767558 30.6263 0.694398 30.5766 0.709003C30.4152 0.757089 30.6385 0.871877 30.0386 0.748415C30.0384 0.748378 30.0382 0.748342 30.038 0.748306C30.0288 0.746401 30.0338 0.741931 30.0404 0.736237C30.0491 0.728535 30.0607 0.7186 30.0443 0.709778C30.0378 0.70635 30.0271 0.703081 30.0103 0.70018C29.4167 0.599834 29.3356 0.664201 28.6914 0.601772C28.1861 0.552015 27.2896 0.439995 26.711 0.423464C26.7266 0.301219 26.1756 0.321329 25.9556 0.410478C25.5803 0.412282 25.1755 0.435076 24.8128 0.450175C24.6882 0.455486 24.7672 0.414409 24.7512 0.411785C24.5047 0.370867 24.3488 0.468205 24.2687 0.479325C23.399 0.599312 22.6793 0.655421 21.8685 0.881133C21.8438 0.888155 21.8187 0.956645 21.6643 0.967522C21.6392 0.969263 21.6106 0.969454 21.5778 0.967598C21.5626 0.966633 21.8254 0.87058 21.439 0.951188C21.0519 1.03156 20.3157 1.16318 19.7958 1.345C19.6697 1.38843 19.3639 1.54319 19.0906 1.56633C19.054 1.56929 19.0852 1.53518 19.0315 1.53664C18.8584 1.54203 18.7942 1.64948 18.5848 1.63637C18.375 1.62357 17.9645 1.69033 17.4511 1.90878C17.4346 1.91563 17.3305 2.02014 17.1645 2.07377C16.8995 2.15911 16.5205 2.27294 16.2463 2.36947C16.1148 2.41574 16.2129 2.42581 16.1903 2.43453C15.3161 2.76814 14.6798 2.96607 13.7432 3.32599C13.5715 3.39169 13.1056 3.64595 12.7616 3.74599C12.4497 3.83707 12.589 3.61509 12.1972 3.76354C12.1123 3.79608 12.0065 3.84432 11.8648 3.91855C11.5406 4.08884 11.2384 4.51726 10.5979 4.68992C9.48763 5.29178 8.43669 5.81926 7.40967 6.56511C7.36243 6.59924 7.25548 6.75945 7.1443 6.83496C6.98105 6.94557 6.87262 6.98076 6.75673 7.05939C6.756 7.05988 6.75528 7.06038 6.75455 7.06088C6.2637 7.39679 5.87476 7.7829 5.47245 8.18777C5.32018 8.34331 5.34702 8.26302 5.16893 8.45271C4.9926 8.6438 4.91281 8.80418 4.67188 9.05996C4.49025 9.25385 4.25004 9.40409 4.02781 9.6802C4.09491 9.74703 3.94535 9.93898 3.71495 10.3032C3.67107 10.3729 3.74877 10.3201 3.72938 10.354C3.65071 10.4931 3.54436 10.5976 3.4728 10.7327C3.45561 10.7652 3.48086 10.7848 3.46828 10.8124C3.36149 11.0486 3.06743 11.3573 3.01726 11.4104C2.82364 11.6153 2.78714 11.7466 2.65571 11.9134C2.52361 12.0817 2.6781 11.8019 2.53272 12.0043C2.43472 12.1408 2.33099 12.2928 2.22531 12.4524C2.0316 12.7942 1.83654 13.1597 1.67079 13.4692C1.57304 13.6523 1.67713 13.5473 1.664 13.5739C1.47149 13.9593 1.23069 14.3258 1.19791 14.577C0.867226 14.7443 1.09684 14.8175 0.786459 15.3498C0.76241 15.3912 0.641126 15.4029 0.710048 15.2269C0.77808 15.0531 0.93355 14.8139 1.0298 14.5727C1.05219 14.5158 1.12605 14.1596 1.14384 14.113C1.27633 13.7582 1.43894 13.7839 1.45573 13.77C1.64139 13.6139 1.75026 13.1878 1.79808 13.0841C1.9112 12.8372 2.02653 12.6201 2.14015 12.409C2.26184 12.216 2.37345 12.0416 2.47682 11.8624C2.61843 11.6177 2.5495 11.5379 2.67475 11.3545C3.09467 10.7445 3.35571 10.6128 3.66469 9.9741C3.73297 9.83745 3.55166 9.89087 3.94651 9.5109C3.97138 9.48632 4.27793 9.2184 4.3853 9.00762C4.39879 8.98091 4.37311 8.96118 4.39537 8.92961C4.54571 8.71866 4.6762 8.60403 4.85483 8.38475C5.03325 8.1662 5.25548 7.90456 5.49802 7.68741C5.64388 7.55547 5.87144 7.43332 5.95223 7.38388C6.17831 7.24399 6.35926 7.01556 6.52272 6.96047C6.66311 6.91369 6.52567 7.09187 6.71646 7.00244C6.74697 6.98855 6.78679 6.96726 6.83831 6.93682C6.80259 6.85919 6.78237 6.768 6.75485 6.6841C7.52041 6.15183 8.31141 5.68275 9.12308 5.21709C9.22297 5.15978 9.09782 5.1787 9.20522 5.11601C9.65956 4.85219 10.0794 4.66503 10.5588 4.40861C10.9297 4.21026 11.326 3.96643 11.7209 3.77188C11.8287 3.76222 11.9764 3.71459 12.1459 3.6486C12.4232 3.54059 12.7534 3.38628 13.0278 3.27703C13.1815 3.21584 13.1825 3.24336 13.2937 3.20631C13.717 3.06562 13.4916 3.06675 13.5995 3.00818C14.0638 2.7598 14.1768 2.92131 14.7488 2.69716C14.7788 2.68519 15.1161 2.44899 15.1659 2.42417C15.4793 2.26433 15.2324 2.43751 15.4401 2.36951C15.8198 2.24625 16.0888 2.17651 16.5216 1.99639C16.6476 1.94376 16.9379 1.77831 17.2055 1.74303C17.2406 1.73834 17.2328 1.77655 17.2601 1.76974C17.7532 1.64472 17.734 1.54045 18.001 1.41942C18.2682 1.29844 18.7206 1.24128 18.8141 1.23657C19.0585 1.22271 18.6451 1.31009 18.634 1.31939C18.5064 1.424 18.8167 1.32004 19.0586 1.25685C19.1219 1.34702 19.4558 1.24691 19.3092 1.19145C19.2923 1.18551 19.1081 1.24754 19.0586 1.25685C19.2406 1.09824 19.6097 0.981064 20.0447 0.966979C20.2479 0.961498 20.0791 1.05577 20.6592 0.892812C20.9229 0.820417 20.8039 0.77483 21.0347 0.700901C21.2013 0.648049 21.3868 0.603586 21.5789 0.56501C22.0011 0.479889 22.4605 0.423142 22.8461 0.353039C23.0499 0.316255 22.8443 0.309394 22.9838 0.283151C23.355 0.21417 23.6888 0.199075 24.064 0.143004C24.0981 0.137925 24.0099 0.10586 24.1275 0.0928392C25.0183 -0.00365537 25.8025 -0.0113501 26.736 0.00944051C27.1877 0.0169748 27.9937 0.0446926 28.458 0.0968769C28.9756 0.151126 29.5636 0.251714 30.098 0.345539C30.3926 0.39706 30.6722 0.446507 30.9138 0.482C31.3566 0.548155 31.2672 0.491769 31.461 0.497596C31.836 0.508733 32.461 0.729615 32.5441 0.762016C32.5468 0.762838 32.1672 0.698517 32.3646 0.758648C32.4732 0.824836 32.5398 0.761372 32.5441 0.762016C32.5992 0.781949 33.3498 0.944438 33.5003 0.968934C33.5823 0.981767 33.545 0.93402 33.5876 0.941447C34.599 1.11893 35.6045 1.33675 36.6116 1.58277C36.6292 1.58755 36.5927 1.62409 36.6346 1.63489C37.2169 1.78597 37.6039 1.81802 38.0918 1.89069C38.4375 1.94202 38.7293 2.00071 38.965 2.07471C39.0639 2.1055 39.1494 2.13809 39.2296 2.17493C39.595 2.23296 40.1159 2.34966 40.418 2.41866C40.7203 2.48792 40.7778 2.41202 40.8049 2.41474C41.6569 2.50892 42.1587 2.65331 43.0114 2.97681C43.4208 3.12647 44.1946 3.49673 44.5958 3.73263C44.915 3.91423 45.0879 4.04974 45.3754 4.22742C45.4133 4.25107 45.3971 4.19439 45.4093 4.20084C45.7327 4.36878 45.5566 4.35216 45.5934 4.40244C45.5947 4.40419 45.5962 4.40602 45.598 4.40795C45.7904 4.61547 45.9112 4.73855 46.3135 4.98627C46.4045 5.04219 46.743 5.11736 46.9084 5.22493C47.1248 5.36609 47.0186 5.34922 47.2446 5.49578C47.2639 5.50842 47.2784 5.48242 47.4123 5.57974C48.0402 6.03873 48.7144 6.53841 49.355 7.07354C49.4435 7.14956 49.3615 7.01617 49.4887 7.12598C49.6242 7.24829 49.7541 7.35399 49.9098 7.56282C50.2605 8.05797 50.6005 8.59324 50.8718 9.10533C50.9571 9.26753 50.872 9.18358 50.883 9.22294C50.9514 9.46294 51.1847 9.73094 51.2115 9.78274C51.7749 10.8609 52.073 11.8264 52.122 13.0637C52.1254 13.207 52.1293 13.355 52.1336 13.5064C52.1368 13.5802 52.2251 14.1557 52.1381 14.4105C52.1325 14.4281 52.0453 14.6786 52.0896 14.9051C52.0923 14.9192 52.1414 14.7627 52.1237 15.0389C52.1058 15.3148 52.1025 15.7637 52.0153 16.1398C51.9878 16.2594 51.8774 16.5321 51.8833 16.8996C51.8868 16.9219 51.9292 17.5062 51.7822 17.6832C51.7572 17.7116 51.6699 17.6544 51.6099 18.0904C51.5972 18.174 51.6621 18.0331 51.6148 18.2508C51.5632 18.4822 51.4625 18.7567 51.3549 19.037C51.3101 19.1546 51.2675 19.274 51.2315 19.3936C51.2114 19.4617 51.1557 19.7686 51.0024 19.9672C50.9784 19.9983 50.9775 19.9178 50.919 20.0326C50.6394 20.5766 50.3503 21.1674 49.9321 21.6718C49.7819 21.848 49.8128 21.7213 49.6455 21.893C49.6042 21.9343 49.5527 21.9856 49.4948 22.0412C49.3253 22.2051 49.0965 22.4219 48.9746 22.5575C48.8102 22.7387 49.0724 22.6308 48.7982 22.8767C47.5926 23.9281 46.1869 24.6169 44.7777 25.2444C44.6113 25.3175 44.6949 25.3026 44.58 25.3626C44.551 25.3778 44.5087 25.3978 44.4447 25.4257C43.3044 25.928 41.3183 26.6935 40.2892 26.9865C39.466 27.222 40.4642 26.8209 39.8417 27.0191C39.5416 27.1147 39.2555 27.3277 39.1848 27.3562C38.8503 27.4919 38.5579 27.5922 38.2789 27.6859C37.9817 27.7856 37.6949 27.8806 37.3718 28.0027C37.2416 28.0519 37.3845 28.0468 37.2735 28.088C36.894 28.2294 36.4791 28.3472 36.1022 28.4599C35.9333 28.5102 35.9735 28.5328 35.8152 28.5734C35.438 28.6692 35.0961 28.7335 34.7206 28.7762C34.6863 28.7801 34.9064 28.6957 34.6243 28.7491C34.1686 28.8344 33.5989 28.8889 33.0788 28.9799C33.0507 28.9849 33.0277 28.9914 33.0067 28.9986C32.9135 29.0312 32.8664 29.0792 32.5913 29.0686C32.5206 29.0661 32.599 28.9664 32.2238 29.0887C32.1615 29.1088 31.5291 29.2901 31.2046 29.2627C31.1196 29.2553 30.8974 29.209 30.7137 29.2436C30.6889 29.2486 30.7939 29.2758 30.6418 29.2988C30.1056 29.3791 29.5397 29.4469 28.9862 29.5277C28.839 29.5492 29.0653 29.5633 28.8434 29.5943C28.2369 29.6791 27.4727 29.7573 26.8684 29.7967C26.6438 29.8111 26.7958 29.7636 26.7791 29.7613C26.5143 29.7227 26.3645 29.8146 26.2787 29.825C25.8907 29.8699 25.5638 29.8675 25.2208 29.8568C25.0865 29.8524 24.9533 29.8491 24.8167 29.8496C24.6791 29.8498 24.776 29.8907 24.7485 29.8937C24.4651 29.9226 24.6762 29.8562 24.5 29.8451C24.0027 29.8133 23.4534 29.803 22.9449 29.7882C22.7583 29.7827 22.9652 29.8364 22.7992 29.8308C21.8138 29.7893 20.7734 29.7495 19.7723 29.4313C19.5851 29.3677 19.7146 29.3715 19.678 29.3515C19.4293 29.217 19.0256 29.1093 18.9384 29.0679C18.6215 28.928 18.4858 28.818 18.2878 28.6807C18.2709 28.6678 18.2236 28.6401 18.167 28.612C16.6466 27.9336 14.7183 26.9275 13.3564 26.048C13.009 25.8287 12.6806 25.6129 12.3641 25.3983C11.0824 24.4464 9.85418 23.9578 8.71031 22.3957C8.7066 22.3883 8.70321 22.3817 8.7001 22.3758C8.65211 22.2859 8.66364 22.4083 8.61615 22.3099C7.98475 20.9599 7.67735 19.5357 7.56257 18.0685C7.55417 17.9478 7.52034 18.125 7.50619 17.9306C7.47703 17.532 7.47998 17.0228 7.52106 16.6184C7.54113 16.4214 7.56058 16.6885 7.58067 16.4907C7.62135 16.1065 7.67865 15.7002 7.75556 15.3042C7.76971 15.231 7.78386 15.1559 7.79735 15.0828C7.83253 14.8921 7.73053 15.1706 7.77991 14.9226C8.09989 13.2382 8.5716 11.4826 9.6176 9.9907C9.6887 9.88898 9.82288 9.84903 9.9605 9.62573C9.95125 9.595 9.92639 9.57837 9.90937 9.55549C10.1139 9.26862 10.3337 8.9934 10.5666 8.73066C11.8991 7.23424 13.5271 6.08754 15.2374 5.11601C15.4308 5.0066 15.6223 4.89804 15.8162 4.78815C15.9079 4.73615 15.7252 4.78425 15.9032 4.68315C16.9335 4.09988 17.9326 3.51661 19.0613 3.02152C19.1736 2.97315 19.153 3.07547 19.4734 2.91225C19.5284 2.88223 20.0214 2.65205 20.1467 2.58369C20.1634 2.57395 20.0559 2.57431 20.2188 2.50726C20.534 2.37886 20.8613 2.26042 21.2001 2.16194C21.8666 1.96828 22.5502 1.80752 23.2181 1.68947C23.3806 1.66105 23.217 1.73695 23.3323 1.71736C24.1444 1.57907 25.0319 1.42553 25.8244 1.41128C26.3538 1.40485 26.1617 1.49087 26.4426 1.5516C26.4842 1.5596 26.8057 1.55457 26.8243 1.59712C26.8679 1.70226 26.714 1.81994 26.7786 1.93175C26.7937 1.95481 27.2165 1.92779 26.9656 1.98693C26.9492 1.99033 26.6417 2.01334 26.5667 2.03603C26.5156 2.0512 26.61 2.09128 26.5047 2.11192C26.3991 2.1328 26.2796 2.10121 26.1047 2.1314C25.9302 2.16291 26.0107 2.2045 25.6598 2.23722ZM41.7817 2.76491C42.054 2.87257 42.1338 2.73887 41.8171 2.69828C41.8017 2.69662 41.7676 2.75956 41.7817 2.76491ZM8.37324 5.79446C8.72748 5.65556 8.90102 5.44338 8.64638 5.53416C8.39128 5.62648 8.2656 5.83717 8.37324 5.79446ZM5.29544 8.18206C5.63946 7.90371 5.54235 7.70268 5.23746 8.07322C5.21985 8.09499 5.27533 8.19873 5.29544 8.18206ZM25.1587 1.66238C25.1629 1.66359 25.3948 1.64241 25.3998 1.64032C25.5189 1.58081 25.0548 1.62289 25.1587 1.66238ZM2.98201 11.2668C3.08181 11.1686 3.27544 10.8258 3.15057 10.9457C3.04893 11.0432 2.85759 11.3884 2.98201 11.2668ZM51.7397 12.9259C51.7384 12.9294 51.7402 13.0227 51.745 13.0684C51.7468 13.0839 51.7492 13.094 51.7524 13.0931C51.7597 13.091 51.7653 13.0816 51.7692 13.0681C51.7875 13.0069 51.7676 12.8626 51.7397 12.9259ZM0.00155442 17.0872C0.00490577 17.058 0.00868847 17.0292 0.0129013 17.0008C0.307414 16.1094 0.711035 15.7392 0.291445 16.6539C0.218417 16.8278 0.391724 16.2555 0.286517 16.4728C0.192831 16.6669 0.140882 16.8491 0.123711 17.0177C0.116972 17.2018 0.121656 17.3878 0.082966 17.617C0.067967 17.6987 -0.0118406 17.1449 0.00149621 17.0854C0.00151548 17.086 0.00153489 17.0866 0.00155442 17.0872ZM41.9009 2.97851C41.9059 2.98112 42.1275 3.04145 42.1329 3.04161C42.2661 3.02783 41.8184 2.90524 41.9009 2.97851ZM49.0641 21.9234C49.0547 21.9318 48.6688 22.2929 48.656 22.3046C48.5062 22.5532 49.294 21.8203 49.0641 21.9234ZM26.702 0.420027C26.452 0.461927 26.1561 0.467276 25.9568 0.410522C26.2042 0.410082 26.4534 0.411579 26.702 0.420027Z" fill="var(--stroke-0, #373228)"/>
</svg>
