<svg preserveAspectRatio="none" width="100%" height="100%" overflow="visible" style="display: block;" viewBox="0 0 320.05 75.9448" fill="none" xmlns="http://www.w3.org/2000/svg">
<g id="twain">
<path d="M7.01029 20.213H0V15.89C4.12828 13.3974 7.3608 10.9828 9.69756 8.64602C12.0343 6.23137 13.8258 3.34936 15.0721 0H18.4604V14.7216H34.1167V20.213H18.4604V55.7318C18.4604 61.1842 19.0057 64.962 20.0962 67.0651C21.2645 69.1682 23.4066 70.2197 26.5223 70.2197C28.4696 70.2197 30.1442 69.8303 31.5463 69.0513C32.9483 68.1945 34.2725 66.7925 35.5188 64.8452L38.4397 67.0651C36.1809 72.9849 30.9621 75.9448 22.7834 75.9448C17.6426 75.9448 13.709 74.6985 10.9828 72.206C8.33445 69.7134 7.01029 66.2083 7.01029 61.6905V20.213Z" fill="var(--fill-0, #48654E)"/>
<path d="M67.6411 75.9448L52.4521 27.3401C51.5953 24.4581 50.6995 22.2771 49.7648 20.7972C48.8301 19.3172 47.6617 18.3046 46.2597 17.7594C44.9355 17.2142 43.144 16.9415 40.8851 16.9415V12.8522H71.8472V16.9415C68.8094 16.9415 66.6674 17.292 65.4211 17.9931C64.1749 18.6941 63.5517 19.9014 63.5517 21.6151C63.5517 22.394 63.6686 23.3287 63.9022 24.4192C64.1359 25.4318 64.4475 26.717 64.8369 28.2748L72.7819 56.1991H73.2493L90.4245 12.8522H94.0465L109.586 56.1991H110.053L117.064 37.2714C118.388 33.7662 119.361 31.0011 119.985 28.9759C120.686 26.9507 121.153 25.3539 121.387 24.1855C121.698 23.0171 121.854 22.0045 121.854 21.1477C121.854 19.4341 121.348 18.3046 120.335 17.7594C119.322 17.2142 117.219 16.9415 114.026 16.9415V12.8522H137.393V16.9415C136.225 16.9415 135.212 17.1363 134.356 17.5257C133.577 17.8373 132.798 18.4994 132.019 19.512C131.24 20.5246 130.383 21.9656 129.448 23.835C128.592 25.7044 127.54 28.158 126.294 31.1958L108.184 75.9448H103.861L89.6066 32.8315H89.1393L71.9641 75.9448H67.6411Z" fill="var(--fill-0, #48654E)"/>
<path d="M189.713 75.9448C186.364 75.9448 183.832 74.8543 182.119 72.6733C180.405 70.4923 179.548 67.4156 179.548 63.4431H178.964C176.861 67.2598 174.018 70.2976 170.435 72.5565C166.852 74.7375 162.879 75.8279 158.517 75.8279C155.324 75.8279 152.559 75.2438 150.222 74.0754C147.885 72.907 146.055 71.3102 144.73 69.285C143.484 67.1819 142.861 64.7283 142.861 61.9242C142.861 58.2633 144.224 54.9139 146.95 51.8761C149.677 48.7604 154.623 45.6448 161.789 42.5291L178.614 35.1683V30.3779C178.614 25.4707 177.601 21.8877 175.576 19.6288C173.628 17.292 170.513 16.1237 166.229 16.1237C163.736 16.1237 161.906 16.63 160.737 17.6426C159.647 18.6552 158.595 20.6804 157.583 23.7181C156.726 25.8991 155.869 27.3791 155.012 28.158C154.233 28.9369 153.065 29.3264 151.507 29.3264C149.638 29.3264 148.197 28.8201 147.184 27.8075C146.171 26.7949 145.665 25.3539 145.665 23.4845C145.665 19.7456 147.651 16.8636 151.624 14.8384C155.596 12.7354 161.244 11.6838 168.565 11.6838C176.433 11.6838 181.963 13.0469 185.156 15.7732C188.428 18.4994 190.064 23.2118 190.064 29.9106V56.0823C190.064 60.9116 190.531 64.3389 191.466 66.3641C192.4 68.3893 193.88 69.4018 195.906 69.4018C196.685 69.4018 197.58 69.2461 198.593 68.9345C199.683 68.545 200.501 67.844 201.046 66.8314L202.682 69.6355C201.747 71.427 200.034 72.9459 197.541 74.1922C195.049 75.3606 192.439 75.9448 189.713 75.9448ZM163.775 68.8177C166.579 68.8177 169.111 67.9608 171.37 66.2472C173.628 64.4557 175.381 62.08 176.627 59.1201C177.951 56.1602 178.614 52.9277 178.614 49.4225V40.1923C172.694 42.4512 167.981 44.6711 164.476 46.8521C160.971 49.0331 158.439 51.214 156.882 53.395C155.402 55.4981 154.662 57.6791 154.662 59.938C154.662 62.5863 155.519 64.7283 157.232 66.3641C158.946 67.9998 161.127 68.8177 163.775 68.8177Z" fill="var(--fill-0, #48654E)"/>
<path d="M229.171 11.6838V56.1991C229.171 60.1716 229.443 63.2094 229.989 65.3125C230.534 67.3377 231.585 68.7008 233.143 69.4018C234.701 70.1029 236.999 70.5313 240.037 70.6871V74.7764H206.504V70.6871C209.698 70.5313 212.073 70.1029 213.631 69.4018C215.267 68.6229 216.357 67.2988 216.903 65.4294C217.448 63.482 217.721 60.6779 217.721 57.017V42.0617C217.721 37.544 217.643 33.8052 217.487 30.8453C217.409 27.8854 217.214 25.8991 216.903 24.8865C216.591 23.095 215.695 21.8877 214.215 21.2645C212.813 20.5635 210.165 20.213 206.27 20.213V16.1237L229.171 11.6838Z" fill="var(--fill-0, #48654E)"/>
<path d="M267.589 40.7765V56.4328C267.589 60.639 267.745 63.7157 268.057 65.663C268.446 67.6103 269.342 68.8956 270.744 69.5187C272.146 70.1418 274.327 70.5702 277.287 70.8039V74.7764H246.675V70.8039C249.557 70.5702 251.699 70.1808 253.101 69.6355C254.504 69.0124 255.399 67.7661 255.789 65.8967C256.256 64.0273 256.49 61.1453 256.49 57.2507V41.7112C256.49 37.1156 256.412 33.4157 256.256 30.6116C256.178 27.7296 256.022 25.7823 255.789 24.7697C255.321 22.6666 254.504 21.3424 253.335 20.7972C252.167 20.1741 249.869 19.8625 246.442 19.8625V16.1237L265.136 11.6838L266.538 23.2508H267.005C269.965 19.5899 273.431 16.7468 277.404 14.7216C281.454 12.6964 285.777 11.6838 290.373 11.6838C293.956 11.6838 297.227 12.268 300.187 13.4364C303.147 14.6048 305.406 16.2016 306.964 18.2267C308.288 20.0183 309.223 22.355 309.768 25.237C310.313 28.0412 310.586 31.9358 310.586 36.9209V56.4328C310.586 60.639 310.781 63.7157 311.17 65.663C311.56 67.6103 312.416 68.8956 313.74 69.5187C315.143 70.1418 317.246 70.5702 320.05 70.8039V74.7764H289.789V70.8039C292.749 70.6481 294.891 70.2587 296.215 69.6355C297.617 69.0124 298.513 67.7661 298.902 65.8967C299.291 63.9494 299.486 61.0674 299.486 57.2507V41.828C299.486 33.0262 298.474 26.8728 296.448 23.3676C294.423 19.7846 290.996 17.9931 286.167 17.9931C282.739 17.9931 279.546 18.9278 276.586 20.7972C273.626 22.5887 271.328 25.0813 269.693 28.2748C269.147 29.2874 268.719 30.3 268.407 31.3126C268.096 32.2473 267.862 33.4547 267.706 34.9346C267.628 36.3367 267.589 38.284 267.589 40.7765Z" fill="var(--fill-0, #48654E)"/>
</g>
</svg>
