<svg preserveAspectRatio="none" width="100%" height="100%" overflow="visible" style="display: block;" viewBox="0 0 27.4913 25.2233" fill="none" xmlns="http://www.w3.org/2000/svg">
<path id="favorite" d="M13.7457 25.2233L11.7525 23.4364C9.43869 21.3516 7.52575 19.5532 6.01373 18.0412C4.5017 16.5292 3.29896 15.1718 2.40549 13.969C1.51202 12.7663 0.887741 11.6609 0.532644 10.6529C0.177548 9.64487 0 8.61395 0 7.56011C0 5.40663 0.721647 3.60824 2.16494 2.16494C3.60824 0.721647 5.40663 0 7.56011 0C8.7514 0 9.88542 0.252004 10.9622 0.756011C12.0389 1.26002 12.9667 1.97021 13.7457 2.88659C14.5246 1.97021 15.4524 1.26002 16.5292 0.756011C17.6059 0.252004 18.7399 0 19.9312 0C22.0847 0 23.8831 0.721647 25.3264 2.16494C26.7697 3.60824 27.4913 5.40663 27.4913 7.56011C27.4913 8.61395 27.3138 9.64487 26.9587 10.6529C26.6036 11.6609 25.9793 12.7663 25.0858 13.969C24.1924 15.1718 22.9896 16.5292 21.4776 18.0412C19.9656 19.5532 18.0526 21.3516 15.7388 23.4364L13.7457 25.2233Z" fill="var(--fill-0, #48654E)"/>
</svg>
