<svg width="82.2619" height="53.1797" overflow="visible" style="display: block;" viewBox="0 0 82.2619 53.1797" fill="none" xmlns="http://www.w3.org/2000/svg">
<g id="Frame 2147264196">
<g id="alexa logo">
<path fill-rule="evenodd" clip-rule="evenodd" d="M75.8471 38.9937C74.7754 37.6203 68.7405 38.3448 66.0329 38.6655C65.2073 38.7664 65.0811 38.0495 65.8246 37.5319C70.6314 34.149 78.5181 35.126 79.4371 36.2595C80.3573 37.4007 79.1972 45.3063 74.6808 49.0793C73.9891 49.6587 73.3263 49.3494 73.6356 48.582C74.6492 46.0486 76.9239 40.3733 75.8471 38.9937Z" fill="var(--fill-0, #3B230E)"/>
<path fill-rule="evenodd" clip-rule="evenodd" d="M72.4454 43.0033C64.0008 49.2278 51.7607 52.5488 41.2222 52.5488C26.4454 52.5488 13.1426 47.0833 3.07835 37.9936C2.28782 37.2786 2.9961 36.3045 3.94504 36.8611C14.8062 43.1805 28.2356 46.9822 42.1077 46.9822C51.4634 46.9822 61.7552 45.0465 71.2184 41.0299C72.6479 40.4224 73.8434 41.966 72.4454 43.0033Z" fill="var(--fill-0, #3B230E)"/>
<path fill-rule="evenodd" clip-rule="evenodd" d="M74.2643 20.22C70.5874 20.22 68.7489 21.6393 68.7489 24.4766C68.7489 26.9469 70.0494 28.1818 72.6493 28.1818C73.6466 28.1818 74.7235 27.9852 75.8796 27.5903C77.0352 27.1968 78.2039 26.6187 79.3862 25.8565V20.9295C77.5998 20.4563 75.8925 20.22 74.2643 20.22ZM74.8162 9.38084C79.3597 9.38084 81.631 11.339 81.631 15.2542V29.2063C81.631 29.601 81.4339 29.7978 81.0404 29.7978H80.2133C79.8189 29.7978 79.6086 29.601 79.5829 29.2064L79.4254 27.5118C77.1662 29.3246 74.8026 30.2317 72.3346 30.2317C70.5216 30.2317 69.0841 29.7127 68.0204 28.6744C66.9561 27.6372 66.4245 26.2507 66.4245 24.5162C66.4245 22.5987 67.0754 21.0872 68.3747 19.984C69.675 18.8797 71.4673 18.3288 73.7525 18.3288C74.5926 18.3288 75.5117 18.4074 76.5099 18.5646C77.5075 18.7223 78.4665 18.9457 79.3862 19.235V15.9245C79.3862 14.3213 79.0048 13.1715 78.2432 12.4752C77.4809 11.7793 76.2208 11.4306 74.4613 11.4306C72.833 11.4306 71.1128 11.6934 69.3008 12.219C69.0117 12.298 68.7817 12.37 68.6116 12.4361C68.4395 12.5018 68.3026 12.5341 68.1982 12.5341C67.8822 12.5341 67.7247 12.3634 67.7247 12.0219V11.3915C67.7247 10.9968 67.8952 10.7349 68.2374 10.6032C69.235 10.2084 70.3056 9.90699 71.4477 9.6966C72.5905 9.48622 73.7127 9.38084 74.8162 9.38084ZM55.6821 21.0479L49.9696 29.3638C49.7593 29.6539 49.4838 29.7978 49.1425 29.7978H48.0396C47.6974 29.7978 47.5272 29.6539 47.5272 29.3638C47.5272 29.2595 47.6186 29.088 47.8027 28.852L54.5396 19.4713L48.3939 10.8788C48.2363 10.6424 48.1576 10.4851 48.1576 10.4062C48.1576 10.1168 48.3281 9.97212 48.6693 9.97212H49.8909C50.2321 9.97212 50.5079 10.1168 50.7183 10.4062L55.8794 17.7374L61.0397 10.4062C61.2491 10.1168 61.5128 9.97212 61.8275 9.97212H62.8909C63.2325 9.97212 63.4033 10.1168 63.4033 10.4062C63.4033 10.5117 63.3248 10.6816 63.167 10.9181L57.1 19.3138L63.8373 28.8521C63.9947 29.0881 64.0732 29.2595 64.0732 29.3638C64.0732 29.6539 63.9018 29.7978 63.5605 29.7978H62.3402C62.0246 29.7978 61.7617 29.6539 61.552 29.3638L55.6821 21.0479ZM37.4883 11.3915C35.519 11.3915 33.9623 11.9692 32.8202 13.1254C31.6774 14.2818 30.9882 15.9767 30.7523 18.2096C31.7761 18.4731 32.7943 18.6701 33.8051 18.801C34.8153 18.9328 35.8337 18.9978 36.8576 18.9978C38.8278 18.9978 40.2719 18.7093 41.1917 18.131C42.1105 17.5529 42.5704 16.6331 42.5704 15.3723C42.5704 12.7179 40.8763 11.3915 37.4883 11.3915ZM42.4916 27.6692C42.8329 27.5648 43.0828 27.4795 43.2403 27.4129C43.3978 27.3478 43.542 27.315 43.6736 27.315C43.9889 27.315 44.1461 27.4862 44.1461 27.8275V28.3789C44.1461 28.7999 44.0019 29.0754 43.7131 29.2064C41.8214 29.9945 39.813 30.3892 37.6853 30.3892C34.6654 30.3892 32.36 29.5156 30.7716 27.7678C29.1822 26.021 28.3887 23.4657 28.3887 20.1021C28.3887 18.4465 28.5983 16.9549 29.0181 15.6285C29.4381 14.3017 30.0485 13.1715 30.85 12.2383C31.6508 11.3061 32.6295 10.5966 33.7848 10.1105C34.9409 9.62435 36.2408 9.38084 37.6853 9.38084C39.9701 9.38084 41.7363 9.90704 42.9838 10.9573C44.2312 12.0093 44.8552 13.4798 44.8552 15.3723C44.8552 17.2382 44.192 18.6109 42.8661 19.4913C41.5396 20.3709 39.484 20.8117 36.7004 20.8117C35.7019 20.8117 34.697 20.752 33.6871 20.6341C32.6756 20.516 31.6708 20.3125 30.6726 20.0232C30.6726 22.8605 31.27 24.9561 32.4653 26.3094C33.6606 27.6637 35.4529 28.3394 37.8428 28.3394C39.3926 28.3394 40.9418 28.1166 42.4916 27.6692ZM21.0375 1.22215C21.0375 0.828347 21.2343 0.630956 21.6287 0.630956H22.692C23.0855 0.630956 23.2828 0.828347 23.2828 1.22215V26.3688C23.2828 26.9469 23.3942 27.3541 23.6181 27.5904C23.8408 27.8275 24.2415 27.9458 24.8197 27.9458C24.9768 27.9458 25.1546 27.9324 25.3514 27.9063C25.5481 27.8797 25.712 27.8667 25.8435 27.8667C26.2107 27.8667 26.3954 28.0507 26.3954 28.4184V29.1671C26.3954 29.4827 26.2243 29.6798 25.883 29.7583C25.7255 29.8108 25.4953 29.85 25.1939 29.8765C24.8908 29.9021 24.6223 29.916 24.3857 29.916C23.3353 29.916 22.5142 29.6074 21.9235 28.9891C21.3329 28.3728 21.0375 27.5117 21.0375 26.4083L21.0375 1.22215ZM8.47047 20.22C4.7936 20.22 2.95503 21.6393 2.95503 24.4766C2.95503 26.9469 4.25561 28.1818 6.85552 28.1818C7.85275 28.1818 8.93002 27.9852 10.0854 27.5903C11.2414 27.1968 12.4098 26.6187 13.5921 25.8565V20.9295C11.806 20.4563 10.0984 20.22 8.47047 20.22ZM9.02205 9.38084C13.5658 9.38084 15.8368 11.339 15.8368 15.2542V29.2063C15.8368 29.601 15.6404 29.7978 15.2469 29.7978H14.4192C14.0251 29.7978 13.8148 29.601 13.7888 29.2064L13.6316 27.5118C11.3721 29.3246 9.00846 30.2317 6.54046 30.2317C4.72785 30.2317 3.28999 29.7127 2.22665 28.6744C1.16264 27.6372 0.630956 26.2507 0.630956 24.5162C0.630956 22.5987 1.28123 21.0872 2.58087 19.984C3.88145 18.8797 5.67384 18.3288 7.95869 18.3288C8.79874 18.3288 9.71757 18.4074 10.7161 18.5646C11.7136 18.7223 12.6723 18.9457 13.5921 19.235V15.9245C13.5921 14.3213 13.2106 13.1715 12.449 12.4752C11.6871 11.7793 10.4267 11.4306 8.66684 11.4306C7.03929 11.4306 5.31895 11.6934 3.50696 12.219C3.21755 12.298 2.9879 12.37 2.81811 12.4361C2.64569 12.5018 2.50843 12.5341 2.40409 12.5341C2.08841 12.5341 1.93087 12.3634 1.93087 12.0219V11.3915C1.93087 10.9968 2.10138 10.7349 2.44358 10.6032C3.44122 10.2084 4.5118 9.90699 5.6539 9.6966C6.79666 9.48622 7.91846 9.38084 9.02205 9.38084Z" fill="var(--fill-0, #3B230E)"/>
<path fill-rule="evenodd" clip-rule="evenodd" d="M75.8471 38.9937C74.7754 37.6203 68.7405 38.3448 66.0329 38.6655C65.2073 38.7664 65.0811 38.0495 65.8246 37.5319C70.6314 34.149 78.5181 35.126 79.4371 36.2595C80.3573 37.4007 79.1972 45.3063 74.6808 49.0793C73.9891 49.6587 73.3263 49.3494 73.6356 48.582C74.6492 46.0486 76.9239 40.3733 75.8471 38.9937Z" stroke="var(--stroke-0, #3B230E)" stroke-width="1.26191"/>
<path fill-rule="evenodd" clip-rule="evenodd" d="M72.4454 43.0033C64.0008 49.2278 51.7607 52.5488 41.2222 52.5488C26.4454 52.5488 13.1426 47.0833 3.07835 37.9936C2.28782 37.2786 2.9961 36.3045 3.94504 36.8611C14.8062 43.1805 28.2356 46.9822 42.1077 46.9822C51.4634 46.9822 61.7552 45.0465 71.2184 41.0299C72.6479 40.4224 73.8434 41.966 72.4454 43.0033Z" stroke="var(--stroke-0, #3B230E)" stroke-width="1.26191"/>
<path fill-rule="evenodd" clip-rule="evenodd" d="M74.2643 20.22C70.5874 20.22 68.7489 21.6393 68.7489 24.4766C68.7489 26.9469 70.0494 28.1818 72.6493 28.1818C73.6466 28.1818 74.7235 27.9852 75.8796 27.5903C77.0352 27.1968 78.2039 26.6187 79.3862 25.8565V20.9295C77.5998 20.4563 75.8925 20.22 74.2643 20.22ZM74.8162 9.38084C79.3597 9.38084 81.631 11.339 81.631 15.2542V29.2063C81.631 29.601 81.4339 29.7978 81.0404 29.7978H80.2133C79.8189 29.7978 79.6086 29.601 79.5829 29.2064L79.4254 27.5118C77.1662 29.3246 74.8026 30.2317 72.3346 30.2317C70.5216 30.2317 69.0841 29.7127 68.0204 28.6744C66.9561 27.6372 66.4245 26.2507 66.4245 24.5162C66.4245 22.5987 67.0754 21.0872 68.3747 19.984C69.675 18.8797 71.4673 18.3288 73.7525 18.3288C74.5926 18.3288 75.5117 18.4074 76.5099 18.5646C77.5075 18.7223 78.4665 18.9457 79.3862 19.235V15.9245C79.3862 14.3213 79.0048 13.1715 78.2432 12.4752C77.4809 11.7793 76.2208 11.4306 74.4613 11.4306C72.833 11.4306 71.1128 11.6934 69.3008 12.219C69.0117 12.298 68.7817 12.37 68.6116 12.4361C68.4395 12.5018 68.3026 12.5341 68.1982 12.5341C67.8822 12.5341 67.7247 12.3634 67.7247 12.0219V11.3915C67.7247 10.9968 67.8952 10.7349 68.2374 10.6032C69.235 10.2084 70.3056 9.90699 71.4477 9.6966C72.5905 9.48622 73.7127 9.38084 74.8162 9.38084ZM55.6821 21.0479L49.9696 29.3638C49.7593 29.6539 49.4838 29.7978 49.1425 29.7978H48.0396C47.6974 29.7978 47.5272 29.6539 47.5272 29.3638C47.5272 29.2595 47.6186 29.088 47.8027 28.852L54.5396 19.4713L48.3939 10.8788C48.2363 10.6424 48.1576 10.4851 48.1576 10.4062C48.1576 10.1168 48.3281 9.97212 48.6693 9.97212H49.8909C50.2321 9.97212 50.5079 10.1168 50.7183 10.4062L55.8794 17.7374L61.0397 10.4062C61.2491 10.1168 61.5128 9.97212 61.8275 9.97212H62.8909C63.2325 9.97212 63.4033 10.1168 63.4033 10.4062C63.4033 10.5117 63.3248 10.6816 63.167 10.9181L57.1 19.3138L63.8373 28.8521C63.9947 29.0881 64.0732 29.2595 64.0732 29.3638C64.0732 29.6539 63.9018 29.7978 63.5605 29.7978H62.3402C62.0246 29.7978 61.7617 29.6539 61.552 29.3638L55.6821 21.0479ZM37.4883 11.3915C35.519 11.3915 33.9623 11.9692 32.8202 13.1254C31.6774 14.2818 30.9882 15.9767 30.7523 18.2096C31.7761 18.4731 32.7943 18.6701 33.8051 18.801C34.8153 18.9328 35.8337 18.9978 36.8576 18.9978C38.8278 18.9978 40.2719 18.7093 41.1917 18.131C42.1105 17.5529 42.5704 16.6331 42.5704 15.3723C42.5704 12.7179 40.8763 11.3915 37.4883 11.3915ZM42.4916 27.6692C42.8329 27.5648 43.0828 27.4795 43.2403 27.4129C43.3978 27.3478 43.542 27.315 43.6736 27.315C43.9889 27.315 44.1461 27.4862 44.1461 27.8275V28.3789C44.1461 28.7999 44.0019 29.0754 43.7131 29.2064C41.8214 29.9945 39.813 30.3892 37.6853 30.3892C34.6654 30.3892 32.36 29.5156 30.7716 27.7678C29.1822 26.021 28.3887 23.4657 28.3887 20.1021C28.3887 18.4465 28.5983 16.9549 29.0181 15.6285C29.4381 14.3017 30.0485 13.1715 30.85 12.2383C31.6508 11.3061 32.6295 10.5966 33.7848 10.1105C34.9409 9.62435 36.2408 9.38084 37.6853 9.38084C39.9701 9.38084 41.7363 9.90704 42.9838 10.9573C44.2312 12.0093 44.8552 13.4798 44.8552 15.3723C44.8552 17.2382 44.192 18.6109 42.8661 19.4913C41.5396 20.3709 39.484 20.8117 36.7004 20.8117C35.7019 20.8117 34.697 20.752 33.6871 20.6341C32.6756 20.516 31.6708 20.3125 30.6726 20.0232C30.6726 22.8605 31.27 24.9561 32.4653 26.3094C33.6606 27.6637 35.4529 28.3394 37.8428 28.3394C39.3926 28.3394 40.9418 28.1166 42.4916 27.6692ZM21.0375 1.22215C21.0375 0.828347 21.2343 0.630956 21.6287 0.630956H22.692C23.0855 0.630956 23.2828 0.828347 23.2828 1.22215V26.3688C23.2828 26.9469 23.3942 27.3541 23.6181 27.5904C23.8408 27.8275 24.2415 27.9458 24.8197 27.9458C24.9768 27.9458 25.1546 27.9324 25.3514 27.9063C25.5481 27.8797 25.712 27.8667 25.8435 27.8667C26.2107 27.8667 26.3954 28.0507 26.3954 28.4184V29.1671C26.3954 29.4827 26.2243 29.6798 25.883 29.7583C25.7255 29.8108 25.4953 29.85 25.1939 29.8765C24.8908 29.9021 24.6223 29.916 24.3857 29.916C23.3353 29.916 22.5142 29.6074 21.9235 28.9891C21.3329 28.3728 21.0375 27.5117 21.0375 26.4083L21.0375 1.22215ZM8.47047 20.22C4.7936 20.22 2.95503 21.6393 2.95503 24.4766C2.95503 26.9469 4.25561 28.1818 6.85552 28.1818C7.85275 28.1818 8.93002 27.9852 10.0854 27.5903C11.2414 27.1968 12.4098 26.6187 13.5921 25.8565V20.9295C11.806 20.4563 10.0984 20.22 8.47047 20.22ZM9.02205 9.38084C13.5658 9.38084 15.8368 11.339 15.8368 15.2542V29.2063C15.8368 29.601 15.6404 29.7978 15.2469 29.7978H14.4192C14.0251 29.7978 13.8148 29.601 13.7888 29.2064L13.6316 27.5118C11.3721 29.3246 9.00846 30.2317 6.54046 30.2317C4.72785 30.2317 3.28999 29.7127 2.22665 28.6744C1.16264 27.6372 0.630956 26.2507 0.630956 24.5162C0.630956 22.5987 1.28123 21.0872 2.58087 19.984C3.88145 18.8797 5.67384 18.3288 7.95869 18.3288C8.79874 18.3288 9.71757 18.4074 10.7161 18.5646C11.7136 18.7223 12.6723 18.9457 13.5921 19.235V15.9245C13.5921 14.3213 13.2106 13.1715 12.449 12.4752C11.6871 11.7793 10.4267 11.4306 8.66684 11.4306C7.03929 11.4306 5.31895 11.6934 3.50696 12.219C3.21755 12.298 2.9879 12.37 2.81811 12.4361C2.64569 12.5018 2.50843 12.5341 2.40409 12.5341C2.08841 12.5341 1.93087 12.3634 1.93087 12.0219V11.3915C1.93087 10.9968 2.10138 10.7349 2.44358 10.6032C3.44122 10.2084 4.5118 9.90699 5.6539 9.6966C6.79666 9.48622 7.91846 9.38084 9.02205 9.38084Z" stroke="var(--stroke-0, #3B230E)" stroke-width="1.26191"/>
</g>
</g>
</svg>
