<svg width="157" height="34" viewBox="0 0 157 34" fill="none" xmlns="http://www.w3.org/2000/svg">
<rect width="157" height="34" fill="#B2B2B2"/>
<g id="Video Portfolio v2">
<rect width="1920" height="11134" transform="translate(-376 -5186)" fill="white"/>
<rect width="1920" height="11134" transform="translate(-376 -5186)" fill="#FBF4E6"/>
<g id="Group 2147233145">
<g id="Frame 2147264195">
<rect x="-68" y="-45" width="1284" height="121" rx="20" fill="#F7ECD9"/>
<g id="Vector">
<path d="M17.1967 7.5748C17.6331 7.0072 18.2483 6.12034 18.8659 5.78555C21.3618 4.43268 23.0601 5.62281 24.3596 7.62506C25.1428 7.11926 25.7121 6.20081 26.387 5.83122C29.2448 4.21207 32.1638 6.1278 32.4356 9.33434C32.7139 12.617 32.5702 16.2283 32.5392 19.5372C32.532 20.3071 29.6157 20.0263 29.0665 19.9003C28.6545 19.5087 29.0913 12.0021 28.8595 10.803C28.5213 9.05283 28.121 8.58665 26.2213 8.82837C25.363 9.48136 25.3422 9.7478 25.0724 10.7866C24.8179 11.228 24.9404 11.2801 24.8893 11.8444L24.7592 11.1896L24.6995 11.1521C24.3182 11.9627 24.8628 18.3607 24.436 19.4351C24.2901 19.8024 22.5585 19.7464 22.0663 19.7459C21.8853 19.6047 21.6525 19.3651 21.482 19.2001C21.6291 18.153 21.5649 16.1924 21.5708 15.0791C21.579 13.5435 21.6201 11.7511 21.4396 10.2339C21.3475 9.46024 20.9019 9.03515 20.3029 8.60973C19.7407 8.56307 18.7611 8.36547 18.4466 8.86406C17.8318 9.46105 17.5897 9.80936 17.4193 10.6631C16.5391 11.8675 17.3357 17.7624 16.9882 19.4741C16.8718 20.0476 14.0694 19.7363 13.6185 19.8289C13.5647 18.4345 13.4242 6.24461 13.6258 5.73086C13.6747 5.84547 13.6832 5.85914 13.7722 5.94623C14.1068 5.55184 14.3485 5.50797 14.8283 5.50371C17.1155 5.48333 16.7834 5.6829 17.1967 7.5748Z" fill="#3B230E"/>
<path d="M96.0599 7.42379C97.4779 6.31035 97.6024 5.09337 100.149 5.23801C101.953 5.3405 102.81 7.17739 103.531 7.42444C105.018 6.1707 105.524 5.08314 107.74 5.28123C111.012 5.57396 111.539 8.92621 111.508 11.5757C111.479 14.1022 111.513 16.5597 111.495 19.0806C111.493 19.384 111.537 19.7647 111.32 19.9876C110.556 19.9198 108.374 20.2314 107.953 19.812C107.379 18.6336 108.28 11.4665 107.592 9.78596C107.13 8.66082 106.129 8.69447 105.126 8.82634C104.627 9.2782 104.38 9.47949 104.108 10.1093L103.866 9.79218C103.518 10.0801 103.795 11.9754 103.539 12.5936C103.383 12.3936 103.351 12.0864 103.437 11.8441C103.388 12.9073 103.489 18.9206 103.325 19.3657C102.932 19.7036 100.75 19.856 100.661 19.3852C100.07 16.2271 100.929 12.7067 100.214 9.55881C100.13 9.20019 99.3989 8.62276 99.1433 8.42802C97.6139 8.39037 96.1279 8.62751 96.1647 10.6028C96.1934 12.1123 96.2507 13.6217 96.2221 15.1328C96.2409 16.0698 96.1459 18.4229 96.2688 19.1484L96.3056 19.7165C95.3955 19.9186 93.7022 20.1985 92.8322 19.8092C92.4792 19.4237 92.9789 7.68639 92.6922 5.9564C92.8126 5.55603 92.8585 5.57125 93.3156 5.5467C93.9029 5.5151 95.2947 5.41302 95.7265 5.87978C95.9427 6.30208 95.9427 6.9382 96.0599 7.42379Z" fill="#3B230E"/>
<path d="M9.63734 22.0278C10.698 21.9326 12.1249 23.2056 13.0325 23.8165C14.3966 24.7504 15.8317 25.5762 17.3247 26.2864C26.5475 30.5862 39.6885 30.3274 49.0528 26.561C49.6286 26.3294 51.3225 25.2844 51.8136 25.3953C53.587 25.7957 51.2166 27.6955 50.6724 28.1073C48.4638 29.8606 45.9601 31.2064 43.2789 32.0817C40.829 32.89 35.4974 33.9137 32.8792 33.8554C26.841 33.721 20.102 32.1797 15.1098 28.669C13.8735 27.7996 8.72951 23.7679 9.63734 22.0278Z" fill="#3B230E"/>
<path d="M59.2729 10.5865C59.4945 10.342 59.8605 9.52182 59.9902 9.21059C61.4796 5.63642 65.9373 4.36508 68.9134 7.04201C70.064 8.07694 70.8669 10.157 71.1786 11.6838C71.286 12.6811 71.0931 12.9655 71.3851 14.2684C70.9218 17.0934 69.3979 19.6221 66.3532 20.2135C62.649 20.9331 59.6705 18.0195 59.1053 14.544C58.9698 13.7106 58.8053 11.2496 59.2729 10.5865ZM62.8582 11.6814C62.2177 12.3583 62.6878 13.8059 62.7857 14.6267C62.7981 14.7302 62.8025 15.193 62.826 15.2513C62.8461 14.383 62.7941 12.8875 62.8645 12.0977C62.9888 13.5393 62.6803 15.1528 63.6051 16.4863C63.9316 16.9614 64.4372 17.2836 65.006 17.3791C66.5018 17.6376 67.4036 15.8261 67.5313 14.6069C67.7097 12.9042 67.8289 10.6182 66.854 9.13651C66.2413 8.20513 64.793 8.13981 63.941 8.76422C63.1771 9.33567 62.9771 10.7702 62.8582 11.6814Z" fill="#3B230E"/>
<path d="M62.8645 12.0977C62.7941 12.8875 62.8461 14.383 62.826 15.2513C62.8025 15.193 62.7981 14.7302 62.7857 14.6267C62.6878 13.8059 62.2177 12.3583 62.8582 11.6814L62.8645 12.0977Z" fill="#3B230E"/>
<path d="M5.38281 5.27504C6.37699 5.16953 7.84335 5.31859 8.77461 5.74769C12.3542 7.39713 11.2253 12.4013 11.4013 15.5544C11.4465 16.3655 11.5664 19.6147 11.1475 19.9653C10.3752 20.1151 9.11056 19.9687 8.30464 19.8911C8.11827 19.1325 8.11663 18.8611 7.77183 18.1351C5.98533 20.9505 2.3821 21.1355 0.533089 18.3267C-0.229722 16.6839 -0.186877 14.9263 0.745589 13.3521C1.78376 11.5995 3.76416 10.9618 5.69386 10.9078C7.79821 10.8489 8.20183 11.2053 7.50682 8.81901C6.86875 8.32917 6.00016 7.95819 5.18727 8.2099C4.29729 8.48535 3.92939 9.35256 3.52479 10.1114C2.56871 10.0401 1.35384 9.83798 0.426593 9.60264C0.829965 6.59206 2.57805 5.63186 5.38281 5.27504ZM5.29327 17.5606C7.83974 17.5703 7.91912 14.885 7.73366 12.9518C7.34405 12.9558 6.78323 12.9447 6.40803 12.9782C6.09027 13.0327 5.64733 13.0953 5.35545 13.2139C3.5488 13.9485 3.06694 17.0178 5.29327 17.5606Z" fill="#3B230E"/>
<path d="M35.1209 8.39C35.5303 8.14181 35.9851 7.28222 36.411 6.89912C37.7404 5.70334 40.4912 5.40226 42.1629 5.77554C43.215 6.01931 44.1258 6.67344 44.6925 7.59221C46.2337 10.0446 45.1771 13.7644 45.5007 16.5727C45.5469 16.9738 45.5782 18.6737 45.4979 19.0345C45.4727 19.1448 45.4331 19.2514 45.3803 19.3516C45.2756 19.4093 44.9004 19.6475 44.8716 19.6357C44.4762 19.4739 43.7618 19.7468 43.4365 19.6664C43.3418 19.5129 43.2879 19.4727 43.1324 19.3854C42.8296 18.8366 42.8091 17.7123 41.7792 18.0744C41.6204 18.2691 41.6448 18.3787 41.6514 18.6367C41.6307 18.8506 41.3026 19.2317 41.1458 19.379C39.7006 20.7368 36.8975 20.57 35.5558 19.1365C34.7131 18.2361 34.5472 17.3666 34.5203 16.2101C34.4376 12.6551 36.8242 11.0159 40.1114 10.9032C40.5216 10.8808 41.8025 10.9892 42.0645 10.738C42.1607 10.4839 42.1325 10.2823 42.0986 10.0308C41.8774 8.38558 41.1935 8.0358 39.6639 8.23152C37.8518 8.46343 39.1531 9.83766 37.6059 10.006C37.1356 10.0572 35.2674 9.82661 34.9544 9.5726C34.8606 9.21644 34.9833 8.72668 35.1209 8.39ZM38.9093 17.3359L39.6959 17.5564C40.3238 17.556 40.7731 17.5881 41.2275 17.0977C42.1867 16.0622 42.2333 14.283 42.1089 12.9684C41.7289 12.9644 41.1867 12.9432 40.822 12.9777C39.9621 13.1203 39.2517 13.2922 38.7297 14.0449C37.9856 15.1178 38.2112 16.3448 38.9093 17.3359Z" fill="#3B230E"/>
<path d="M121.49 5.56709C122.441 5.50357 124.045 5.50226 124.972 5.65403C125.083 6.45231 125.043 7.60454 125.042 8.43294C125.036 12.023 125.076 15.6175 125.017 19.2065C125.014 19.3729 125.007 19.7794 124.856 19.8541C124.08 20.2384 122.686 19.9658 121.87 19.8617C121.76 19.3769 121.616 18.5998 121.336 18.2139C120.848 18.3337 120.434 20.1029 118.404 20.2861C115.36 20.561 113.892 18.4323 113.725 15.6304C113.656 14.4772 113.421 6.21557 113.848 5.67842C114.43 5.43579 116.491 5.52494 117.15 5.61973C117.123 5.89461 117.073 5.91916 117.194 6.12004C117.086 7.0425 117.054 13.8568 117.205 14.6695C117.213 15.0196 117.303 15.4106 117.529 15.6866C118.432 17.6862 120.833 17.2189 121.185 15.1519C121.58 12.8369 121.297 10.3627 121.361 8.01399C121.384 7.14671 121.293 6.43094 121.49 5.56709Z" fill="#3B230E"/>
<path d="M73.6029 5.56755C74.3471 5.54766 75.5955 5.4365 76.3107 5.68674C76.708 5.82565 76.6826 6.98263 76.9128 7.2039C77.5239 7.05483 78.3898 5.8101 79.0599 5.57058C81.8493 4.57363 83.989 5.98192 84.6362 8.70394C84.7132 9.03048 84.7763 9.36012 84.8254 9.69197C84.7517 10.633 84.8025 12.3278 84.8049 13.3252C84.7935 15.4667 84.8131 17.6082 84.8614 19.7491C84.7337 19.9336 84.732 20.013 84.5092 20.0376C83.4918 20.1497 82.2343 20.0056 81.2398 19.8517C81.1939 17.8675 81.1808 15.8828 81.2005 13.8982C81.2037 12.5471 81.488 10.1746 80.5386 9.16571C79.8906 8.47703 78.3349 8.67259 77.7377 9.36626C76.8194 10.4328 77.0824 12.5664 77.0594 13.8964C77.025 15.8852 77.111 17.8717 77.0496 19.8537C76.2763 20.0477 74.2619 20.13 73.5619 19.8885C73.4957 18.82 73.5943 17.0599 73.5756 15.9084C73.5203 12.4894 73.6372 8.98226 73.6029 5.56755Z" fill="#3B230E"/>
<path d="M131.452 5.29345C134.356 4.99107 137.365 6.29073 137.425 9.57397C136.6 9.8044 135.077 9.94004 134.203 10.009C134.071 9.69774 133.915 9.20144 133.799 8.86958C132.873 8.15267 131.82 8.02415 130.843 8.78093C130.68 8.90732 130.521 9.33445 130.555 9.51643C130.855 11.1312 133.873 10.9886 135.112 11.6275C135.701 11.849 136.184 12.1431 136.642 12.5876C138.299 14.1968 138.081 17.2528 136.453 18.8127C135.181 20.0316 133.815 20.2841 132.123 20.2787C130.826 20.2252 130.435 20.1897 128.918 19.3959C127.804 18.8135 126.56 16.7282 126.893 15.3368C126.959 15.0599 129.29 14.8006 129.785 14.7326C130.197 15.5066 130.273 16.4027 131.026 16.9938C132.201 17.9152 134.361 17.4721 134.115 15.6925C133.911 14.2133 131.574 14.1789 130.473 13.7749C128.821 13.2634 127.37 12.4705 127.146 10.5731C126.757 7.28342 128.332 5.72353 131.452 5.29345Z" fill="#3B230E"/>
<path d="M156.75 15.0944C156.568 16.4312 156.179 17.6157 155.243 18.6271C154.314 19.6488 153.009 20.2486 151.628 20.2884C144.689 20.5542 143.138 11.1249 147.076 6.96273C150.299 3.55653 156.533 5.37329 156.688 10.6093C151.687 11.7142 154.743 10.7311 151.904 8.39967C151.115 7.75201 149.745 8.7695 149.236 9.75818C149.145 9.86468 149.062 9.95955 148.964 10.0611C148.957 9.94981 148.951 9.84258 148.941 9.73133C148.889 9.78536 148.336 13.5138 148.491 13.7995C148.756 14.289 148.673 14.805 148.755 15.3245C148.76 14.8846 148.741 13.523 148.85 13.1822C148.895 14.5212 149.299 18.2232 151.907 17.255C152.727 16.9506 153.293 15.379 153.51 14.5176C154.61 14.5716 155.699 14.7654 156.75 15.0944Z" fill="#3B230E"/>
<path d="M48.1309 5.58617C49.1143 5.49384 57.3367 5.40912 57.7355 5.68612C57.8359 5.75578 57.8565 5.83961 57.8837 5.95331C58.0259 6.55161 58.0468 7.88565 57.8326 8.47667C57.4252 9.60074 56.2997 10.744 55.5831 11.7046C54.5457 13.0955 53.4786 14.5146 52.5482 15.9782C54.4897 16.1121 56.3559 16.0923 58.0274 17.1709C58.282 17.7884 58.5198 19.495 57.9226 19.9165C57.6608 19.9599 57.1583 19.7791 56.8798 19.6967C54.8021 19.1004 52.7073 18.9819 50.5564 19.3894C49.8781 19.5179 48.5817 19.9722 47.9466 19.9401C47.683 19.6831 47.7532 18.4533 47.7454 18.0553C47.7217 16.8601 48.6872 15.7327 49.3463 14.8168L51.8575 11.3579C52.4769 10.5084 53.2386 9.55424 53.6896 8.61934C51.8435 8.50777 49.7011 8.73419 47.9243 8.43385C47.909 7.92011 47.7248 5.85254 48.1309 5.58617Z" fill="#3B230E"/>
<path d="M139.744 5.565C140.657 5.55461 142.217 5.49534 143.067 5.64842C143.283 7.26544 143.314 18.6634 142.962 19.8238C142.531 20.2981 140.303 19.9615 139.647 19.8521C139.745 19.6329 139.829 19.5022 139.767 19.269C139.698 18.514 139.753 16.555 139.754 15.7236L139.765 8.44461C139.766 7.97106 139.816 5.852 139.744 5.565Z" fill="#3B230E"/>
<path d="M52.8067 21.1604C54.2775 21.0786 56.4125 21.1843 57.3925 22.4058C57.9552 25.2937 56.4885 28.1923 54.2737 29.9234C53.8694 30.2392 53.5199 30.5032 52.9838 30.4583C52.3943 30.1399 52.8409 29.3305 53.1017 28.8678C53.7098 27.8089 54.4653 26.3787 54.7183 25.1855C55.4102 21.9224 48.8526 24.7572 48.0617 23.5307L48.4186 22.7414C49.6159 21.7768 51.3163 21.3651 52.8067 21.1604Z" fill="#3B230E"/>
<path d="M140.937 0.00996985C143.262 -0.167294 143.954 2.05384 142.913 3.91571C142.397 4.2284 142.245 4.26573 141.675 4.43174C141.573 4.4387 141.47 4.43714 141.368 4.42715C139.411 4.24166 139.064 3.21189 139.245 1.43958C139.755 0.658081 140.156 0.44128 140.937 0.00996985Z" fill="#3B230E"/>
<path d="M35.1209 8.39C35.4166 7.37152 36.0927 6.56548 37.0175 6.05215C38.6373 5.15319 40.8568 5.03523 42.6195 5.54807C43.6819 5.85716 44.574 6.49869 45.1073 7.47828C45.4829 8.16826 45.6763 8.98357 45.7683 9.7604C45.8883 10.7728 45.9387 19.1398 45.739 19.8115C45.7003 19.9416 45.6854 19.9431 45.5699 20.0122C45.0023 20.0512 43.2192 20.0588 42.7506 19.8176C42.3824 19.2488 42.6457 18.6025 42.1133 18.3506C41.8096 18.4264 41.9051 18.3956 41.6514 18.6367C41.6448 18.3787 41.6204 18.2691 41.7792 18.0744C42.8091 17.7123 42.8296 18.8366 43.1324 19.3854C43.2879 19.4727 43.3418 19.5129 43.4365 19.6664C43.7618 19.7468 44.4762 19.4739 44.8716 19.6357C44.9004 19.6475 45.2756 19.4093 45.3803 19.3516C45.4331 19.2514 45.4727 19.1448 45.4979 19.0345C45.5782 18.6737 45.5469 16.9738 45.5007 16.5727C45.1771 13.7644 46.2337 10.0446 44.6925 7.59221C44.1258 6.67344 43.215 6.01931 42.1629 5.77554C40.4912 5.40226 37.7404 5.70334 36.411 6.89912C35.9851 7.28222 35.5303 8.14181 35.1209 8.39Z" fill="#3B230E"/>
<path d="M96.2688 19.1484C96.1459 18.4229 96.2409 16.0698 96.2221 15.1328C96.2507 13.6217 96.1934 12.1123 96.1647 10.6028C96.1279 8.62751 97.6139 8.39037 99.1433 8.42802C99.3989 8.62276 100.13 9.20019 100.214 9.55881C100.929 12.7067 100.07 16.2271 100.661 19.3852C100.75 19.856 102.932 19.7036 103.325 19.3657C103.489 18.9206 103.388 12.9073 103.437 11.8441C103.351 12.0864 103.383 12.3936 103.539 12.5936C103.795 11.9754 103.518 10.0801 103.866 9.79218L104.108 10.1093C103.606 12.1575 103.954 15.4284 103.849 17.5953C103.823 18.1341 103.893 19.32 103.726 19.8068C103.146 20.1461 100.857 20.0684 100.228 19.8782C100.444 18.211 100.477 11.6279 100.017 10.1555C99.5169 8.15707 96.9094 8.25252 96.4457 10.3828C95.896 12.9081 96.7152 16.7786 96.2688 19.1484Z" fill="#3B230E"/>
<path d="M18.4466 8.86406C18.7611 8.36547 19.7407 8.56307 20.3029 8.60973C20.9019 9.03515 21.3475 9.46024 21.4396 10.2339C21.6201 11.7511 21.579 13.5435 21.5708 15.0791C21.5649 16.1924 21.6291 18.153 21.482 19.2001C21.6525 19.3651 21.8853 19.6047 22.0663 19.7459C22.5585 19.7464 24.2901 19.8024 24.436 19.4351C24.8628 18.3607 24.3182 11.9627 24.6995 11.1521L24.7592 11.1896L24.8893 11.8444C24.9404 11.2801 24.8179 11.228 25.0724 10.7866C25.0251 12.6394 25.1065 14.5179 25.0735 16.3704C25.0567 17.3069 25.219 19.0786 24.7455 19.8203C24.2238 20.2752 22.1388 19.9836 21.3746 19.934C21.1162 17.7598 21.3552 15.401 21.2953 13.199C21.232 10.8716 21.759 8.25684 18.4466 8.86406Z" fill="#3B230E"/>
<path d="M59.2729 10.5865C59.4836 9.0576 60.5557 7.31812 61.78 6.39664C62.9866 5.49981 64.4959 5.1091 65.9866 5.30777C70.1964 5.90083 71.9842 10.2808 71.4202 14.0637C71.4102 14.1322 71.3985 14.2006 71.3851 14.2684C71.0931 12.9655 71.286 12.6811 71.1786 11.6838C70.8669 10.157 70.064 8.07694 68.9134 7.04201C65.9373 4.36508 61.4796 5.63642 59.9902 9.21059C59.8605 9.52182 59.4945 10.342 59.2729 10.5865Z" fill="#3B230E"/>
<path d="M92.5398 5.9866L92.6922 5.9564C92.9789 7.68639 92.4792 19.4237 92.8322 19.8092C93.7022 20.1985 95.3955 19.9186 96.3056 19.7165L96.2311 19.8822C95.8494 20.2459 93.0412 20.1834 92.6357 19.859C91.9492 18.0173 92.5316 12.911 92.3334 10.7652C92.2802 10.1935 92.3072 6.27483 92.4112 5.88084L92.4219 13.7106C92.4219 15.1598 92.3776 16.9439 92.4612 18.3589C92.5423 17.692 92.5235 16.9728 92.5292 16.2977C92.5579 12.8636 92.4899 9.41973 92.5398 5.9866Z" fill="#3B230E"/>
<path d="M13.6185 19.8289C14.0694 19.7363 16.8718 20.0476 16.9882 19.4741C17.3357 17.7624 16.5391 11.8675 17.4193 10.6631C17.4229 12.2945 17.7598 18.8576 17.1229 19.8665C16.7201 20.2645 14.1508 20.0218 13.6185 19.8289ZM17.1788 18.8606C17.2566 17.4084 17.2195 15.8269 17.2335 14.3645C17.2393 13.7573 17.2562 12.0626 17.1628 11.5308C17.0816 12.9464 17.1305 14.5385 17.1146 15.9674C17.1076 16.5865 17.0942 18.3235 17.1788 18.8606Z" fill="#3B230E"/>
<path d="M17.1628 11.5308C17.2562 12.0626 17.2393 13.7573 17.2335 14.3645C17.2195 15.8269 17.2566 17.4084 17.1788 18.8606C17.0942 18.3235 17.1076 16.5865 17.1146 15.9674C17.1305 14.5385 17.0816 12.9464 17.1628 11.5308Z" fill="#3B230E"/>
<path d="M73.1854 5.95832C73.134 5.76268 73.1281 5.84298 73.209 5.65561L73.6029 5.56755C73.6372 8.98226 73.5203 12.4894 73.5756 15.9084C73.5943 17.0599 73.4957 18.82 73.5619 19.8885C73.5048 19.8241 73.3237 19.7318 73.1811 19.5874C73.0294 19.2604 73.1134 18.7578 73.144 18.3823L73.2532 18.6137L73.3222 18.5213C73.4423 15.8265 73.2846 12.85 73.3527 10.1212C73.3825 8.93198 73.36 7.37634 73.3183 6.16231C73.2657 6.0816 73.2213 6.01357 73.1854 5.95832Z" fill="#3B230E"/>
<path d="M139.647 19.8521L139.444 19.6937C139.193 19.0012 139.423 7.89985 139.349 6.36739C139.337 6.11158 139.369 6.11796 139.517 5.98003L139.639 6.13262C139.535 6.72625 139.542 10.173 139.561 11.005C139.62 13.6564 139.449 16.7332 139.591 19.3416L139.689 19.3467L139.767 19.269C139.829 19.5022 139.745 19.6329 139.647 19.8521Z" fill="#3B230E"/>
<path d="M139.517 5.98003C139.598 5.67438 139.535 5.74124 139.744 5.565C139.816 5.852 139.766 7.97106 139.765 8.44461L139.754 15.7236C139.753 16.555 139.698 18.514 139.767 19.269L139.689 19.3467L139.591 19.3416C139.449 16.7332 139.62 13.6564 139.561 11.005C139.542 10.173 139.535 6.72625 139.639 6.13262L139.517 5.98003Z" fill="#3B230E"/>
<path d="M117.15 5.61973C117.774 6.18062 117.478 14.1883 117.529 15.6866C117.303 15.4106 117.213 15.0196 117.205 14.6695C117.334 13.5275 117.273 11.4951 117.279 10.2932C117.284 9.19167 117.335 7.13279 117.194 6.12004C117.073 5.91916 117.123 5.89461 117.15 5.61973Z" fill="#3B230E"/>
<path d="M84.8254 9.69197C84.9352 9.87451 84.9172 10.102 84.9229 10.3184C84.9549 10.2014 85.0138 9.9118 85.0859 9.84853L85.1318 9.92547L85.0736 9.85467L85.0351 9.91254C85.0663 9.94856 85.1072 9.99546 85.1572 10.0533C85.2948 12.8612 85.2178 15.7511 85.2072 18.5673C85.2064 18.678 85.1621 18.7913 85.1277 18.8671C85.1449 17.1001 85.1531 15.3329 85.1515 13.5659C85.1515 12.5348 85.1851 11.1964 85.0851 10.1893C84.9491 10.9205 84.8238 18.5422 85.0769 18.8804C85.0884 18.8957 85.104 18.9129 85.1179 18.9274C85.1375 19.3768 85.0687 19.2988 84.8614 19.7491C84.8131 17.6082 84.7935 15.4667 84.8049 13.3252C84.8025 12.3278 84.7517 10.633 84.8254 9.69197Z" fill="#3B230E"/>
<path d="M73.1854 5.95832C73.2213 6.01357 73.2657 6.0816 73.3183 6.16231C73.36 7.37634 73.3825 8.93198 73.3527 10.1212C73.2846 12.85 73.4423 15.8265 73.3222 18.5213L73.2532 18.6137L73.144 18.3823C73.2272 17.4826 73.1452 15.8255 73.1636 14.8522C73.2184 11.9336 73.0755 8.86682 73.1854 5.95832Z" fill="#3B230E"/>
<path d="M100.017 10.1555C100.477 11.6279 100.444 18.211 100.228 19.8782C100.189 19.8363 100.153 19.793 100.118 19.7485C99.8921 19.4587 99.9191 19.5514 99.9559 19.2546C100.159 18.5187 100.202 12.0971 99.9461 11.5117C99.9084 11.4043 100.005 10.3688 100.017 10.1555Z" fill="#3B230E"/>
<path d="M85.1179 18.9274C85.104 18.9129 85.0884 18.8957 85.0769 18.8804C84.8238 18.5422 84.9491 10.9205 85.0851 10.1893C85.1851 11.1964 85.1515 12.5348 85.1515 13.5659C85.1531 15.3329 85.1449 17.1001 85.1277 18.8671L85.1179 18.9274Z" fill="#3B230E"/>
<path d="M99.9461 11.5117C100.202 12.0971 100.159 18.5187 99.9559 19.2546C99.8478 18.4487 99.874 16.6118 99.8806 15.7211C99.8896 14.4966 99.8257 12.687 99.9461 11.5117Z" fill="#3B230E"/>
<path d="M148.85 13.1822C148.741 13.523 148.76 14.8846 148.755 15.3245C148.673 14.805 148.756 14.289 148.491 13.7995C148.336 13.5138 148.889 9.78536 148.941 9.73133C148.951 9.84258 148.957 9.94981 148.964 10.0611C149.062 9.95955 149.145 9.86468 149.236 9.75818C148.896 11.0619 148.882 11.8261 148.85 13.1822Z" fill="#3B230E"/>
<path d="M92.4112 5.88084L92.462 5.78513L92.5398 5.9866C92.4899 9.41973 92.5579 12.8636 92.5292 16.2977C92.5235 16.9728 92.5423 17.692 92.4612 18.3589C92.3776 16.9439 92.4219 15.1598 92.4219 13.7106L92.4112 5.88084Z" fill="#3B230E"/>
<path d="M117.205 14.6695C117.054 13.8568 117.086 7.0425 117.194 6.12004C117.335 7.13279 117.284 9.19167 117.279 10.2932C117.273 11.4951 117.334 13.5275 117.205 14.6695Z" fill="#3B230E"/>
</g>
</g>
</g>
</g>
</svg>
