<svg width="67.9175" height="46.1646" overflow="visible" style="display: block;" viewBox="0 0 67.9175 46.1646" fill="none" xmlns="http://www.w3.org/2000/svg">
<g id="Group 2147233141">
<path id="Vector" d="M7.25098 30.2124C7.25098 19.0942 12.8101 7.49268 19.3359 7.49268C22.9614 7.49268 25.8618 9.66797 30.4541 16.1938C26.1035 22.9614 23.4448 27.0703 23.4448 27.0703C17.644 36.2549 15.7104 38.1885 12.5684 38.1885C9.42627 38.4302 7.25098 35.5298 7.25098 30.2124ZM45.1978 26.1035L41.0889 19.3359C40.1221 17.644 38.9136 15.9521 37.9468 14.502C41.5723 8.94287 44.4727 6.04248 48.0981 6.04248C55.3491 6.04248 61.1499 16.9189 61.1499 30.4541C61.1499 35.5298 59.458 38.4302 56.0742 38.4302C52.6904 38.4302 51.4819 36.2549 45.1978 26.1035ZM34.8047 9.66797C29.4873 2.65869 24.895 0 19.5776 0C8.45947 0 0 14.7437 0 30.2124C0 39.8804 4.59229 45.9229 12.3267 45.9229C17.8857 45.9229 21.7529 43.2642 29.0039 30.6958C29.0039 30.6958 31.9043 25.3784 34.0796 21.7529C34.8047 22.9614 35.5298 24.1699 36.2549 25.6201L39.6387 31.4209C46.1646 42.5391 49.79 46.1646 56.3159 46.1646C63.8086 46.1646 67.9175 39.8804 67.9175 29.9707C67.6758 13.5352 58.9746 0 48.5815 0C43.0225 0 38.6719 4.35059 34.8047 9.66797Z" fill="var(--fill-0, #3B230E)"/>
</g>
</svg>
