<svg width="35" height="63" viewBox="0 0 35 63" fill="none" xmlns="http://www.w3.org/2000/svg">
<rect width="35" height="63" fill="#B2B2B2"/>
<g id="Video Portfolio v2">
<rect width="1920" height="11134" transform="translate(-437 -6138)" fill="white"/>
<rect width="1920" height="11134" transform="translate(-437 -6138)" fill="#FBF4E6"/>
<g id="Frame 2147264195">
<rect x="-129" y="-29" width="1284" height="121" rx="20" fill="#F7ECD9"/>
<g id="Vector">
<path d="M22.3354 0.0493184L22.3106 13.9727L22.2857 27.8961L21.142 24.6639V24.6556L19.6585 55.6517C21.1171 59.7624 21.8962 61.9586 21.9045 61.9669C21.9128 61.9752 22.7415 62.025 23.7443 62.0747C26.7777 62.2239 30.5403 62.5471 33.3995 62.9035C34.0626 62.9863 34.6261 63.0278 34.6676 62.9946C34.709 62.9615 34.7173 48.7894 34.709 31.493L34.6841 0.0493184H22.3354Z" fill="#3B230E"/>
<path d="M0 0.00828823V31.4851C0 48.7981 0.0165755 62.9784 0.0414386 63.0033C0.0663018 63.0282 1.13542 62.9204 2.4283 62.7795C3.72119 62.6386 5.50305 62.4563 6.38984 62.3817C7.74903 62.2657 11.8266 62.0088 12.2907 62.0005C12.4316 62.0005 12.4399 61.296 12.4565 48.6655L12.4813 35.3306L13.4676 38.1153C13.6167 38.5462 13.6665 38.6788 13.8156 39.1015L15.2991 8.11368C14.9842 7.2269 15.15 7.69101 14.7936 6.67991C13.5836 3.25708 12.5559 0.364659 12.5145 0.232055L12.4316 0H0V0.00828823Z" fill="#3B230E"/>
<path d="M22.3354 0.0493184L22.3106 13.9727L22.2857 27.8961L21.142 24.6639V24.6556L19.6585 55.6517C21.1171 59.7624 21.8962 61.9586 21.9045 61.9669C21.9128 61.9752 22.7415 62.025 23.7443 62.0747C26.7777 62.2239 30.5403 62.5471 33.3995 62.9035C34.0626 62.9863 34.6261 63.0278 34.6676 62.9946C34.709 62.9615 34.7173 48.7894 34.709 31.493L34.6841 0.0493184H22.3354Z" fill="#3B230E"/>
<path d="M0 0.00828823V31.4851C0 48.7981 0.0165755 62.9784 0.0414386 63.0033C0.0663018 63.0282 1.13542 62.9204 2.4283 62.7795C3.72119 62.6386 5.50305 62.4563 6.38984 62.3817C7.74903 62.2657 11.8266 62.0088 12.2907 62.0005C12.4316 62.0005 12.4399 61.296 12.4565 48.6655L12.4813 35.3306L13.4676 38.1153C13.6167 38.5462 13.6665 38.6788 13.8156 39.1015L15.2991 8.11368C14.9842 7.2269 15.15 7.69101 14.7936 6.67991C13.5836 3.25708 12.5559 0.364659 12.5145 0.232055L12.4316 0H0V0.00828823Z" fill="#3B230E"/>
<path d="M0 0.00828823V17.6777L12.4482 50.696C12.4482 49.9419 12.4482 49.5275 12.4565 48.6655L12.4813 35.3306L13.4676 38.1153C18.9375 53.6299 21.8796 61.9508 21.8962 61.9673C21.9045 61.9756 22.7332 62.0254 23.7361 62.0751C26.7694 62.2243 30.532 62.5475 33.3913 62.9039C34.0543 62.9867 34.6178 63.0282 34.6593 62.995C34.6842 62.9702 34.7007 56.025 34.7007 46.2207L22.3189 10.6L22.3106 13.9727L22.2857 27.8961L21.142 24.6639C20.0231 21.5062 19.2773 19.3933 14.777 6.67991C13.567 3.25708 12.5393 0.364659 12.4979 0.232055L12.415 0H0V0.00828823Z" fill="url(#paint0_radial_0_1)"/>
<path d="M0 0.00828823L12.473 35.3554V35.3389L13.4593 38.1236C18.9375 53.6299 21.8796 61.9508 21.8962 61.9673C21.9045 61.9756 22.7332 62.0254 23.7361 62.0751C26.7694 62.2243 30.532 62.5475 33.3913 62.9039C34.046 62.9867 34.6178 63.0282 34.651 62.995L22.2857 27.8882V27.8961L21.142 24.6639C20.0231 21.5062 19.2773 19.3933 14.777 6.67991C13.567 3.25708 12.5393 0.364659 12.4979 0.232055L12.415 0H6.20751L0 0.00828823Z" fill="#3B230E"/>
</g>
</g>
</g>
<defs>
<radialGradient id="paint0_radial_0_1" cx="0" cy="0" r="1" gradientTransform="matrix(2.16108 -0.748372 -27.4108 -79.1642 16.7694 31.1395)" gradientUnits="userSpaceOnUse">
<stop/>
<stop offset="1" stop-opacity="0"/>
</radialGradient>
</defs>
</svg>
