<svg width="49" height="59.2605" overflow="visible" style="display: block;" viewBox="0 0 49 59.2605" fill="none" xmlns="http://www.w3.org/2000/svg">
<g id="Vector">
<path d="M1.89569 0.0315103C2.14787 -0.00094233 2.95109 0.0120757 3.2254 0.013059L5.75904 0.0238747L44.5068 0.0227123C45.9785 0.0230144 47.5237 0.0489274 48.986 0C48.6108 0.441509 48.1364 1.14416 47.7901 1.62729L25.0554 33.2483C22.3545 37.009 19.6331 40.8698 16.894 44.5931C16.0598 45.7468 15.1929 47.0718 14.2537 48.1408C13.9256 48.5143 13.2965 48.8168 12.7943 48.8296C11.9589 48.851 11.1055 48.8447 10.2613 48.8448L5.6983 48.845L2.90164 48.8514C2.31566 48.8536 1.41396 48.8881 0.864899 48.7756C0.806226 48.7351 0.749617 48.6917 0.695298 48.6454C-0.249783 47.837 0.020577 47.0995 0.640143 46.222C1.24643 45.3633 1.8726 44.52 2.48968 43.6696L5.87892 38.9856L22.5982 15.9282L24.733 12.9893C25.17 12.3895 25.6741 11.6576 26.1565 11.1069C25.2673 11.1723 23.7119 11.1292 22.7849 11.1292L7.26347 11.1303C5.47604 11.1323 3.66479 11.1596 1.89754 11.098C0.973432 11.0659 0.19931 10.2851 0.175609 9.39898C0.119046 6.87749 0.0910694 4.32783 0.156267 1.80671C0.182902 0.776575 0.922825 0.151724 1.89569 0.0315103Z" fill="var(--fill-0, #3B230E)"/>
<path d="M48.8029 5.5106L48.8746 5.54471C48.9681 5.70644 48.9523 6.40834 48.9575 6.6413C48.9795 7.61503 48.9877 8.58908 48.982 9.56307L48.9759 43.3632C48.9772 44.4912 48.9998 45.6297 48.9689 46.7559C48.9548 47.2703 48.9003 47.7401 48.5635 48.1457C48.2423 48.5492 47.6573 48.8453 47.1378 48.8474C44.7483 48.8572 42.3585 48.8221 39.968 48.8572C39.8074 48.8596 39.6457 48.8434 39.4867 48.8238C39.06 48.7711 38.7938 48.6735 38.4694 48.3973C38.089 48.0756 37.9007 47.529 37.8804 47.0433C37.8272 45.7774 37.8573 44.5014 37.8577 43.2331L37.8558 26.0599C37.8554 24.5084 37.7912 22.3543 37.8813 20.8451C38.9028 19.2356 40.3611 17.3032 41.4861 15.7375L46.4149 8.82475C47.1977 7.72867 48.0414 6.60822 48.8029 5.5106Z" fill="var(--fill-0, #3B230E)"/>
<path d="M34.4968 51.8386C36.5365 51.5902 38.3918 53.0405 38.6432 55.0798C38.8947 57.119 37.4472 58.977 35.4084 59.2315C33.365 59.4865 31.5022 58.0352 31.2502 55.9913C30.9982 53.9475 32.4526 52.087 34.4968 51.8386ZM35.3834 57.5722C36.0152 57.3064 36.4286 57.0463 36.7032 56.357C36.9176 55.809 36.9086 55.1991 36.6781 54.6578C36.2297 53.6284 35.4285 53.4758 34.4348 53.5368C33.8454 53.7933 33.4753 54.052 33.2235 54.6916C32.9919 55.2877 33.009 55.9509 33.2709 56.5342C33.6379 57.3402 34.5242 57.7699 35.3834 57.5722Z" fill="var(--fill-0, #3B230E)"/>
<path d="M20.8886 51.9938C23.6252 51.9845 27.5283 51.6081 27.5734 55.5606C27.5862 56.6822 27.2803 57.3254 26.4949 58.1125C25.2552 59.3482 22.5139 59.0666 20.8543 59.065C20.7929 58.304 20.7117 52.4434 20.8886 51.9938ZM22.6233 57.4667C23.5912 57.4785 24.3806 57.6137 25.1371 56.9649C25.901 56.0722 25.983 54.8519 25.0361 54.0207C24.3293 53.4005 23.4995 53.6351 22.6575 53.5782C22.6876 54.3152 22.7367 56.8261 22.6233 57.4667Z" fill="var(--fill-0, #3B230E)"/>
<path d="M13.1144 51.9938C13.6758 51.9753 14.3543 51.9943 14.9245 51.9953L14.9163 54.7239C14.9146 55.3553 14.8869 56.0277 14.9873 56.6412C15.094 57.7607 17.0448 57.9461 17.4811 57.0171C17.9156 56.0927 17.5702 54.2251 17.6648 53.1727C17.7023 52.7548 17.567 52.4465 17.8008 52.0747C18.0727 51.9287 19.26 51.9974 19.6284 52.0045C19.6086 52.5591 19.5999 53.1138 19.6022 53.6689C19.6045 54.7863 19.6709 56.0384 19.4663 57.0965C18.8968 60.0411 13.2295 59.7928 13.0868 56.7697C13.0385 55.7486 12.8899 52.8649 13.1144 51.9938Z" fill="var(--fill-0, #3B230E)"/>
<path d="M2.71854 51.9057C2.80778 51.898 2.89727 51.8934 2.98683 51.8913C3.86898 51.876 5.20682 52.2688 5.85183 52.8884C5.59582 53.3063 5.22792 53.7872 4.90283 54.1539C4.07295 53.7191 3.36206 53.2592 2.34672 53.5829C2.20938 53.6269 2.09879 53.8276 2.05072 53.9546C2.13531 54.9092 6.233 54.5502 6.06328 56.7846C5.91492 58.7388 4.62358 59.1536 2.95791 59.1562C1.83064 59.1337 0.859292 58.8161 0 58.0854C0.275584 57.6644 0.688783 57.1323 0.889388 56.6934L0.918384 56.7165C1.62056 57.2793 2.51502 57.71 3.43949 57.647C4.01559 57.6081 4.51987 56.9244 3.84692 56.5746C3.49317 56.3913 2.93939 56.3201 2.53976 56.2187C1.63467 55.9954 0.456765 55.6518 0.257926 54.5907C0.0511808 53.4876 0.67236 52.4972 1.72025 52.1397C2.05321 52.026 2.37497 51.9707 2.71854 51.9057Z" fill="var(--fill-0, #3B230E)"/>
<path d="M39.3011 52.003C39.5195 51.9881 39.7994 51.9892 40.021 51.9953C41.598 52.0383 43.2498 51.9231 44.8194 52.0168C44.7961 52.4204 44.7884 52.9407 44.6648 53.3196C44.0514 55.1996 42.9408 57.0862 42.3111 58.9437C42.045 59.0983 40.4441 59.191 40.3462 58.8781C40.6593 57.8257 41.3535 56.613 41.7519 55.5653C41.9868 54.9471 42.3408 54.1354 42.6584 53.5603C41.8766 53.6218 40.0367 53.6074 39.2285 53.5813C39.2272 53.2336 39.1936 52.2765 39.3011 52.003Z" fill="var(--fill-0, #3B230E)"/>
<path d="M6.55169 51.9979C8.35197 51.9477 10.4377 51.9948 12.2524 51.9902C12.2459 52.5243 12.2428 53.0585 12.243 53.5926C11.5732 53.5982 10.9033 53.5967 10.2336 53.5875C10.3064 54.0883 10.262 56.6315 10.268 57.2793C10.284 57.8431 10.232 58.4572 10.2396 59.0451C9.65971 59.0655 9.04937 59.064 8.46669 59.0712C8.37558 58.3701 8.39683 57.351 8.39678 56.6315C8.39668 55.618 8.38459 54.5712 8.41681 53.5619C7.87473 53.609 7.04521 53.5926 6.49274 53.5854C6.45582 53.2285 6.42033 52.3179 6.55169 51.9979Z" fill="var(--fill-0, #3B230E)"/>
<path d="M47.4826 52.0061C47.8 51.9948 48.726 51.9175 48.9393 52.1008C49.0349 52.5458 48.9698 53.569 48.9862 54.076C49.038 55.682 48.925 57.455 48.9578 59.0415C48.3875 59.0696 47.7367 59.0671 47.1599 59.0773C47.0833 58.6231 47.0937 58.1012 47.0948 57.6378C47.0928 56.698 47.0497 55.2867 47.1173 54.3802C46.7684 54.7008 46.287 55.2687 45.9131 55.5064C45.5695 55.153 45.2426 54.8314 44.9481 54.434C45.3775 53.947 46.9831 52.2969 47.4826 52.0061Z" fill="var(--fill-0, #3B230E)"/>
<path d="M28.4649 51.9897C28.8609 51.9856 29.9353 51.9354 30.2508 52.0726C30.4489 52.5253 30.2588 58.0695 30.3151 59.0277C29.8275 59.0871 29.0383 59.0722 28.5309 59.0763C28.3961 58.005 28.5099 56.1747 28.474 55.0086C28.4503 54.2425 28.3991 52.6949 28.4649 51.9897Z" fill="var(--fill-0, #3B230E)"/>
</g>
</svg>
