<svg preserveAspectRatio="none" width="100%" height="100%" overflow="visible" style="display: block;" viewBox="0 0 135.077 135.04" fill="none" xmlns="http://www.w3.org/2000/svg">
<g id="Ellipse 27066">
<circle cx="67.8821" cy="67.454" r="67.1947" fill="var(--fill-0, #F7ECD9)"/>
<path d="M18.0721 113.948C16.305 112.057 14.7397 110.195 12.9333 107.719C12.9323 107.718 12.9313 107.717 12.9304 107.715C12.6732 107.361 12.4116 106.994 12.1451 106.611C10.0295 103.523 7.34301 99.3888 4.60305 92.5633C1.61037 84.9931 0.687739 78.5289 0.340416 74.6309C0.280113 73.8993 0.199601 73.154 0.094327 71.237C0.0457107 70.28 -0.00242496 69.0744 9.4831e-05 67.454C9.4831e-05 67.454 9.4831e-05 67.454 9.4831e-05 67.454C0.00121725 66.953 0.00777411 66.4152 0.022572 65.8373C0.0561647 64.5402 0.129891 63.0219 0.293352 61.2603C0.758565 55.4192 2.7324 46.3148 6.4263 38.6625C8.60429 34.0024 11.2542 29.8779 13.4798 26.9212C16.7336 22.5924 20.3549 18.7723 24.7401 15.1666C28.7624 11.881 33.4445 8.7584 39.2982 6.04071C43.7922 3.96526 48.3929 2.46751 53.1663 1.46265C53.7746 1.33487 54.389 1.21473 55.0001 1.10407C59.0859 0.366347 63.3244 -0.0260424 67.8821 0.00134251C68.0496 0.0024381 68.2174 0.00412345 68.3856 0.00640541C76.8446 0.170254 83.5701 1.5058 90.6136 3.97864C93.3672 4.96597 96.1582 6.16206 99.0752 7.69045C103.692 10.0722 109.983 14.2666 115.281 19.6003C115.734 20.0515 116.181 20.5096 116.621 20.9728C116.623 20.9752 116.625 20.9775 116.628 20.9799C121.381 25.9522 125.123 31.6324 127.4 36.0127C130.969 43.0169 131.622 45.9568 132.38 48.291C132.64 49.1777 132.867 50.0088 133.114 50.9994C134.02 54.5671 134.964 60.0695 135.062 65.7014C135.062 65.7229 135.062 65.7444 135.063 65.7658C135.082 66.6997 135.076 67.4585 135.077 67.454C135.077 67.4495 135.081 66.6835 135.059 65.7498C134.992 62.7773 134.719 59.8631 134.332 57.2961C134.307 57.1642 134.197 56.4672 134.051 55.6396C133.635 53.607 132.694 47.0901 128.278 37.9875C128.58 38.6105 128.822 39.1335 129.03 39.5959C129.275 40.1383 129.455 40.5572 129.609 40.9183C129.928 41.6721 130.133 42.1718 130.484 43.071C131.302 45.1512 132.449 48.4767 133.288 52.0779C133.502 52.9858 133.647 53.7285 133.638 53.7259C133.628 53.7234 133.466 52.9772 133.25 52.0703C133.246 52.0526 133.241 52.0349 133.237 52.0171C132.397 48.454 131.21 45.0275 130.341 42.8608C130.123 42.3093 129.927 41.8378 129.779 41.485C129.66 41.2029 129.508 40.8499 129.423 40.6548C129.412 40.6289 129.39 40.5794 129.364 40.5204C129.364 40.5194 129.364 40.5185 129.363 40.5175C129.349 40.4845 129.276 40.3162 129.198 40.1366C129.182 40.1004 129.148 40.0215 129.108 39.9299C129.098 39.9064 129.087 39.8829 129.077 39.8594C128.93 39.5319 128.778 39.1991 128.61 38.8407C127.933 37.4523 126.943 35.1915 124.189 30.89C121.646 26.9739 116.849 20.4694 108.994 14.3883C109.522 14.8 110.044 15.2203 110.56 15.6476C111.858 16.724 113.122 17.8524 114.343 19.0275C114.811 19.4776 115.266 19.9281 115.723 20.3936C116.458 21.143 117.179 21.9119 117.88 22.6964C118.355 23.2265 118.822 23.7653 119.279 24.3107C119.28 24.3119 119.281 24.3132 119.282 24.3144C119.918 25.0717 120.538 25.8436 121.146 26.6362C121.358 26.9135 121.567 27.1895 121.771 27.4644C122.583 28.559 123.355 29.6592 124.194 30.9522C124.296 31.1097 124.406 31.2815 124.487 31.4101C124.574 31.5482 124.658 31.6816 124.737 31.8079C124.806 31.9194 124.872 32.0259 124.935 32.1282C124.943 32.1419 124.952 32.1556 124.96 32.1693C125.03 32.2838 125.097 32.3935 125.161 32.4991C125.225 32.6045 125.287 32.7061 125.347 32.8062C125.347 32.8071 125.348 32.808 125.348 32.8089C125.411 32.9135 125.458 32.993 125.525 33.1041C125.608 33.2436 125.679 33.3637 125.764 33.5095C125.847 33.6505 125.933 33.7979 126.019 33.947C126.105 34.0962 126.193 34.2484 126.281 34.4033C126.369 34.5583 126.458 34.7162 126.547 34.8758C126.636 35.0352 126.726 35.1971 126.815 35.3604C126.905 35.5239 126.994 35.6885 127.083 35.8548C127.289 36.2375 127.479 36.6085 127.613 36.8834C127.748 37.1583 127.817 37.3143 127.808 37.3165C127.8 37.3186 127.713 37.1666 127.565 36.8955C127.417 36.6242 127.219 36.2562 127.012 35.8747C126.956 35.7707 126.899 35.6665 126.841 35.562C126.807 35.5001 126.773 35.4372 126.738 35.3748C126.645 35.207 126.551 35.0378 126.455 34.8681C126.359 34.6985 126.262 34.5278 126.163 34.3557C126.063 34.1831 125.962 34.0086 125.858 33.8322C125.755 33.6562 125.649 33.4768 125.54 33.295C125.434 33.1177 125.312 32.916 125.202 32.7361C125.122 32.6045 125.022 32.4423 124.938 32.3075C124.851 32.1668 124.765 32.0286 124.682 31.8957C124.598 31.7624 124.517 31.6339 124.439 31.5114C124.43 31.4983 124.422 31.4852 124.414 31.4721C124.345 31.3639 124.278 31.2596 124.214 31.1612C124.143 31.0513 124.075 30.9474 124.011 30.8489C123.94 30.7405 123.896 30.6748 123.843 30.5943C123.137 29.53 122.224 28.2387 121.308 27.0439C121.193 26.8936 121.078 26.7445 120.964 26.5975C120.356 25.8166 119.734 25.052 119.094 24.3006C118.63 23.7547 118.156 23.2158 117.673 22.684C116.963 21.9014 116.231 21.133 115.484 20.3834C115.019 19.9178 114.557 19.4673 114.08 19.0164C112.836 17.8389 111.543 16.7056 110.207 15.6212C108.874 14.5389 107.49 13.5001 106.069 12.5152C104.653 11.5334 103.142 10.5701 101.652 9.69804C100.556 9.05574 99.4135 8.42753 98.3434 7.87536C97.7683 7.5783 97.1988 7.29448 96.6365 7.02366C96.6346 7.02273 96.6327 7.02179 96.6307 7.02086C96.1372 6.78325 95.6467 6.55443 95.1564 6.33297C94.1037 5.85757 93.0618 5.4198 92.0058 5.00799C90.9493 4.59619 89.8937 4.21623 88.815 3.85992C87.742 3.50554 86.6514 3.17705 85.5554 2.87856C84.4509 2.57805 83.3724 2.31413 82.2203 2.06494C80.7061 1.73829 79.1999 1.46817 77.638 1.24492C76.0956 1.02464 74.5189 0.856016 72.9479 0.744287C72.397 0.705041 71.8424 0.672295 71.2869 0.646469C71.2848 0.646367 71.2827 0.646265 71.2805 0.646163C70.2622 0.598942 69.2356 0.574414 68.2027 0.573257C68.0959 0.573136 67.989 0.573266 67.8821 0.573645C66.3885 0.579176 64.9218 0.63203 63.4252 0.735056C61.8315 0.84503 60.2332 1.01181 58.635 1.23661C57.0407 1.46057 55.4019 1.75012 53.7746 2.0996C52.3186 2.41203 50.8698 2.77383 49.4588 3.17611C49.0869 3.28208 48.7165 3.39117 48.3473 3.50338C46.5891 4.03814 44.916 4.62564 43.2804 5.27499C41.6521 5.92168 40.0445 6.63784 38.4605 7.42366C36.8786 8.20841 35.3111 9.06727 33.7698 9.99737C32.2213 10.9321 30.7324 11.9162 29.2552 12.982C27.7913 14.0388 26.3624 15.1611 24.9675 16.3539C24.1913 17.0171 23.3824 17.7406 22.634 18.4419C21.8781 19.1497 21.1434 19.8699 20.4343 20.5965C20.1465 20.8913 19.8627 21.1874 19.5837 21.4839C19.1768 21.9163 18.7792 22.3504 18.3937 22.7825C17.743 23.5116 17.1245 24.2377 16.5388 24.9556C15.9537 25.6727 15.4018 26.3814 14.8829 27.0772C14.3461 27.7983 13.9174 28.3998 13.4182 29.131C12.2028 30.9122 11.5036 32.0482 10.7467 33.3238C10.5986 33.5751 10.4489 33.833 10.2949 34.1029C9.41182 35.6475 8.59227 37.2208 7.84234 38.8065C7.08728 40.4034 6.40331 42.0079 5.77543 43.6548C5.15303 45.2877 4.59032 46.9557 4.09637 48.6336C3.6022 50.3121 3.175 52.0018 2.81123 53.7183C2.44906 55.4243 2.14656 57.1948 1.9233 58.8878C1.79297 59.87 1.6775 60.9207 1.5925 61.8907C1.5307 62.5925 1.48045 63.2876 1.44132 63.9717C1.42543 64.2495 1.41143 64.5239 1.39916 64.7971C1.35842 65.7041 1.33719 66.5916 1.33346 67.454C1.33346 67.454 1.33346 67.454 1.33346 67.454C1.33332 67.4867 1.3332 67.5194 1.33311 67.5521C1.33062 68.4449 1.34658 69.3049 1.37878 70.1424C1.41086 70.9769 1.46022 71.8097 1.52564 72.6298C1.59454 73.4823 1.66359 74.1808 1.77246 75.0871C1.84374 75.6749 1.92122 76.2484 2.00556 76.8178C2.13132 77.6667 2.27476 78.5202 2.43454 79.3673C2.59434 80.2145 2.76792 81.0448 2.96002 81.8818C3.02163 82.1503 3.08847 82.4331 3.15368 82.7011C3.35502 83.5285 3.56986 84.3416 3.80127 85.153C4.03211 85.9623 4.27498 86.7542 4.53345 87.5427C4.79327 88.3349 5.06324 89.1072 5.35308 89.8875C5.84654 91.2166 6.35575 92.4747 6.82684 93.5636C7.30477 94.669 7.77629 95.685 8.25957 96.6665C8.35014 96.8504 8.44153 97.0338 8.53374 97.2167C8.93103 98.0048 9.33568 98.7688 9.75068 99.5169C10.2621 100.439 10.7848 101.328 11.331 102.21C11.8729 103.085 12.4402 103.953 13.0195 104.795C13.605 105.645 14.1827 106.445 14.8257 107.291C15.4627 108.128 16.1291 108.962 16.8836 109.855C17.6318 110.741 18.4396 111.65 19.2826 112.548C20.1246 113.445 21.0038 114.334 21.8995 115.192C22.797 116.052 23.7204 116.89 24.6522 117.693C25.5894 118.5 26.5415 119.276 27.5093 120.024C28.4754 120.77 29.492 121.512 30.4637 122.183C32.0345 123.268 33.6461 124.282 35.3 125.227C36.9456 126.168 38.6385 127.041 40.358 127.836C42.0789 128.633 43.832 129.354 45.6137 129.999C47.3946 130.644 49.2019 131.212 51.0339 131.702C51.4402 131.811 51.8421 131.914 52.2486 132.015C53.679 132.369 55.1227 132.675 56.5678 132.931C56.5778 132.933 56.5877 132.935 56.5977 132.936C58.4626 133.266 60.3042 133.511 62.1677 133.68C62.8521 133.743 63.5127 133.792 64.1867 133.833C64.8605 133.873 65.5141 133.903 66.1816 133.923C66.7507 133.94 67.3189 133.95 67.8821 133.952C67.9792 133.953 68.076 133.953 68.1726 133.953C68.8365 133.953 69.4814 133.943 70.13 133.924C70.7251 133.906 71.3103 133.882 71.9603 133.845C72.0194 133.841 72.0785 133.838 72.1375 133.834C72.8455 133.792 73.6472 133.732 74.3888 133.663C76.3666 133.482 78.2754 133.22 80.2123 132.868C82.1454 132.516 84.058 132.079 85.9714 131.55C86.7177 131.344 87.4572 131.125 88.2018 130.891C89.3584 130.527 90.4986 130.133 91.6425 129.703C93.517 128.998 95.3656 128.207 97.1846 127.328C98.9989 126.453 100.785 125.489 102.515 124.452C104.247 123.414 105.945 122.289 107.568 121.106C109.378 119.787 111.112 118.385 112.78 116.894C114.446 115.405 116.039 113.831 117.544 112.189C119.054 110.54 120.478 108.82 121.815 107.032C123.152 105.243 124.4 103.388 125.552 101.472C126.242 100.327 126.898 99.1582 127.517 97.9728C127.843 97.3443 128.146 96.7337 128.428 96.1461C130.49 91.7829 131.682 88.4773 132.877 84.027C132.989 83.6011 133.076 83.2532 133.178 82.8286C133.198 82.7475 133.218 82.6615 133.239 82.5738C133.37 82.019 133.518 81.3734 133.701 80.4828C134.063 78.7039 134.568 75.9439 134.861 72.349C134.934 71.439 134.966 70.8553 134.958 71.0529C134.951 71.1917 134.923 71.6777 134.879 72.2679C134.963 71.174 135.019 70.0912 135.05 69.0043C135.063 68.5704 135.07 68.1618 135.073 67.8711C135.076 67.6017 135.077 67.454 135.077 67.454C135.077 67.454 135.077 67.4549 135.077 67.4567C135.077 67.4818 135.076 67.68 135.073 68.007C135.069 68.3338 135.061 68.762 135.049 69.1977C135.016 70.3512 134.953 71.5021 134.861 72.6527C134.769 73.8001 134.649 74.9424 134.498 76.085C134.349 77.2236 134.169 78.3615 133.96 79.4969C133.752 80.6244 133.514 81.7539 133.246 82.8759C132.978 84.0021 132.684 85.1065 132.359 86.2162C132.163 86.881 131.956 87.5489 131.74 88.2055C131.66 88.4498 131.581 88.6876 131.5 88.9248C131.434 89.1188 131.367 89.3133 131.297 89.5131C130.559 91.6156 129.707 93.7025 128.761 95.7224C127.811 97.7513 126.76 99.731 125.614 101.653C124.467 103.576 123.224 105.439 121.893 107.237C120.561 109.035 119.142 110.764 117.638 112.423C116.138 114.075 114.552 115.659 112.894 117.158C111.612 118.316 110.297 119.417 108.94 120.467C108.407 120.883 107.873 121.286 107.341 121.676C105.792 122.813 104.194 123.885 102.576 124.876C105.461 123.121 107.655 121.523 109.673 119.915C109.943 119.699 110.21 119.482 110.474 119.264C113.162 117.029 115.648 114.722 118.641 111.302C127.037 101.416 129.585 94.0685 131.231 89.7557C132.764 85.3377 133.153 83.359 133.577 81.5315C134.189 78.9546 134.867 73.8733 134.966 71.3012C135.02 70.3666 135.042 69.6196 135.044 69.6226C135.044 69.6284 135.026 70.3825 134.974 71.3179C134.878 74.0332 134.145 79.535 133.372 82.5978C133.03 83.9564 132.738 85.5576 131.229 89.9121C129.603 94.1599 127.104 101.458 118.696 111.392C115.811 114.697 113.429 116.937 110.779 119.168C110.518 119.386 110.254 119.604 109.986 119.821C109.984 119.823 109.982 119.824 109.981 119.825C107.5 121.82 104.693 123.879 100.618 126.179C91.3113 131.858 76.772 134.502 73.3509 134.529C72.6777 134.587 72.024 134.634 71.3322 134.674C70.3317 134.731 69.2471 134.774 67.8821 134.783C65.6625 134.784 62.7398 134.75 58.3079 134.147C56.746 133.93 54.9294 133.618 52.9571 133.174C50.0046 132.54 47.1712 131.706 44.7687 130.847C42.6873 130.105 40.8028 129.335 39.0065 128.518C38.4908 128.284 37.9705 128.04 37.4567 127.791C36.2171 127.189 34.9949 126.549 33.825 125.886C32.8937 125.359 31.9265 124.785 30.9233 124.152C27.2823 121.835 23.0392 118.759 18.3843 113.837C13.47 108.603 10.0958 103.391 7.66006 98.6966C9.44927 102.152 11.0878 104.679 12.5227 106.729C12.7942 107.116 13.0582 107.483 13.3155 107.834C15.1413 110.311 16.5961 112.017 18.2301 113.772C26.2355 121.983 30.2522 123.941 34.3838 126.396C35.501 127.012 36.7472 127.655 38.1179 128.301C40.8508 129.59 44.0697 130.877 47.6195 131.956C50.9212 132.962 54.7008 133.817 58.7575 134.322C58.7591 134.322 58.7607 134.322 58.7623 134.323C59.5531 134.421 60.3604 134.508 61.1722 134.58C63.3594 134.774 65.6072 134.867 67.8821 134.847C70.741 134.824 73.596 134.623 76.4054 134.252C76.9443 134.18 77.5849 134.089 78.3216 133.969C82.5594 133.285 90.0544 131.651 98.3075 127.464C100.114 126.548 101.96 125.524 103.994 124.239C104.613 123.848 105.248 123.432 105.905 122.984C108.728 121.046 112.07 118.515 115.963 114.557C119.17 111.294 122.71 106.932 125.667 101.946C127.127 99.4959 128.454 96.9044 129.59 94.2779C133.014 86.3341 134.673 78.4519 135.017 70.5586C135.017 70.557 135.017 70.5554 135.017 70.5538C135.057 69.6253 135.067 68.8927 135.068 68.9257C135.068 68.9588 135.058 69.7433 135.02 70.6712C134.68 78.571 133.026 86.4334 129.62 94.3616C128.504 96.9515 127.192 99.5287 125.741 101.976C122.778 106.998 119.19 111.433 115.945 114.73C111.979 118.761 108.561 121.333 105.687 123.292C104.992 123.761 104.331 124.19 103.696 124.587C101.674 125.849 99.9345 126.803 98.216 127.672C90.2033 131.722 82.9932 133.358 78.7329 134.079C77.9692 134.208 77.3085 134.307 76.7372 134.386C73.8286 134.788 70.8649 135.008 67.8821 135.037C65.7785 135.057 63.6973 134.983 61.6471 134.818C60.8487 134.754 60.0397 134.674 59.249 134.583C59.2474 134.582 59.2458 134.582 59.2441 134.582C55.1727 134.112 51.3076 133.275 47.9252 132.268C44.4883 131.243 41.567 130.113 38.8977 128.908C37.4658 128.259 36.1095 127.586 34.792 126.875C30.364 124.312 26.1346 122.211 18.0721 113.948ZM134.728 73.9475C134.497 76.1864 134.203 77.9844 133.955 79.3277C134.167 78.1889 134.347 77.0503 134.498 75.9065C134.584 75.2559 134.662 74.5968 134.728 73.9475ZM52.7336 132.914C53.0889 132.992 53.4478 133.069 53.809 133.142C52.8129 132.931 51.8275 132.699 50.8466 132.444C49.6373 132.129 48.4479 131.784 47.2602 131.403C49.1413 132.011 50.9982 132.515 52.7336 132.914ZM18.5454 113.664C22.9188 118.288 26.7611 121.155 30.3311 123.498C31.3626 124.168 32.3832 124.793 33.4041 125.384C33.8274 125.629 34.2536 125.869 34.6861 126.106C32.1901 124.691 29.9904 123.221 28.2468 121.947C23.0637 118.107 20.5272 115.41 18.3366 113.056C17.7087 112.367 17.1192 111.693 16.5307 110.993C16.0348 110.422 15.5304 109.82 15.0322 109.202C14.3342 108.337 13.6041 107.382 12.9349 106.454C12.2621 105.523 11.6041 104.559 10.9831 103.596C10.3563 102.623 9.76211 101.645 9.19518 100.655C8.6611 99.7229 8.15387 98.7834 7.68294 97.8613C7.65597 97.8085 7.62908 97.7557 7.60225 97.7028C7.10614 96.7256 6.6505 95.7669 6.24746 94.875C5.83704 93.9666 5.51369 93.2053 5.23182 92.5275C4.88019 91.6815 4.53562 90.7991 4.21709 89.9279C3.89741 89.0539 3.59644 88.1722 3.31607 87.2897C3.03576 86.4075 2.7761 85.5258 2.53383 84.6341C2.45526 84.3449 2.37611 84.0454 2.3027 83.7596C2.26887 83.628 2.23542 83.4962 2.20249 83.3647C2.62472 85.1155 3.13359 86.9177 3.74305 88.7577C4.62122 91.4061 5.71869 94.1963 7.15919 97.1543C9.62803 102.19 13.0759 107.814 18.5454 113.664ZM1.22379 56.2234C1.09455 57.0021 0.919369 58.1286 0.750606 59.6034C0.710883 59.9515 0.67143 60.3223 0.633998 60.7061C0.634952 60.6971 0.635876 60.6878 0.636833 60.6788C0.738862 59.7229 0.850918 58.8415 0.989394 57.8986C1.23768 56.214 1.5395 54.5875 1.90374 52.9541C2.26933 51.3161 2.69393 49.6968 3.17751 48.095C3.66189 46.4902 4.20705 44.8995 4.80553 43.3419C5.40923 41.7709 6.0617 40.2437 6.77435 38.7295C7.00101 38.248 7.23511 37.7652 7.47433 37.2864C6.93265 38.3543 6.40271 39.4705 5.87595 40.6732C5.45558 41.6335 5.0415 42.6393 4.63146 43.7144C4.47442 44.1264 4.2888 44.623 4.08098 45.2071C3.26159 47.5261 2.06401 51.2105 1.22379 56.2234ZM14.5465 25.9708C14.7845 25.6631 15.0239 25.3594 15.2632 25.0614C15.9442 24.2133 16.6304 23.4025 17.3199 22.6244C17.8043 22.078 18.2923 21.5455 18.7812 21.0285C18.9875 20.8103 19.195 20.5937 19.4019 20.3805C19.7486 20.0234 20.0965 19.6727 20.4456 19.3283C17.9901 21.7371 15.7639 24.2711 13.6623 27.0776C13.6346 27.1147 13.6069 27.1519 13.5791 27.1893C13.9041 26.7701 14.227 26.3638 14.5465 25.9708Z" fill="var(--stroke-0, #9B9084)"/>
</g>
</svg>
