<svg width="205.504" height="237.965" overflow="visible" style="display: block;" viewBox="0 0 205.504 237.965" fill="none" xmlns="http://www.w3.org/2000/svg">
<g id="Vector">
<path d="M101.496 21.1684C105.978 12.4338 113.742 5.83267 123.083 2.81196C128.183 1.2037 133.438 1.05518 138.716 0.568078C141.364 0.323438 143.698 -0.167029 146.38 0.0572402C148.692 0.257975 150.936 0.92505 152.983 2.01772C155.432 3.31647 157.221 5.13831 159.345 6.43468C168.431 11.9787 175.539 18.124 178.812 28.6625C181.322 36.7453 180.06 44.9284 179.152 53.1383C182.386 56.4454 184.276 59.3338 181.549 63.8431C179.967 66.3754 179.848 66.3898 181.883 68.533C188.971 76.0023 200.442 76.2365 204.223 87.0837C207.223 94.889 204.735 101.893 199.026 107.666C188.419 118.396 173.466 118.434 162.941 107.585C159.34 103.872 156.863 98.0436 156.533 92.8989C155.313 93.8929 154.031 94.8078 152.693 95.6378C148.075 98.5147 145.284 98.7799 144.568 104.728C149.382 105.036 151.737 106.227 155.546 108.938C156.911 109.91 159.201 110.699 160.621 111.701C172.505 119.488 193.714 135.332 181.201 151.234C176.581 157.105 168.148 159.827 161.161 161.677C161.373 163.756 161.311 166.124 161.533 167.969C170.173 168.537 176.791 164.757 182.295 158.362C183.78 156.93 186.582 152.12 188.878 152.185C191.734 152.264 191.702 157.128 191.271 159.132C187.846 175.067 175.64 182.547 160.218 181.301C160.763 185.926 162.166 191.537 163.275 196.151C164.424 196.576 166.07 197.027 166.58 198.384C167.308 200.31 167.62 202.513 168.012 204.529C168.302 206.362 168.923 208.359 168.433 210.201C168.241 210.909 165.676 212.853 165.743 213.341C166.044 215.578 168.783 216.59 170.798 217.172C177.754 219.171 183.54 225.53 180.412 232.985C179.383 235.438 175.944 236.035 173.723 236.69C170.09 237.801 166.752 237.902 162.994 237.767C161.29 237.706 159.395 238.058 157.666 237.942C153.11 237.538 140.858 235.086 139.911 229.797C139.428 227.104 139.614 221.147 139.404 218.002C134.096 216.95 134.662 214.674 133.388 210.323C132.494 207.278 130.96 206.488 132.912 203.144C132.378 200.985 127.938 191.302 125.808 190.989C124.714 191.772 124.087 199.527 124.05 201.111C124.526 201.679 125.313 202.571 125.709 203.144C125.96 205.074 125.814 213.284 124.307 214.799C123.787 215.321 123.14 215.728 122.466 216.068C122.652 218.863 123.85 228.975 122.056 230.539C118.077 234.006 102.378 235.711 96.9515 236.017C92.4958 236.27 80.9797 235.659 77.6572 232.616C76.2431 231.318 75.6439 229.396 75.5984 227.482C75.5094 224.481 76.6407 221.574 78.735 219.422C84.0075 214.095 93.4213 216.45 94.6514 213.379C93.5281 212.441 92.8735 211.988 92.1615 210.683C92.0666 209.2 92.116 207.796 92.1734 206.318C92.3059 202.913 91.1213 199.26 94.863 197.431L93.5637 182.06C93.362 179.606 93.2453 176.744 92.8834 174.325C92.5175 171.875 90.5655 169.211 90.2333 166.672C88.4277 158.322 89.0605 151.143 91.7423 143.051C92.6441 140.326 93.892 137.461 94.6376 134.723C88.5107 132.018 82.9257 129.303 77.3071 125.551C77.3091 133.829 77.0935 142.228 77.141 150.44C77.228 157.395 77.2696 164.35 77.2676 171.305C77.2696 173.259 77.4515 179.748 76.9947 181.279C76.5161 181.7 76.4528 181.864 75.7052 181.886C72.1632 181.991 68.4985 181.947 64.9624 181.963L41.3372 182.015L14.7173 182.017C12.6726 182.017 1.64425 182.282 0.562455 181.631C-0.218336 180.601 0.0609099 173.473 0.0666452 171.74L0.0785108 158.746L0.099671 149.007C0.102638 148.012 0.0488537 145.152 0.146156 144.317C-0.0684231 141.294 0.104625 135.251 0.101856 132.069L0.0739601 107.569L0.0174083 88.0526C0.015035 85.0441 -0.0988852 79.4829 0.288543 76.6546C1.223 75.75 2.97463 75.9031 4.24352 75.9127C10.8292 75.9622 17.4351 75.8595 24.0192 75.939C24.4025 69.7307 27.6384 67.1407 33.7632 67.5562C37.1785 64.6423 40.3019 64.7651 44.207 66.7543C52.0357 64.4445 56.2586 68.5399 58.5547 75.8073L66.1886 75.8641C72.3154 69.9196 77.9222 66.4865 83.1947 59.5199C81.749 54.9301 81.6126 54.0927 82.1228 49.229C81.6284 48.4538 81.0509 47.6516 80.5822 46.8791C75.5826 38.6187 87.5832 38.4071 92.3949 38.3442C89.1713 35.9123 83.8829 32.4339 87.7434 27.5947C90.6051 24.0078 96.192 21.771 100.699 21.2462C100.964 21.2151 101.229 21.1892 101.496 21.1684ZM52.818 78.6129C50.0275 83.3427 46.9615 85.5108 41.6584 82.6086C38.2878 85.4005 36.1402 84.9417 32.6304 82.7025C28.6764 83.9004 25.8193 82.3479 24.3336 78.5814L2.68313 78.5888C2.51523 82.9596 2.63863 87.8544 2.66098 92.2611L2.82552 179.303C8.43265 179.438 14.4478 179.327 20.0911 179.325L74.6036 178.991C74.7203 168.094 74.5146 156.933 74.4731 146C74.39 123.615 74.8054 100.851 74.4316 78.4978C70.4109 78.5085 65.8682 78.6433 61.9029 78.4731C59.9905 78.6261 58.1453 78.5092 56.2646 78.5826L52.818 78.6129ZM118.259 63.6373C117.328 61.2698 117.48 58.877 116.823 56.7842C116.444 55.5748 111.752 54.8575 110.293 55.3733C110.038 55.9122 109.745 56.4535 109.516 57.0019C107.283 62.3274 98.8758 63.7266 93.4787 64.8962C91.6612 65.4621 89.909 65.9496 88.2062 66.8192C86.5548 67.9363 86.3115 68.2773 85.2693 69.8925C81.664 75.4751 85.119 92.2921 94.3014 86.2333C96.0675 85.069 95.0232 82.0936 94.9283 80.1507C91.6394 78.3164 88.0875 76.3915 86.8277 72.5572C85.7024 69.1303 88.1468 66.9807 91.2577 66.3597C95.6521 65.4828 101.291 65.8297 105.258 68.0728C107.696 69.4793 108.117 72.0001 106.512 74.2194C104.328 77.2423 100.355 78.8215 96.9436 80.0034C97.256 84.5345 97.3806 84.6887 101.233 86.9686C109.332 91.7603 120.972 91.8258 128.46 85.8403C129.471 85.0953 130.157 84.3802 131.037 83.5027C131.822 82.6177 132.649 81.5193 133.39 80.5799C132.309 80.426 130.61 80.4418 130.73 79.0195C132.959 76.5765 138.206 79.3869 138.178 82.5692C138.172 83.3012 138.303 83.154 137.832 83.6714L137.318 83.6698C136.46 83.3221 135.762 82.3968 135.125 81.688C134.959 81.9803 134.789 82.2714 134.616 82.5611C128.604 92.6718 115.289 95.7509 104.674 91.6567C101.892 90.5838 99.8013 89.3561 97.2402 87.8297C96.4274 88.2541 94.5961 89.1261 94.1333 89.784C92.9289 91.579 96.7913 94.7148 97.9937 95.4513C106.26 100.517 116.515 100.752 125.62 98.0411C126.223 97.8615 126.286 97.8285 126.789 98.1635L126.856 98.529C126.033 100.207 121.732 101.911 119.954 102.76C121.574 102.431 125.681 100.933 126.793 101.522C126.587 102.723 120.027 106.741 118.676 107.552C119.582 106.408 120.1 105.82 121.145 104.805C119.276 105.321 118.15 105.656 116.364 106.411C116.285 107.698 115.979 108.286 115.991 109.606C117.646 112.779 124.942 112.57 127.904 112.072C133.462 111.137 135.827 108.558 138.277 103.71C138.72 102.832 140.71 100.936 140.443 100.043C139.905 100.269 137.797 104.001 133.958 105.483C135.89 102.045 138.843 99.1217 140.836 95.5777C141.946 93.6037 144.048 87.9307 145.375 86.8047L145.672 86.8846C146.356 89.7111 143.334 94.9719 142.108 97.7053C145.351 94.041 147.339 91.3836 148.369 86.368C148.672 84.894 148.656 83.5069 149.022 81.9935L149.342 81.8891C152.166 83.9384 148.583 92.8047 147.416 95.4254C154.615 88.4754 151.19 77.8578 152.196 76.4412L152.536 76.4267C155.311 78.5094 154.405 85.3643 153.986 88.4455C157.651 82.5048 156.422 76.9251 153.632 71.1285C153.221 70.2754 152.4 68.4134 153.155 67.6565C155.046 67.9757 156.606 72.2687 157.235 73.8425C157.283 72.7332 157.413 70.6946 157.259 69.6639L157.214 69.3763C157.03 68.1567 156.504 67.3019 155.936 66.2108C155.366 65.0831 153.79 62.4712 154.059 61.3321L154.397 61.2417C155.436 61.6267 156.063 62.2732 156.709 63.1304C157.045 63.5886 157.392 64.258 157.833 64.3906C158.125 63.4413 157.757 61.1529 157.562 60.1761C156.893 56.8403 154.781 54.5174 151.547 53.4751C149.58 52.8409 148.897 54.7044 148.739 56.3178C148.379 61.6254 146.682 67.1039 142.363 70.5328C136.074 75.4201 125.323 74.0873 120.45 67.7491C119.93 67.0747 118.987 65.6185 118.775 64.827C118.437 64.4167 118.403 64.1453 118.259 63.6373ZM153.029 51.839C157.906 54.1637 159.245 55.6703 160.263 61.0702C160.04 63.0489 158.588 67.5533 159.838 69.3033C160.214 69.1845 160.032 69.2549 160.382 69.0935L160.633 69.6957C160.459 85.1214 155.985 104.8 174.975 110.89C174.433 110.33 173.527 109.442 173.094 108.841L173.029 108.759C172.742 108.495 172.469 108.217 172.21 107.926C171.004 106.56 167.468 101.823 169.503 100.143L169.993 100.262C171.37 101.376 171.508 102.638 172.276 104.103C172.675 104.864 173.237 105.51 173.664 106.33L175.274 107.895C176.943 109.497 178.99 110.249 181.112 111.047C180.129 109.926 176.759 106.804 177.044 105.348L177.435 105.263C180.726 106.198 183.999 111.336 186.948 110.685L187.081 110.337C186.319 108.473 182.645 106.469 183.319 104.709C185.277 103.944 187.903 108.05 191.064 108.188C191.689 107.916 191.522 108.132 191.732 107.654C191.206 105.633 186.74 104.349 186.586 102.075C187.793 100.514 191.244 103.24 192.885 103.977C196.702 103.395 197.869 101.795 199.72 98.5191C201.492 95.384 202.558 93.2066 202.423 89.5619C201.304 91.9235 198.668 100.787 195.863 100.691C195.604 100.423 195.274 100.13 195.371 99.6386C195.966 96.6197 198.302 94.463 199.226 91.3519C200.09 88.4353 200.153 87.5716 200.153 84.7239C195.12 77.962 188.36 77.4413 182.233 72.5228C177.906 69.0114 174.89 64.0085 171.249 59.8919C167.735 55.9166 163.184 52.5324 158.181 50.7667C156.533 50.185 154.848 49.4385 153.236 48.748L153.029 51.839ZM164.159 157.701L166.434 156.516C166.975 155.333 169.271 148.929 170.421 148.998C171.129 150.888 170.072 153.791 169.501 155.634C171.906 153.991 172.044 152.796 172.976 150.109L173.207 149.947C173.488 149.747 173.522 149.715 173.739 149.431L174.105 149.406C174.413 149.81 174.319 151.424 174.328 152.08C174.704 152.377 174.477 152.281 175.086 152.217C177.692 150.406 176.225 144.073 177.467 142.04L177.92 142.129C179.279 144.119 179.063 146.2 179.079 148.534C181.155 144.241 180.202 143.795 179.453 139.486C179.352 138.908 179.338 138.273 179.72 137.802C180.608 137.992 181.387 139.616 181.78 140.356C180.964 132.204 174.107 125.532 167.944 120.718C163.358 117.136 157.455 112.262 151.694 111.227C148.872 113.026 147.216 114.662 145.549 117.653C143.708 120.958 141.422 125.431 141.643 129.262C141.683 129.958 142.161 131.722 142.349 132.441C144.548 131.979 146.051 132.37 148.154 132.987C147.857 132.472 147.57 131.951 147.295 131.423C146.91 130.667 146.825 130.401 147.068 129.642L147.509 129.518C149.592 129.976 154.423 134.548 156.86 135.905L157.053 136.012C158.236 133.915 159.822 131.857 161.96 130.688C162.816 130.221 164.571 129.451 165.53 129.717C165.625 130.723 162.326 132.968 161.06 134.534C162.644 133.719 164.29 133.103 166.08 133.02C167.132 132.971 170.446 132.799 170.357 134.3C169.529 135.366 166.307 135.089 164.836 135.728C161.956 136.98 159.106 138.824 156.296 140.355C156.507 141.27 156.755 142.53 155.839 143.109C155.141 142.889 153.711 140.985 153.017 140.3C148.316 135.673 144.196 132.517 139.052 138.601C140.735 138.576 143.022 138.261 144.363 139.137C145.549 143.657 125.932 138.844 124.611 143.558C122.778 150.09 137.391 146.436 138.649 149.996C137.083 151.957 134.29 149.526 134.86 153.304C135.328 156.424 139.994 156.617 140.724 158.201L140.53 158.596C139.83 159.13 138.772 159.179 137.876 159.309C141.807 166.862 153.715 162.518 157.918 157.404C158.77 156.367 158.833 153.075 160.669 152.887L160.932 153.19C161.294 155.02 160.273 157.867 159.612 159.561C162.308 157.153 162.45 155.149 164.602 152.394C164.932 151.97 165.17 151.827 165.627 151.828C166.343 153.138 164.711 156.389 164.159 157.701ZM124.325 4.77382C115.318 8.79525 109.233 12.0719 104.241 21.3174C124.732 23.0961 144.845 31.7718 162.98 40.9763C164.762 41.8813 170.49 46.5241 171.746 45.5818C171.937 42.3172 158.988 36.0062 156.027 34.41C153.424 33.1079 150.786 31.8946 148.172 30.6208C147.246 30.1701 146.265 29.6219 146.441 28.4659C148.069 27.3637 154.635 30.6934 156.353 31.6128C159.28 33.1415 161.341 33.9429 163.398 36.5378C167.865 36.8722 168.866 39.9574 171.56 40.5879L171.858 40.3998C171.904 40.1257 171.931 39.9218 171.842 39.6517C170.684 36.1803 157.423 29.4884 153.6 27.7968C152.159 27.2882 149.075 26.2794 148.824 24.6472L149.143 24.3116C150.891 23.8146 153.151 25.0419 154.787 25.7703C157.538 27.071 162.458 29.2404 164.341 31.6834C166.726 32.057 170.664 35.0935 171.49 34.5263C171.483 32.3068 165.951 29.7259 163.993 28.6045C161.76 27.4786 159.541 26.3264 157.336 25.1483C156.136 24.8175 151.385 22.9539 151.597 21.4843C153.405 20.1697 157.943 22.7393 159.531 23.7046C161.729 24.8513 163.9 26.042 166.048 27.2761C166.938 27.7699 169.863 29.6628 170.684 29.1146L170.707 28.6846C170.539 28.2822 170.209 27.591 169.869 27.338C166.784 25.052 162.146 22.7191 158.73 21.1892L155.151 19.6668C153.537 19.0747 148.409 17.4239 148.007 15.6691L148.32 15.3831C150.519 14.9284 155.487 17.2121 157.583 18.226C158.103 18.4321 158.845 18.6973 159.31 18.9728C162.498 20.2217 166.643 22.6414 169.758 24.3033C167.709 21.1354 165.957 20.3641 162.672 18.6588C162.098 18.5379 159.395 17.3266 158.689 17.0244L156.157 15.8906C155.445 15.6628 153.968 14.9611 153.225 14.6312C151.87 14.0369 147.843 13.2654 147.361 11.9091L147.651 11.6668C149.665 11.2403 152.135 11.9779 154.047 12.5762C154.898 12.8675 156.015 13.215 156.804 13.5967C158.07 14.1457 159.573 14.7532 160.789 15.3618C162.868 16.2701 164.64 17.1609 166.661 18.1985L166.956 17.9652C163.724 13.4333 151.805 10.7939 151.373 8.71851C152.372 6.72125 160.688 10.8912 162.401 11.6718C154.085 4.9178 147.823 4.93896 138.382 9.28413L136.845 10.306C134.44 12.059 132.803 13.5512 130.96 15.9187C129.662 17.5869 128.007 21.8072 126.53 22.769C125.842 22.7083 126.124 22.8433 125.642 22.362C125.098 18.4905 131.84 10.7306 134.826 8.69379C135.188 8.36668 136.185 7.78228 136.644 7.49393C142.254 4.4742 145.492 4.51217 151.385 3.80891C141.184 1.07812 132.872 4.71152 126.453 12.8542C124.503 15.3277 123.518 18.127 121.643 20.5896C121.504 20.6178 121.368 20.6461 121.23 20.6742C120.955 20.4608 120.715 20.3528 120.757 19.933C121.524 12.2364 128.171 7.14922 133.847 3.39755C118.951 7.54476 119.315 18.9776 116.23 20.165C115.939 20.0987 115.771 20.1424 115.664 19.8839C113.898 15.6424 122.12 7.05291 124.325 4.77382ZM113.422 167.833C114.163 172.613 115.366 181.131 119.62 183.971C123.152 186.326 131.818 186.63 135.059 190.311L135.135 190.724C133.96 191.286 131.284 190.222 129.931 189.805C131.468 192.233 132.843 194.763 134.041 197.375C134.868 199.151 135.536 201.097 136.389 202.865C136.42 202.931 137.043 203.023 137.148 203.031C143.573 203.016 151.043 202.395 157.049 199.897C156.569 197.46 156.074 195.028 155.562 192.597C154.874 189.443 153.219 184.76 154.271 181.577L154.536 181.439C155.368 182.519 157.437 192.923 158.133 194.927C158.463 195.88 158.189 198.109 159.124 198.953C159.49 198.775 159.682 198.768 159.816 198.356C160.053 197.626 156.838 182.885 156.521 180.527C156.385 179.509 156.203 178.38 156.29 177.355C156.391 176.18 156.883 175.043 156.725 173.859L156.468 173.455C155.819 173.358 155.76 173.4 155.107 173.574L154.734 173.92C154.702 175.014 155.22 175.174 154.943 175.931C152.71 178 145.769 174.31 144.133 172.435C142.723 170.817 141.75 169.088 140.599 167.31C140.308 166.883 139.77 166.824 139.304 166.919C131.604 168.169 127.08 168.28 119.42 168.202C120.061 170.647 121.965 178.558 121.625 180.759L121.289 181.105C118.807 180.165 118.544 170.643 118.627 168.183C116.928 168.074 115.107 167.987 113.422 167.833ZM171.455 174.011C173.328 173.56 175.972 172.004 177.121 172.185C177.346 173.619 173.16 175.769 172.284 176.703C178.865 174.246 183.916 170.504 186.788 163.921C187.377 162.572 189.756 156.415 188.408 155.34C186.614 156.82 185.089 159.416 183.525 161.2C179.435 165.863 173.478 169.891 167.537 171.618L167.826 171.65C169.295 171.806 172.082 171.335 172.673 171.94C171.995 173.058 167.925 174.078 166.552 174.622C168.124 174.529 169.928 174.398 171.455 174.011ZM163.898 216.826C163.372 216.464 162.664 215.849 162.148 215.43C161.297 215.687 160.498 216.027 159.674 216.357C155.582 217.925 150.701 218.906 146.815 221.212C145.498 221.993 144.784 223.291 142.933 224.383C142.879 225.692 142.557 228.933 143.599 229.813C147.774 233.341 153.832 234.607 159.181 234.983C162.454 235.212 162.176 232.707 162.027 230.341C161.928 228.789 161.009 226.876 161.06 225.397L161.284 225.272C165.047 226.58 164.495 231.225 164.662 234.178C164.743 235.586 170.703 234.611 171.757 233.933C173.28 232.952 172.78 230.592 172.608 228.992C172.477 227.909 170.755 224.655 171.401 223.866C172.513 224.052 172.726 224.592 173.407 225.48C175.175 227.78 175.42 230.383 175.359 233.227C176.547 232.489 176.907 232.256 177.906 231.298C180.821 220.014 163.714 216.944 156.331 220.692C155.594 221.066 153.488 222.055 152.805 222.126L152.647 221.829C153.452 219.919 156.055 219.207 157.692 218.327C158.912 217.67 163.301 217.116 163.898 216.826ZM70.3496 75.8849C72.0366 75.8564 75.2049 75.6072 76.6387 76.2988C77.6631 77.5631 77.2162 94.0732 77.3071 96.966C78.9071 95.2565 79.5894 94.555 80.4121 92.286L80.8887 91.4591C80.9876 90.6965 81.573 88.4497 82.374 88.2553C82.9495 89.0703 82.722 90.1863 82.7616 91.0859C82.8783 93.8233 80.9698 95.1335 79.8504 97.3548C79.5914 97.868 79.7179 98.0925 79.9236 98.5576C80.6178 98.9109 80.3429 98.8984 80.9876 98.7271C82.8605 97.0192 84.7254 91.2343 85.4512 88.7533C82.8387 85.0366 81.1241 82.0768 80.9619 77.3252C80.8096 72.8465 81.9448 69.0264 85.0339 65.733C85.6015 65.1755 86.3214 64.7382 86.9859 64.2893C86.4243 63.7017 85.912 63.0934 85.382 62.4773L84.7867 62.0415C83.9779 62.2167 81.3119 65.7014 80.507 66.5735C77.5346 69.7932 73.0373 72.6343 70.3496 75.8849ZM131.798 125.587C132.568 125.42 133.408 125.218 134.177 125.091C136.159 125.844 136.762 126.165 138.042 127.947C139.412 122.709 142.381 116.371 145.873 112.248C146.991 110.928 148.812 109.669 149.639 108.495C148.547 109.063 146.803 110.382 145.925 110.77L145.314 111.391C144.523 112.19 143.894 113.072 142.794 113.076L142.727 112.699C143.291 111.098 143.825 110.715 145.053 109.589C145.593 109.164 146.139 108.746 146.692 108.338L146.704 108.129C143.097 108.434 141.914 112.755 139.735 113.218C139.039 112.096 141.831 109.454 142.616 108.564C137.583 111.624 133.551 120.063 131.798 125.587ZM153.405 174.05C153.098 173.257 152.902 172.407 152.24 171.966C151.633 171.822 151.431 171.875 150.794 171.932C150.161 171.964 149.72 172.063 149.176 171.766C149.253 170.912 151.925 170.115 152.784 169.33L152.718 169.148C148.613 169.957 148.984 169.349 145.201 168.895C145.411 171.074 151.53 173.471 153.405 174.05ZM95.1063 209.92C98.9588 212.574 110.803 214.494 115.706 213.436C116.268 213.313 117.773 213.068 118.186 212.702C116.493 212.232 113.869 212.378 112.607 211.419L112.571 211.092C113.673 210.319 116.968 210.054 118.663 209.593L119.064 209.429C118.105 208.731 113.944 208.713 112.605 207.503L112.65 207.141C113.987 206.144 117.555 207.08 118.682 206.032C119.475 205.294 120.703 205.543 121.989 204.817L121.872 204.635C120.259 204.469 118.212 204.693 116.598 204.784C109.917 205.161 103.569 203.676 97.2679 201.57C96.6528 201.364 95.8717 201.046 95.2368 200.911C94.863 203.02 95.7055 203.868 95.6165 205.676C95.5453 207.183 95.0984 208.146 95.1063 209.92ZM103.527 137.39C103.304 140.096 102.827 143.358 102.546 146.222C102.839 148.164 103.08 148.681 103.502 150.434C104.52 151.971 105.677 153.311 107.376 154.172C111.438 156.229 117.173 156.399 121.508 155.148C123.387 154.605 125.814 153.205 126.739 151.378C126.791 151.279 126.86 150.906 126.824 150.88C124.807 149.407 122.321 148.958 121.344 146.182C120.945 145.043 121.319 143.216 121.827 142.173L121.926 141.975C120.472 142.096 114.865 142.422 114.104 140.984L114.418 140.661C116.679 139.818 120.417 140.403 122.837 140.689C124.079 139.702 124.894 139.346 126.292 138.66C118.68 138.407 110.926 137.573 103.527 137.39ZM92.5472 68.2073C91.851 68.4331 91.3566 68.5136 90.8503 69.0272L90.787 69.4384C91.8016 70.555 95.5058 70.4514 96.9001 70.2949C97.5942 70.1571 98.0807 70.1413 98.6028 69.685L98.6701 69.2964C97.9581 68.5081 95.8756 68.2373 94.8452 68.1889C94.0799 68.1466 93.3106 68.1527 92.5472 68.2073ZM47.5088 68.8077C45.7383 69.1916 44.4471 69.9186 43.4767 71.5221C41.8931 74.1382 41.4543 78.8771 44.4465 80.6932C46.7695 82.055 48.7994 80.1302 49.8157 78.1632C50.445 76.8927 50.7385 74.2038 51.7287 73.6062C53.8261 74.8626 51.1299 75.8152 55.5546 75.8574C54.1405 71.6228 52.3636 68.785 47.5088 68.8077ZM106.516 107.268L108.46 106.263L108.693 106.166C110.05 105.611 112.53 105.419 113.056 104.917C113.026 104.601 112.983 103.448 112.828 103.374C111.044 102.509 107.228 102.419 105.27 101.89C102.307 101.089 99.9991 100.124 97.3154 98.9593C96.1762 101.331 94.8453 102.935 92.9783 104.761C96.0576 105.735 103.343 107.301 106.516 107.268ZM37.4419 81.6625C38.0129 81.5161 39.8913 80.9434 39.7867 80.2126C39.1333 75.643 39.4339 72.9792 42.1836 69.0959C40.5538 68.1715 40.1917 68.0267 38.3258 67.9982C31.6558 70.132 31.1365 81.1904 37.4419 81.6625ZM102.489 120.533C102.224 121.298 101.755 122.317 101.882 123.056C102.513 123.546 103.834 123.204 104.629 123.432C105.212 123.599 106.094 124.195 106.614 124.534C107.158 120.277 108.574 115.642 110.164 111.651C110.52 110.756 111.355 109.61 111.046 109.063C109.441 110.025 108.79 113.072 107.226 113.84C106.713 112.888 108.23 109.994 108.497 108.895C105.817 111.794 103.521 116.749 102.489 120.533ZM134.52 131.651C135.653 131.168 136.175 129.854 135.68 128.727C135.188 127.599 133.869 127.09 132.746 127.595C131.638 128.092 131.138 129.389 131.624 130.502C132.111 131.614 133.404 132.126 134.52 131.651ZM88.0341 127.247L88.0064 127.032C87.7157 124.882 85.8824 120.648 86.5983 118.801L86.9385 118.733C87.9926 119.534 91.1529 126.094 92.561 128.238C91.9479 126.227 90.9769 123.484 90.5952 121.517C90.52 120.763 90.4113 120.417 90.7277 119.731L91.0936 119.611C92.1694 120.347 94.9026 126.673 96.0635 128.578C95.84 126.699 94.9797 122.602 95.3674 121.102L95.6502 120.886C96.732 121.543 97.6793 124.068 98.1539 125.275C99.4888 119.59 101.474 115.072 104.2 109.955C96.91 108.993 91.1865 107.962 84.4921 104.632C83.3094 104.044 78.3355 101.058 77.7165 100.845C78.1931 107.598 78.6836 116.058 81.8143 122.328C82.277 123.254 83.0286 123.751 83.8592 124.336C83.2204 122.494 81.31 117.489 82.3047 115.78L82.6686 115.759C83.8553 116.975 84.6799 120.881 85.4512 122.624C86.3432 124.644 86.6833 125.438 88.0341 127.247ZM116.691 218.426C108.054 218.695 106.217 217.799 98.2528 215.133C92.4819 219.314 86.6102 217.158 81.1557 221.262C78.9229 222.941 77.5089 228.023 79.4589 230.234L79.7021 230.155C80.3607 228.795 80.1609 226.704 80.7977 225.288C81.3535 224.052 82.9693 222.427 84.2508 222.005L84.4624 222.28C84.3556 223.481 83.1116 225.686 82.7655 227.104C81.5651 232.022 83.9443 232.103 88.0143 232.827L88.5166 232.517C88.843 229.174 88.0044 225.079 92.0429 223.137L92.5116 223.328C92.8834 225.158 89.0803 229.277 91.8926 232.847C93.364 232.94 94.9066 233.037 96.3819 232.932C100.853 232.616 116.841 230.618 119.438 227.754C118.018 227.501 113.218 230.145 110.514 228.692L110.552 228.449C111.909 227.207 115.322 226.574 117.118 225.838C118.19 225.399 118.841 225.075 119.877 224.529C118.599 224.58 113.081 225.417 112.476 224.424C113.378 223.273 116.873 222.569 118.433 221.659L118.417 221.428C117.245 220.833 112.724 221.653 111.551 220.405C112.049 219.666 115.478 218.839 116.691 218.426ZM86.9721 41.1531C85.655 41.2447 83.9442 41.2582 82.8822 42.0566C83.349 42.6989 88.4375 42.3135 89.5015 42.3382C95.6185 42.4794 108.671 42.5286 107.18 51.7294C106.901 53.4265 106.061 55.6705 105.109 57.1198C104.682 57.6472 104.188 58.0562 104.132 58.6264C107.495 57.9512 111.222 46.8511 105.171 43.9975C98.947 41.0628 93.6547 40.846 86.9721 41.1531ZM115.623 188.298C113.388 186.694 107.19 182.446 106.551 179.912L106.652 179.45C106.933 179.319 107.113 179.204 107.441 179.386C110.572 181.136 113.347 182.764 116.665 184.182C113.481 179.772 111.644 173.135 111.671 167.684C104.401 166.755 100.007 165.938 93.0238 163.456C93.3659 166.057 94.0028 168.226 95.045 170.637C95.7767 172.318 96.6113 173.95 97.5468 175.528C98.0827 176.432 99.6293 178.415 99.3207 179.295C98.4525 179.335 97.3272 178.401 96.6825 177.814C96.5223 177.666 96.3661 177.513 96.2138 177.359C96.6489 184.293 97.4103 191.81 98.0946 198.75C101.763 200.257 112.82 202.879 116.242 201.732L116.475 201.485C115.858 199.701 111.201 199.08 111.6 197.253C113.234 196.396 115.734 198.303 116.386 197.189C115.856 195.036 110.273 194.784 111.762 192.413C112.7 192.17 115.156 193.475 116.163 193.93C116.772 193.774 116.55 193.938 116.898 193.509C116.776 192.779 116.809 192.66 116.072 192.154C113.973 190.716 109.156 188.689 107.775 186.611L107.754 186.223C109.057 185.377 113.967 187.785 115.623 188.298ZM28.8355 80.1211C29.5197 80.3896 29.5609 80.4237 30.2802 80.4215C31.0685 79.8594 30.7578 79.2588 30.7105 78.3655C30.6512 77.242 30.2782 76.0371 30.3476 74.899C30.5533 73.537 31.2636 71.9971 31.3248 70.593C30.9686 70.2346 31.1881 70.3776 30.5618 70.3023C28.8568 71.0554 27.8059 71.8071 27.0967 73.6956C26.5142 75.2231 26.5999 76.9251 27.3328 78.3864C27.7786 79.279 28.0786 79.5428 28.8355 80.1211ZM177.249 38.7789C176.854 36.4421 176.148 35.708 174.091 34.4777C173.965 37.2231 174.74 37.8081 177.249 38.7789ZM102.505 125.441C101.451 125.86 100.907 127.031 101.271 128.107C101.633 129.182 102.774 129.786 103.867 129.481C104.627 129.268 105.208 128.654 105.378 127.882C105.547 127.111 105.278 126.31 104.676 125.798C104.073 125.287 103.239 125.15 102.505 125.441ZM129.239 42.5005C136.466 41.6163 140.196 42.5518 147.333 43.4316C139.45 38.8264 120.332 34.8653 111.426 35.8162C107.498 36.1191 102.714 36.3537 99.6629 39.0032C106.525 40.704 109.826 41.9436 111.228 49.459C113.831 49.3999 115.235 49.4824 117.755 50.209C120.658 44.8927 123.235 43.5392 129.239 42.5005ZM85.0735 49.7217C83.6219 54.1746 86.2621 63.9371 92.4186 62.647L92.387 62.294C83.875 59.35 86.9503 52.1578 85.0735 49.7217ZM90.1146 51.7852C91.4575 50.5901 95.6778 47.0478 96.372 45.7135C95.927 44.9877 93.8604 45.2086 93.0278 45.2681C89.3196 46.0756 87.5061 48.3027 88.0875 52.2667C88.1231 52.5118 88.2813 52.674 88.4455 52.8413C89.0941 52.8013 89.4976 52.2646 90.1146 51.7852ZM131.693 44.9238C127.898 45.1939 124.841 45.5669 122.062 48.5505C120.864 49.8374 119.91 52.7163 119.226 53.167C117.138 53.24 112.34 50.6096 110.677 52.4552L110.714 52.7103C113.18 53.3691 116.892 52.684 118.73 55.6158C119.501 56.8463 119.746 59.2784 120.043 60.7504C122.555 73.2154 141.796 74.6547 145.043 61.7885C145.405 60.3579 146.166 57.2998 145.731 56.006L145.498 55.7611L145.213 55.9581C144.964 57.901 144.649 59.2264 144.04 61.0959C142.709 64.3765 140.973 67.3304 137.555 68.6782C131.638 70.9616 124.297 68.6489 121.866 62.5141C119.748 57.17 120.249 49.462 126.453 47.2387C134.195 44.465 143.206 47.159 151.178 47.8383C146.115 45.2826 137.332 44.6958 131.693 44.9238ZM90.0474 28.366C93.273 27.266 96.821 25.9145 100.24 25.6987C110.002 25.0951 119.315 28.3775 128.503 31.1965C131.723 32.1851 135.33 33.3737 138.422 34.7004C148.798 39.1547 158.819 44.4349 168.12 50.858C169.972 52.1368 171.724 53.3282 173.482 54.758C174.574 55.7222 178.929 59.7193 179.985 59.9412C181.683 55.9765 161.509 43.2115 158.206 41.411C155.693 40.0413 152.629 38.752 150.001 37.4984C146.781 35.9593 143.034 34.1063 139.762 32.8241C128.381 28.3607 112.941 23.6156 100.824 23.9625C95.3713 24.4221 94.3093 25.2889 90.0474 28.366ZM130.398 48.8283C126.684 49.4493 123.267 51.1996 123.468 55.7052C123.49 56.2095 123.729 56.4646 124.101 56.7286C124.714 56.5738 125.173 56.0333 125.662 55.5839C126.453 54.8811 133.319 49.3384 133.353 49.2381C132.67 48.5271 131.322 48.7639 130.398 48.8283ZM92.8023 161.302C106.207 166.195 123.551 167.607 137.547 165.076C136.746 164.211 136.165 163.306 135.504 162.337C133.254 162.525 125.224 163.658 123.872 161.881C125.205 160.341 133.551 161.253 134.773 160.161C134.723 157.929 132.831 156.888 132.032 154.738C131.446 153.16 131.85 152.878 131.531 151.475C130.997 151.067 130.556 151.152 129.791 151.067C125.873 158.05 118.514 158.94 111.092 157.804C107.33 157.228 104.283 155.436 102.111 152.276C101.146 150.474 100.946 149.614 100.503 147.597C100.341 145.004 100.85 137.697 101.876 135.624C103.335 134.267 118.951 136.159 121.993 136.173C123.984 136.182 127.068 136.545 129.14 136.686C129.558 136.737 130.222 137.328 130.473 137.66C131.294 138.75 134.583 138.436 135.924 138.446C137.229 136.196 137.494 135.669 139.527 133.983L139.043 131.016C137.901 132.705 136.891 134.177 134.709 134.614C133.495 134.864 132.231 134.617 131.199 133.929C128.901 132.392 128.828 130.071 128.907 127.617C121.572 127.038 116.572 127.61 108.802 126.195C108.309 128.371 107.823 130.423 105.857 131.733C103.417 133.357 101.138 132.106 99.3999 130.363C96.0002 140.467 93.4866 145.203 92.4443 155.827C93.1563 156.19 93.8762 156.535 94.604 156.864C98.4031 157.951 101.563 158.845 105.459 159.589C109.846 160.561 114.333 160.629 118.75 161.302C119.07 161.351 119.303 161.615 119.499 161.85L119.479 162.214C118.047 163.314 107.955 162.218 105.954 161.537C103.003 161.446 95.9567 159.225 93.0851 158.092C92.6579 158.207 92.8478 158.11 92.5492 158.448C92.4206 159.392 92.648 160.345 92.8023 161.302ZM176.826 32.1185L176.733 31.9915C175.816 30.7648 174.2 29.4625 174.135 28.0842C174.791 26.6114 174.961 26.4275 174.309 24.7831C173.713 23.2854 171.752 19.4645 170.304 18.8453C170.672 21.1661 172.03 24.1156 172.515 26.5564C172.863 28.3091 173.893 32.1082 175.752 32.6685C176.508 32.5253 176.227 32.6384 176.826 32.1185ZM136.875 210.64C137.043 211.437 137.476 214.11 138.287 214.336C143.765 215.869 151.083 215.095 156.533 213.565C159.405 212.758 164.948 211.28 165.34 208.059L165.134 207.632C164.248 207.392 163.845 207.986 163.172 208.555C162.144 209.338 159.8 210.61 158.499 210.406L158.309 210.108C158.746 208.879 161.096 207.598 162.261 206.84C163.473 206.02 164.076 205.774 164.507 204.37L164.286 204.157C162.715 204.394 158.956 207.226 157.481 206.589C157.348 205.949 157.328 206.261 157.581 205.628C159.29 204.2 164.001 202.644 163.596 200.152C162.17 200.619 160.388 201.871 158.877 202.499C154.486 204.325 150.222 205.132 145.504 205.569C143.366 205.753 141.22 205.826 139.076 205.784C138.119 205.767 135.997 205.353 135.504 206.075C135.791 209.423 140.528 208.569 142.731 209.819L142.745 210.052C141.111 211.136 138.75 210.895 136.875 210.64ZM83.2896 100.574C85.2673 99.1175 88.1528 93.1073 87.7117 90.638C87.4408 90.3663 87.4982 90.3714 87.1718 90.1992C86.5251 91.5303 86.0406 93.9751 85.2792 95.5241C84.5692 96.9703 83.2184 98.5406 82.6963 99.8837C82.9455 100.287 82.9257 100.275 83.2896 100.574Z" fill="var(--fill-0, #665D53)"/>
<path d="M8.2426 149.292C8.09051 145.091 7.82629 118.149 8.61202 115.986C10.1896 115.649 17.9246 115.784 19.9784 115.784L46.1568 115.824L45.169 116.168L45.2427 116.409C46.2391 116.905 47.0646 116.595 48.1311 116.995L45.6046 117.062C45.6236 118.378 45.6786 119.847 45.6515 121.15C49.087 121.145 52.5865 121.107 56.0154 121.145C56.0154 120.189 55.9521 118.013 56.0431 117.153C56.5731 116.99 57.3997 116.553 57.8329 116.935C57.469 117.087 57.3088 117.058 57.2415 117.341C57.0062 118.306 57.1209 120.158 57.1367 121.132L67.8835 121.151C67.9072 120.391 67.9468 119.599 67.9646 118.842C68.0061 117.159 67.8281 117.102 66.3527 116.878L67.749 116.623C66.9757 116.405 66.7166 116.319 66.0798 115.832C67.0113 115.812 67.8617 115.708 68.72 116.026C69.5032 118.038 69.0424 145.578 69.0226 149.992C54.6429 150.335 40.1138 149.858 25.7184 150.072C23.3288 150.108 20.7125 150.126 18.3332 150.022C19.2397 149.469 21.8074 149.603 22.9971 149.597C22.5901 149.299 18.5774 149.564 17.53 148.937C23.0153 148.902 28.501 148.912 33.9863 148.968L33.9626 143.156L9.33171 143.143L9.31015 147.073C9.07995 148.028 9.21463 149.103 8.2426 149.292ZM33.8716 142.094C34.0674 140.555 33.9747 137.811 33.9725 136.155C25.8778 136.167 17.3931 136.308 9.3319 136.148L9.3596 142.049L33.8716 142.094ZM9.33211 135.04L33.5817 135.051L33.8948 134.811C34.0593 133.193 33.966 130.937 33.9458 129.268L9.34516 129.308L9.33211 135.04ZM9.33408 128.068L33.5775 128.082L33.9025 127.885C34.0686 126.66 33.9836 123.716 33.9737 122.364C25.7566 122.411 17.5391 122.415 9.32183 122.373L9.33408 128.068ZM45.6317 143.144C45.5277 145.119 45.6155 146.957 45.5617 148.889C48.956 148.907 52.7083 148.816 56.0668 148.948C56.0609 147.173 56.1202 144.908 56.0351 143.174C52.6201 143.17 49.0347 143.216 45.6317 143.144ZM67.8657 128.082C67.8953 126.192 67.9388 124.276 67.9448 122.389L57.1644 122.365C57.1802 124.268 57.1763 126.171 57.1486 128.073L67.8657 128.082ZM56.0233 129.284C52.5572 129.303 49.0915 129.301 45.626 129.277C45.6278 131.137 45.6758 133.216 45.6218 135.057C48.994 135.066 52.7014 134.999 56.045 135.096C56.049 133.261 56.1024 131.092 56.0233 129.284ZM44.4787 129.28L35.116 129.267L35.0956 135.047C38.0665 135.051 41.5401 135.135 44.4732 135.049C44.477 133.17 44.5201 131.145 44.4787 129.28ZM35.1138 121.146C38.0449 121.141 41.563 121.218 44.4501 121.117L44.4596 117.042L35.0762 117.021L35.1138 121.146ZM9.31391 117.02L9.33448 121.133L33.8934 121.143C34.0373 119.849 33.9834 118.339 33.9729 117.021L9.31391 117.02ZM35.114 148.937L44.4865 148.919L44.5052 143.161C41.4115 143.162 38.2393 143.199 35.1524 143.161C35.1023 145.086 35.0897 147.012 35.114 148.937ZM44.4402 136.145C41.3265 136.192 38.2124 136.189 35.099 136.135L35.1156 142.055C38.04 142.09 41.5423 142.161 44.4558 142.03L44.4402 136.145ZM45.6345 128.066C49.0982 128.094 52.5619 128.097 56.0253 128.074C56.0292 126.191 56.0114 124.259 56.0431 122.38L45.6161 122.35C45.6232 124.236 45.6571 126.185 45.6345 128.066ZM35.0976 122.356L35.1105 128.085L44.478 128.077L44.5013 122.371L35.0976 122.356ZM57.1644 148.895C60.5917 148.911 64.4917 149.012 67.8894 148.91C67.9527 147 67.9645 145.089 67.925 143.178L57.2356 143.161L57.1644 148.895ZM45.6185 136.189C45.6274 138.048 45.6865 140.209 45.6153 142.044C49.0974 142.096 52.5801 142.103 56.0628 142.067L56.051 136.137C52.5906 136.149 49.0733 136.132 45.6185 136.189ZM57.1862 129.273C57.1723 131.178 57.1881 133.162 57.1387 135.059C60.4098 135.062 64.7172 135.189 67.9013 135.037C67.9072 133.14 67.9468 131.144 67.9151 129.256C64.3395 129.3 60.7618 129.306 57.1862 129.273ZM57.1862 136.153C57.1782 138.077 57.2059 140.116 57.1506 142.029C60.3069 142.201 64.6064 142.075 67.8498 142.059C67.9052 140.093 67.925 138.126 67.9092 136.158L57.1862 136.153Z" fill="var(--fill-0, #665D53)"/>
<path d="M11.5556 138.413C13.3464 138.387 19.5158 137.972 20.5321 139.031C20.5135 139.681 20.6302 139.413 20.1844 139.87C18.5184 139.876 12.4319 140.307 11.375 139.454C11.2651 138.814 11.2572 139.066 11.5556 138.413Z" fill="var(--fill-0, #665D53)"/>
<path d="M11.5681 131.497C14.0107 131.488 28.2833 131.081 29.1693 131.9C29.3963 132.11 29.3192 132.261 29.3265 132.55L28.9276 132.964C26.6756 132.922 12.2005 133.212 11.3952 132.676C11.2224 132.044 11.2758 132.245 11.5681 131.497Z" fill="var(--fill-0, #665D53)"/>
<path d="M11.3731 124.553C14.717 124.531 18.0747 124.504 21.4193 124.489C22.4813 124.485 24.2694 124.303 24.7308 125.385L24.4317 125.987C22.2774 125.99 13.1257 126.2 11.5748 125.827C11.1484 125.244 11.2679 125.481 11.3731 124.553Z" fill="var(--fill-0, #665D53)"/>
<path d="M37.3367 118.485C38.7179 118.477 41.3502 118.142 42.4348 118.757C42.6502 119.332 42.6183 119.095 42.3622 119.798C41.1568 119.83 37.0363 120.325 36.9568 118.907L37.3367 118.485Z" fill="var(--fill-0, #665D53)"/>
<path d="M11.6142 145.354C15.1975 145.401 18.7813 145.414 22.3649 145.393C23.8693 145.383 28.7201 145.25 29.9457 145.545C30.361 146.043 30.2323 145.87 30.2408 146.686C28.842 146.983 11.986 146.929 11.3978 146.507C11.26 145.885 11.3114 146.067 11.6142 145.354Z" fill="var(--fill-0, #665D53)"/>
<path d="M68.6666 152.782C69.2362 152.756 69.3371 152.714 69.8354 153.013L69.8888 153.437C68.6943 155.682 65.3876 158.609 63.8787 161.015C62.1422 163.778 60.4434 166.6 58.6219 169.286C58.2838 169.785 57.6272 169.852 57.0754 169.86C55.9461 169.365 54.1207 166.312 53.1161 165.014C52.4116 164.033 51.1683 163.322 51.0413 162.141C52.7277 158.113 56.0846 162.907 57.4967 164.534C60.2061 159.862 64.0151 155.568 68.6666 152.782Z" fill="var(--fill-0, #665D53)"/>
<path d="M13.4959 107.748C30.594 107.563 48.5561 107.558 65.6665 107.753L65.3995 107.879C64.8141 108.149 64.1456 108.162 63.7184 108.56C64.5491 108.986 65.2927 108.927 65.8484 109.247C60.2001 109.49 53.1359 109.287 47.3606 109.286L12.6779 109.248C11.4538 109.281 9.49111 109.569 8.60926 108.643L8.71507 108.29C10.1127 107.387 11.8186 107.681 13.4959 107.748Z" fill="var(--fill-0, #665D53)"/>
<path d="M12.6779 109.248C11.4538 109.281 9.49111 109.569 8.60926 108.643L8.71507 108.29C10.1127 107.387 11.8186 107.681 13.4959 107.748C14.1842 108.503 15.7082 108.429 16.7977 108.49C15.9105 108.638 13.4119 109 12.6779 109.248Z" fill="var(--fill-0, #665D53)"/>
<path d="M8.97196 154.062L33.1189 154.041C36.6056 154.041 40.3499 154.012 43.8506 154.087C44.3672 154.098 44.5448 154.371 44.7732 154.702C44.6666 155.35 44.7839 155.109 44.2232 155.593C33.7609 155.834 22.9872 155.379 12.493 155.657C11.2437 155.69 9.30481 155.834 8.43048 154.987C8.50919 154.374 8.44926 154.59 8.97196 154.062Z" fill="var(--fill-0, #665D53)"/>
<path d="M8.58057 157.981C11.5752 157.812 43.6384 157.771 44.477 158.134C44.689 158.707 44.6191 158.529 44.3545 159.268C43.1222 159.394 36.0659 159.493 34.9235 159.388C31.5799 159.08 10.157 159.973 8.68896 159.086C8.36026 158.483 8.42097 158.756 8.58057 157.981Z" fill="var(--fill-0, #665D53)"/>
<path d="M42.3642 96.2556C44.5064 96.136 46.3382 97.7796 46.4503 99.9222C46.5622 102.065 44.9121 103.891 42.7692 103.995C40.6369 104.099 38.8222 102.459 38.7108 100.327C38.5993 98.1953 40.2329 96.3749 42.3642 96.2556ZM43.3475 102.335C44.5602 101.915 45.2051 100.593 44.7896 99.3792C44.3743 98.1649 43.0552 97.5152 41.8395 97.926C40.6171 98.3389 39.9633 99.6665 40.3808 100.887C40.7983 102.108 42.1285 102.757 43.3475 102.335Z" fill="var(--fill-0, #665D53)"/>
<path d="M59.86 118.484C61.1791 118.459 65.0831 117.961 65.6348 119.167L65.358 119.813C64.0527 119.836 60.4869 120.142 59.6088 119.451C59.4882 118.857 59.4585 119.106 59.86 118.484Z" fill="var(--fill-0, #665D53)"/>
<path d="M9.41595 111.367C16.7617 111.221 24.284 111.4 31.6477 111.316C33.0471 111.301 36.5201 111.039 37.3009 112.109C37.0537 112.692 37.185 112.493 36.5021 112.851L18.9249 112.875C17.0922 112.878 9.20474 113.339 8.47973 112.079C8.81989 111.51 8.69864 111.692 9.41595 111.367Z" fill="var(--fill-0, #665D53)"/>
<path d="M47.8432 96.4383C49.5203 96.4273 50.7664 96.4089 52.4413 96.5841C54.6864 98.225 54.6903 99.6044 52.7441 101.572C53.2288 102.28 53.8617 102.983 53.8795 103.774L53.302 104.102C51.4434 103.228 52.1363 101.733 49.8875 101.634C49.0448 102.221 49.8968 102.782 49.2732 103.739C48.6997 103.79 48.5393 103.845 47.9935 103.635C47.7069 103.159 47.842 97.3471 47.8432 96.4383ZM52.1173 100.165C52.3893 99.378 52.4749 99.2827 52.3195 98.5015C51.4995 97.5826 50.6347 97.8075 49.4508 97.8198C49.4388 98.6172 49.3249 99.4622 49.6812 100.132C50.4573 100.59 51.1965 100.336 52.1173 100.165Z" fill="var(--fill-0, #665D53)"/>
<path d="M16.9248 96.4514C18.8473 96.3923 21.0926 96.1771 22.6279 97.5439C24.0896 98.8452 22.8029 100.582 21.7342 101.556C22.2456 102.281 23.0398 102.876 22.8982 103.773L22.2147 104.115C21.4324 103.752 20.8901 102.677 20.1463 101.87C19.5253 101.632 19.5043 101.627 18.8329 101.683C18.4271 102.114 18.5956 102.61 18.5669 103.405C18.2436 103.855 18.186 103.829 17.6801 104.031L17.3303 103.871C16.6636 102.896 16.9145 97.9432 16.9248 96.4514ZM21.3228 100.067C21.4739 99.2346 21.5724 99.0744 21.2518 98.3417C20.4528 97.6131 19.6232 97.7774 18.5224 97.7996C18.503 98.6599 18.3691 99.4622 18.7963 100.159C19.6341 100.652 20.4137 100.368 21.3228 100.067Z" fill="var(--fill-0, #665D53)"/>
<path d="M9.06334 161.546C9.45077 161.529 9.83859 161.518 10.2264 161.513L23.5054 161.502C24.9503 161.502 30.0923 161.199 31.0064 162.105C30.9698 162.763 31.0479 162.512 30.5665 163.073C27.9222 163.109 9.65962 163.47 8.53689 162.66C8.52799 162.013 8.55468 162.196 9.06334 161.546Z" fill="var(--fill-0, #665D53)"/>
<path d="M22.4353 86.1111C23.0555 86.0899 23.1541 86.0717 23.7478 86.2141C24.712 87.0408 26.9527 92.3503 27.1825 93.4514L26.9638 93.6049C25.06 93.0306 25.4271 92.2541 24.5128 91.8992C23.7053 91.8853 22.8747 91.8693 22.0654 91.8863C21.2599 91.9035 21.3566 92.4495 20.7137 93.3081C19.9806 93.5092 20.1999 93.5531 19.5364 93.3886C19.3216 92.4622 21.8823 87.3327 22.4353 86.1111Z" fill="var(--fill-0, #665D53)"/>
<path d="M49.6557 172.037C55.3489 172.162 61.1059 171.954 66.8037 172.081C67.5888 172.096 68.459 172.087 68.7556 172.87C68.3917 173.396 68.5084 173.232 67.8597 173.54C62.1066 173.469 56.2408 173.702 50.482 173.493C49.737 173.467 48.92 173.4 48.5967 172.68C49.0118 172.172 48.9529 172.312 49.6557 172.037Z" fill="var(--fill-0, #665D53)"/>
<path d="M24.5579 96.4459C25.5723 96.4336 29.3255 96.169 29.9259 96.6919C29.9307 97.4363 30.0403 97.2304 29.6503 97.6977C28.7817 98.009 27.1382 97.8749 26.1456 97.8461C26.1179 98.5062 26.0528 98.7542 26.2945 99.3467C27.0634 99.6183 28.1731 99.3194 29.2551 99.45C29.6851 99.9222 29.5504 99.6521 29.6546 100.298L29.4024 100.569C28.5787 100.899 27.2147 100.771 26.2825 100.742C26.1695 101.009 26.1256 101.515 26.0809 101.826C26.7909 103.052 28.326 101.893 29.9174 102.527C30.2914 103.104 30.1991 102.849 30.1419 103.63C29.5929 103.907 25.4843 103.798 24.5636 103.794C24.5397 101.345 24.5377 98.8952 24.5579 96.4459Z" fill="var(--fill-0, #665D53)"/>
<path d="M35.9521 86.103C37.086 86.1036 40.327 86.046 41.2808 86.2149C41.5692 86.8812 41.5717 86.5705 41.4246 87.1666C40.4312 87.9523 38.6665 87.219 37.4445 87.8135L37.326 88.189C38.2089 89.9098 39.6077 88.4097 40.8554 89.2364C40.9231 90.002 41.0166 89.7777 40.6614 90.3099C39.8897 90.6414 38.6491 90.478 37.7584 90.4321C37.4508 90.9521 37.3866 91.419 37.7505 91.8826C39.0419 92.3447 40.9335 91.6079 41.6601 92.5354C41.421 93.992 37.1779 93.4212 35.9551 93.3982L35.9521 86.103Z" fill="var(--fill-0, #665D53)"/>
<path d="M29.568 85.9438C30.0286 86.421 29.8328 88.8159 29.8124 89.5975C30.8533 88.4364 32.6538 86.2764 34.2351 86.0163L34.2907 86.3715C33.8989 87.3987 32.7574 88.5147 31.9922 89.3661C32.6959 90.2869 33.4035 91.2885 34.0921 92.228L34.7173 93.0448L34.6398 93.3342C31.9541 93.8381 32.2649 91.0355 30.7133 90.7772C29.6963 91.6583 30.1457 92.943 29.2711 93.668C28.6488 93.6644 28.9549 93.7271 28.3525 93.3593C28.0908 91.9122 28.2241 87.9234 28.2663 86.3565C28.5026 86.0292 29.0613 86.0369 29.568 85.9438Z" fill="var(--fill-0, #665D53)"/>
<path d="M8.98858 172.077C14.3133 171.861 19.7919 172.29 25.1316 172.132C25.9656 172.108 27.2444 172.053 27.7744 172.731L27.5891 173.145L27.0543 173.35C24.7909 173.398 9.65683 174.056 8.6757 173.127C8.45005 172.913 8.53311 172.793 8.53766 172.504L8.98858 172.077Z" fill="var(--fill-0, #665D53)"/>
<path d="M46.1568 115.824C52.3776 115.789 59.9213 115.621 66.0798 115.832C66.7166 116.319 66.9757 116.405 67.749 116.623L66.3527 116.878C65.5419 117.226 59.0036 117.033 57.8329 116.935C57.3997 116.553 56.5731 116.99 56.0431 117.153C54.4846 116.905 50.1098 117.05 48.1311 116.995C47.0646 116.595 46.2391 116.905 45.2427 116.409L45.169 116.168L46.1568 115.824Z" fill="var(--fill-0, #665D53)"/>
<path d="M58.3312 86.1297C59.7532 86.1125 63.3209 85.5864 63.9261 86.919C63.139 88.2355 61.2385 86.8909 60.0518 87.7581C59.8798 88.2998 59.945 88.5753 59.9905 89.1357C60.5285 89.5752 62.3499 89.4365 63.224 89.4512C63.2814 89.9233 63.3526 90.0965 63.1271 90.5142C62.2194 90.9384 61.0605 90.7432 59.9747 90.7133C59.9688 91.6324 60.0914 92.6568 59.597 93.353C59.0689 93.3979 58.8652 93.4692 58.4064 93.2062C58.1137 91.8272 58.2996 87.717 58.3312 86.1297Z" fill="var(--fill-0, #665D53)"/>
<path d="M51.6308 86.1431C52.6503 86.1342 56.2468 86.0353 57.0062 86.2408L57.0635 86.8808C56.1281 88.3174 54.5242 86.8865 53.0884 87.9054C52.538 90.3168 55.4577 88.7835 56.846 89.8181L56.579 90.4768C55.7128 90.9473 54.2216 90.7549 53.1972 90.7114C53.2347 91.5141 53.3514 92.3232 53.1003 93.0654C52.4741 93.5321 52.6068 93.3749 51.6291 93.3702L51.6308 86.1431Z" fill="var(--fill-0, #665D53)"/>
<path d="M15.4495 87.5055C14.6291 87.5077 13.7421 87.6483 13.1872 87.1929L13.2131 86.6108C14.0499 85.7116 18.2416 85.9879 19.3785 86.3779C19.5516 86.9168 19.5168 86.6274 19.3139 87.2828C18.5922 87.6914 18.0986 87.5105 17.1481 87.4808C17.1742 88.8367 17.1612 89.8291 17.068 91.1805C17.1699 91.8731 17.3392 92.4412 17.1018 93.0751C16.4808 93.5359 16.6632 93.3886 15.7078 93.3836C15.3468 92.5767 15.4519 88.6534 15.4495 87.5055Z" fill="var(--fill-0, #665D53)"/>
<path d="M16.3875 86.6901C16.8778 88.598 16.7087 89.5867 17.068 91.1805C17.1699 91.8731 17.3392 92.4412 17.1018 93.0751C16.4808 93.5359 16.6632 93.3886 15.7078 93.3836C16.1355 90.9934 15.5592 90.0148 16.3875 86.6901Z" fill="var(--fill-0, #665D53)"/>
<path d="M31.4557 96.4265C32.1281 96.4156 32.8005 96.4107 33.4729 96.4116C39.668 96.433 39.1416 102.432 33.2943 101.598C33.7326 101.3 34.6453 101.234 35.3474 101.015C34.9303 100.697 34.0059 100.585 33.4488 100.474C33.503 100.471 33.557 100.468 33.6112 100.465L33.8813 100.444C34.8235 100.38 35.0015 100.428 35.8068 99.9331C36.2369 99.2805 36.1683 99.6232 36.053 98.8768C35.4287 97.9819 34.4376 97.4027 33.356 97.8089C33.0463 98.2865 33.0922 99.5336 32.9648 100.358C32.4649 99.2736 32.7574 97.4082 32.6508 96.1097C32.348 97.1212 32.1216 97.8243 31.998 98.8679C31.8324 100.264 32.0405 102.684 31.6661 103.925C31.3194 103.202 31.4533 97.6333 31.4557 96.4265Z" fill="var(--fill-0, #665D53)"/>
<path d="M54.5954 96.4382C55.8631 96.416 59.8145 96.2479 60.8409 96.6017C61.011 97.1028 60.9873 97.0734 60.8726 97.5977C60.2753 97.9981 59.3794 97.8518 58.6002 97.8293L58.6299 101.637C58.6398 102.396 58.7208 102.982 58.4301 103.669C57.8605 103.882 58.1592 103.857 57.5026 103.632C56.6838 102.487 57.0062 99.433 57.0299 97.8376C56.3199 97.8565 55.8275 97.8832 55.1116 97.8049C54.5598 97.2866 54.7338 97.395 54.5954 96.4382Z" fill="var(--fill-0, #665D53)"/>
<path d="M49.4714 87.533C50.7832 89.1743 50.628 91.3521 48.8957 92.6362C47.9173 93.3538 46.6837 93.63 45.4927 93.3984C44.2009 93.1508 43.679 92.6012 42.8529 91.6986C42.875 91.1751 43.0194 90.5967 43.4715 90.3348L44.2547 90.7317C44.6091 91.509 45.3636 92.0271 46.2163 92.0785C47.0691 92.13 47.8806 91.7065 48.3259 90.9776C48.7713 90.2486 48.7778 89.3333 48.3429 88.598C48.8 88.6753 48.9177 88.7515 49.3268 88.5523L49.4714 87.533Z" fill="var(--fill-0, #665D53)"/>
<path d="M9.31015 147.073C9.32993 147.684 9.26288 148.318 9.60601 148.793C10.9587 149.03 15.7877 148.92 17.53 148.937C18.5774 149.564 22.5901 149.299 22.9971 149.597C21.8074 149.603 19.2397 149.469 18.3332 150.022C16.4842 150.164 10.6368 150.196 8.5881 149.88C8.32744 149.84 8.34227 149.616 8.2426 149.292C9.21463 149.103 9.07995 148.028 9.31015 147.073Z" fill="var(--fill-0, #665D53)"/>
<path d="M42.4178 88.9121C43.6054 85.9042 47.3139 84.7692 49.3887 87.4355L49.4714 87.533L49.3268 88.5523C48.9177 88.7515 48.8 88.6753 48.3429 88.598C48.246 88.4343 48.1294 88.2832 47.9955 88.1481C47.3138 87.4604 46.2753 87.2712 45.3946 87.674C44.5141 88.0771 43.9786 88.9866 44.0533 89.9521C43.8991 89.677 43.7409 89.4043 43.5789 89.1338C43.0016 89.1889 42.9425 89.1632 42.4178 88.9121Z" fill="var(--fill-0, #665D53)"/>
<path d="M47.9955 88.1481L48.2893 87.2158C48.6863 87.1846 49.0037 87.3194 49.3887 87.4355L49.4714 87.533L49.3268 88.5523C48.9177 88.7515 48.8 88.6753 48.3429 88.598C48.246 88.4343 48.1294 88.2832 47.9955 88.1481Z" fill="var(--fill-0, #665D53)"/>
<path d="M32.6508 96.1097C32.7574 97.4082 32.4649 99.2736 32.9648 100.358L33.4488 100.474C34.0059 100.585 34.9303 100.697 35.3474 101.015C34.6453 101.234 33.7326 101.3 33.2943 101.598C33.0643 102.302 33.0847 102.64 33.0885 103.387C32.6563 103.921 32.5424 103.825 31.6661 103.925C32.0405 102.684 31.8324 100.264 31.998 98.8679C32.1216 97.8243 32.348 97.1212 32.6508 96.1097Z" fill="var(--fill-0, #665D53)"/>
<path d="M65.6665 107.753C66.6039 107.703 67.3455 107.547 68.1327 107.992L68.4155 108.378C68.097 109.507 66.8333 109.299 65.8484 109.247C65.2927 108.927 64.5491 108.986 63.7184 108.56C64.1456 108.162 64.8141 108.149 65.3995 107.879L65.6665 107.753Z" fill="var(--fill-0, #665D53)"/>
<path d="M42.4178 88.9121C42.9425 89.1632 43.0016 89.1889 43.5789 89.1338C43.7409 89.4043 43.8991 89.677 44.0533 89.9521C44.0743 90.2217 44.1423 90.4857 44.2547 90.7317L43.4715 90.3348C43.0194 90.5967 42.875 91.1751 42.8529 91.6986C42.4024 90.6071 42.4208 90.0427 42.4178 88.9121Z" fill="var(--fill-0, #665D53)"/>
<path d="M137.352 95.1592L137.805 95.4596C138.75 98.0159 131.964 103.892 129.973 105.073C129.542 105.014 129.694 105.049 129.297 104.841C129.304 104.483 129.259 104.302 129.552 104.017C132.398 101.236 134.759 98.1257 137.352 95.1592Z" fill="var(--fill-0, #665D53)"/>
<path d="M138.815 170.421C140.674 170.637 143.051 175.075 145.628 176.188C147.566 177.027 150.046 177.498 151.838 178.465C152.091 178.601 152.034 178.912 152.058 179.268C147.278 181.057 139.846 175.31 138.815 170.421Z" fill="var(--fill-0, #665D53)"/>
<path d="M110.637 128.358C112.306 128.354 116.556 128.249 117.498 129.721C117.258 130.289 117.375 130.099 116.633 130.425C115.065 130.606 110.756 130.504 109.874 129.03C110.091 128.5 109.98 128.679 110.637 128.358Z" fill="var(--fill-0, #665D53)"/>
<path d="M123.069 128.943C124.384 128.853 125.792 128.796 126.838 129.703L126.836 130.064C126.326 130.623 125.834 130.642 125.076 130.818C123.852 130.873 122.626 130.859 121.588 130.166L121.544 129.783C122.036 129.236 122.361 129.192 123.069 128.943Z" fill="var(--fill-0, #665D53)"/>
<path d="M104.524 139.378C105.511 139.294 108.28 139.278 108.299 140.608L107.884 140.996C106.707 141.107 105.422 141.232 104.471 140.514C104.208 139.911 104.253 140.162 104.524 139.378Z" fill="var(--fill-0, #665D53)"/>
<path d="M136.644 7.49393L137.385 7.62485C137.231 8.30893 136.199 8.92182 135.58 9.37154C136.835 9.46212 137.441 8.84766 138.212 9.01536L138.382 9.28413L136.845 10.306C134.44 12.059 132.803 13.5512 130.96 15.9187C129.662 17.5869 128.007 21.8072 126.53 22.769C125.842 22.7083 126.124 22.8433 125.642 22.362C125.098 18.4905 131.84 10.7306 134.826 8.69379C135.188 8.36668 136.185 7.78228 136.644 7.49393Z" fill="var(--fill-0, #665D53)"/>
<path d="M136.644 7.49393L137.385 7.62485C137.231 8.30893 136.199 8.92182 135.58 9.37154C136.835 9.46212 137.441 8.84766 138.212 9.01536L138.382 9.28413L136.845 10.306C135.303 10.0956 135.568 10.8402 134.456 10.5977C134.294 9.94369 134.597 9.36581 134.826 8.69379C135.188 8.36668 136.185 7.78228 136.644 7.49393Z" fill="var(--fill-0, #665D53)"/>
<path d="M154.047 12.5762C154.898 12.8675 156.015 13.215 156.804 13.5967C158.07 14.1457 159.573 14.7532 160.789 15.3618C162.868 16.2701 164.64 17.1609 166.661 18.1985C164.61 19.8038 164.994 18.9311 162.672 18.6588C162.098 18.5379 159.395 17.3266 158.689 17.0244L156.157 15.8906C155.445 15.6628 153.968 14.9611 153.225 14.6312C153.804 14.5212 154.063 14.5612 154.328 14.0529C154.095 13.4389 153.982 13.228 154.047 12.5762Z" fill="var(--fill-0, #665D53)"/>
<path d="M154.047 12.5762C154.898 12.8675 156.015 13.215 156.804 13.5967L156.25 13.9386C156.403 14.7811 157.063 14.3306 157.099 15.088C156.771 15.3447 156.79 15.3768 156.385 15.4211L156.157 15.8906C155.445 15.6628 153.968 14.9611 153.225 14.6312C153.804 14.5212 154.063 14.5612 154.328 14.0529C154.095 13.4389 153.982 13.228 154.047 12.5762Z" fill="var(--fill-0, #665D53)"/>
<path d="M156.804 13.5967C158.07 14.1457 159.573 14.7532 160.789 15.3618C160.093 15.413 159.476 15.4523 158.784 15.5581C158.378 16.2118 158.641 16.0751 158.689 17.0244L156.157 15.8906L156.385 15.4211C156.79 15.3768 156.771 15.3447 157.099 15.088C157.063 14.3306 156.403 14.7811 156.25 13.9386L156.804 13.5967Z" fill="var(--fill-0, #665D53)"/>
<path d="M155.151 19.6668C153.537 19.0747 148.409 17.4239 148.007 15.6691L148.32 15.3831C150.519 14.9284 155.487 17.2121 157.583 18.226C158.103 18.4321 158.845 18.6973 159.31 18.9728C159.696 19.6438 159.881 19.7229 159.879 20.4306C159.432 20.9149 159.353 20.9187 158.73 21.1892L155.151 19.6668Z" fill="var(--fill-0, #665D53)"/>
<path d="M155.151 19.6668C154.759 18.9977 154.54 18.7861 154.943 18.0979C155.722 17.8772 156.674 18.1404 157.583 18.226C158.103 18.4321 158.845 18.6973 159.31 18.9728C159.696 19.6438 159.881 19.7229 159.879 20.4306C159.432 20.9149 159.353 20.9187 158.73 21.1892L155.151 19.6668Z" fill="var(--fill-0, #665D53)"/>
<path d="M105.459 159.589C109.846 160.561 114.333 160.629 118.75 161.302C119.07 161.351 119.303 161.615 119.499 161.85L119.479 162.214C118.047 163.314 107.955 162.218 105.954 161.537C105.586 160.894 104.158 160.774 103.106 160.368L103.148 160.231C105.064 160.157 104.059 159.979 105.459 159.589Z" fill="var(--fill-0, #665D53)"/>
<path d="M173.029 108.759C172.742 108.495 172.469 108.217 172.21 107.926C171.004 106.56 167.468 101.823 169.503 100.143L169.993 100.262C171.37 101.376 171.508 102.638 172.276 104.103C172.675 104.864 173.237 105.51 173.664 106.33L175.274 107.895C175.209 108.764 175.355 108.542 174.868 109.079C174.204 109.228 173.763 109.028 173.094 108.841L173.029 108.759Z" fill="var(--fill-0, #665D53)"/>
<path d="M173.664 106.33L175.274 107.895C175.209 108.764 175.355 108.542 174.868 109.079C174.204 109.228 173.763 109.028 173.094 108.841L173.029 108.759C172.497 107.311 172.499 107.338 173.664 106.33Z" fill="var(--fill-0, #665D53)"/>
<path d="M88.0143 232.827L88.5166 232.517C88.843 229.174 88.0044 225.079 92.0429 223.137L92.5116 223.328C92.8834 225.158 89.0803 229.277 91.8926 232.847C91.3289 233.225 91.6137 233.177 91.0501 233.15C90.9037 232.62 90.8879 232.489 90.5893 232.006C89.8338 231.904 90.1839 231.854 89.4976 232.129C89.3077 232.592 89.286 232.776 88.8627 233.041L88.0143 232.827Z" fill="var(--fill-0, #665D53)"/>
<path d="M157.336 25.1483C156.136 24.8175 151.385 22.9539 151.597 21.4843C153.405 20.1697 157.943 22.7393 159.531 23.7046C160.028 24.521 160.052 24.2959 160.061 25.1246C159.316 25.777 158.319 25.1687 157.336 25.1483Z" fill="var(--fill-0, #665D53)"/>
<path d="M100.503 147.597C100.857 146.698 101.664 142.607 101.995 142.257C103.106 143.288 101.668 144.986 102.546 146.222C102.839 148.164 103.08 148.681 103.502 150.434C103.654 151.307 103.909 151.784 103.598 152.449C102.922 152.584 102.799 152.493 102.111 152.276C101.146 150.474 100.946 149.614 100.503 147.597Z" fill="var(--fill-0, #665D53)"/>
<path d="M159.531 23.7046C161.729 24.8513 163.9 26.042 166.048 27.2761C164.149 27.2055 165.01 27.3748 163.993 28.6045C161.76 27.4786 159.541 26.3264 157.336 25.1483C158.319 25.1687 159.316 25.777 160.061 25.1246C160.052 24.2959 160.028 24.521 159.531 23.7046Z" fill="var(--fill-0, #665D53)"/>
<path d="M153.6 27.7968C152.159 27.2882 149.075 26.2794 148.824 24.6472L149.143 24.3116C150.891 23.8146 153.151 25.0419 154.787 25.7703L154.698 26.1906L155.171 26.5879C154.852 26.7724 155.016 26.7382 154.682 26.7182L153.816 27.1329L153.6 27.7968Z" fill="var(--fill-0, #665D53)"/>
<path d="M154.682 26.7182C154.12 26.7829 153.701 26.8207 153.136 26.8426C152.386 26.4344 152.534 26.6541 152.208 25.9968L152.212 26.2149C152.592 25.6768 152.366 25.8338 153.102 25.6894C153.731 25.9987 154.002 26.1123 154.698 26.1906L155.171 26.5879C154.852 26.7724 155.016 26.7382 154.682 26.7182Z" fill="var(--fill-0, #665D53)"/>
<path d="M153.225 14.6312C151.87 14.0369 147.843 13.2654 147.361 11.9091L147.651 11.6668C149.665 11.2403 152.135 11.9779 154.047 12.5762C153.982 13.228 154.095 13.4389 154.328 14.0529C154.063 14.5612 153.804 14.5212 153.225 14.6312Z" fill="var(--fill-0, #665D53)"/>
<path d="M85.382 62.4773L85.6688 62.0407C85.9911 62.2523 87.3182 63.7814 87.4724 64.1429C87.8521 65.0278 86.8317 65.2949 87.4586 66.2567C88.7658 66.2076 91.0145 63.8574 93.1682 64.5323L93.4787 64.8962C91.6612 65.4621 89.909 65.9496 88.2062 66.8192C87.1501 66.9404 85.3009 66.9584 85.0339 65.733C85.6015 65.1755 86.3214 64.7382 86.9859 64.2893C86.4243 63.7017 85.912 63.0934 85.382 62.4773Z" fill="var(--fill-0, #665D53)"/>
<path d="M131.037 83.5027C131.828 83.3069 131.86 83.1631 132.554 83.4003C133.347 84.9314 130.989 87.3503 129.198 86.9085C128.648 86.4779 128.67 86.5086 128.46 85.8403C129.471 85.0953 130.157 84.3802 131.037 83.5027Z" fill="var(--fill-0, #665D53)"/>
<path d="M163.172 208.555C162.144 209.338 159.8 210.61 158.499 210.406L158.309 210.108C158.746 208.879 161.096 207.598 162.261 206.84L162.802 207.028C163.004 207.635 163.026 207.987 163.172 208.555Z" fill="var(--fill-0, #665D53)"/>
<path d="M160.263 61.0702C160.68 64.1809 160.686 66.55 160.633 69.6957L160.382 69.0935C160.032 69.2549 160.214 69.1845 159.838 69.3033C158.588 67.5533 160.04 63.0489 160.263 61.0702Z" fill="var(--fill-0, #665D53)"/>
<path d="M56.2646 78.5826C55.6535 78.1893 55.432 78.1624 54.7378 78.0059L54.5242 77.9593L54.803 77.6717C56.6166 77.2514 61.2602 77.8706 63.4673 77.98C62.9491 78.1558 62.429 78.3202 61.9029 78.4731C59.9905 78.6261 58.1453 78.5092 56.2646 78.5826Z" fill="var(--fill-0, #665D53)"/>
<path d="M172.976 150.109C173.203 149.097 173.411 147.691 174.024 146.91L174.475 146.644C175.905 147.495 174.756 150.868 174.328 152.08C174.319 151.424 174.413 149.81 174.105 149.406L173.739 149.431C173.522 149.715 173.488 149.747 173.207 149.947L172.976 150.109Z" fill="var(--fill-0, #665D53)"/>
<path d="M155.936 66.2108C155.366 65.0831 153.79 62.4712 154.059 61.3321L154.397 61.2417C155.436 61.6267 156.063 62.2732 156.709 63.1304C155.461 64.0185 156.049 64.6318 155.936 66.2108Z" fill="var(--fill-0, #665D53)"/>
<path d="M145.925 110.77L145.314 111.391C144.523 112.19 143.894 113.072 142.794 113.076L142.727 112.699C143.291 111.098 143.825 110.715 145.053 109.589C145.379 110.119 145.514 110.304 145.925 110.77Z" fill="var(--fill-0, #665D53)"/>
<path d="M159.674 216.357C160.453 215.131 161.448 213.927 163 215.016C163.548 215.402 163.661 216.234 163.898 216.826C163.372 216.464 162.664 215.849 162.148 215.43C161.297 215.687 160.498 216.027 159.674 216.357Z" fill="var(--fill-0, #665D53)"/>
<path d="M118.259 63.6373C118.259 62.632 118.093 62.7307 118.633 62.0391C119.254 61.8348 118.963 61.815 119.537 62.0593C120.055 63.2795 119.485 63.1735 119.015 64.0361C118.791 64.4489 119.535 64.2209 118.775 64.827C118.437 64.4167 118.403 64.1453 118.259 63.6373Z" fill="var(--fill-0, #665D53)"/>
<path d="M80.8887 91.4591C82.105 92.2247 82.0496 93.7977 81.0272 94.5949C80.7265 94.3121 80.4279 92.7264 80.4121 92.286L80.8887 91.4591Z" fill="var(--fill-0, #665D53)"/>
</g>
</svg>
