<svg width="82.3019" height="82.3019" overflow="visible" style="display: block;" viewBox="0 0 82.3019 82.3019" fill="none" xmlns="http://www.w3.org/2000/svg">
<g id="Icon" clip-path="url(#clip0_0_6)">
<path id="Vector" d="M8.23051 0.343571C12.58 0.343721 16.1174 3.88178 16.1172 8.23127V74.0721C16.1172 74.6399 15.6577 75.1012 15.0889 75.1014C14.52 75.1014 14.0596 74.64 14.0596 74.0721C14.0594 70.8571 11.4455 68.2431 8.23051 68.243C5.01539 68.243 2.40066 70.8568 2.40043 74.0721C2.40043 77.2874 5.01507 79.9022 8.23051 79.9022H75.4434C77.9415 79.9022 79.9014 77.9407 79.9014 75.4442V15.0897C79.9014 12.6699 77.8631 10.6317 75.4434 10.6317L20.5752 10.6317C20.0064 10.6315 19.5469 10.1702 19.5469 9.60236C19.5471 9.03462 20.0065 8.57419 20.5752 8.57404L75.4434 8.57404C79.0359 8.57404 81.959 11.4972 81.959 15.0897V75.4442C81.959 79.1011 79.1003 81.9598 75.4434 81.9598H8.23051C3.88092 81.9598 0.342812 78.4217 0.342812 74.0721L0.342812 8.23127C0.342812 3.88168 3.88092 0.343571 8.23051 0.343571ZM8.23051 2.40119C5.01524 2.40119 2.40043 5.01582 2.40043 8.23127L2.40043 68.7254L2.97269 68.2108C4.36969 66.9544 6.21137 66.1854 8.23051 66.1854C10.2492 66.1854 12.0889 66.9546 13.4873 68.2108L14.0596 68.7254L14.0596 8.23127C14.0596 5.01592 11.4456 2.40134 8.23051 2.40119Z" stroke="var(--stroke-0, black)" stroke-opacity="0.5" stroke-width="0.685849"/>
<path id="Vector_2" d="M23.3199 16.8037H72.7008C73.2696 16.8038 73.7291 17.2651 73.7291 17.833V72.7002C73.7291 73.2681 73.2696 73.7294 72.7008 73.7295H56.2398C55.6711 73.7293 55.2115 73.268 55.2115 72.7002C55.2116 72.1325 55.6712 71.6721 56.2398 71.6719H71.6715V49.0391H64.4703C63.9014 49.0391 63.442 48.5777 63.442 48.0098C63.4421 47.442 63.9015 46.9815 64.4703 46.9815H71.6715V18.8614H51.7818V28.8067C51.7816 29.3744 51.3222 29.8349 50.7535 29.835C50.1847 29.835 49.7244 29.3744 49.7242 28.8067V18.8614H24.3482V46.9815H49.7242V42.5235C49.7242 41.9555 50.1846 41.4942 50.7535 41.4942C51.3224 41.4942 51.7818 41.9556 51.7818 42.5235V48.0098C51.7818 48.5777 51.3223 49.039 50.7535 49.0391H24.3482V71.6719H49.7652L49.7935 71.3594C50.4747 63.8555 56.7928 57.9552 64.4703 57.9551C65.0392 57.9551 65.4996 58.4155 65.4996 58.9834V67.2139C65.4994 67.7817 65.0391 68.2422 64.4703 68.2422C63.9015 68.2421 63.4421 67.7817 63.442 67.2139V60.0479L63.0611 60.0899C56.7252 60.7934 51.782 66.1793 51.7818 72.7002C51.7818 73.2682 51.3224 73.7295 50.7535 73.7295H23.3199C22.751 73.7295 22.2906 73.2682 22.2906 72.7002V17.833C22.2906 17.2651 22.751 16.8037 23.3199 16.8037Z" stroke="var(--stroke-0, black)" stroke-opacity="0.5" stroke-width="0.685849"/>
</g>
<defs>
<clipPath id="clip0_0_6">
<rect width="82.3019" height="82.3019" fill="white"/>
</clipPath>
</defs>
</svg>
