<svg width="409.614" height="599.137" overflow="visible" style="display: block;" viewBox="0 0 409.614 599.137" fill="none" xmlns="http://www.w3.org/2000/svg">
<g id="Group 2147234737">
<g id="Bid">
<path d="M113.722 56.7921C118.08 45.4981 128.782 32.8237 137.88 25.193C157.921 8.38504 178.52 4.71475 203.827 2.3648C211.848 1.62025 215.167 -0.776782 224.717 0.253136C240.968 2.0058 245.374 7.88572 257.301 14.861C273.495 24.3341 282.066 28.2351 294.474 43.4061C315.2 68.7441 315.01 97.1596 311.863 127.998C312.318 128.26 312.766 128.537 313.203 128.829C325.964 137.221 322.671 148.725 315.465 159.407C333.948 179.184 343.258 174.978 364.8 189.031C374.553 195.393 381.107 208 383.086 219.418C385.336 232.211 380.14 244.079 372.808 254.133C351.842 282.887 313.455 289.891 284.898 267.798C267.787 254.563 262.566 241.373 259.374 220.525C250.86 225.234 243.212 235.141 233.484 239.415C226.26 242.592 225.147 248.162 223.535 255.38C231.5 255.565 243.161 256.336 246.676 264.509C249.653 265.844 252.554 267.193 255.102 269.269C264.962 277.289 292.123 316.701 297.9 328.673C301.029 335.159 303.386 342.157 304.025 349.365C304.979 360.251 302.767 371.907 295.738 380.52C293.627 383.107 290.637 385.001 288.646 387.633C287.711 388.871 287.553 389.574 287.799 391.061C289.815 391.922 290.561 391.713 292.571 391.927C310.295 394.004 327.033 389.141 339.737 376.304C343.536 372.462 349.276 362.107 355.356 362.935C361.077 363.713 361.576 374.764 360.647 379.109C357.96 391.606 348.82 403.997 338.499 411.416C321.021 424.16 299.132 429.287 277.819 425.627C274.614 430.492 270.177 436.837 267.699 441.933C268.723 446.991 269.677 450.934 272.161 455.605C276.497 463.759 279.841 455.534 285.625 459.415C294.904 465.638 310.364 474.05 310.554 486.758C310.244 496.602 309.006 498.828 311.97 508.283L312.558 508.546C322.734 513.163 326.306 522.888 329.94 532.693C337.917 532.66 374.338 531.204 378.825 534.878L378.857 535.969C374.167 541.402 338.214 536.73 330.718 538.683C329.694 540.192 329.896 539.464 330.25 541.601C334.409 545.311 396.884 541.723 407.964 543.995C409.595 545.418 409.128 544.664 409.614 546.944C404.956 552.928 339.649 546.577 329.049 549.087C327.981 550.654 327.785 550.889 327.545 552.756C332.993 555.512 379.502 550.135 385.386 555.347C384.729 564.367 329.226 554.259 321.489 561.197L321.559 562.317C326.824 565.826 382.485 561.505 387.877 565.319C388.718 567.084 388.648 566.319 388.168 568.187C383.408 572.825 323.929 566.917 312.305 569.861C310.971 571.144 311.287 570.487 311.009 572.25C315.358 574.822 347.303 570.253 352.076 575.347C352.069 577.237 352.347 576.523 350.938 577.989C347.253 579.411 309.29 578.545 303.07 578.368C301.617 579.664 299.67 581.781 298.26 583.229C306.635 583.671 320.857 582.426 328.076 583.88C329.624 585.283 329.188 584.537 329.574 586.812C325.484 591.635 301.585 587.628 293.292 589.201L292.774 589.303C283.899 590.99 275.094 596.976 263.919 598.303C252.617 599.959 232.928 599.687 223.839 592.45C206.096 578.33 219.294 552.349 237.884 546.561C240.639 545.703 246.303 544.636 247.491 543.06C247.498 542.226 247.498 539.331 246.891 539.27C239.457 538.511 230.141 539.341 225.09 532.07C219.452 523.96 211.601 514.044 212.575 503.479C193.992 488.209 195.818 478.016 182.981 462.969C161.146 472.378 159.084 487.954 156.183 509.414C160.671 514.555 165.865 519.296 163.241 526.674C160.26 535.057 153.224 544.811 145.769 549.83C143.15 551.593 138.727 549.85 136.047 548.991C133.286 555.512 131.679 562.506 130.697 569.501C148.924 569.456 184.005 569.267 203.543 570.449C204.421 570.499 204.775 571.915 205.072 572.718C203.517 576.674 199.004 575.157 195.92 575.448C187.507 576.244 132.431 573.729 128.835 575.524C127.83 577.117 127.785 577.338 127.744 579.228C131.926 581.56 166.325 575.992 170.967 581.914L170.521 583.545C164.543 588.923 122.879 580.694 120.513 588.076C122.908 589.796 127.559 587.925 130.912 589.985C131.958 591.957 131.778 591.06 131.444 593.436C128.861 595.465 121.307 594.618 117.689 594.776C112.392 595.004 106.633 595.168 101.357 595.56C90.6132 596.356 81.7628 586.199 73.2948 581.876C46.0444 567.955 3.15883 558.11 0.00346791 521.539C-0.277809 502.449 16.5912 483.529 36.0815 483.411C50.3723 483.324 59.9787 490.226 69.5465 499.697C71.2114 501.974 72.4535 504.116 75.0242 505.267L75.6916 505.028C75.1771 503.04 74.0659 501.921 72.7891 500.288C71.9952 493.037 76.3642 484.016 80.4247 478.123C83.5447 473.595 85.068 473.469 90.1588 472.724C92.0632 451.243 97.8721 440.925 107.647 421.922C104.886 415.51 100.17 409.352 97.6907 403.245C96.0725 399.258 94.2749 392.076 92.9532 387.9C88.7227 374.537 85.3119 358.133 93.7509 345.668C96.4474 341.259 100.253 337.23 103.41 333.212C114.699 318.843 123.623 306.141 129.445 288.686C133.327 277.051 143.347 265.88 155.104 261.115L156.983 254.242C139.629 254.012 123.222 251.825 107.121 245.187C105.739 249.667 103.963 253.08 101.084 256.799C94.6737 265.185 85.111 270.582 74.6184 271.736C61.9261 273.246 47.5418 267.595 37.7211 259.93C22.0493 247.23 15.1027 226.415 22.9026 207.305C28.999 192.369 40.2741 185.218 51.4841 174.564C58.3087 168.08 64.902 160.468 70.7721 153.137C66.1434 142.94 65.4235 137.77 67.1004 126.492C63.8856 123.278 60.5021 118.855 60.1032 114.292C58.8353 99.7801 83.46 100.538 91.9261 99.8294C89.2922 98.1576 86.7379 96.3639 84.2716 94.4532C66.3545 80.4869 85.4023 65.618 99.4011 59.893C104.503 57.8066 108.352 57.342 113.722 56.7921ZM153.725 306.594C165.001 308.868 176.015 308.738 187.469 308.312C192.513 294.478 197.936 282.521 207.657 271.207C209.617 268.928 214.402 264.736 214.048 262.251C200.932 274.157 197.62 278.886 176.195 279.44C170.569 279.586 162.394 274.993 159.661 275.059C158.524 276.782 158.19 277.116 158.233 279.146C163.651 288.428 188.853 280.61 193.398 284.423C193.423 289.046 180.701 290.451 176.823 290.407C174.826 290.376 172.831 290.29 170.839 290.149C164.568 289.17 162.022 288.46 156.034 285.674C153.904 293.467 153.155 298.368 153.725 306.594Z" fill="var(--fill-0, #F7ECD9)"/>
<path d="M99.3366 170.928C109.628 170.53 132.492 171.11 127.236 187.287C125.788 191.742 115.64 200.251 110.963 201.887C87.274 202.18 63.1511 175.87 99.3366 170.928ZM93.7598 182.01C98.5579 181.083 100.074 181.433 104.515 179.509L105.318 178.252C104.116 176.957 102.87 176.745 100.946 176.586C95.4297 177.05 94.4803 176.826 89.6278 179.76L88.9907 180.86L89.6632 181.847C91.5374 182.189 91.8642 182.201 93.7598 182.01Z" fill="var(--fill-0, #F7ECD9)"/>
<path d="M196.014 228.6L197.095 229.255C199.889 236.964 178.346 254.075 171.744 257.54C169.608 256.366 169.359 256.045 169.666 253.798C171.253 251.706 177.36 247.92 180.075 245.289C185.073 240.443 190.699 232.445 196.014 228.6Z" fill="var(--fill-0, #F7ECD9)"/>
<path d="M206.191 228.624C207.373 228.591 207.291 228.604 208.353 229.152C210.824 237.72 193.625 255.346 186.154 259.013C184.466 258.228 184.308 257.991 183.998 256.326C185.174 253.476 192.879 247.678 194.99 244.804C198.935 239.424 202.019 233.875 206.191 228.624Z" fill="var(--fill-0, #F7ECD9)"/>
<path d="M133.815 331.298C141.789 330.76 189.946 332.451 192.272 338.728C188.474 344.34 140.691 333.877 134.919 337.676L134.736 339.142C135.52 340.562 136.249 341.034 137.483 342.091C137.61 343.694 137.719 343.656 136.211 345.227C133.185 348.278 133.023 351.592 133.209 355.674C133.894 370.645 144.031 382.682 159.825 381.263C169.859 380.362 177.111 374.876 183.55 367.361C187.355 361.822 188.891 359.11 190.831 352.601C187.5 351.494 184.725 351.164 183 348.304C182.993 346.172 182.691 346.964 184.163 345.353C188.082 344.635 187.108 346.39 191.337 346.434C193.277 344.726 193.518 342.554 194.731 339.794C196.602 338.987 195.964 338.948 197.677 339.311C198.783 340.585 198.878 342.429 198.694 344.068C196.963 357.422 192.355 368.764 181.909 377.754C154.608 401.25 122.969 381.175 127.287 346.862C128.044 340.85 128.71 335.465 133.815 331.298Z" fill="var(--fill-0, #F7ECD9)"/>
<path d="M157.447 400.94C157.839 401.046 157.972 401.059 158.31 401.218C161.559 402.755 164.772 425.298 166.317 430.274C168.001 431.455 168.516 431.748 169.803 433.41C170.019 435.871 169.871 435.286 168.687 437.773C168.377 437.733 168.066 437.693 167.755 437.652L167.316 437.575C158.093 436.025 153.758 408.595 157.447 400.94Z" fill="var(--fill-0, #F7ECD9)"/>
<path d="M188.733 389.301L190.477 389.57C194.839 397.779 173.653 399.014 169.1 399.269C168.098 399.136 167.205 398.432 166.318 397.875L166.162 396.814C168.411 393.227 183.208 391.278 188.733 389.301Z" fill="var(--fill-0, #F7ECD9)"/>
<path d="M193.417 377.834C194.573 377.91 195.762 378.042 196.918 378.155C197.607 379.653 201.002 393.378 201.248 395.73C201.368 396.87 200.192 397.501 199.352 398.166C192.778 396.071 188.619 383.551 193.417 377.834Z" fill="var(--fill-0, #F7ECD9)"/>
<path d="M152.201 318.616C156.778 318.359 165.983 317.635 169.434 320.515C170.096 322.519 170.095 321.657 169.315 323.777C164.995 324.446 156.742 324.945 152.935 322.616C151.758 320.414 152.031 321.399 152.201 318.616Z" fill="var(--fill-0, #F7ECD9)"/>
<path d="M175.354 319.291C178.193 319.168 182.454 319.185 183.297 322.508C181.979 324.202 182.284 323.706 180.049 324.665C177.099 324.661 173.916 325.117 172.076 322.55C173.189 320.308 173.068 320.853 175.354 319.291Z" fill="var(--fill-0, #F7ECD9)"/>
<path d="M296.547 552.097C297.944 551.562 299.512 552.241 300.074 553.625C300.643 555.009 299.992 556.59 298.62 557.183C297.71 557.576 296.655 557.446 295.865 556.841C295.074 556.236 294.676 555.252 294.815 554.268C294.961 553.284 295.624 552.454 296.547 552.097Z" fill="var(--fill-0, #F7ECD9)"/>
<path d="M64.7718 224.532C66.1263 224.97 66.2123 225.094 67.3507 225.991C71.9036 234.827 55.946 250.96 48.7826 255.385C47.5627 255.144 47.1044 254.775 46.0558 254.148C45.9926 251.401 49.2826 248.696 51.4431 246.908C59.0559 240.606 60.5141 233.134 64.7718 224.532Z" fill="var(--fill-0, #F7ECD9)"/>
<path d="M54.5826 220.941L56.262 222.025C58.918 226.335 55.2343 232.67 51.9784 235.672C47.4445 231.617 51.7755 225.345 54.5826 220.941Z" fill="var(--fill-0, #F7ECD9)"/>
<path d="M288.298 497.672C290.751 499.041 290.587 498.816 291.212 500.846C290.631 502.867 289.449 503.731 287.938 505.233C286.004 504.302 285.675 503.783 285.277 501.912C285.758 499.992 286.921 499.074 288.298 497.672Z" fill="var(--fill-0, #F7ECD9)"/>
<path d="M214.048 262.251C214.402 264.736 209.617 268.928 207.657 271.207C197.936 282.521 192.513 294.478 187.469 308.312C176.015 308.738 165.001 308.868 153.725 306.594C153.155 298.368 153.904 293.467 156.034 285.674C162.022 288.46 164.568 289.17 170.839 290.149C172.831 290.29 174.826 290.376 176.823 290.407C180.701 290.451 193.423 289.046 193.398 284.423C188.853 280.61 163.651 288.428 158.233 279.146C158.19 277.116 158.524 276.782 159.661 275.059C162.394 274.993 170.569 279.586 176.195 279.44C197.62 278.886 200.932 274.157 214.048 262.251Z" fill="var(--fill-0, #F7ECD9)"/>
<path d="M271.789 79.207C264.918 77.9126 256.606 72.7715 249.849 70.0354C244.963 68.0577 232.757 65.077 231.386 60.1205L232.29 58.7104C238.452 56.6063 263.793 69.5298 269.766 73.5843C270.954 74.3946 271.814 76.4658 272.357 77.8494L271.789 79.207Z" fill="var(--fill-0, #F7ECD9)"/>
<path d="M267.876 492.609C271.725 488.413 274.45 483.445 278.64 480.484C275.429 486.546 274.146 488.427 268.938 493.147L267.876 492.609Z" fill="var(--fill-0, #F7ECD9)"/>
<path d="M248.427 336.359L248.68 339.113C247.934 340.689 243.743 343.843 242.03 344.443L241.752 343.791C243.44 340.381 246.189 339.571 248.427 336.359Z" fill="var(--fill-0, #F7ECD9)"/>
<path d="M117.814 546.086C120.749 546.859 123.528 550.13 125.646 552.333C120.302 550.331 119.214 548.72 114.884 546.459C116.053 546.637 116.678 546.377 117.814 546.086Z" fill="var(--fill-0, #F7ECD9)"/>
<path d="M141.814 559.548C150.054 559.51 202.183 558.558 205.622 560.361C207.013 562.006 206.76 561.242 206.747 563.207C205.496 564.928 206.166 564.366 203.757 565.136C194.447 565.105 141.718 566.828 137.643 563.794L137.791 562.723C139.292 560.716 139.512 560.534 141.814 559.548Z" fill="var(--fill-0, #F7ECD9)"/>
<path d="M156.651 548.876C168.632 548.74 180.614 548.724 192.595 548.829C197.247 548.853 211.431 548.049 214.294 550.765C214.604 552.651 214.395 552.821 213.548 554.646C208.726 555.19 159.65 555.028 155.864 553.993L155.158 552.409C155.38 550.553 155.352 550.176 156.651 548.876Z" fill="var(--fill-0, #F7ECD9)"/>
<path d="M338.473 522.218C343.897 522.062 359.895 520.371 363.055 524.447C363.131 526.177 363.061 526.365 362.088 527.803C356.823 527.858 340.686 529.339 337.538 525.923C337.159 523.838 337.159 524.659 338.473 522.218Z" fill="var(--fill-0, #F7ECD9)"/>
<path d="M69.5465 499.697L72.7891 500.288C74.0659 501.921 75.1771 503.04 75.6916 505.028L75.0242 505.267C72.4535 504.116 71.2114 501.974 69.5465 499.697Z" fill="var(--fill-0, #F7ECD9)"/>
</g>
<g id="Bid_2">
<path d="M113.722 56.7921C118.08 45.4981 128.782 32.8237 137.88 25.193C157.921 8.38504 178.52 4.71475 203.827 2.3648C211.848 1.62025 215.167 -0.776782 224.717 0.253136C240.968 2.0058 245.374 7.88572 257.301 14.861C273.495 24.3341 282.066 28.2351 294.474 43.4061C315.2 68.7441 315.01 97.1596 311.863 127.998C312.318 128.26 312.766 128.537 313.203 128.829C325.964 137.221 322.671 148.725 315.465 159.407C333.948 179.184 343.258 174.978 364.8 189.031C374.553 195.393 381.107 208 383.086 219.418C385.336 232.211 380.14 244.079 372.808 254.133C351.842 282.887 313.455 289.891 284.898 267.798C267.787 254.563 262.566 241.373 259.374 220.525C250.86 225.234 243.212 235.141 233.484 239.415C226.26 242.592 225.147 248.162 223.535 255.38C231.5 255.565 243.161 256.336 246.676 264.509C249.653 265.844 252.554 267.193 255.101 269.269C264.962 277.289 292.123 316.701 297.9 328.673C301.029 335.159 303.386 342.157 304.025 349.365C304.979 360.251 302.767 371.907 295.738 380.52C293.627 383.107 290.637 385.001 288.646 387.633C287.711 388.871 287.553 389.574 287.799 391.061C289.815 391.922 290.561 391.713 292.571 391.927C310.295 394.004 327.033 389.141 339.737 376.304C343.536 372.462 349.276 362.107 355.356 362.935C361.077 363.713 361.576 374.764 360.647 379.109C357.96 391.606 348.82 403.997 338.499 411.416C321.021 424.16 299.132 429.287 277.819 425.627C274.614 430.492 270.177 436.837 267.699 441.933C268.723 446.991 269.677 450.934 272.161 455.605C276.498 463.759 279.841 455.534 285.625 459.415C294.904 465.638 310.364 474.05 310.554 486.758C310.244 496.602 309.006 498.828 311.97 508.283L312.558 508.546C322.734 513.163 326.306 522.888 329.94 532.693C337.917 532.66 374.338 531.204 378.825 534.878L378.857 535.969C374.167 541.402 338.214 536.73 330.718 538.683C329.694 540.192 329.896 539.464 330.25 541.601C334.409 545.311 396.884 541.723 407.964 543.995C409.595 545.418 409.128 544.664 409.614 546.944C404.956 552.928 339.649 546.577 329.049 549.087C327.981 550.654 327.785 550.889 327.545 552.756C332.993 555.512 379.502 550.135 385.386 555.347C384.729 564.367 329.226 554.259 321.489 561.197L321.559 562.317C326.824 565.826 382.485 561.505 387.877 565.319C388.718 567.084 388.648 566.319 388.168 568.187C383.408 572.825 323.929 566.917 312.305 569.861C310.971 571.144 311.287 570.487 311.009 572.25C315.358 574.822 347.303 570.253 352.076 575.347C352.069 577.237 352.347 576.523 350.938 577.989C347.253 579.411 309.29 578.545 303.07 578.368C301.617 579.664 299.67 581.781 298.26 583.229C306.635 583.671 320.857 582.426 328.076 583.88C329.624 585.283 329.188 584.537 329.574 586.812C325.484 591.635 301.585 587.628 293.292 589.201L292.774 589.303C283.899 590.99 275.094 596.976 263.919 598.303C252.617 599.959 232.928 599.687 223.839 592.45C206.096 578.33 219.294 552.349 237.884 546.561C240.639 545.703 246.303 544.636 247.491 543.06C247.498 542.226 247.498 539.331 246.891 539.27C239.457 538.511 230.141 539.341 225.09 532.07C219.452 523.96 211.602 514.044 212.575 503.479C193.992 488.209 195.818 478.016 182.981 462.969C161.146 472.378 159.084 487.954 156.183 509.414C160.671 514.555 165.865 519.296 163.241 526.674C160.26 535.057 153.224 544.811 145.769 549.83C143.15 551.593 138.727 549.85 136.047 548.991C133.286 555.512 131.679 562.506 130.697 569.501C148.924 569.456 184.005 569.267 203.543 570.449C204.421 570.499 204.775 571.915 205.072 572.718C203.517 576.674 199.004 575.157 195.92 575.448C187.507 576.244 132.431 573.729 128.835 575.524C127.83 577.117 127.785 577.338 127.744 579.228C131.926 581.56 166.325 575.992 170.967 581.914L170.521 583.545C164.543 588.923 122.879 580.694 120.513 588.076C122.908 589.796 127.559 587.925 130.912 589.985C131.958 591.957 131.778 591.06 131.444 593.436C128.861 595.465 121.307 594.618 117.689 594.776C112.392 595.004 106.633 595.168 101.357 595.56C90.6132 596.356 81.7628 586.199 73.2948 581.876C46.0444 567.955 3.15883 558.11 0.00346791 521.539C-0.277809 502.449 16.5912 483.529 36.0815 483.411C50.3723 483.324 59.9787 490.226 69.5465 499.697C71.2114 501.974 72.4535 504.116 75.0242 505.267L75.6916 505.028C75.1771 503.04 74.0659 501.921 72.7891 500.288C71.9952 493.037 76.3642 484.016 80.4247 478.123C83.5447 473.595 85.068 473.469 90.1588 472.724C92.0632 451.243 97.8721 440.925 107.647 421.922C104.886 415.51 100.17 409.352 97.6907 403.245C96.0725 399.258 94.2749 392.076 92.9532 387.9C88.7227 374.537 85.3119 358.133 93.7509 345.668C96.4474 341.259 100.253 337.23 103.41 333.212C114.699 318.843 123.623 306.141 129.445 288.686C133.327 277.051 143.347 265.88 155.104 261.115L156.983 254.242C139.629 254.012 123.222 251.825 107.121 245.187C105.739 249.667 103.963 253.08 101.084 256.799C94.6737 265.185 85.111 270.582 74.6184 271.736C61.9261 273.246 47.5418 267.595 37.7211 259.93C22.0493 247.23 15.1027 226.416 22.9026 207.305C28.999 192.369 40.2741 185.218 51.4841 174.564C58.3087 168.08 64.902 160.468 70.7721 153.137C66.1434 142.94 65.4235 137.77 67.1004 126.492C63.8856 123.278 60.5021 118.855 60.1032 114.292C58.8353 99.7801 83.46 100.538 91.9261 99.8294C89.2922 98.1576 86.738 96.3639 84.2716 94.4532C66.3545 80.4869 85.4023 65.618 99.4011 59.893C104.503 57.8066 108.352 57.342 113.722 56.7921ZM154.398 143.47C147.527 140.681 144.036 140.333 136.636 140.269C132.266 149.513 128.132 158.447 117.771 161.674C101.608 166.709 79.4285 164.937 71.0345 183.158C61.4799 203.898 73.1298 213.876 88.5963 223.809C96.2736 224.056 101.861 223.817 107.855 218.148C109.451 216.613 111.035 215.066 112.609 213.509C124.868 219.4 133.132 223.804 147.123 219.614C158.464 216.219 162.676 204.173 165.814 202.709C169.493 204.49 167.568 209.065 165.943 211.806C161.384 219.476 153.967 225.022 145.321 227.226C134.728 229.875 123.769 226.937 114.642 221.346C114.399 221.197 114.156 221.045 113.916 220.89C109.763 224.788 106.953 226.754 101.64 229.238C105.856 234.697 109.282 237.815 116.152 239.853C130.652 244.156 149.223 247.059 164.122 244.197C167.891 242.917 172.062 240.95 175.816 242.306L175.85 243.984C172.983 246.631 172.467 246.465 168.91 247.857C167.41 254.689 164.974 262.452 162.928 269.223C181.705 278.207 204.762 271.812 210.521 250.161C208.466 252.193 202.746 259.396 199.807 256.578C200.388 251.407 210.976 239.091 213.637 232.398C215.881 226.745 218.656 211.344 222.006 208.194L223.181 208.372C226.316 212.654 220.602 230.165 218.554 235.296C236.095 222.257 225.634 208.9 232.498 198.106L233.566 197.714C239.881 203.16 233.175 224.397 230.589 231.119C238.952 219.209 244.457 209.476 241.322 194.154C240.785 191.546 239.66 187.823 242.352 186.664C251.233 189.902 246.467 207.265 247.087 213.629L248.205 213.297C261.34 187.236 241.689 173.037 245.323 164.446C251.271 163.574 257.048 183.811 258.534 188.346C258.186 183.294 257.807 181.845 260 177.195C257.023 168.329 247.883 155.015 247.864 149.725L248.471 148.812C252.914 149.297 258.154 159.261 260.721 162.891C259.305 146.502 255.102 133.063 236.487 129.973C234.679 131.291 233.788 131.279 233.623 133.531C232.416 150.087 231.114 164.749 216.513 175.808C200.281 188.108 174.186 183.932 162.218 167.419C156.884 160.109 155.315 152.266 154.398 143.47ZM176.885 448.087C177.392 441.006 177.433 421.924 185.079 419.971C189.226 422.953 178.133 443.723 185.762 448.533C186.672 445.689 185.831 438.971 189.719 436.665C193.037 439.523 191.179 455.77 190.711 460.347C198.505 474.388 208.555 497.964 225.065 502.59C237.858 506.174 258.995 502.251 268.938 493.147C274.146 488.427 275.429 486.546 278.64 480.484C274.45 483.445 271.725 488.413 267.876 492.609C265.613 492.368 266.207 492.778 265.044 491.394C265.114 487.031 268.742 483.145 269.178 478.55L268.59 477.963C265.815 478.839 255.879 494.748 243.794 492.821L242.618 492.037C243.225 489.494 247.662 486.155 249.918 485.359C257.383 482.723 259.741 475.735 264.128 472.293C264.602 470.399 264.437 469.57 262.453 468.519C259.659 469.831 257.712 473.075 255.323 475.082C250.715 478.961 232.922 490.876 227.966 484.138C229.085 479.786 259.267 473.255 255.316 461.442L254.583 461.139C248.357 464.498 239.54 475.336 228.194 474.465C226.323 473.383 226.841 474.038 226.209 472.045C228.478 467.912 237.643 466.749 241.67 463.415C247.782 458.348 252.636 450.524 256.41 443.621C251.385 446.568 228.314 460.734 224.357 453.347C227.081 449.675 254.988 443.87 256.593 433.93L255.822 432.575L254.823 432.563C253.016 434.415 252.086 436.206 250.569 438.076C246.126 443.569 230.665 448.78 224.578 444.229L223.668 442.712C224.047 441.798 223.94 441.466 224.989 441.198C238.143 437.843 237.378 441.86 249.204 432.83C238.263 436.686 228.845 439.38 217.771 433.808C214.636 432.231 204.08 425.321 205.205 421.348C213.365 417.822 217.821 434.354 237.542 429.085C232.764 427.104 229.205 426.524 227.119 422.01L227.454 420.89C233.035 418.097 251.037 427.209 254.109 422.882C253.079 420.594 242.397 417.864 239.375 416.771C224.155 411.26 216.734 397.096 205.426 387.958C205.647 383.353 203.625 377.329 202.202 372.852C212.505 374.24 212.088 374.138 217.195 364.935C213.055 360 206.216 349.343 206.64 342.941C207.689 341.317 207.057 341.776 209.067 341.296C214.326 343.355 216.323 360.845 222.315 358.875C222.853 358.055 223.82 357.027 223.371 356.224C217.941 346.61 213.966 337.923 212.461 326.739C212.145 324.381 211.583 320.982 210.457 318.78L209.433 318.498C207.512 320.025 206.501 322.923 205.47 325.228C196.811 328.874 192.519 328.023 186.173 320.878L185.206 314.47C181.148 314.653 153.018 313.248 152.568 314.045C145.941 325.783 140.839 325.68 129.691 318.755C129.734 318.719 121.514 346.752 120.979 349.042C120.236 352.223 119.745 355.458 119.51 358.716C117.403 391.341 155.638 389.853 158.41 396.083C157.774 397.982 158.262 397.34 156.529 398.468C153.495 398.625 151.671 397.904 148.743 397.045C149.033 414.946 152.427 448.555 176.885 448.087ZM79.4001 496.209C102.193 503.87 108.515 505.084 128.105 521.444C130.306 519.337 130.645 519.654 131.386 517.11C130.687 514.789 126.546 512.317 124.358 510.671C124.794 508.32 124.368 509.028 125.743 507.479C132.469 506.692 137.674 518.244 141.479 512.728C139.466 509.413 134.459 510.713 134.092 505.528C135.198 503.599 135.462 503.284 137.038 501.711C122.641 488.754 108.195 481.271 88.9028 479.054C85.396 483.563 81.0486 490.742 79.4001 496.209ZM246.056 532.393C254.103 532.549 267.301 532.614 274.26 528.339L274.007 527.685C271.94 527.265 267.781 526.666 266.283 525.54C265.866 523.28 270.354 521.307 272.199 520.651C289.196 514.607 295.909 507.244 301.983 490.17C299.316 489.16 299.038 488.534 296.712 489.05C294.651 491.244 294.063 492.704 291.585 493.002L290.22 492.374C288.722 488.045 295.378 477.218 290.858 473.616C285.593 497.275 263.003 513 239.426 512.721C235.81 512.679 222.214 510.264 221.152 510.749C220.824 514.678 228.522 525.432 231.164 528.586C231.714 529.241 232.302 529.865 232.922 530.457C238.117 531.687 240.576 532.182 246.056 532.393ZM110.799 63.4602C99.6286 64.8798 94.6156 68.1677 86.1855 75.2991C93.0177 72.4858 101.239 68.8421 108.594 68.0185C130.845 65.5694 152.736 70.8413 174.055 76.6479C189.39 80.8244 204.383 84.8196 219.149 90.781C248.136 102.49 274.096 115.911 299.891 133.557C301.528 134.734 314.998 145.412 315.276 145.387C315.611 143.099 315.731 140.263 314.132 138.459C309.151 132.861 300.055 126.82 293.734 122.605C283.507 115.79 272.117 108.456 261.403 102.641C254.141 98.6955 243.534 95.2294 235.855 91.8663C204.883 78.2969 172.743 69.3901 139.296 64.4677C132.642 63.4887 117.33 62.4388 110.799 63.4602ZM153.725 306.594C165.001 308.868 176.015 308.738 187.469 308.312C192.513 294.478 197.936 282.521 207.657 271.207C209.617 268.928 214.402 264.736 214.048 262.251C200.932 274.157 197.62 278.886 176.195 279.44C170.569 279.586 162.394 274.993 159.661 275.059C158.524 276.782 158.191 277.116 158.233 279.146C163.651 288.428 188.853 280.61 193.398 284.423C193.423 289.046 180.701 290.451 176.823 290.407C174.826 290.376 172.831 290.29 170.839 290.149C164.568 289.17 162.022 288.46 156.034 285.674C153.904 293.467 153.155 298.368 153.725 306.594ZM109.129 363.935C104.683 367.133 99.353 373.585 99.5319 379.359L100.136 380.053C103.113 376.403 113.156 368.03 109.129 363.935ZM353.188 369.683C332.279 396.108 320.143 400.845 286.971 400.296C286.965 402.261 286.737 406.549 287.42 408.126C290.865 408.916 293.355 407.843 295.34 411.403C298.431 416.942 297.672 419.608 304.973 418.091C303.298 415.793 301.648 414.12 302.407 411.143C306.218 408.915 308.803 413.571 310.788 416.273C312.337 415.76 316.774 414.476 317.766 413.617C315.908 410.925 315.08 410.794 315.307 408.258C318.815 405.645 321.938 409.344 324.46 411.732C339.112 403.309 352.626 394.292 354.307 375.332C354.497 373.139 354.535 371.569 353.188 369.683ZM195.496 304.66C202.816 304.481 204.371 305.685 208.27 311.902L210.306 311.879C211.545 310.068 212.347 304.26 212.803 301.755C215.995 284.208 222.1 271.306 239.388 263.954C234.502 263.495 231.341 263.036 226.424 263.785C211.886 271.564 200.673 289.478 195.496 304.66ZM222.878 142.444C221.987 151.533 218.991 160.436 211.766 166.489C206.109 171.23 198.568 173.098 191.293 172.443C183.556 171.746 175.967 168.066 170.976 162.058C165.764 155.784 163.685 147.102 164.451 139.074C165.054 132.759 167.63 124.41 172.769 120.321C186.735 109.211 234.104 118.544 235.836 115.789C232.163 111.591 200.502 111.193 193.429 111.637C183.815 111.998 174.371 112.752 167.035 120.024C161.19 125.818 164.123 135.489 157.971 135.252C150.268 134.955 146.671 131.48 138.475 133.424L137.916 134.238C139.829 135.287 149.348 135.554 154.354 137.319L154.753 137.457C156.763 138.169 158.914 140.147 159.477 142.067C163.714 156.507 166.755 168.128 182.603 173.722C190.616 176.55 199.339 177.441 207.537 173.49C222.549 165.997 226.121 153.388 226.234 138.131C224.983 136.602 225.596 136.896 223.94 136.592C222.745 138.385 222.954 140.21 222.878 142.444ZM132.812 304.751C137.569 301.854 140.083 299.547 145.594 302.306C147.54 300.323 148.822 285.517 150.238 281.357C151.367 278.037 153.74 273.236 154.23 270.183L153.861 268.857L152.624 268.513C140.658 277.459 134.389 288.729 131.01 303.904C130.909 304.358 131.088 305.031 131.193 305.483C132.036 305.194 132.144 305.268 132.812 304.751ZM244.685 408.446C246.309 406.655 247.023 406.509 247.283 404.468C243.812 398.163 226.784 382.725 219.439 381.629C212.714 390.283 223.491 397.332 229.736 402.728C233.054 405.594 240.235 409.636 244.685 408.446ZM148.422 447.261C144.152 443.641 133.669 436.992 131.982 433.139C132.097 431.088 131.756 431.79 133.115 430.51C137.865 430.332 147.156 438.657 150.881 441.788C146.394 427.798 141.466 411.844 144.118 396.913C138.002 394.221 132.065 391.811 126.409 388.174C121.143 384.787 117.787 376.502 111.642 375.809C107.327 379.718 99.0402 389.51 102.431 395.845L103.39 395.852C106.2 392.085 112.656 381.22 117.895 384.124C118.292 385.074 118.56 385.127 118.234 385.754C113.926 394.055 109.178 394.906 105.742 404.451C109.224 410.356 116.292 419.726 113.979 426.444C110.507 436.678 103.759 444.132 100.31 454.591C92.2465 479.04 104.893 473.706 121.789 482.163C125.401 483.971 137.675 493.634 140.083 492.084C138.777 486.117 121.117 480.693 122.292 475.644C127.554 473.663 137.073 480.941 141.127 484.371L142.899 476.375L133.395 470.835C131.2 469.492 128.721 468.232 127.286 466.147L127.155 464.63C132.666 459.204 141.473 473.528 146.277 469.399C146.18 463.606 131.462 460.893 128.756 454.741C128.995 452.817 128.649 453.52 130.12 452.128C136.571 451.046 147.348 463.544 153.51 462.331C154.081 461.717 154.576 461.184 154.996 460.732C154.441 456.096 135.771 449.392 133.589 443.914L134.109 443.015C139.301 441.975 143.635 444.929 148.422 447.261ZM95.2755 370.955C96.4556 369.363 97.6926 367.74 98.8259 366.12C102.619 361.339 108.454 359.746 109.849 354.326C107.941 353.649 105.042 356.789 103.462 355.662C103.379 350.964 108.608 348.731 112.232 347.35C113.758 343.124 121.131 323.821 121.025 320.456C117.183 326.207 113.722 330.832 109.197 336.082C98.4498 348.552 92.9191 353.927 95.2755 370.955ZM225.444 374.152C225.033 377.505 226.026 378.054 229.155 379.849C237.233 384.474 243.989 393.556 251.309 398.515C250.898 389.872 233.13 376.718 225.444 374.152ZM141.463 306.527C135.393 310.347 132.751 314.475 141.055 317.856C147.735 315.184 148.869 308.398 141.463 306.527ZM304.941 92.4402C304.783 85.8416 302.059 85.3922 296.648 82.4665C296.737 89.4544 299.107 89.3223 304.941 92.4402ZM199.649 320.127C201.374 319.214 202.462 317.429 202.481 315.478C202.5 313.527 201.444 311.723 199.737 310.779C198.031 309.835 195.939 309.902 194.295 310.954C191.9 312.491 191.135 315.648 192.576 318.109C194.011 320.57 197.133 321.461 199.649 320.127ZM75.1759 128.658C73.3744 143.128 77.0184 152.503 88.6791 161.113C91.531 160.396 94.4038 159.623 97.3026 159.146L97.9947 158.444C92.0051 155.29 83.8664 158.42 79.4468 146.003C77.6998 141.096 78.3161 130.562 75.1759 128.658ZM89.4704 508.56C86.5818 511.61 83.5566 514.954 80.4506 517.751C82.2362 520.233 86.4598 524.806 83.173 527.082C82.0302 527.021 81.0195 527.079 80.2452 525.986C69.9005 511.381 59.4098 490.884 38.8633 489.934C18.0583 488.974 7.38242 505.792 6.39764 524.389L6.37993 524.785C11.2647 520.576 13.1356 519.654 19.4919 518.527C20.7017 518.312 22.3129 517.797 23.3267 517.019C24.7793 510.869 30.5173 493.295 39.3835 496.681C41.372 503.751 16.5641 513.692 41.3417 523.915C48.3395 526.802 62.7459 544.044 68.91 549.97C77.4817 558.209 86.3833 566.479 95.7641 573.9C98.0655 575.72 99.2601 578.747 101.821 579.613C100.712 576.011 97.1464 572.572 96.5042 569.583C96.9638 569.185 97.2943 568.638 97.8 568.788C105.068 570.935 107.827 576.864 115.243 580.03C111.509 573.938 103.191 569.393 103.253 565.099C105.809 563.156 107.083 566.194 109.741 564.525C111.298 560.859 109.439 559.912 111.263 557.66C113.849 557.393 118.448 560.484 121.726 561.629C118.267 556.81 112.141 553.072 112.126 549.379C112.858 547.659 113.289 547.491 114.884 546.459C119.214 548.72 120.302 550.331 125.646 552.333C123.528 550.13 120.749 546.859 117.814 546.086C116.865 544.445 116.273 543.726 116.354 541.792L117.283 540.84C121.181 540.918 123.544 542.995 126.957 544.637C123.062 540.397 118.66 537.651 117.828 532.56L118.469 531.579C120.776 531.509 123.451 533.617 125.826 534.767C123.44 531.349 120.054 528.939 116.974 526.179C107.641 517.816 101.172 512.932 89.4704 508.56ZM248.68 339.113C250.683 338.229 252.137 337.327 253.673 339.096C253.749 342.766 250.936 344.008 250.291 348.177C250.886 349.762 251.145 349.838 252.51 350.983L252.902 351.309C254.608 356.539 250.165 359.098 245.962 360.577C239.597 362.817 236.069 363.863 231.101 368.44C243.579 375.49 249.217 381.401 258.142 392.738C259.501 392.124 262.073 391.471 263.59 391.033C261.745 388.795 259.172 386.313 259.842 383.215C263.198 380.457 267.01 385.413 269.273 387.76C270.91 387.078 274.007 385.879 274.62 384.273C273.849 382.968 273.091 381.652 272.357 380.325C272.452 378.003 272.149 378.769 273.261 377.054L274.734 376.871C277.161 377.75 278.697 379.53 280.562 381.33C282.799 379.879 284.974 377.833 286.99 376.048C284.443 372.35 276.624 362.559 278.343 358.5L279.923 358.352C283.495 359.339 289.664 369.052 293.336 372.955C291.042 361.358 292.091 357.312 292.034 345.637C291.585 323.657 273.754 306.869 263.887 289.635C244.818 256.324 225.444 271.218 218.902 301.682C215.438 317.793 216.481 322.964 225.779 337.168C224.913 330.929 222.922 305.465 227.707 301.883C229.875 303.237 230.615 307.391 230.754 309.827C231.386 320.824 231.474 329.412 235.469 339.797C238.421 337.35 244.571 331.341 248.123 333.998L248.427 336.359C246.189 339.571 243.44 340.381 241.752 343.791L242.03 344.443C243.743 343.843 247.934 340.689 248.68 339.113ZM303.096 75.9722C301.212 72.9447 296.2 69.2687 295.713 67.2323C296.219 65.4158 296.882 65.0372 298.266 63.7548C298.943 59.2868 289.24 45.3376 285.012 43.98C287.464 48.9308 288.798 52.7862 290.681 57.8913C292.989 64.1498 293.892 75.0241 300.201 77.8804L301.857 77.7356C302.394 77.0739 302.761 76.7465 303.096 75.9722ZM38.943 253.006C43.7942 256.902 46.7031 258.451 52.5934 260.783C60.4572 255.424 71.0161 244.766 72.3302 235.13C73.0287 230.006 72.8706 225.991 72.767 220.813C57.736 204.289 57.3701 184.262 74.5767 168.875C76.5665 167.13 78.5916 165.424 80.6497 163.759C78.5803 161.662 77.1543 159.746 74.3169 159.086C69.6331 164.621 62.3522 173.367 57.1798 178.092C41.7564 192.185 24.4815 202.8 26.032 226.892C26.4562 233.474 30.2904 242.709 34.5702 247.928C36.6782 246.587 41.9675 242.576 43.7866 242.577L44.7076 243.445C44.8662 248.937 40.2969 248.079 38.7306 252.338L38.943 253.006ZM78.3742 225.139C78.6131 235.267 78.1631 243.18 70.8139 251.457C68.7887 253.738 64.3748 256.819 63.1846 259.263L63.6144 260.109C64.2484 260.035 65.1182 259.966 65.7161 259.82C74.1121 254.645 80.163 246.752 82.4524 237.172C83.7785 231.622 83.3892 227.838 78.3742 225.139ZM311.022 270.34C305.403 265.935 290.087 252.171 293.93 244.416L295.353 243.537C298.892 245.517 300.928 252.411 303.171 255.24C308.038 261.371 315.876 267.564 323.499 269.077L324.327 268.596C322.38 264.405 314.707 261.878 314.043 255.613C318.708 252.874 331.596 268.821 339.763 267.815L341.147 266.994C339.541 261.887 327.747 258.873 329.649 252.568C333.018 250.739 337.5 255.255 340.294 257.343C342.91 258.786 345.9 260.701 348.789 261.174C350.767 260.575 350.091 261.06 351.311 259.297C349.769 253.142 335.047 251.072 337.791 245.623C339.137 244.844 340.142 243.9 341.691 244.545C345.622 246.184 349.806 248.622 353.763 250.256C356.867 249.05 360.805 247.668 363.624 246.035C366.879 239.607 378.908 220.354 374.673 213.692C372.227 218.231 367.303 238.809 361.626 241.589C359.408 241.813 360.211 242.025 358.491 240.971C357.581 236.947 361.222 231.671 363.087 227.943C367.461 219.215 368.832 210.618 368.598 200.912C354.629 186.69 340.641 185.729 324.561 175.986C318.512 172.32 307.735 161.467 303.393 156.417C288.937 139.579 276.384 128.408 254.362 122.809C251.505 122.081 247.213 119.527 244.072 118.382L241.695 124.901C251.707 129.694 260.335 132.231 263.85 144.009C276.346 185.817 251.151 256.725 311.022 270.34ZM81.4632 107.135C73.7758 107.666 72.6791 107.629 65.7028 111.025C80.8621 109.862 111.531 107.447 124.739 116.807C134.18 123.496 127.71 141.951 120.972 148.311C119.558 149.81 117.709 151.469 116.111 152.789C113.431 154.326 110.006 156.169 107.497 157.862C116.137 155.852 122.674 152.319 127.226 144.199C148.092 106.972 106.728 105.286 81.4632 107.135ZM144.109 91.3233C127.527 92.9199 118.839 94.7136 103.08 100.838C123.03 101.416 136.851 104.516 139.095 127.098C144.86 127.102 149.947 127.056 155.611 128.465C158.849 119.499 162.374 113.121 171.61 108.826C172.907 108.236 174.221 107.686 175.552 107.178C189.687 103.331 217.992 104.251 232.378 107.043C209.276 97.0414 168.559 89.9044 144.109 91.3233ZM305.125 523.258C289.146 535.669 280.846 543.537 259.665 545.183L259.261 545.782C256.928 549.163 255.316 549.888 251.094 550.432C240.981 551.734 233.788 553.34 227.258 561.725C223.213 566.92 219.876 580.688 226.437 584.809L227.435 584.392C228.971 580.334 227.694 569.722 235.311 565.174L236.417 565.11C239.66 572.212 225.868 585.593 239.868 590.87C243.301 592.166 249.817 592.659 253.705 593.114C250.272 586.604 248.616 582.116 250.721 574.405C251.145 572.85 252.333 570.202 253.793 569.412L254.969 569.659C257.895 574.26 253.711 577.755 256.941 585.687C258.426 588.234 259.185 589.574 261.056 591.818C280.941 587.432 297.862 575.84 310.668 560.074C305.738 562.652 296.844 569.001 292.394 569.336L291.143 568.661C290.631 564.944 295.605 562.326 298.431 560.582C313.38 551.356 315.314 550.815 318.607 533.492C316.003 537.362 308.513 551.083 303.582 548.438C302.836 543.494 310.877 535.726 309.796 531.585C306.294 531.963 301.294 541.04 296.958 541.267C295.473 539.972 295.921 540.598 295.656 538.131C297.552 533.499 303.266 529.806 305.725 524.254L305.125 523.258ZM193.296 9.67504C174.364 13.6468 163.911 26.2707 156.2 43.4345C154.767 46.6238 153.55 51.4634 150.451 53.3349L149.269 53.4012C141.84 46.1289 162.937 20.5949 168.199 14.5292C147.791 23.5459 130.751 35.7747 120.642 56.4793C172.46 60.6122 219.085 76.3141 266.049 97.6577C274.386 101.446 281.598 105.527 289.158 110.597C290.252 111.329 291.092 111.244 292.135 110.699C296.781 99.7586 233.105 78.0599 227.176 72.8752C226.506 70.8817 226.595 71.728 227.34 69.3035C232.264 66.7791 258.515 80.2069 264.045 82.9544C269.361 85.5888 268.419 90.3898 274.709 88.2149C279.045 89.3779 289.354 98.9578 292.104 97.8448C293.817 89.2837 277.458 86.9224 271.789 79.207C264.918 77.9126 256.606 72.7715 249.849 70.0354C244.963 68.0577 232.757 65.077 231.386 60.1205L232.29 58.7104C238.452 56.6063 263.793 69.5298 269.766 73.5843C270.954 74.3946 271.814 76.4658 272.357 77.8494C277.237 72.3348 286.952 86.0527 290.549 83.4683C290.441 81.7485 290.176 79.5287 288.551 78.5269C273.223 69.0526 256.024 62.363 239.647 54.9169C238.427 54.3619 238.25 53.6705 237.972 52.5701C245.178 45.16 279.98 69.421 287.199 70.2389L287.856 69.4862C287.452 67.4655 286.965 65.6857 285.113 64.5271C268.521 54.1395 249.09 49.1343 231.152 41.7349C229.471 41.0435 229.338 40.4481 228.94 38.9577C229.761 37.0451 229.192 37.6393 231.101 36.7462C235.159 36.6413 238.168 38.6442 241.96 39.5917C257.503 43.4711 270.455 51.1499 284.854 57.2915C276.997 44.9975 252.94 41.2558 240.254 34.5334C236.512 32.5526 230.191 33.196 227.638 29.9852L227.549 29.1515C234.54 23.0201 268.717 39.9917 277.856 43.3188C266.567 29.7185 252.327 30.5547 237.707 23.2489C236.702 22.747 236.721 22.0157 236.556 21.0576C237.188 20.1714 238.016 18.87 239.306 19.0375C247.719 20.1316 255.677 24.7569 264.286 26.4767C251.663 18.0282 239.11 13.2783 223.7 16.357C208.53 19.5444 195.218 28.5713 186.641 41.4884C183.385 46.3672 180.525 53.2799 177.283 58.285C176.558 58.5088 175.941 58.6997 175.432 58.857L174.168 58.5341C173.04 56.1494 173.588 53.9916 174.589 51.5784C186.432 23.0409 207.442 10.089 237.245 9.31478C210.685 0.222802 181.502 18.5907 169.877 42.798C168.737 45.172 165.57 53.5453 163.154 54.0674C162.31 53.4954 161.341 53.0448 161.418 51.89C162.656 33.3647 179.231 17.7785 193.296 9.67504Z" fill="var(--fill-0, #5F2711)"/>
<path d="M99.3366 170.928C109.628 170.53 132.492 171.11 127.236 187.287C125.788 191.742 115.64 200.251 110.963 201.887C87.274 202.18 63.1511 175.87 99.3366 170.928ZM93.7598 182.01C98.5579 181.083 100.074 181.433 104.515 179.509L105.318 178.252C104.116 176.957 102.87 176.745 100.946 176.586C95.4297 177.05 94.4804 176.826 89.6278 179.76L88.9907 180.86L89.6632 181.847C91.5374 182.189 91.8642 182.201 93.7598 182.01Z" fill="var(--fill-0, #5F2711)"/>
<path d="M196.014 228.6L197.095 229.255C199.889 236.964 178.346 254.075 171.744 257.54C169.608 256.366 169.359 256.045 169.666 253.798C171.253 251.706 177.36 247.92 180.075 245.289C185.073 240.443 190.699 232.445 196.014 228.6Z" fill="var(--fill-0, #5F2711)"/>
<path d="M206.191 228.624C207.373 228.591 207.291 228.604 208.353 229.152C210.824 237.72 193.625 255.346 186.154 259.013C184.466 258.228 184.308 257.991 183.998 256.326C185.174 253.476 192.879 247.678 194.99 244.804C198.935 239.424 202.019 233.875 206.191 228.624Z" fill="var(--fill-0, #5F2711)"/>
<path d="M133.815 331.298C141.789 330.76 189.946 332.451 192.272 338.728C188.474 344.34 140.691 333.877 134.919 337.676L134.736 339.142C135.52 340.562 136.249 341.034 137.483 342.091C137.61 343.694 137.719 343.656 136.211 345.227C133.185 348.278 133.023 351.592 133.209 355.674C133.894 370.645 144.031 382.682 159.825 381.263C169.859 380.362 177.111 374.876 183.55 367.361C187.355 361.822 188.891 359.11 190.831 352.601C187.5 351.494 184.725 351.164 183 348.304C182.993 346.172 182.691 346.964 184.163 345.353C188.082 344.635 187.108 346.39 191.337 346.434C193.277 344.726 193.518 342.554 194.731 339.794C196.602 338.987 195.964 338.948 197.677 339.311C198.783 340.585 198.878 342.429 198.694 344.068C196.963 357.422 192.355 368.764 181.909 377.754C154.608 401.25 122.969 381.175 127.287 346.862C128.044 340.85 128.71 335.465 133.815 331.298Z" fill="var(--fill-0, #5F2711)"/>
<path d="M157.447 400.94C157.839 401.046 157.972 401.059 158.31 401.218C161.559 402.755 164.772 425.298 166.317 430.274C168.001 431.455 168.516 431.748 169.803 433.41C170.019 435.871 169.871 435.286 168.687 437.773C168.377 437.733 168.066 437.693 167.755 437.652L167.316 437.575C158.093 436.025 153.758 408.595 157.447 400.94Z" fill="var(--fill-0, #5F2711)"/>
<path d="M188.733 389.301L190.477 389.57C194.839 397.779 173.653 399.014 169.1 399.269C168.098 399.136 167.205 398.432 166.318 397.875L166.162 396.814C168.411 393.227 183.208 391.278 188.733 389.301Z" fill="var(--fill-0, #5F2711)"/>
<path d="M193.417 377.834C194.573 377.91 195.762 378.042 196.918 378.154C197.607 379.653 201.002 393.378 201.248 395.73C201.368 396.87 200.192 397.501 199.352 398.166C192.778 396.071 188.619 383.552 193.417 377.834Z" fill="var(--fill-0, #5F2711)"/>
<path d="M152.201 318.616C156.778 318.359 165.983 317.635 169.434 320.515C170.096 322.519 170.095 321.657 169.315 323.777C164.995 324.446 156.742 324.945 152.935 322.616C151.758 320.414 152.031 321.399 152.201 318.616Z" fill="var(--fill-0, #5F2711)"/>
<path d="M175.354 319.291C178.193 319.168 182.454 319.185 183.297 322.508C181.979 324.202 182.284 323.706 180.049 324.665C177.099 324.661 173.916 325.117 172.076 322.55C173.189 320.308 173.068 320.853 175.354 319.291Z" fill="var(--fill-0, #5F2711)"/>
<path d="M296.547 552.097C297.944 551.562 299.512 552.241 300.074 553.625C300.643 555.009 299.992 556.59 298.62 557.183C297.71 557.576 296.655 557.446 295.865 556.841C295.074 556.236 294.676 555.252 294.815 554.268C294.961 553.284 295.624 552.454 296.547 552.097Z" fill="var(--fill-0, #5F2711)"/>
<path d="M64.7718 224.532C66.1263 224.97 66.2123 225.094 67.3507 225.991C71.9036 234.827 55.946 250.96 48.7826 255.385C47.5627 255.144 47.1044 254.775 46.0558 254.148C45.9926 251.401 49.2826 248.696 51.4431 246.908C59.0559 240.606 60.5141 233.134 64.7718 224.532Z" fill="var(--fill-0, #5F2711)"/>
<path d="M54.5826 220.941L56.262 222.025C58.918 226.335 55.2343 232.67 51.9784 235.672C47.4445 231.617 51.7755 225.345 54.5826 220.941Z" fill="var(--fill-0, #5F2711)"/>
<path d="M288.299 497.672C290.751 499.041 290.587 498.816 291.212 500.846C290.631 502.867 289.449 503.731 287.938 505.233C286.004 504.302 285.675 503.783 285.277 501.912C285.758 499.992 286.921 499.074 288.299 497.672Z" fill="var(--fill-0, #5F2711)"/>
<path d="M214.048 262.251C214.402 264.736 209.617 268.928 207.657 271.207C197.936 282.521 192.513 294.478 187.469 308.312C176.015 308.738 165.001 308.868 153.725 306.594C153.155 298.368 153.904 293.467 156.034 285.674C162.022 288.46 164.568 289.17 170.839 290.149C172.831 290.29 174.826 290.376 176.823 290.407C180.701 290.451 193.423 289.046 193.398 284.423C188.853 280.61 163.651 288.428 158.233 279.146C158.191 277.116 158.524 276.782 159.661 275.059C162.394 274.993 170.569 279.586 176.195 279.44C197.62 278.886 200.932 274.157 214.048 262.251Z" fill="var(--fill-0, #5F2711)"/>
<path d="M347.531 380.166L349.193 381.268C351.823 388.571 338.322 401.328 332.26 404.159C330.446 403.228 330.06 403.153 329.504 401.3C329.978 399.07 338.037 391.822 339.959 389.509C342.405 386.572 345.06 382.971 347.531 380.166Z" fill="var(--fill-0, #5F2711)"/>
<path d="M271.789 79.207C264.918 77.9126 256.606 72.7715 249.849 70.0354C244.963 68.0577 232.757 65.077 231.386 60.1205L232.29 58.7104C238.452 56.6063 263.793 69.5298 269.766 73.5843C270.954 74.3946 271.814 76.4658 272.357 77.8494L271.789 79.207Z" fill="var(--fill-0, #5F2711)"/>
<path d="M267.876 492.609C271.725 488.413 274.45 483.445 278.64 480.484C275.429 486.546 274.146 488.427 268.938 493.147L267.876 492.609Z" fill="var(--fill-0, #5F2711)"/>
<path d="M248.427 336.359L248.68 339.113C247.934 340.689 243.743 343.843 242.03 344.443L241.752 343.791C243.44 340.381 246.189 339.571 248.427 336.359Z" fill="var(--fill-0, #5F2711)"/>
<path d="M117.814 546.086C120.749 546.859 123.528 550.13 125.646 552.333C120.302 550.331 119.214 548.72 114.884 546.459C116.053 546.637 116.678 546.377 117.814 546.086Z" fill="var(--fill-0, #5F2711)"/>
<path d="M141.814 559.548C150.054 559.51 202.183 558.558 205.622 560.361C207.013 562.006 206.76 561.242 206.747 563.207C205.496 564.928 206.166 564.366 203.757 565.136C194.447 565.105 141.718 566.828 137.643 563.794L137.791 562.723C139.292 560.716 139.512 560.534 141.814 559.548Z" fill="var(--fill-0, #5F2711)"/>
<path d="M156.651 548.876C168.632 548.74 180.614 548.724 192.595 548.829C197.247 548.853 211.431 548.049 214.294 550.765C214.604 552.652 214.395 552.821 213.548 554.646C208.726 555.19 159.65 555.028 155.864 553.993L155.158 552.409C155.38 550.553 155.352 550.176 156.651 548.876Z" fill="var(--fill-0, #5F2711)"/>
<path d="M338.473 522.218C343.896 522.062 359.895 520.371 363.055 524.447C363.131 526.177 363.061 526.365 362.088 527.803C356.823 527.858 340.686 529.339 337.538 525.923C337.159 523.838 337.158 524.659 338.473 522.218Z" fill="var(--fill-0, #5F2711)"/>
<path d="M69.5465 499.697L72.7891 500.288C74.0659 501.921 75.1771 503.04 75.6916 505.028L75.0242 505.267C72.4535 504.116 71.2114 501.974 69.5465 499.697Z" fill="var(--fill-0, #5F2711)"/>
</g>
</g>
</svg>
