<svg width="100%" height="100%" overflow="visible" style="display: block;" viewBox="0 0 22 22" fill="none" xmlns="http://www.w3.org/2000/svg">
<g id="adobeaftereffects-svgrepo-com 1" clip-path="url(#clip0_0_9)">
<path id="Vector" d="M7.82796 9.83717C7.7363 9.553 7.6538 9.278 7.56213 8.99383C7.47046 8.70967 7.38796 8.44383 7.31463 8.178C7.2413 7.92133 7.17713 7.683 7.11296 7.463H7.09463C7.01213 7.85717 6.9113 8.25133 6.78296 8.6455C6.64546 9.0855 6.50796 9.54383 6.3613 10.0022C6.24213 10.4697 6.09546 10.9005 5.95796 11.2855H8.2863C8.2313 11.093 8.15796 10.8638 8.07546 10.6255C7.99296 10.378 7.91046 10.1122 7.82796 9.83717ZM15.693 9.57133C15.1888 9.54383 14.7121 9.80967 14.4738 10.268C14.3638 10.4788 14.2996 10.6988 14.2721 10.928H16.2054C16.4437 10.928 16.6179 10.928 16.7279 10.9188C16.8012 10.9097 16.8745 10.8913 16.9387 10.8455V10.7538C16.9352 10.5942 16.9 10.4369 16.8354 10.2909C16.7707 10.1449 16.6778 10.0131 16.562 9.90321C16.4462 9.79329 16.3098 9.70737 16.1607 9.65041C16.0115 9.59345 15.8526 9.56657 15.693 9.57133ZM18.1038 0.276334H3.89546C1.7413 0.276334 -0.00037042 2.018 -0.00037042 4.17217V17.8305C-0.00037042 19.9847 1.7413 21.7263 3.89546 21.7263H18.1038C20.258 21.7263 21.9996 19.9847 21.9996 17.8305V4.17217C21.9996 2.018 20.258 0.276334 18.1038 0.276334ZM11.6505 15.4114H9.73463C9.67046 15.4206 9.6063 15.3738 9.58796 15.3106L8.8363 13.1106H5.4263L4.72963 15.2739C4.7113 15.3564 4.63796 15.4114 4.55546 15.4022H2.83213C2.7313 15.4022 2.7038 15.3472 2.7313 15.2372L5.68296 6.7755C5.71046 6.68383 5.73796 6.60133 5.77463 6.49133C5.8113 6.29883 5.82963 6.09717 5.82963 5.8955C5.82046 5.84967 5.85713 5.80383 5.90296 5.79467H8.27713C8.3413 5.79467 8.38713 5.82217 8.3963 5.868L11.7421 15.2638C11.7696 15.3647 11.743 15.4114 11.6505 15.4114ZM18.8472 11.753C18.828 11.9262 18.8188 12.0555 18.8096 12.138C18.8005 12.2022 18.7464 12.2572 18.6813 12.2572C18.6263 12.2572 18.5255 12.2663 18.3788 12.2764C18.233 12.2947 18.058 12.303 17.848 12.303C17.6372 12.303 17.4163 12.2663 17.1789 12.2663H14.273C14.3088 12.5505 14.4014 12.8347 14.5572 13.0822C14.7194 13.3289 14.9523 13.5209 15.2255 13.6331C15.5921 13.7889 15.9964 13.8714 16.3997 13.8622C16.7205 13.8522 17.0405 13.8256 17.3521 13.7614C17.6321 13.7257 17.9066 13.6548 18.1689 13.5506C18.2147 13.5148 18.2422 13.5322 18.2422 13.6239V15.0273C18.2422 15.0631 18.233 15.1007 18.223 15.1364C18.2065 15.1619 18.185 15.1837 18.1597 15.2006C17.8664 15.3289 17.5639 15.4206 17.243 15.4756C16.8113 15.5581 16.3814 15.5947 15.9414 15.5856C15.2438 15.5856 14.658 15.4756 14.1814 15.2647C13.7329 15.0695 13.3369 14.7711 13.0255 14.3939C12.733 14.0364 12.5213 13.6331 12.393 13.1931C12.2647 12.7583 12.2002 12.3072 12.2014 11.8538C12.2014 11.3597 12.2747 10.873 12.4305 10.3963C12.5772 9.938 12.8064 9.51633 13.118 9.1405C13.4205 8.77383 13.7955 8.4805 14.2263 8.26967C14.658 8.05883 15.1705 7.9855 15.7571 7.9855C16.2459 7.9741 16.7312 8.07114 17.178 8.26967C17.5538 8.43467 17.8838 8.68217 18.1405 9.003C18.3788 9.31467 18.5713 9.663 18.6914 10.048C18.8096 10.4147 18.8646 10.7905 18.8646 11.1663C18.8646 11.3863 18.8555 11.5788 18.8472 11.753Z" fill="var(--fill-0, #3B230E)"/>
</g>
<defs>
<clipPath id="clip0_0_9">
<rect width="22" height="22" fill="white"/>
</clipPath>
</defs>
</svg>
