<svg preserveAspectRatio="none" width="100%" height="100%" overflow="visible" style="display: block;" viewBox="0 0 11 17.1976" fill="none" xmlns="http://www.w3.org/2000/svg">
<path id="Vector" fill-rule="evenodd" clip-rule="evenodd" d="M2.40158 6.19726C1.07526 6.19726 0.000148936 7.27226 0.000148936 8.5985C0.000148936 9.92484 1.07531 11 2.40158 11H4.803V8.64693C4.80281 8.63085 4.80272 8.61468 4.80272 8.5985C4.80272 8.58242 4.80281 8.56625 4.803 8.55016V6.19726H2.40158ZM4.803 4.80287H2.40158C1.07531 4.80287 0.000148936 3.72771 0.000148936 2.40143C0.000148936 1.07516 1.07531 0 2.40158 0H4.803V4.80287ZM6.19738 0V4.80284L8.59822 4.80272C9.92447 4.80272 11 3.72767 11 2.40143C11 1.07516 9.92484 0 8.5985 0H6.19738ZM8.59832 6.1971C7.28499 6.19723 6.21792 7.25162 6.19738 8.56002V8.63699C6.21792 9.94557 7.28509 11 8.5985 11C9.92484 11 11 9.92484 11 8.5985C11 7.27226 9.92456 6.19712 8.59832 6.1971ZM2.40158 12.3944C1.07535 12.3944 0 13.4697 0 14.7961C0 16.1224 1.07515 17.1976 2.40143 17.1976C3.72774 17.1976 4.8029 16.1224 4.8029 14.7961L4.803 12.3944H2.40158Z" fill="var(--fill-0, #3B230E)"/>
</svg>
