<svg width="100%" height="100%" overflow="visible" style="display: block;" viewBox="0 0 21 21.0659" fill="none" xmlns="http://www.w3.org/2000/svg">
<g id="Vector">
<path d="M3.61366 10.6452C4.58691 10.6301 5.59735 10.6434 6.57291 10.6437L16.9604 10.6464C17.1977 10.6464 17.4551 10.6413 17.6906 10.6529L17.6897 17.182C17.6897 17.2905 17.6963 17.7134 17.6789 17.8059H5.16542C4.66397 17.806 4.1038 17.7939 3.60688 17.8069C3.61447 17.1906 3.60887 16.5621 3.60915 15.9451L3.61036 12.4861C3.60811 11.8725 3.6092 11.2588 3.61366 10.6452Z" fill="var(--fill-0, #3B230E)"/>
<path d="M8.97073 1.65209C8.99494 1.64782 9.05547 1.64474 9.08266 1.64251C9.21515 1.70859 9.5008 1.91522 9.63898 2.00924L14.1403 5.0689C13.8952 5.11157 13.6346 5.16887 13.3874 5.21577L11.4225 5.58702C11.3823 5.59204 11.3384 5.5944 11.2977 5.59749C11.2167 5.55024 11.0959 5.46312 11.0151 5.40836L7.18718 2.8108C6.90729 2.62081 6.50427 2.36311 6.24587 2.16051C6.33965 2.1551 6.47678 2.12346 6.57341 2.10482L7.07391 2.00964C7.69977 1.89088 8.3443 1.75993 8.97073 1.65209Z" fill="var(--fill-0, #3B230E)"/>
<path d="M12.4136 1.00261C12.5022 1.01869 13.0245 1.39047 13.1315 1.46331L17.5037 4.43415C17.3986 4.44488 17.1995 4.49151 17.0883 4.5136L16.3832 4.64859C16.2274 4.67826 16.0424 4.71821 15.8868 4.73461C15.8496 4.73068 15.8245 4.71534 15.7933 4.69429C15.4609 4.46886 15.1285 4.24258 14.7961 4.01695L11.5199 1.79297C11.2975 1.64189 11.0103 1.45681 10.8019 1.29418C10.9189 1.29283 11.1443 1.23653 11.2701 1.2155C11.6421 1.15337 12.0422 1.05361 12.4136 1.00261Z" fill="var(--fill-0, #3B230E)"/>
<path d="M4.46103 2.50758C4.51634 2.50521 4.54297 2.5106 4.59049 2.54199C4.84582 2.71061 5.10042 2.88694 5.35363 3.0586L8.64644 5.29347C8.94024 5.49298 9.2956 5.721 9.57536 5.92988C9.08052 6.04265 8.49817 6.14228 7.99765 6.23422C7.95932 6.23636 7.94095 6.23556 7.90756 6.21402C7.75417 6.11509 7.60105 6.00857 7.45026 5.90577L3.83923 3.45346L3.25311 3.05452C3.15011 2.98386 2.97998 2.85727 2.87302 2.80937C3.17032 2.74737 3.46836 2.68893 3.76705 2.63406C3.99094 2.59164 4.23701 2.54013 4.46103 2.50758Z" fill="var(--fill-0, #3B230E)"/>
<path d="M0.28594 10.6476C0.79379 10.6251 1.31976 10.6534 1.8294 10.6426C2.00396 10.6389 2.20262 10.6384 2.37531 10.6509C2.37256 10.6865 2.37286 10.7203 2.37268 10.7558L2.37087 17.6574C2.37066 17.8465 2.35869 18.3166 2.37957 18.4882C2.39663 18.6264 2.45966 18.7548 2.55855 18.8529C2.79922 19.092 3.21529 19.0307 3.53335 19.0304L18.2022 19.0351C18.43 19.033 18.5773 19.0132 18.7462 18.8445C18.9585 18.6326 18.9208 18.3788 18.9232 18.1056C18.9247 17.938 18.9227 17.7708 18.9226 17.6036L18.9232 12.4231C18.9233 11.8393 18.9316 11.2375 18.9229 10.6558C19.3712 10.6214 19.8697 10.6641 20.3227 10.6478C20.5355 10.6401 20.7875 10.6441 21 10.6531V19.0816C20.966 19.153 20.9323 19.3488 20.9061 19.4348C20.6584 20.2511 19.9257 20.8914 19.0848 21.0307C18.8186 21.0748 18.5425 21.0649 18.273 21.0649L2.87171 21.0652C2.70588 21.0652 2.55355 21.0674 2.38761 21.0521C1.83484 21.0016 1.34666 20.7635 0.955237 20.3708C0.63321 20.0491 0.414765 19.6385 0.327998 19.1916C0.26426 18.8619 0.28226 18.3871 0.282719 18.0368L0.28594 10.6476Z" fill="var(--fill-0, #3B230E)"/>
<path d="M0.282508 9.41688C0.29023 9.28303 0.285539 9.10731 0.28556 8.97082L0.285967 7.45109C0.286143 7.31918 0.28972 7.15741 0.281832 7.02858C0.272958 6.88365 0.226427 6.70032 0.201464 6.55427C0.075019 5.81451 -0.133669 5.27956 0.119346 4.53034C0.310136 3.954 0.723163 3.47772 1.26668 3.20728C1.39328 3.27709 1.59653 3.42393 1.72073 3.50831L5.81351 6.28926C5.92384 6.36425 6.11779 6.50379 6.23011 6.56089C6.50053 6.52314 6.82758 6.45927 7.09575 6.40036C7.49397 6.31286 7.75339 6.3268 8.15968 6.32731L19.4359 6.32908C19.5748 6.32891 19.717 6.32394 19.8558 6.32839C20.4025 6.34591 20.7179 6.21635 21 6.77313V9.41731L1.13538 9.41377C0.857098 9.41384 0.559746 9.40877 0.282508 9.41688Z" fill="var(--fill-0, #3B230E)"/>
<path d="M17.6015 0H18.627C18.6937 0.039457 18.8324 0.0673314 18.9122 0.097707C19.1108 0.173337 19.287 0.26288 19.4609 0.38479C19.8847 0.680175 20.1959 1.11028 20.344 1.6051C20.4843 2.08028 20.5349 2.62572 20.6458 3.10612C20.7485 3.5511 20.52 3.87002 20.0799 3.94893C19.7965 3.99975 19.5117 4.05946 19.2274 4.10668C19.0999 4.02939 18.9301 3.90614 18.8015 3.81879L14.592 0.961888C14.4754 0.882497 14.2637 0.726124 14.1501 0.670833C14.3373 0.644855 14.6156 0.581969 14.8093 0.545179L17.0983 0.11095C17.1937 0.0927667 17.5275 0.0364226 17.6015 0Z" fill="var(--fill-0, #3B230E)"/>
</g>
</svg>
