<svg preserveAspectRatio="none" width="100%" height="100%" overflow="visible" style="display: block;" viewBox="0 0 21.1735 20.2909" fill="none" xmlns="http://www.w3.org/2000/svg">
<path id="Vector" fill-rule="evenodd" clip-rule="evenodd" d="M10.5868 0C16.436 0 21.1735 4.65465 21.1735 10.4015C21.1727 14.8718 18.271 18.8418 13.9613 20.271C13.432 20.3751 13.2335 20.0505 13.2335 19.777C13.2335 19.4258 13.2467 18.3081 13.2467 16.9168C13.2467 15.9419 12.9159 15.3173 12.5321 14.9926C14.8877 14.7324 17.3623 13.8484 17.3623 9.85629C17.3623 8.71203 16.9521 7.78834 16.2772 7.0605C16.383 6.80024 16.7536 5.7345 16.1713 4.30352C16.1713 4.30352 15.2847 4.01768 13.2599 5.37014C12.3974 5.13517 11.5072 5.01707 10.6132 5.01901C9.71337 5.01901 8.81349 5.13635 7.96655 5.37014C5.94183 4.03091 5.05519 4.30352 5.05519 4.30352C4.47291 5.7345 4.84345 6.80024 4.94932 7.0605C4.27441 7.78834 3.86417 8.72527 3.86417 9.85629C3.86417 13.8351 6.3256 14.7324 8.68116 14.9926C8.37679 15.252 8.09888 15.7072 8.00625 16.3839C7.39751 16.6574 5.87566 17.0985 4.92285 15.5255C4.72435 15.2132 4.12884 14.4465 3.29513 14.4589C2.40849 14.4721 2.93783 14.9529 3.30837 15.1479C3.75831 15.3949 4.27441 16.3186 4.39351 16.6177C4.60525 17.2026 5.29339 18.3204 7.95331 17.8396C7.95331 18.7112 7.96655 19.5299 7.96655 19.777C7.96655 20.0505 7.76805 20.3628 7.23871 20.271C2.91401 18.8568 -0.00264489 14.8806 1.7998e-06 10.4024C1.7998e-06 4.65465 4.73758 0 10.5868 0Z" fill="var(--fill-0, #3B230E)"/>
</svg>
