<svg preserveAspectRatio="none" width="100%" height="100%" overflow="visible" style="display: block;" viewBox="0 0 20.9998 20.0717" fill="none" xmlns="http://www.w3.org/2000/svg">
<path id="Vector" fill-rule="evenodd" clip-rule="evenodd" d="M4.80642 18.1423C3.83342 16.8726 3.83605 14.4121 4.73555 11.6156L0.748172 9.3144C0.541496 9.19814 0.36595 9.0337 0.236461 8.83505C0.106971 8.6364 0.0273689 8.40941 0.00442166 8.1734C-0.0107208 7.98908 0.0131303 7.80363 0.0744217 7.62915C0.31414 6.94436 0.617945 6.28372 0.981797 5.65602C4.0233 0.388521 10.5333 -1.54523 15.5234 1.33527C15.9259 1.56802 16.2409 1.92152 16.4693 2.37127C17.1562 3.72315 17.0687 5.95527 16.2645 8.45602L20.2519 10.7581C20.5485 10.9296 20.7734 11.1886 20.8959 11.4861C21.0233 11.7904 21.0339 12.1309 20.9257 12.4425C20.6861 13.1274 20.3823 13.788 20.0183 14.4156C16.9768 19.6831 10.4668 21.6169 5.47667 18.7364C5.21601 18.5845 4.98817 18.3831 4.80642 18.1423ZM14.5154 12.3541C12.7015 15.4963 9.43342 17.0056 7.2153 15.7246C6.10667 15.085 5.47055 13.8679 5.33842 12.4189C5.2553 11.5133 5.36992 10.5175 5.68842 9.5139C5.8783 8.9154 6.1408 8.31515 6.47767 7.72977L6.48467 7.71752C8.29855 4.57627 11.5667 3.0669 13.7848 4.34702C14.3387 4.66727 14.7735 5.13015 15.0885 5.69452C15.9513 7.24502 15.8953 9.55765 14.8392 11.7443C14.742 11.9455 14.6362 12.1441 14.5224 12.3419L14.5154 12.3541Z" fill="var(--fill-0, #3B230E)"/>
</svg>
