<svg width="100%" height="100%" overflow="visible" style="display: block;" viewBox="0 0 25.0068 20.8326" fill="none" xmlns="http://www.w3.org/2000/svg">
<g id="Vector">
<mask id="path-1-inside-1_0_4" fill="white">
<path fill-rule="evenodd" clip-rule="evenodd" d="M23.2809 16.3274C21.8361 17.6388 19.9788 18.8045 17.7267 19.8868C17.7725 19.918 17.8163 19.9461 17.8621 19.9732L17.8809 19.9836L17.9007 19.9961C18.1257 20.1243 18.3382 20.1878 18.5684 20.1878C18.7996 20.1878 19.0121 20.1243 19.2371 19.9961L19.2559 19.9847L19.2757 19.9732C19.4215 19.8857 19.5527 19.7878 19.7882 19.592L19.9736 19.4378C20.2642 19.1961 20.4173 19.0815 20.6246 18.9628C20.9413 18.7815 21.2621 18.6857 21.6132 18.6857C21.9642 18.6857 22.285 18.7815 22.6017 18.9628L22.6257 18.9774C22.8215 19.0909 22.9736 19.2055 23.2527 19.4378L23.4382 19.592C23.6684 19.7836 23.7986 19.8815 23.9413 19.967L23.9705 19.9847L23.9892 19.9951C24.208 20.1201 24.4132 20.1836 24.635 20.1878H24.658C24.7024 20.1842 24.7471 20.1899 24.7893 20.2044C24.8314 20.219 24.8701 20.2421 24.9028 20.2723C24.9356 20.3026 24.9618 20.3393 24.9797 20.3801C24.9975 20.421 25.0068 20.4651 25.0068 20.5097C25.0068 20.5543 24.9975 20.5984 24.9797 20.6392C24.9618 20.6801 24.9356 20.7168 24.9028 20.747C24.8701 20.7772 24.8314 20.8004 24.7893 20.8149C24.7471 20.8295 24.7024 20.8351 24.658 20.8315C24.3069 20.8315 23.9861 20.7357 23.6684 20.5545C23.6368 20.5362 23.6056 20.5175 23.5746 20.4982L23.5517 20.4836L23.5288 20.4701L23.508 20.4555C23.3304 20.3345 23.16 20.2034 22.9975 20.0628L22.8319 19.9253C22.6743 19.7873 22.5061 19.6619 22.3288 19.5503L22.3007 19.5326L22.2809 19.5222C22.0797 19.3989 21.849 19.3323 21.6132 19.3295C21.3819 19.3295 21.1694 19.393 20.9455 19.5211L20.9246 19.5326L20.9059 19.544C20.76 19.6315 20.6288 19.7295 20.3934 19.9253L20.2288 20.0628C20.0604 20.2092 19.8829 20.3449 19.6975 20.469L19.6746 20.4836L19.6517 20.4982L19.558 20.5545C19.2589 20.7338 18.9171 20.8295 18.5684 20.8315C18.2173 20.8315 17.8975 20.7357 17.5798 20.5545C17.5483 20.5362 17.517 20.5175 17.4861 20.4982L17.4632 20.4836L17.4402 20.4701L17.4132 20.4524C17.2595 20.3477 17.1117 20.2347 16.9705 20.1138C16.9205 20.0904 16.8775 20.0546 16.8455 20.0097L16.7434 19.9253C16.5857 19.7873 16.4175 19.6619 16.2402 19.5503L16.2121 19.5326L16.1923 19.5222C15.9912 19.3989 15.7605 19.3323 15.5246 19.3295C15.2934 19.3295 15.0809 19.393 14.8559 19.5211L14.8371 19.5326L14.8173 19.544C14.6715 19.6315 14.5402 19.7295 14.3048 19.9253L14.1402 20.0628C13.9718 20.2092 13.7944 20.3449 13.609 20.469L13.585 20.4836L13.5621 20.4982L13.4684 20.5545C13.1696 20.7337 12.8282 20.8293 12.4798 20.8315C12.1288 20.8315 11.8079 20.7357 11.4913 20.5545C11.4597 20.5362 11.4285 20.5175 11.3975 20.4982L11.3746 20.4836L11.3517 20.4701L11.3298 20.4555C11.1523 20.3345 10.9818 20.2034 10.8194 20.0628L10.6548 19.9253C10.4972 19.7873 10.329 19.6619 10.1517 19.5503L10.1225 19.5326L10.1038 19.5222C9.90235 19.3987 9.67126 19.3321 9.43503 19.3295C9.20482 19.3295 8.99232 19.393 8.76732 19.5211L8.74753 19.5326L8.72878 19.544C8.58191 19.6315 8.4517 19.7295 8.21628 19.9253L8.0517 20.0628C7.88295 20.2092 7.70516 20.3449 7.51941 20.469L7.49649 20.4836L7.47357 20.4982L7.37982 20.5545C7.06963 20.7397 6.71399 20.8349 6.35274 20.8295C5.57566 20.7357 4.97878 20.4336 4.38399 19.9274L4.34753 19.8961C4.29857 19.8534 4.22462 19.7857 4.14753 19.7149L3.94337 19.5263L3.83191 19.4222L3.82045 19.4118C3.71646 19.3082 3.59868 19.2195 3.47045 19.1482C3.43934 19.1326 3.40593 19.122 3.37149 19.117H3.36628C3.24232 19.1399 3.11837 19.1784 2.99024 19.2315C2.96708 19.2569 2.94 19.2783 2.91003 19.2951L2.9017 19.3003C2.86097 19.3213 2.81622 19.3334 2.77045 19.3357C2.48733 19.4931 2.21767 19.6736 1.9642 19.8753L1.53087 20.2128L1.47357 20.2576C1.36361 20.343 1.25106 20.4249 1.13607 20.5034C0.818366 20.719 0.561074 20.8315 0.302741 20.8315C0.221651 20.8265 0.145456 20.791 0.0893512 20.7322C0.0332466 20.6735 0.00135683 20.5957 4.23106e-05 20.5145C-0.00127221 20.4332 0.0280852 20.3545 0.082259 20.2939C0.136433 20.2334 0.211441 20.1955 0.292324 20.1878H0.302741C0.396491 20.1878 0.547532 20.1232 0.758991 19.9815L0.800657 19.9534C0.880866 19.8972 0.970449 19.8315 1.08191 19.7461L1.48295 19.4326L1.54545 19.3836C1.82462 19.169 2.07253 18.9951 2.30587 18.8576L1.64649 17.5972C1.62178 17.5497 1.6093 17.4968 1.61018 17.4433C1.61106 17.3897 1.62529 17.3373 1.65156 17.2906C1.67783 17.244 1.71532 17.2046 1.76063 17.1761C1.80595 17.1476 1.85765 17.1309 1.91107 17.1274L23.0434 15.768C23.11 15.7636 23.1763 15.7801 23.2332 15.8151C23.29 15.8501 23.3346 15.9019 23.3606 15.9634C23.3867 16.0249 23.3931 16.0929 23.3788 16.1581C23.3645 16.2233 23.3303 16.2825 23.2809 16.3274ZM22.1163 16.4732L2.44753 17.7378L2.88816 18.5805C3.02149 18.5336 3.15482 18.4993 3.29232 18.4763C3.3102 18.4731 3.32832 18.4713 3.34649 18.4711C3.48399 18.4711 3.61732 18.5045 3.74857 18.568C3.90795 18.644 4.05482 18.7545 4.2517 18.9326L4.26837 18.9482L4.3642 19.0378L4.5142 19.1774L4.61524 19.2701C4.68295 19.3326 4.74545 19.3888 4.78191 19.4201C5.28712 19.8555 5.76941 20.1055 6.40066 20.1868H6.41212C6.63225 20.1808 6.84729 20.1192 7.03712 20.0076L7.05899 19.9961L7.07878 19.9847L7.09753 19.9732C7.24441 19.8857 7.37462 19.7878 7.61003 19.592L7.79545 19.4378C8.08607 19.1961 8.2392 19.0815 8.44649 18.9628C8.7642 18.7815 9.08399 18.6857 9.43607 18.6857C9.78607 18.6857 10.1069 18.7815 10.4236 18.9628L10.4475 18.9774C10.6434 19.0909 10.7965 19.2055 11.0757 19.4378L11.26 19.592C11.4913 19.7836 11.6204 19.8815 11.7642 19.967L11.7923 19.9847L11.8121 19.9951C12.0361 20.1243 12.2496 20.1878 12.4798 20.1878C12.7111 20.1878 12.9236 20.1243 13.1475 19.9961L13.1673 19.9847L13.1861 19.9732C13.333 19.8857 13.4642 19.7878 13.6996 19.592L13.884 19.4378C14.1757 19.1961 14.3288 19.0815 14.5361 18.9628C14.8527 18.7815 15.1736 18.6857 15.5246 18.6857C15.8757 18.6857 16.1954 18.7815 16.5132 18.9628L16.5392 18.9784C16.734 19.092 16.8871 19.2076 17.1673 19.4399C19.1121 18.5253 20.759 17.5534 22.0944 16.4899L22.1163 16.4732ZM3.78503 0.0252968C6.30587 1.10238 9.03191 3.06175 11.2298 5.4753C13.7923 8.2878 15.51 11.5461 16.06 15.0055C16.0686 15.0617 16.0623 15.1192 16.0415 15.1722C16.0208 15.2251 15.9864 15.2717 15.9419 15.3071C15.8974 15.3425 15.8443 15.3655 15.7881 15.3739C15.7318 15.3822 15.6743 15.3755 15.6215 15.3545C13.1757 14.3701 10.8923 14.044 8.75691 14.292C6.94545 14.5003 5.28087 15.117 3.74024 16.0659C3.43399 16.2555 3.09441 15.8763 3.31837 15.593C5.2517 13.1399 6.00691 10.3951 5.75899 7.47425C5.55587 5.08675 4.68503 2.67217 3.37982 0.485713C3.34566 0.427193 3.33078 0.359408 3.33727 0.291958C3.34377 0.224508 3.37132 0.160811 3.41602 0.109886C3.46073 0.0589614 3.52032 0.02339 3.58636 0.00820862C3.6524 -0.00697273 3.72154 -0.000994491 3.78399 0.0252968H3.78503ZM10.4382 2.5503C12.2902 3.11592 14.4923 4.73988 16.4611 6.97009C18.5277 9.31175 20.1611 12.1097 20.9892 14.868C21.0061 14.9251 21.0068 14.9858 20.9914 15.0433C20.9759 15.1008 20.9449 15.153 20.9016 15.1939C20.8584 15.2349 20.8047 15.2631 20.7464 15.2754C20.6882 15.2878 20.6276 15.2838 20.5715 15.2638L20.5486 15.2534L20.1465 15.093C20.046 15.0526 19.945 15.0137 19.8434 14.9763L19.8267 14.9701C19.1184 14.7128 18.5777 14.667 17.8017 14.8649C17.7198 14.8856 17.6331 14.8735 17.5601 14.831C17.487 14.7886 17.4336 14.7192 17.4111 14.6378C15.9986 9.50134 13.5975 5.49405 10.1621 3.12321C9.85899 2.91384 10.0871 2.443 10.4392 2.5503H10.4382ZM4.43087 1.03571L4.4392 1.05134C5.51003 3.07217 6.21837 5.2503 6.40274 7.41905C6.62462 10.0368 6.07982 12.5295 4.66003 14.8065L4.6392 14.8388L4.64232 14.8378C5.89024 14.2326 7.21524 13.8284 8.6267 13.6586L8.68399 13.6524C10.7475 13.4128 12.9371 13.6826 15.2559 14.5243L15.3246 14.5503L15.3173 14.5097C14.6996 11.4368 13.1215 8.53363 10.8277 5.98988L10.7548 5.90863C8.89545 3.86696 6.64649 2.15863 4.49024 1.06488L4.43087 1.03571ZM12.6809 4.40863L12.7309 4.45863C15.0611 6.84925 16.7777 10.1159 17.9121 14.0326L17.9517 14.1701L17.9746 14.1659C18.7142 14.0274 19.3121 14.1003 20.0194 14.3534L20.0475 14.3638L20.1163 14.3888L20.1642 14.4076L20.1382 14.3315C19.2934 11.9284 17.8382 9.51905 16.0382 7.4628L15.9777 7.39509C14.9152 6.19196 13.7871 5.17425 12.6965 4.42009L12.6809 4.40863Z"/>
</mask>
<path fill-rule="evenodd" clip-rule="evenodd" d="M23.2809 16.3274C21.8361 17.6388 19.9788 18.8045 17.7267 19.8868C17.7725 19.918 17.8163 19.9461 17.8621 19.9732L17.8809 19.9836L17.9007 19.9961C18.1257 20.1243 18.3382 20.1878 18.5684 20.1878C18.7996 20.1878 19.0121 20.1243 19.2371 19.9961L19.2559 19.9847L19.2757 19.9732C19.4215 19.8857 19.5527 19.7878 19.7882 19.592L19.9736 19.4378C20.2642 19.1961 20.4173 19.0815 20.6246 18.9628C20.9413 18.7815 21.2621 18.6857 21.6132 18.6857C21.9642 18.6857 22.285 18.7815 22.6017 18.9628L22.6257 18.9774C22.8215 19.0909 22.9736 19.2055 23.2527 19.4378L23.4382 19.592C23.6684 19.7836 23.7986 19.8815 23.9413 19.967L23.9705 19.9847L23.9892 19.9951C24.208 20.1201 24.4132 20.1836 24.635 20.1878H24.658C24.7024 20.1842 24.7471 20.1899 24.7893 20.2044C24.8314 20.219 24.8701 20.2421 24.9028 20.2723C24.9356 20.3026 24.9618 20.3393 24.9797 20.3801C24.9975 20.421 25.0068 20.4651 25.0068 20.5097C25.0068 20.5543 24.9975 20.5984 24.9797 20.6392C24.9618 20.6801 24.9356 20.7168 24.9028 20.747C24.8701 20.7772 24.8314 20.8004 24.7893 20.8149C24.7471 20.8295 24.7024 20.8351 24.658 20.8315C24.3069 20.8315 23.9861 20.7357 23.6684 20.5545C23.6368 20.5362 23.6056 20.5175 23.5746 20.4982L23.5517 20.4836L23.5288 20.4701L23.508 20.4555C23.3304 20.3345 23.16 20.2034 22.9975 20.0628L22.8319 19.9253C22.6743 19.7873 22.5061 19.6619 22.3288 19.5503L22.3007 19.5326L22.2809 19.5222C22.0797 19.3989 21.849 19.3323 21.6132 19.3295C21.3819 19.3295 21.1694 19.393 20.9455 19.5211L20.9246 19.5326L20.9059 19.544C20.76 19.6315 20.6288 19.7295 20.3934 19.9253L20.2288 20.0628C20.0604 20.2092 19.8829 20.3449 19.6975 20.469L19.6746 20.4836L19.6517 20.4982L19.558 20.5545C19.2589 20.7338 18.9171 20.8295 18.5684 20.8315C18.2173 20.8315 17.8975 20.7357 17.5798 20.5545C17.5483 20.5362 17.517 20.5175 17.4861 20.4982L17.4632 20.4836L17.4402 20.4701L17.4132 20.4524C17.2595 20.3477 17.1117 20.2347 16.9705 20.1138C16.9205 20.0904 16.8775 20.0546 16.8455 20.0097L16.7434 19.9253C16.5857 19.7873 16.4175 19.6619 16.2402 19.5503L16.2121 19.5326L16.1923 19.5222C15.9912 19.3989 15.7605 19.3323 15.5246 19.3295C15.2934 19.3295 15.0809 19.393 14.8559 19.5211L14.8371 19.5326L14.8173 19.544C14.6715 19.6315 14.5402 19.7295 14.3048 19.9253L14.1402 20.0628C13.9718 20.2092 13.7944 20.3449 13.609 20.469L13.585 20.4836L13.5621 20.4982L13.4684 20.5545C13.1696 20.7337 12.8282 20.8293 12.4798 20.8315C12.1288 20.8315 11.8079 20.7357 11.4913 20.5545C11.4597 20.5362 11.4285 20.5175 11.3975 20.4982L11.3746 20.4836L11.3517 20.4701L11.3298 20.4555C11.1523 20.3345 10.9818 20.2034 10.8194 20.0628L10.6548 19.9253C10.4972 19.7873 10.329 19.6619 10.1517 19.5503L10.1225 19.5326L10.1038 19.5222C9.90235 19.3987 9.67126 19.3321 9.43503 19.3295C9.20482 19.3295 8.99232 19.393 8.76732 19.5211L8.74753 19.5326L8.72878 19.544C8.58191 19.6315 8.4517 19.7295 8.21628 19.9253L8.0517 20.0628C7.88295 20.2092 7.70516 20.3449 7.51941 20.469L7.49649 20.4836L7.47357 20.4982L7.37982 20.5545C7.06963 20.7397 6.71399 20.8349 6.35274 20.8295C5.57566 20.7357 4.97878 20.4336 4.38399 19.9274L4.34753 19.8961C4.29857 19.8534 4.22462 19.7857 4.14753 19.7149L3.94337 19.5263L3.83191 19.4222L3.82045 19.4118C3.71646 19.3082 3.59868 19.2195 3.47045 19.1482C3.43934 19.1326 3.40593 19.122 3.37149 19.117H3.36628C3.24232 19.1399 3.11837 19.1784 2.99024 19.2315C2.96708 19.2569 2.94 19.2783 2.91003 19.2951L2.9017 19.3003C2.86097 19.3213 2.81622 19.3334 2.77045 19.3357C2.48733 19.4931 2.21767 19.6736 1.9642 19.8753L1.53087 20.2128L1.47357 20.2576C1.36361 20.343 1.25106 20.4249 1.13607 20.5034C0.818366 20.719 0.561074 20.8315 0.302741 20.8315C0.221651 20.8265 0.145456 20.791 0.0893512 20.7322C0.0332466 20.6735 0.00135683 20.5957 4.23106e-05 20.5145C-0.00127221 20.4332 0.0280852 20.3545 0.082259 20.2939C0.136433 20.2334 0.211441 20.1955 0.292324 20.1878H0.302741C0.396491 20.1878 0.547532 20.1232 0.758991 19.9815L0.800657 19.9534C0.880866 19.8972 0.970449 19.8315 1.08191 19.7461L1.48295 19.4326L1.54545 19.3836C1.82462 19.169 2.07253 18.9951 2.30587 18.8576L1.64649 17.5972C1.62178 17.5497 1.6093 17.4968 1.61018 17.4433C1.61106 17.3897 1.62529 17.3373 1.65156 17.2906C1.67783 17.244 1.71532 17.2046 1.76063 17.1761C1.80595 17.1476 1.85765 17.1309 1.91107 17.1274L23.0434 15.768C23.11 15.7636 23.1763 15.7801 23.2332 15.8151C23.29 15.8501 23.3346 15.9019 23.3606 15.9634C23.3867 16.0249 23.3931 16.0929 23.3788 16.1581C23.3645 16.2233 23.3303 16.2825 23.2809 16.3274ZM22.1163 16.4732L2.44753 17.7378L2.88816 18.5805C3.02149 18.5336 3.15482 18.4993 3.29232 18.4763C3.3102 18.4731 3.32832 18.4713 3.34649 18.4711C3.48399 18.4711 3.61732 18.5045 3.74857 18.568C3.90795 18.644 4.05482 18.7545 4.2517 18.9326L4.26837 18.9482L4.3642 19.0378L4.5142 19.1774L4.61524 19.2701C4.68295 19.3326 4.74545 19.3888 4.78191 19.4201C5.28712 19.8555 5.76941 20.1055 6.40066 20.1868H6.41212C6.63225 20.1808 6.84729 20.1192 7.03712 20.0076L7.05899 19.9961L7.07878 19.9847L7.09753 19.9732C7.24441 19.8857 7.37462 19.7878 7.61003 19.592L7.79545 19.4378C8.08607 19.1961 8.2392 19.0815 8.44649 18.9628C8.7642 18.7815 9.08399 18.6857 9.43607 18.6857C9.78607 18.6857 10.1069 18.7815 10.4236 18.9628L10.4475 18.9774C10.6434 19.0909 10.7965 19.2055 11.0757 19.4378L11.26 19.592C11.4913 19.7836 11.6204 19.8815 11.7642 19.967L11.7923 19.9847L11.8121 19.9951C12.0361 20.1243 12.2496 20.1878 12.4798 20.1878C12.7111 20.1878 12.9236 20.1243 13.1475 19.9961L13.1673 19.9847L13.1861 19.9732C13.333 19.8857 13.4642 19.7878 13.6996 19.592L13.884 19.4378C14.1757 19.1961 14.3288 19.0815 14.5361 18.9628C14.8527 18.7815 15.1736 18.6857 15.5246 18.6857C15.8757 18.6857 16.1954 18.7815 16.5132 18.9628L16.5392 18.9784C16.734 19.092 16.8871 19.2076 17.1673 19.4399C19.1121 18.5253 20.759 17.5534 22.0944 16.4899L22.1163 16.4732ZM3.78503 0.0252968C6.30587 1.10238 9.03191 3.06175 11.2298 5.4753C13.7923 8.2878 15.51 11.5461 16.06 15.0055C16.0686 15.0617 16.0623 15.1192 16.0415 15.1722C16.0208 15.2251 15.9864 15.2717 15.9419 15.3071C15.8974 15.3425 15.8443 15.3655 15.7881 15.3739C15.7318 15.3822 15.6743 15.3755 15.6215 15.3545C13.1757 14.3701 10.8923 14.044 8.75691 14.292C6.94545 14.5003 5.28087 15.117 3.74024 16.0659C3.43399 16.2555 3.09441 15.8763 3.31837 15.593C5.2517 13.1399 6.00691 10.3951 5.75899 7.47425C5.55587 5.08675 4.68503 2.67217 3.37982 0.485713C3.34566 0.427193 3.33078 0.359408 3.33727 0.291958C3.34377 0.224508 3.37132 0.160811 3.41602 0.109886C3.46073 0.0589614 3.52032 0.02339 3.58636 0.00820862C3.6524 -0.00697273 3.72154 -0.000994491 3.78399 0.0252968H3.78503ZM10.4382 2.5503C12.2902 3.11592 14.4923 4.73988 16.4611 6.97009C18.5277 9.31175 20.1611 12.1097 20.9892 14.868C21.0061 14.9251 21.0068 14.9858 20.9914 15.0433C20.9759 15.1008 20.9449 15.153 20.9016 15.1939C20.8584 15.2349 20.8047 15.2631 20.7464 15.2754C20.6882 15.2878 20.6276 15.2838 20.5715 15.2638L20.5486 15.2534L20.1465 15.093C20.046 15.0526 19.945 15.0137 19.8434 14.9763L19.8267 14.9701C19.1184 14.7128 18.5777 14.667 17.8017 14.8649C17.7198 14.8856 17.6331 14.8735 17.5601 14.831C17.487 14.7886 17.4336 14.7192 17.4111 14.6378C15.9986 9.50134 13.5975 5.49405 10.1621 3.12321C9.85899 2.91384 10.0871 2.443 10.4392 2.5503H10.4382ZM4.43087 1.03571L4.4392 1.05134C5.51003 3.07217 6.21837 5.2503 6.40274 7.41905C6.62462 10.0368 6.07982 12.5295 4.66003 14.8065L4.6392 14.8388L4.64232 14.8378C5.89024 14.2326 7.21524 13.8284 8.6267 13.6586L8.68399 13.6524C10.7475 13.4128 12.9371 13.6826 15.2559 14.5243L15.3246 14.5503L15.3173 14.5097C14.6996 11.4368 13.1215 8.53363 10.8277 5.98988L10.7548 5.90863C8.89545 3.86696 6.64649 2.15863 4.49024 1.06488L4.43087 1.03571ZM12.6809 4.40863L12.7309 4.45863C15.0611 6.84925 16.7777 10.1159 17.9121 14.0326L17.9517 14.1701L17.9746 14.1659C18.7142 14.0274 19.3121 14.1003 20.0194 14.3534L20.0475 14.3638L20.1163 14.3888L20.1642 14.4076L20.1382 14.3315C19.2934 11.9284 17.8382 9.51905 16.0382 7.4628L15.9777 7.39509C14.9152 6.19196 13.7871 5.17425 12.6965 4.42009L12.6809 4.40863Z" fill="var(--fill-0, #3B230E)" stroke="var(--stroke-0, #3B230E)" stroke-width="10" mask="url(#path-1-inside-1_0_4)"/>
</g>
</svg>
