<svg preserveAspectRatio="none" width="100%" height="100%" overflow="visible" style="display: block;" viewBox="0 0 18.3641 18.3641" fill="none" xmlns="http://www.w3.org/2000/svg">
<path id="Vector" d="M15.3034 0H3.06069C1.3773 0 0 1.3773 0 3.06069V15.3034C0 16.9868 1.3773 18.3641 3.06069 18.3641H15.3034C16.9868 18.3641 18.3641 16.9868 18.3641 15.3034V3.06069C18.3641 1.3773 16.9868 0 15.3034 0ZM8.79854 9.34461C8.16116 9.982 7.1594 10.2813 6.02765 10.2813C5.72844 10.2813 5.45528 10.2682 5.24709 10.2292V13.5335H3.66013V4.88258C4.2325 4.77854 5.02608 4.70041 6.10567 4.70041C7.27659 4.70041 8.13517 4.94759 8.69458 5.41596C9.21495 5.84531 9.55312 6.53473 9.55312 7.35429C9.55309 8.18689 9.29293 8.87628 8.79854 9.34461ZM12.1282 13.6637C11.3607 13.6637 10.6712 13.4815 10.2029 13.2213L10.5151 12.0635C10.8793 12.2847 11.5689 12.5189 12.1412 12.5189C12.8436 12.5189 13.156 12.2327 13.156 11.8163C13.156 11.3871 12.8958 11.1659 12.1152 10.8927C10.8793 10.4634 10.3591 9.78697 10.3721 9.04543C10.3721 7.92666 11.2957 7.05511 12.7656 7.05511C13.4682 7.05511 14.0796 7.23727 14.4437 7.43231L14.1316 8.56409C13.8584 8.40805 13.351 8.19986 12.7916 8.19986C12.2192 8.19986 11.907 8.47306 11.907 8.86327C11.907 9.26663 12.2062 9.4618 13.0128 9.74798C14.1576 10.1642 14.691 10.7496 14.704 11.6863C14.7039 12.8311 13.8064 13.6637 12.1282 13.6637ZM7.95297 7.4193C7.95297 8.44704 7.22441 9.03242 6.02765 9.03242C5.70246 9.03242 5.44227 9.01941 5.24709 8.96741V6.00135C5.41628 5.96236 5.72847 5.92333 6.17083 5.92333C7.27659 5.92333 7.95297 6.4437 7.95297 7.4193Z" fill="var(--fill-0, #3B230E)"/>
</svg>
