<svg preserveAspectRatio="none" width="100%" height="100%" overflow="visible" style="display: block;" viewBox="0 0 25 12.4979" fill="none" xmlns="http://www.w3.org/2000/svg">
<path id="Vector" fill-rule="evenodd" clip-rule="evenodd" d="M14.8458 2.34375H20.7042C20.7958 2.34375 20.8875 2.35 20.975 2.3625L14.8604 8.47708C14.8473 8.38565 14.8407 8.29341 14.8406 8.20104V2.34375H12.4969V8.20104C12.4967 8.76535 12.6078 9.32416 12.8237 9.84555C13.0396 10.3669 13.3561 10.8407 13.7551 11.2397C14.1541 11.6387 14.6279 11.9552 15.1492 12.1711C15.6706 12.387 16.2294 12.4981 16.7937 12.4979H22.6521V10.1542H16.7937C16.7 10.1542 16.6073 10.1479 16.5177 10.1354L22.6365 4.01562C22.6501 4.10876 22.657 4.20275 22.6573 4.29688V10.1542H25V4.29583C25 3.7317 24.8889 3.17308 24.673 2.65189C24.4571 2.13069 24.1407 1.65713 23.7418 1.25822C23.3429 0.859315 22.8693 0.542887 22.3481 0.327001C21.8269 0.111115 21.2683 0 20.7042 0H14.8458V2.34375ZM0 1.5625V1.56875L8.00625 11.7646C8.96875 12.9896 10.9365 12.3094 10.9365 10.751V1.5625H8.59375V8.71875L2.975 1.5625H0Z" fill="var(--fill-0, #3B230E)"/>
</svg>
