<svg preserveAspectRatio="none" width="100%" height="100%" overflow="visible" style="display: block;" viewBox="0 0 19 19" fill="none" xmlns="http://www.w3.org/2000/svg">
<g id="Vector">
<path d="M0.18077 6.62572C0.18077 6.62572 -0.282 6.28854 0.273323 5.83831L1.56715 4.66889C1.56715 4.66889 1.93737 4.27518 2.32879 4.61821L14.2683 13.7553V18.1367C14.2683 18.1367 14.2625 18.8248 13.389 18.7488L0.18077 6.62572Z" fill="var(--fill-0, #3B230E)"/>
<path d="M3.25817 9.44971L0.180747 12.2777C0.180747 12.2777 -0.13548 12.5155 0.180747 12.9404L1.60955 14.254C1.60955 14.254 1.94891 14.6224 2.45025 14.2033L5.71277 11.7028L3.25817 9.44971Z" fill="var(--fill-0, #3B230E)"/>
<path d="M8.66079 9.4731L14.3046 5.11698L14.268 0.758891C14.268 0.758891 14.0269 -0.192249 13.2229 0.302812L5.71254 7.21223L8.66079 9.4731Z" fill="var(--fill-0, #3B230E)"/>
<path d="M13.3888 18.7546C13.7165 19.0936 14.1138 18.9826 14.1138 18.9826L18.5122 16.7919C19.0753 16.4039 18.9962 15.9225 18.9962 15.9225V2.84053C18.9962 2.26556 18.4138 2.06675 18.4138 2.06675L14.6016 0.209308C13.7686 -0.311089 13.2229 0.302812 13.2229 0.302812C13.2229 0.302812 13.9247 -0.207838 14.268 0.758891L14.2681 18.0568C14.2681 18.1757 14.243 18.2926 14.1928 18.3978C14.0925 18.6025 13.8747 18.7935 13.3521 18.7136L13.3888 18.7546Z" fill="var(--fill-0, #3B230E)"/>
</g>
</svg>
