<svg preserveAspectRatio="none" width="100%" height="100%" overflow="visible" style="display: block;" viewBox="0 0 21 21.0007" fill="none" xmlns="http://www.w3.org/2000/svg">
<g id="icons">
<path id="wordpress-[#139]" fill-rule="evenodd" clip-rule="evenodd" d="M19.7137 5.46226C19.7589 5.79721 19.7841 6.15508 19.7841 6.54148C19.7841 8.38738 19.6129 8.4914 15.7783 19.5762C18.9 17.7555 21 14.3735 21 10.5C21 8.67405 20.5338 6.95746 19.7137 5.46226ZM10.6848 11.4188L7.53375 20.5724C9.66 21.1982 11.9133 21.1345 13.987 20.4058C13.9587 20.3606 13.9335 20.3121 13.9125 20.2607L10.6848 11.4188ZM17.5886 9.96987C17.5886 8.67207 17.1223 7.77296 16.7223 7.07366C16.191 6.20846 15.6912 5.47689 15.6912 4.61169C15.6912 3.64674 16.4241 2.74805 17.4552 2.74805C17.5014 2.74805 17.5455 2.75415 17.5907 2.75625C15.7227 1.04475 13.2342 0 10.5 0C6.83235 0 3.60465 1.88143 1.72725 4.73218C2.3961 4.75318 3.29384 4.76182 5.20169 4.61272C5.76764 4.57912 5.83381 5.41046 5.26891 5.47661C5.26891 5.47661 4.6998 5.54401 4.06665 5.57761L7.89075 16.9512L10.1882 10.0591L8.55225 5.57659C7.98735 5.54404 7.45185 5.47661 7.45185 5.47661C6.8859 5.44301 6.95205 4.57809 7.518 4.61169C9.68835 4.77864 10.7992 4.79124 13.0819 4.61169C13.6479 4.57809 13.7151 5.40941 13.1491 5.47661C13.1491 5.47661 12.579 5.54404 11.9469 5.57659L15.7416 16.8641C17.24 11.8577 17.5886 11.0199 17.5886 9.96987ZM0 10.5C0 14.6559 2.415 18.248 5.9178 19.95L0.909297 6.22668C0.326547 7.53289 0 8.9775 0 10.5Z" fill="var(--fill-0, #3B230E)"/>
</g>
</svg>
